<svg width="22" height="19" viewBox="0 0 22 19" fill="none" xmlns="http://www.w3.org/2000/svg">
<path d="M1.21871 7.84864C1.36128 7.72096 1.4958 7.59796 1.63261 7.47847C2.09365 7.07549 2.55699 6.69478 3.02493 6.36092C3.34686 6.13248 3.66763 5.92631 3.99071 5.77051C3.97921 5.77051 3.96886 5.77051 3.95736 5.77285C3.94587 5.77402 3.93322 5.77871 3.92172 5.78222C3.44114 5.91225 2.95135 6.08563 2.45582 6.3C1.9051 6.54015 1.35093 6.83183 0.789863 7.21255C0.54842 7.37773 0.308127 7.55813 0.0689837 7.76196C0.0528875 7.77602 0.0344918 7.78773 0 7.81584C0.0287432 7.77133 0.0425399 7.74673 0.0574864 7.72564C0.596709 6.98646 1.16237 6.30469 1.74644 5.66274C2.9525 4.33667 3.61934 3.22263 4.89669 2.32413C5.61642 1.8169 6.44882 1.27804 7.16395 0.933635C8.57927 0.256543 10.2648 0.0409978 11.5421 0.00351177C12.678 -0.0292886 13.4955 0.168685 14.4682 0.55526C14.7843 0.680604 15.0936 0.818834 15.396 0.973464C15.6145 1.08592 15.8168 1.23118 16.0215 1.37175C16.3227 1.57793 16.7182 1.82042 16.9861 2.08282C17.2149 2.31008 17.5517 2.54905 17.7644 2.79857C17.9564 3.02348 18.2577 3.26011 18.4336 3.50846C18.6267 3.78141 18.8084 4.07075 18.9901 4.36127C19.2085 4.71153 19.4063 5.09107 19.5948 5.48234C19.9708 6.26252 20.2938 7.10127 20.5686 7.99625C20.8733 8.99314 21.1148 10.0521 21.301 11.165C21.3504 11.4649 21.4643 11.6898 21.6505 11.814C21.7034 11.8479 21.7735 11.8515 21.8379 11.862C21.8747 11.869 21.9184 11.8597 21.9575 11.8643C22.0092 11.8702 22.015 11.9229 21.9678 12.0026C21.9357 12.0576 21.8989 12.1103 21.8609 12.1595C21.4643 12.6609 21.163 13.1143 20.7434 13.5536C19.6488 14.6957 18.9901 15.6692 17.8472 16.4822C17.0643 17.0398 16.3986 17.5083 15.6225 17.8844C14.3946 18.4795 13.2127 18.8332 12.0767 18.9539C11.3237 19.0347 10.3797 19.0031 9.68531 18.907C9.0702 18.8227 8.37347 18.6587 7.8193 18.4303C7.31917 18.2241 6.72821 17.9675 6.27866 17.6641C5.92225 17.424 5.58308 17.1557 5.25885 16.8594C4.98752 16.6098 4.60926 16.3474 4.36322 16.0569C4.09878 15.7453 3.84814 15.4126 3.61359 15.0577C3.18015 14.4017 2.80304 13.6766 2.48226 12.8776C2.04307 11.7835 1.60387 10.5734 1.39807 9.24383C1.33138 8.81508 1.28425 8.36759 1.22791 7.92947C1.22561 7.90605 1.22446 7.88262 1.22216 7.84396" fill="#618A4D"/>
</svg>
