<svg width="439" height="188" viewBox="0 0 439 188" fill="none" xmlns="http://www.w3.org/2000/svg">
<path d="M434.028 157.653C434.028 157.653 428.478 165.323 420.528 171.153C409.528 178.153 402.028 177.653 371.028 179.653C349.978 181.013 310.028 181.653 237.528 185.153C165.028 188.653 105.548 187.883 55.0284 185.153C10.6284 182.753 1.52836 157.823 2.02836 145.653C2.19836 138.483 0.428357 107.953 0.0283566 83.1526C-0.471643 52.1526 5.02836 36.6526 16.0284 22.6526C27.0284 8.65258 49.5284 5.65258 64.0284 5.65258C78.5284 5.65258 144.528 5.65258 181.528 2.15258C218.528 -1.34742 324.388 0.282583 371.028 5.65258C427.528 12.1526 438.528 63.1526 438.528 73.1526C438.528 83.1526 438.028 122.653 438.528 134.653C438.928 144.253 435.698 153.983 434.028 157.653Z" fill="#F07F39"/>
</svg>
