<svg width="140" height="158" viewBox="0 0 140 158" fill="none" xmlns="http://www.w3.org/2000/svg">
<path d="M44.0978 35.78C33.9328 36.58 23.8768 40.463 16.4848 47.473C9.1838 54.392 4.82882 63.938 2.47482 73.712C-2.28118 93.478 1.14681 115.762 14.2668 131.291C22.1128 140.583 32.9328 147.039 44.4158 151.039C56.7348 155.33 70.1458 158.522 83.0018 156.312C95.8578 154.103 108.132 146.366 116.979 136.783C124.825 128.273 129.698 117.49 134.053 106.761C137.763 97.624 141.236 87.695 138.999 78.085C136.599 67.784 127.98 59.965 118.606 55.064C112.415 51.828 105.723 49.573 98.8398 48.373C93.4298 47.436 86.5208 48.927 81.5288 46.918C75.3828 44.445 70.4458 40.026 63.8908 38.008C57.5078 36.044 50.7618 35.253 44.0978 35.771V35.78Z" fill="#EB2B49"/>
<g style="mix-blend-mode:multiply" opacity="0.3">
<path d="M116.977 136.783C122.241 131.073 126.16 124.345 129.488 117.299C129.315 117.544 129.133 117.799 128.951 118.044C120.178 130.118 107.167 139.747 92.3655 141.647C72.1545 144.238 53.0335 132.455 37.0865 119.772C25.7945 110.789 14.6295 100.451 9.97446 86.7856C5.66446 74.1386 7.81047 59.5096 15.4025 48.5356C8.74747 55.3546 4.70145 64.4286 2.46445 73.7116C-2.29055 93.4776 1.13744 115.762 14.2564 131.291C22.1034 140.583 32.9225 147.038 44.4055 151.039C56.7255 155.33 70.1354 158.522 82.9924 156.312C95.8484 154.103 108.122 146.366 116.968 136.783H116.977Z" fill="#EB2B49"/>
</g>
<path style="mix-blend-mode:screen" opacity="0.6" d="M51.7516 112.89C53.1426 115.326 55.6976 117.063 58.4706 117.472C59.3246 117.599 60.3156 117.545 60.8706 116.89C61.5706 116.063 61.1796 114.79 60.5616 113.899C58.3706 110.726 51.5246 112.49 51.7516 112.89Z" fill="url(#paint0_linear_435_149)"/>
<path d="M82.1836 45.1718C84.0656 30.2608 80.7196 13.4678 73.4366 0.320801C84.8656 12.0048 91.3666 28.4338 89.2206 44.6358C104.404 37.4888 122.497 37.4438 137.817 44.2808C122.688 43.1718 107.323 45.3178 93.0666 50.5268C100.277 55.6908 106.241 63.1738 109.214 71.5208C112.187 79.8758 112.542 89.1318 110.223 97.6868C108.614 89.1498 106.641 80.5578 102.622 72.8478C98.6036 65.1468 92.2935 58.3188 84.1375 55.2908C67.9265 63.5558 54.5796 76.2568 45.0786 91.7678C49.7066 74.6478 62.7086 58.1548 78.5376 50.1538C70.3906 45.3168 61.7355 41.6168 52.8165 38.4078C43.9065 35.1978 34.1415 33.6978 24.8945 35.7888C33.8235 31.7698 43.9155 30.3788 53.5985 31.8428C63.2805 33.3068 74.8366 38.6798 82.1836 45.1538V45.1718Z" fill="#4F771A"/>
<defs>
<linearGradient id="paint0_linear_435_149" x1="80.7796" y1="86.1376" x2="30.8356" y2="144.471" gradientUnits="userSpaceOnUse">
<stop stop-color="#EB2B49"/>
<stop offset="1" stop-color="#9E1D44" stop-opacity="0"/>
</linearGradient>
</defs>
</svg>
