<svg width="280" height="266" viewBox="0 0 280 266" fill="none" xmlns="http://www.w3.org/2000/svg">
<path d="M211.18 263.268C200.497 263.64 188.678 261.849 177.54 256.412C153.419 244.629 138.781 219.572 116.706 203.679C103.686 194.314 88.1841 188.468 74.0741 187.614C65.5731 187.095 57.4081 188.295 48.5981 185.831C39.7881 183.368 29.8961 175.212 30.4601 167.957C30.7141 164.684 33.0601 162.111 32.2141 158.583C31.3961 155.155 27.7961 151.991 24.2411 149.673C20.6771 147.354 16.7761 145.4 13.8031 142.454C9.31208 138.008 7.89304 132.289 7.71104 127.307C7.53004 122.324 8.28404 117.533 6.94804 112.35C5.66604 107.359 2.52005 102.322 1.15605 97.33C-0.207952 92.33 0.89208 86.8749 5.90208 86.1559C12.1851 85.2469 20.2311 92.1569 26.7141 91.6839C32.9781 91.2209 34.114 84.3469 39.133 81.9009C43.516 79.7559 50.3531 81.4189 55.9901 84.6929C61.6361 87.9569 66.3731 92.5839 70.9911 97.1119C107.905 133.225 146.646 169.602 192.124 194.796C202.288 200.433 212.771 205.488 222.391 212.135C232.01 218.781 240.929 227.4 244.948 236.892C254.758 260.058 229.419 262.64 211.18 263.277V263.268Z" fill="#5E7004"/>
<g style="mix-blend-mode:multiply" opacity="0.35">
<path d="M39.1132 81.9013C34.1042 84.3473 32.9582 91.2303 26.6942 91.6843C22.1482 92.0213 16.8382 88.7293 11.9012 87.0383C13.3382 88.4843 14.8832 89.8483 16.4202 91.1753C31.1032 103.977 45.7872 116.769 60.4612 129.57C42.2772 122.797 24.0942 116.014 5.91016 109.241C6.30116 110.277 6.65516 111.314 6.92816 112.341C7.92816 116.232 7.75517 119.915 7.68317 123.606C22.5122 122.779 37.8952 126.906 50.6512 135.235C43.3232 142.817 32.9761 147.436 22.1111 148.336C22.8211 148.773 23.5302 149.209 24.2302 149.664C27.7942 151.982 31.3852 155.137 32.2042 158.574C32.6042 160.256 32.2852 161.71 31.8132 163.138C39.0682 164.402 46.5142 163.593 53.5062 161.792C60.2162 160.065 66.7082 157.428 73.6992 157.001C80.6912 156.573 88.6282 158.937 92.5112 164.911C79.2002 163.383 65.6442 167.038 55.4882 174.894C51.9692 177.621 48.7331 180.885 44.4781 182.395C43.6591 182.686 42.8141 182.895 41.9681 183.013C44.1231 184.231 46.3872 185.204 48.5782 185.813C57.3882 188.277 65.5532 187.077 74.0542 187.595C83.1462 188.15 92.8292 190.787 102.039 195.087C102.248 195.051 102.448 195.014 102.657 194.987C106.921 194.378 111.34 195.214 115.595 196.333C129.115 199.897 141.962 206.443 152.945 215.253C156.372 218.008 160.527 224.009 165.128 223.945C170.347 223.872 175.293 216.69 176.82 212.607C179.275 206.043 178.429 198.442 175.793 191.65C174.42 188.113 172.592 184.804 170.465 181.658C140.143 161.738 112.713 137.271 86.5192 112.159C78.6272 106.568 70.6992 101.031 62.7712 95.4943C55.8702 90.6753 48.9601 85.8473 42.0591 81.0283C40.9951 81.1653 39.9952 81.4383 39.0952 81.8743L39.1132 81.9013Z" fill="#495A03"/>
</g>
<path d="M274.672 182.386C266.198 166.92 249.405 154.674 233.076 144.418C216.747 134.162 199.372 124.443 186.489 110.605C171.214 94.1941 164.641 74.6371 157.513 56.0351C150.376 37.4331 140.957 17.3761 122.827 3.42013C120.836 1.89213 118.572 0.37413 116.326 0.10113C111.526 -0.48087 110.453 4.63812 111.262 8.95712C112.08 13.2661 113.481 18.4121 110.244 20.5761C109.707 16.9671 103.534 15.2761 100.015 16.1031C96.506 16.9211 92.469 18.4491 88.76 15.8391C86.732 14.4121 85.214 11.9391 82.959 11.4481C79.84 10.7661 79.477 14.4391 77.349 15.7481C72.485 18.7491 63.675 8.61112 57.02 8.87512C51.683 9.09312 51.792 15.4761 53.165 20.5671C54.547 25.6591 55.71 31.9961 51.001 33.3871C47.418 34.4421 42.345 31.7961 38.399 32.2051C34.571 32.6051 32.671 35.9601 33.062 39.6151C33.453 43.2701 35.726 47.1431 38.39 50.6801C52.274 69.1091 75.794 80.1011 95.197 94.4941C121.054 113.678 139.875 139.29 163.177 161.083C185.08 181.568 210.601 198.333 236.258 213.926C243.777 218.499 254.488 227.164 262.48 225.909C270.462 224.654 275.845 216.753 278.045 210.425C280.873 202.279 280.009 192.132 274.672 182.395V182.386Z" fill="#5E7004"/>
<g style="mix-blend-mode:multiply" opacity="0.35">
<path d="M54.3476 26.6492C54.5746 29.7952 53.9016 32.5142 51.0106 33.3682C50.0376 33.6502 48.9555 33.6592 47.8105 33.5412C48.9375 34.6322 50.0015 35.7691 50.9745 36.8871C55.6745 42.2881 59.2566 48.4882 63.2026 54.4252C76.8496 74.9462 95.1606 92.6302 116.3 105.695C116.209 87.6022 104.526 70.7272 90.8696 57.7262C79.3046 46.7062 66.0486 37.4871 54.3386 26.6591L54.3476 26.6492ZM164.997 104.049C174.652 124.879 191.382 143.672 213.002 152.228C195.482 142.108 182.59 124.17 178.971 104.886C178.689 103.395 178.48 101.904 178.298 100.422C168.561 86.4201 163.206 70.9182 157.505 56.0352C155.577 51.0072 153.477 45.8702 151.086 40.7692C152.341 62.2812 155.732 84.0742 164.997 104.049ZM92.2786 17.1942C91.0966 17.0392 89.9146 16.6302 88.7606 15.8212C86.9876 14.5752 85.6056 12.5301 83.7776 11.7021C87.5606 19.3211 93.1246 26.1771 99.9256 31.4951C96.7526 27.0591 94.1786 22.2312 92.2786 17.1942ZM110.245 20.5582C109.799 17.5582 105.472 15.8942 101.999 15.8852C112.8 28.5592 119.501 44.8791 125.083 60.5811C132.629 81.8101 139.876 104.34 156.505 120.224C144.84 84.8652 132.902 48.9612 112.127 17.4852C111.891 18.7492 111.336 19.8212 110.245 20.5582ZM77.3495 15.7302C74.9675 17.2032 71.6306 15.5121 68.0666 13.4391C74.8226 21.3941 81.5866 29.3501 88.3416 37.3051L78.2136 14.9662C77.9496 15.2572 77.6686 15.5212 77.3406 15.7212L77.3495 15.7302Z" fill="#495A03"/>
</g>
<path d="M227.184 265.813C207.381 265.959 183.906 255.057 168.504 238.574C159.539 228.982 153.448 218.062 146.065 207.716C138.683 197.369 129.136 186.922 117.126 181.567C97.9506 173.012 78.5936 179.958 59.6366 170.611C56.8816 169.247 54.1086 167.475 52.2906 165.111C50.4716 162.747 49.9086 159.71 51.5996 158.273C52.4726 157.528 53.8086 157.292 54.8366 156.701C58.7096 154.464 56.7906 147.981 52.7266 143.617C48.6626 139.244 43.1436 136.216 38.2796 132.534C34.0886 129.361 30.1696 125.415 28.5966 121.142C27.0236 116.869 28.5146 112.405 32.8066 111.85C39.7616 110.95 49.1446 119.905 55.4726 117.932C60.4366 116.387 58.7546 108.868 54.0546 104.24C49.3536 99.6033 42.9896 96.9763 37.1246 93.8663C30.0786 90.1203 22.8956 84.8384 19.8866 78.3284C16.8776 71.8183 20.4416 64.6903 27.7236 66.1083C31.9696 66.9363 35.8976 70.1453 39.7976 72.7363C43.6986 75.3283 48.7896 77.5374 51.8266 75.8824C55.5996 73.8374 53.2726 67.7184 50.0906 63.2264C46.9076 58.7354 42.8166 53.7073 43.6806 49.5523C44.7346 44.4793 53.1266 44.5334 59.1456 48.2524C65.1646 51.9704 69.1556 57.8983 72.6196 63.4993C74.6476 66.7813 76.7746 70.2364 80.1116 72.7004C83.4576 75.1644 88.3856 76.0554 89.9856 73.6274C91.0676 71.9734 90.3126 69.4543 89.5306 67.1543C86.5946 58.4353 83.6486 49.7164 80.7116 40.9964C79.2296 36.6054 78.4846 30.9043 82.9576 30.4773C87.1486 30.0773 91.4676 34.8143 94.2316 38.7233C108.361 58.6893 122.481 78.6554 136.61 98.6214C138.683 87.8204 140.756 77.0283 142.828 66.2273C143.319 63.6543 143.856 60.9994 145.583 59.1624C147.311 57.3264 150.566 56.5074 153.757 57.9804C159.449 60.6174 160.312 67.2813 160.503 72.2363C161.549 99.2033 183.315 130.752 213.064 148.418C230.83 158.964 251.814 165.574 265.279 180.649C274.362 190.814 278.117 203.188 277.426 213.716C276.517 227.454 268.252 236.473 262.079 247.229C255.632 258.467 243.222 265.704 227.202 265.822L227.184 265.813Z" fill="#AEBF01"/>
<g style="mix-blend-mode:multiply" opacity="0.35">
<path d="M54.0352 104.231C58.7362 108.868 60.4182 116.377 55.4542 117.923C54.5812 118.196 53.6532 118.25 52.6902 118.169C60.3632 122.105 68.3732 125.169 76.2562 128.015C91.8942 133.67 108.36 139.371 121.516 150.4C100.668 129.243 74.9382 111.568 47.9072 99.5849C50.1172 100.93 52.2082 102.43 54.0352 104.231ZM50.4442 140.026C47.7532 137.989 45.3252 135.625 42.4982 133.798C40.7342 132.652 38.7062 131.734 36.8242 131.406C37.2972 131.797 37.7792 132.17 38.2702 132.543C43.1252 136.216 48.6532 139.253 52.7172 143.626C56.7812 147.999 58.7082 154.473 54.8262 156.709C53.7992 157.3 52.4622 157.537 51.5892 158.282C49.8982 159.719 50.4712 162.756 52.2802 165.119C54.0992 167.483 56.8723 169.256 59.6273 170.62C78.5843 179.967 97.9402 173.02 117.124 181.576C129.135 186.931 138.681 197.378 146.064 207.724C146.4 208.197 146.728 208.67 147.064 209.143C145.9 204.078 140.609 195.65 138.763 192.795C134.072 185.54 127.089 178.566 118.806 174.921C110.196 171.129 101.568 171.42 93.0493 170.638C84.5303 169.865 74.4742 167.229 68.2102 160.264C83.5662 154.464 104.159 155.991 123.452 164.356C113.142 155.418 99.3592 153 87.1032 151.518C74.8472 150.027 61.3822 148.299 50.4532 140.026H50.4442ZM160.366 76.9279C157.729 86.8289 159.993 98.9479 164.012 108.567C170.831 124.897 183.923 138.325 198.343 149.154C196.543 147.808 195.488 140.371 194.77 134.98C175.858 118.105 162.82 95.8839 160.757 75.7269C160.611 76.1179 160.475 76.5179 160.366 76.9369V76.9279ZM118.734 102.803C109.278 92.5289 100.832 81.3639 93.5942 69.5449C91.4212 65.9989 87.6392 56.2609 83.3302 48.7969C85.3932 54.9159 87.4572 61.0349 89.5212 67.1539C90.2942 69.4449 91.0583 71.9719 89.9763 73.6269C88.3853 76.0639 83.4482 75.1639 80.1022 72.6999C76.7562 70.2359 74.6382 66.7809 72.6102 63.4989C70.6282 60.2889 68.4643 56.9709 65.8463 54.0249C66.3373 56.6619 67.2463 59.2349 68.2913 61.3709C75.6743 76.4459 88.2662 84.3739 100.386 95.4659C107.96 102.394 114.188 110.631 121.789 117.532C129.389 124.433 138.972 130.125 149.01 130.024C145.464 130.061 135.954 119.587 133.217 117.123C128.162 112.577 123.325 107.795 118.734 102.803ZM139.927 81.2549C138.818 87.0379 137.708 92.8289 136.59 98.6119C127.535 85.8099 118.488 73.0179 109.433 60.2159C109.969 61.0799 110.451 61.9169 110.842 62.7079C115.097 71.2359 118.697 80.0369 123.143 88.4829C137.918 116.559 162.53 139.971 191.587 153.591C171.258 135.098 150.001 115.205 142.1 89.5559C141.254 86.8199 140.572 84.0369 139.918 81.2459L139.927 81.2549ZM67.3192 79.3639C62.2822 75.1729 57.2453 70.9809 52.2083 66.7899C54.0353 70.5089 54.6442 74.3449 51.8082 75.8909C49.8172 76.9729 46.9342 76.3909 44.0982 75.1359C46.5622 77.4179 49.1622 79.6009 51.9622 81.6279C59.6812 87.2199 68.3012 91.2749 76.4472 96.1839C89.8482 104.276 101.823 114.595 113.642 124.815C101.423 107.84 84.2022 93.4199 67.3192 79.3639Z" fill="#899B01"/>
</g>
</svg>
