<svg width="193" height="319" viewBox="0 0 193 319" fill="none" xmlns="http://www.w3.org/2000/svg">
<path d="M93.2941 298.108C84.4291 292.134 75.9101 283.733 70.1001 272.796C57.4991 249.093 60.3811 220.208 51.8441 194.387C46.8161 179.158 37.6971 165.32 26.7861 156.346C20.2041 150.936 12.8941 147.108 7.21107 139.935C1.52907 132.77 -1.68093 120.351 3.03807 114.814C5.17507 112.313 8.57507 111.613 9.96607 108.258C11.3211 105.004 10.2661 100.33 8.74806 96.3659C7.22906 92.4019 5.22007 88.5289 4.53807 84.3919C3.51107 78.1549 5.72909 72.6909 8.50209 68.5539C11.2751 64.4169 14.7031 60.9799 16.6671 56.0069C18.5581 51.2159 18.9761 45.2969 20.8041 40.4509C22.6311 35.6049 26.7411 31.8409 31.2051 34.1949C36.8151 37.1499 39.2691 47.4699 44.7971 50.8969C50.1341 54.2069 55.0991 49.3059 60.5901 50.2699C65.4001 51.1159 69.9461 56.4709 72.6011 62.4349C75.2461 68.3899 76.3651 74.9268 77.4471 81.3008C86.1021 132.216 96.0761 184.413 118.078 231.518C122.997 242.047 128.507 252.302 132.389 263.331C136.272 274.359 138.426 286.579 136.099 296.616C130.425 321.128 108.405 308.327 93.2761 298.126L93.2941 298.108Z" fill="#5E7004"/>
<g style="mix-blend-mode:multiply" opacity="0.35">
<path d="M60.5999 50.2609C55.1079 49.2969 50.1439 54.1889 44.8069 50.8879C40.9339 48.4879 38.5609 42.7059 35.5599 38.4419C35.8789 40.4599 36.3239 42.4689 36.7879 44.4509C41.1519 63.4349 45.5069 82.4189 49.8709 101.403C39.1339 85.2379 28.4049 69.0719 17.6679 52.9069C17.3769 53.9799 17.0579 55.0249 16.6669 56.0159C15.1849 59.7529 12.885 62.6259 10.658 65.5809C23.141 73.6269 33.169 86.0019 38.597 100.23C28.214 102.058 17.1309 99.7119 7.80295 94.0659C8.12095 94.8389 8.43895 95.6029 8.73895 96.3749C10.258 100.34 11.3119 105.013 9.95795 108.268C9.29395 109.859 8.17594 110.859 6.95694 111.732C12.0849 117.014 18.5949 120.733 25.3049 123.388C31.7509 125.924 38.5519 127.615 44.4609 131.38C50.3709 135.144 55.408 141.717 55.045 148.836C45.171 139.78 32.06 134.78 19.222 135.171C14.776 135.307 10.239 136.053 5.90295 134.78C5.06595 134.534 4.26595 134.207 3.50195 133.807C4.52995 136.062 5.79294 138.171 7.21194 139.962C12.8939 147.127 20.204 150.954 26.787 156.373C33.824 162.165 40.1059 169.984 45.0339 178.885C45.2249 178.976 45.4069 179.067 45.5979 179.167C49.4079 181.176 52.4899 184.449 55.2809 187.859C64.1269 198.687 70.6829 211.525 74.3919 225.118C75.5469 229.364 75.3829 236.664 79.1469 239.31C83.4109 242.32 91.6399 239.41 95.2669 237.01C101.113 233.137 104.896 226.5 106.741 219.444C107.705 215.771 108.178 212.025 108.296 208.225C95.4579 174.294 87.6389 138.38 81.1929 102.667C78.0929 93.5019 74.929 84.3649 71.765 75.2279C69.01 67.2719 66.2549 59.3169 63.4999 51.3519C62.5539 50.8339 61.5909 50.4699 60.6089 50.2969L60.5999 50.2609Z" fill="#495A03"/>
</g>
<path d="M192.187 269.958C194.414 252.465 188.023 232.69 180.831 214.797C173.639 196.904 165.293 178.83 163.002 160.064C160.283 137.816 166.456 118.123 171.612 98.8747C176.767 79.6267 180.922 57.8607 174.457 35.9127C173.748 33.5037 172.812 30.9488 171.148 29.4118C167.602 26.1208 163.729 29.6307 161.856 33.6037C159.983 37.5677 158.101 42.5587 154.21 42.4137C155.901 39.1767 151.891 34.1857 148.564 32.7847C145.236 31.3847 141.081 30.2487 139.608 25.9567C138.799 23.6117 139.026 20.7197 137.499 18.9927C135.38 16.6107 132.925 19.3657 130.425 19.1837C124.724 18.7567 123.552 5.37274 118.015 1.68174C113.569 -1.28226 109.905 3.94573 108.032 8.87373C106.159 13.8007 103.377 19.6197 98.7581 17.9747C95.2391 16.7197 92.6931 11.6008 89.2571 9.61875C85.9291 7.70075 82.4202 9.29174 80.5832 12.4827C78.7462 15.6737 78.3101 20.1387 78.3921 24.5657C78.8011 47.6417 91.3752 70.3527 98.6212 93.3917C108.277 124.114 108.459 155.891 114.514 187.212C120.206 216.661 130.998 245.219 142.608 272.904C146.009 281.023 149.582 294.325 156.792 298.007C163.983 301.68 172.985 298.452 178.485 294.616C185.559 289.688 190.823 280.969 192.223 269.949L192.187 269.958Z" fill="#5E7004"/>
<g style="mix-blend-mode:multiply" opacity="0.35">
<path d="M105.387 14.5016C103.724 17.1836 101.578 18.9836 98.7406 17.9746C97.7866 17.6386 96.9046 17.0016 96.0586 16.2386C96.3316 17.7836 96.5226 19.3296 96.6496 20.8026C97.2766 27.9396 96.5406 35.0586 96.2406 42.1776C95.2226 66.7986 99.6586 91.8656 109.088 114.859C119.644 100.166 120.107 79.6456 116.698 61.0976C113.807 45.3876 108.506 30.1306 105.387 14.4926V14.5016ZM149.456 142.144C145.028 164.674 147.529 189.713 160.003 209.334C151.775 190.85 151.875 168.765 160.276 151.036C160.921 149.663 161.63 148.336 162.358 147.026C162.712 129.97 167.485 114.286 171.604 98.8846C172.995 93.6836 174.314 88.2916 175.377 82.7636C163.758 100.903 153.693 120.542 149.456 142.144ZM141.637 29.1396C140.773 28.3126 140.055 27.2946 139.6 25.9666C138.891 23.9116 138.982 21.4476 137.991 19.7116C136.582 28.0946 137.046 36.9136 139.428 45.2146C139.464 39.7596 140.219 34.3406 141.646 29.1486L141.637 29.1396ZM154.202 42.4226C155.602 39.7406 153.075 35.8406 150.274 33.7946C151.565 50.4056 147.401 67.5346 142.692 83.5186C136.327 105.131 128.954 127.624 133.081 150.245C144.41 114.786 155.848 78.7096 157.53 41.0316C156.593 41.9136 155.511 42.4596 154.202 42.4136V42.4226ZM130.418 19.1936C127.626 18.9836 125.917 15.6566 124.253 11.8926C125.053 22.3026 125.844 32.7126 126.644 43.1236L131.572 19.1026C131.19 19.1836 130.809 19.2296 130.427 19.2026L130.418 19.1936Z" fill="#495A03"/>
</g>
<path d="M104.749 309.572C88.6379 298.052 76.0449 275.441 73.2629 253.056C71.6449 240.027 73.1269 227.608 73.2269 214.897C73.3269 202.187 71.7449 188.122 65.1719 176.738C54.6789 158.545 34.9319 152.799 25.0849 134.097C23.6489 131.379 22.4479 128.315 22.3759 125.332C22.3029 122.35 23.6209 119.559 25.8309 119.395C26.9759 119.305 28.1949 119.896 29.3759 120.023C33.8219 120.487 36.0769 114.113 35.3589 108.194C34.6409 102.275 31.9489 96.5747 30.1769 90.7467C28.6489 85.7187 27.7939 80.2177 29.0309 75.8357C30.2669 71.4537 34.0949 68.7077 37.8959 70.7897C44.0509 74.1537 46.3779 86.9097 52.6609 89.0277C57.5889 90.6917 60.6349 83.6187 59.5619 77.1087C58.4799 70.5987 54.8699 64.7247 51.9609 58.7697C48.4599 51.5967 45.7509 43.1047 47.1419 36.0677C48.5329 29.0307 55.6069 25.3477 60.6619 30.7847C63.6079 33.9487 64.9079 38.8497 66.5349 43.2407C68.1719 47.6327 70.9899 52.4057 74.4179 52.8507C78.6729 53.4057 80.3819 47.0957 80.4549 41.5867C80.5189 36.0767 80.1549 29.6117 83.3009 26.7477C87.1289 23.2567 93.8929 28.2297 96.5749 34.7767C99.2569 41.3227 99.0119 48.4597 98.5209 55.0327C98.2389 58.8787 97.9209 62.9247 99.1749 66.8797C100.43 70.8347 103.903 74.4627 106.622 73.4267C108.467 72.7257 109.34 70.2347 110.058 67.9257C112.804 59.1427 115.55 50.3597 118.287 41.5767C119.669 37.1587 122.414 32.1037 126.288 34.3857C129.915 36.5217 130.625 42.8957 130.57 47.6777C130.27 72.1347 129.97 96.5927 129.67 121.05C137.689 113.531 145.717 106.012 153.736 98.4927C155.655 96.7017 157.637 94.8647 160.11 94.3927C162.583 93.9197 165.701 95.1647 167.42 98.2377C170.484 103.721 167.265 109.612 164.501 113.74C149.499 136.179 148.581 174.493 162.274 206.269C170.456 225.244 183.549 242.919 185.594 263.03C186.976 276.586 182.749 288.806 175.993 296.925C167.192 307.508 155.2 309.954 143.881 315.027C132.061 320.328 117.768 318.9 104.731 309.581L104.749 309.572Z" fill="#AEBF01"/>
<g style="mix-blend-mode:multiply" opacity="0.35">
<path d="M59.5529 77.0907C60.6349 83.6007 57.5799 90.6737 52.6519 89.0097C51.7879 88.7187 51.0069 88.2187 50.2699 87.5827C54.1609 95.2747 58.8529 102.457 63.5529 109.394C72.8819 123.16 82.8559 137.443 87.0289 154.1C82.5829 124.733 72.1539 95.3107 57.3159 69.7257C58.3159 72.1077 59.1259 74.5537 59.5439 77.0907H59.5529ZM35.6229 103.939C34.6409 100.712 34.0679 97.3747 32.8499 94.2287C32.0949 92.2647 30.9949 90.3287 29.6679 88.9647C29.8219 89.5557 29.9949 90.1467 30.1679 90.7287C31.9409 96.5567 34.6229 102.257 35.3499 108.176C36.0679 114.095 33.8229 120.478 29.3679 120.005C28.1949 119.877 26.9669 119.286 25.8219 119.377C23.6119 119.55 22.2849 122.332 22.3669 125.314C22.4489 128.297 23.6489 131.361 25.0759 134.079C34.9229 152.781 54.6709 158.536 65.1629 176.72C71.7359 188.113 73.3179 202.169 73.2179 214.879C73.2179 215.461 73.1999 216.034 73.1909 216.616C75.2279 211.833 75.8999 201.905 76.0819 198.514C76.5459 189.885 74.9999 180.139 70.4269 172.32C65.6809 164.192 58.5349 159.355 52.0979 153.727C45.6599 148.099 39.0689 140.053 38.0869 130.742C53.9159 135.07 69.6899 148.408 80.3919 166.51C77.2999 153.218 67.5629 143.171 58.5259 134.77C49.4789 126.369 39.6049 117.05 35.6139 103.939H35.6229ZM161.637 117.459C153.691 123.923 148.4 135.061 145.999 145.199C141.917 162.419 144.626 180.985 149.945 198.214C149.282 196.068 152.8 189.431 155.373 184.639C149.982 159.873 152.491 134.234 162.665 116.704C162.319 116.932 161.974 117.177 161.647 117.45L161.637 117.459ZM112.75 113.94C111.132 100.066 110.859 86.0737 111.941 72.2537C112.268 68.1077 114.923 58.0067 115.823 49.4327C113.896 55.5967 111.977 61.7617 110.05 67.9167C109.331 70.2257 108.459 72.7177 106.613 73.4177C103.894 74.4537 100.43 70.8257 99.1669 66.8707C97.9119 62.9157 98.2209 58.8697 98.5119 55.0247C98.7939 51.2597 98.9939 47.3047 98.6029 43.3867C97.4479 45.8047 96.6749 48.4237 96.2659 50.7687C93.3929 67.3077 98.9118 81.1177 102.212 97.2107C104.267 107.267 104.476 117.595 106.567 127.642C108.659 137.689 113.068 147.926 121.26 153.745C118.369 151.69 116.823 137.625 116.059 134.025C114.641 127.378 113.541 120.668 112.75 113.931V113.94ZM142.563 108.949C138.262 112.977 133.971 117.004 129.67 121.041C129.861 105.367 130.052 89.6917 130.252 74.0177C130.179 75.0267 130.079 75.9907 129.934 76.8627C128.37 86.2637 126.115 95.5017 124.742 104.948C120.205 136.343 126.37 169.756 141.881 197.85C136.289 170.938 130.779 142.362 139.453 116.95C140.38 114.24 141.462 111.586 142.572 108.949H142.563ZM84.9099 64.7617C83.3009 58.4067 81.6829 52.0607 80.0739 45.7047C79.3639 49.7877 77.6099 53.2517 74.4089 52.8327C72.1639 52.5417 70.1719 50.3787 68.6089 47.6867C69.2629 50.9787 70.0809 54.2697 71.1539 57.5607C74.1179 66.6257 78.7099 74.9627 82.4099 83.7277C88.5019 98.1477 92.1288 113.54 95.6938 128.751C95.7748 107.84 90.3109 86.0457 84.9099 64.7617Z" fill="#899B01"/>
</g>
</svg>
