<svg width="272" height="315" viewBox="0 0 272 315" fill="none" xmlns="http://www.w3.org/2000/svg">
<path d="M0.212091 101.139C-0.464909 81.8837 -0.0249071 61.6697 9.26409 44.7977C20.2061 24.9187 41.6871 13.0607 63.3171 6.19974C83.2491 -0.124256 105.425 -2.98327 124.759 5.00373C147.365 14.3367 161.642 36.2567 176.464 55.7057C193.828 78.4877 213.681 99.2737 231.045 122.056C248.408 144.839 263.459 170.146 269.326 198.188C275.193 226.222 270.821 257.414 252.727 279.624C239.04 296.425 218.607 306.858 197.399 311.326C176.191 315.795 154.165 314.686 132.728 311.467C107.413 307.658 82.1231 300.744 60.5281 286.996C32.5211 269.166 21.0771 245.908 14.7611 214.919C7.0911 177.271 1.55812 139.596 0.195123 101.139H0.212091Z" fill="#D05C32"/>
<g style="mix-blend-mode:multiply" opacity="0.25">
<path d="M271.525 214.18C263.749 222.765 256.237 231.799 247.168 238.836C214.772 263.976 166.216 259.137 131.946 236.609C97.6751 214.082 75.3151 177.455 58.1271 140.221C46.8771 115.855 36.9191 89.4655 37.8871 62.1885C38.6431 40.7515 47.6071 24.2235 59.5431 7.45752C39.2241 14.4775 19.5731 26.0795 9.26409 44.8065C-0.0249071 61.6775 -0.464909 81.9005 0.212091 101.147C1.56709 139.605 7.10911 177.278 14.7791 214.927C21.0951 245.907 32.5391 269.174 60.5461 287.004C82.1411 300.753 107.43 307.667 132.746 311.476C154.174 314.695 176.209 315.804 197.416 311.335C218.624 306.866 239.058 296.443 252.745 279.633C267.453 261.574 273.091 237.587 271.534 214.18H271.525Z" fill="#F18044"/>
</g>
<g style="mix-blend-mode:multiply" opacity="0.5">
<path d="M37.43 241.809C32.583 233.11 32.1169 221.754 37.4829 213.362C42.8489 204.97 54.3719 200.634 63.5019 204.601C69.8619 207.363 74.1629 213.3 78.1569 218.974C82.3699 224.973 86.5839 230.963 90.7879 236.962C93.6739 241.079 96.682 245.512 96.805 250.535C96.99 257.854 90.5509 264.178 83.3909 265.674C68.2609 268.84 44.581 254.634 37.43 241.809Z" fill="#F18044"/>
</g>
<path style="mix-blend-mode:multiply" opacity="0.5" d="M141.913 166.073C141.28 164.666 141.306 162.836 142.397 161.745C143.417 160.716 145.036 160.593 146.478 160.725C149.645 161.007 152.724 162.229 155.231 164.182C156.647 165.29 157.949 166.759 158.151 168.545C158.362 170.454 157.166 172.371 155.468 173.269C153.771 174.175 151.677 174.157 149.874 173.497C146.927 172.415 143.224 168.976 141.922 166.082L141.913 166.073Z" fill="url(#paint0_linear_435_25)"/>
<path style="mix-blend-mode:multiply" opacity="0.5" d="M103.341 49.5479C101.406 47.5429 100.315 44.4639 101.415 41.9039C102.655 39.0369 106.041 37.841 109.12 37.33C118.62 35.756 128.683 37.9019 136.714 43.2239C138.517 44.4199 140.268 45.8189 141.332 47.7099C142.396 49.6009 142.643 52.073 141.464 53.894C139.652 56.709 135.623 56.779 132.29 56.524C122.543 55.785 110.862 57.069 103.35 49.557L103.341 49.5479Z" fill="url(#paint1_linear_435_25)"/>
<path style="mix-blend-mode:multiply" opacity="0.5" d="M98.1677 69.6828C96.5307 69.3488 94.7187 70.0528 93.7427 71.4158C92.7667 72.7788 92.6787 74.7148 93.5227 76.1568C94.8067 78.3558 98.5277 78.5058 100.182 76.5618C101.836 74.6268 100.666 70.1928 98.1677 69.6828Z" fill="url(#paint2_linear_435_25)"/>
<g style="mix-blend-mode:multiply" opacity="0.5">
<path d="M218.766 241.739C216.197 236.76 215.406 230.506 218.141 225.615C220.261 221.824 224.228 219.326 228.398 218.103C231.432 217.214 234.898 216.977 237.59 218.639C240.589 220.495 241.856 224.199 242.551 227.656C243.923 234.49 243.967 241.51 244.011 248.476C244.029 251.819 243.756 255.733 240.968 257.572C239.182 258.751 236.789 258.663 234.801 257.889C228.275 255.338 221.897 247.799 218.775 241.739H218.766Z" fill="#F18044"/>
</g>
<path d="M205.939 248.802C206.009 248.951 206.071 249.101 206.132 249.251C206.071 249.101 206.001 248.943 205.939 248.793V248.802Z" fill="url(#paint3_linear_435_25)"/>
<path d="M206.513 250.605C206.795 247.57 200.443 244.016 197.672 248.573C195.631 251.247 200.672 258.671 205.115 253.868C205.115 253.868 205.105 253.886 205.096 253.895C205.289 253.578 206.337 253.455 206.513 250.605Z" fill="url(#paint4_linear_435_25)"/>
<path d="M197.811 248.187C197.811 248.187 197.811 248.16 197.829 248.151C197.75 248.345 197.75 248.354 197.811 248.187Z" fill="url(#paint5_linear_435_25)"/>
<path style="mix-blend-mode:multiply" opacity="0.5" d="M43.6061 126.216C42.5061 124.765 40.9401 121.739 37.3601 125.055C33.5951 127.826 43.1041 135.936 43.6061 126.216Z" fill="url(#paint6_linear_435_25)"/>
<path style="mix-blend-mode:screen" opacity="0.6" d="M158.379 92.984C158.08 92.166 157.517 91.55 156.805 91.066C156.91 91.146 157.007 91.225 157.113 91.304C152.759 86.07 146.021 98.332 155.521 97.769C155.371 97.787 155.221 97.813 155.063 97.831C154.958 97.162 158.784 98.948 158.371 92.984H158.379Z" fill="url(#paint7_linear_435_25)"/>
<path style="mix-blend-mode:screen" opacity="0.6" d="M117.106 103.724C116.666 99.7309 107.887 104.076 114.748 106.821C115.496 106.759 117.634 106.082 117.106 103.724Z" fill="url(#paint8_linear_435_25)"/>
<path style="mix-blend-mode:screen" opacity="0.6" d="M212.071 155.763C211.35 155.183 213.083 152.122 208.895 152.597C206.547 151.409 206.204 155.517 208.403 157.954C208.614 158.138 210.514 159.537 212.027 156.062C212.053 155.957 212.027 156.062 212.071 155.763Z" fill="url(#paint9_linear_435_25)"/>
<path style="mix-blend-mode:screen" opacity="0.6" d="M168.891 227.656C168.389 223.565 159.593 228.051 166.507 230.787C167.263 230.725 169.427 230.039 168.891 227.656Z" fill="url(#paint10_linear_435_25)"/>
<path style="mix-blend-mode:screen" opacity="0.6" d="M50.8343 162.791C50.2273 161.71 48.4853 163.865 50.4563 163.724C50.6583 163.636 51.1243 163.328 50.8343 162.791Z" fill="url(#paint11_linear_435_25)"/>
<path style="mix-blend-mode:screen" opacity="0.6" d="M49.5251 51.1668C49.1111 47.7978 41.8541 51.4918 47.5541 53.7528C48.1791 53.6998 49.9651 53.1368 49.5251 51.1668Z" fill="url(#paint12_linear_435_25)"/>
<defs>
<linearGradient id="paint0_linear_435_25" x1="160.095" y1="151.252" x2="147.384" y2="170.322" gradientUnits="userSpaceOnUse">
<stop stop-color="#F18044" stop-opacity="0"/>
<stop offset="1" stop-color="#A12818"/>
</linearGradient>
<linearGradient id="paint1_linear_435_25" x1="125.279" y1="38.5" x2="117.565" y2="57.571" gradientUnits="userSpaceOnUse">
<stop stop-color="#F18044" stop-opacity="0"/>
<stop offset="1" stop-color="#A12818"/>
</linearGradient>
<linearGradient id="paint2_linear_435_25" x1="101.818" y1="66.9908" x2="93.6457" y2="78.7959" gradientUnits="userSpaceOnUse">
<stop stop-color="#F18044" stop-opacity="0"/>
<stop offset="1" stop-color="#A12818"/>
</linearGradient>
<linearGradient id="paint3_linear_435_25" x1="207.856" y1="244.975" x2="199.685" y2="263.13" gradientUnits="userSpaceOnUse">
<stop stop-color="#F18044" stop-opacity="0"/>
<stop offset="1" stop-color="#A12818"/>
</linearGradient>
<linearGradient id="paint4_linear_435_25" x1="207.067" y1="237.358" x2="201.165" y2="252.338" gradientUnits="userSpaceOnUse">
<stop stop-color="#F18044" stop-opacity="0"/>
<stop offset="1" stop-color="#A12818"/>
</linearGradient>
<linearGradient id="paint5_linear_435_25" x1="200.703" y1="241.756" x2="192.525" y2="259.917" gradientUnits="userSpaceOnUse">
<stop stop-color="#F18044" stop-opacity="0"/>
<stop offset="1" stop-color="#A12818"/>
</linearGradient>
<linearGradient id="paint6_linear_435_25" x1="43.9141" y1="121.167" x2="36.648" y2="132.514" gradientUnits="userSpaceOnUse">
<stop stop-color="#F18044" stop-opacity="0"/>
<stop offset="1" stop-color="#A12818"/>
</linearGradient>
<linearGradient id="paint7_linear_435_25" x1="144.622" y1="127.791" x2="97.8607" y2="284.417" gradientUnits="userSpaceOnUse">
<stop stop-color="#F18044"/>
<stop offset="1" stop-color="#A12818"/>
</linearGradient>
<linearGradient id="paint8_linear_435_25" x1="110.72" y1="117.666" x2="63.9588" y2="274.301" gradientUnits="userSpaceOnUse">
<stop stop-color="#F18044"/>
<stop offset="1" stop-color="#A12818"/>
</linearGradient>
<linearGradient id="paint9_linear_435_25" x1="211.605" y1="147.785" x2="164.844" y2="304.42" gradientUnits="userSpaceOnUse">
<stop stop-color="#F18044"/>
<stop offset="1" stop-color="#A12818"/>
</linearGradient>
<linearGradient id="paint10_linear_435_25" x1="192.219" y1="142.007" x2="145.459" y2="298.633" gradientUnits="userSpaceOnUse">
<stop stop-color="#F18044"/>
<stop offset="1" stop-color="#A12818"/>
</linearGradient>
<linearGradient id="paint11_linear_435_25" x1="67.6707" y1="104.816" x2="20.9016" y2="261.45" gradientUnits="userSpaceOnUse">
<stop stop-color="#F18044"/>
<stop offset="1" stop-color="#A12818"/>
</linearGradient>
<linearGradient id="paint12_linear_435_25" x1="34.6061" y1="94.9458" x2="-12.1639" y2="251.582" gradientUnits="userSpaceOnUse">
<stop stop-color="#F18044"/>
<stop offset="1" stop-color="#A12818"/>
</linearGradient>
</defs>
</svg>
