<svg width="86" height="106" viewBox="0 0 86 106" fill="none" xmlns="http://www.w3.org/2000/svg">
<path d="M26.1943 46.1739C19.8023 39.2189 10.4744 35.0459 1.02739 34.9089C0.691385 32.5089 1.34537 29.5089 3.30937 28.0999C8.96437 27.6899 14.9744 28.8269 19.9024 31.6269C13.7384 25.2079 7.87339 18.8079 1.70939 12.3979C1.72739 11.4889 1.75438 10.0789 2.44538 9.49692C2.93638 9.07892 3.60038 8.9149 4.23738 8.7789C5.56438 8.4789 6.89137 8.17891 8.21937 7.87891C16.1564 18.7799 24.4664 29.2179 32.4124 40.1189C30.0764 41.8369 27.6214 43.6559 26.1844 46.1739H26.1943Z" fill="url(#paint0_linear_435_62)"/>
<path style="mix-blend-mode:multiply" opacity="0.45" d="M15.9756 20.0539C16.0026 20.1449 16.2126 20.4259 16.5486 20.8629C16.1666 20.2719 15.9486 19.9719 15.9756 20.0539ZM26.7136 32.4279C24.1496 29.8729 18.3856 23.2089 16.5486 20.8629C18.8576 24.3809 27.3496 37.9828 27.3496 37.9828C27.3496 37.9828 22.9036 31.4639 19.7306 28.1179C17.3576 25.6089 8.3026 14.3798 3.8746 8.86084C3.3566 8.98884 2.85559 9.15186 2.45559 9.49786C1.76459 10.0889 1.7376 11.4979 1.7196 12.3979C7.8836 18.8169 13.7486 25.2178 19.9126 31.6278C19.8306 31.5818 19.7486 31.5368 19.6666 31.4998L22.6216 34.3369C24.3406 36.4369 25.7946 38.7558 26.9226 41.2198C26.8046 41.1108 26.6766 41.0018 26.5586 40.8918C21.0946 36.0278 13.5486 34.4009 6.3656 32.9639C4.6286 32.6189 2.8286 32.2818 1.0646 32.2278C0.919602 33.1368 0.910622 34.0639 1.02862 34.9189C10.4756 35.0549 19.7946 39.2288 26.1946 46.1838C27.6316 43.6648 30.0866 41.8468 32.4236 40.1288C30.5406 37.5468 28.6406 34.9919 26.7226 32.4459L26.7136 32.4279Z" fill="url(#paint1_linear_435_62)"/>
<path d="M31.6952 40.783C24.1302 29.655 17.7112 17.744 12.5742 5.30597C14.7112 3.03297 17.8292 1.02399 20.9302 0.687988C23.3392 10.025 27.2032 18.99 32.3582 27.145C27.8032 19.235 24.9122 10.762 23.7662 1.70596C27.7492 12.38 33.2582 22.517 39.9592 31.728C36.5412 34.055 33.6042 37.119 31.6862 40.783H31.6952Z" fill="url(#paint2_linear_435_62)"/>
<path style="mix-blend-mode:multiply" opacity="0.45" d="M27.7943 32.0821C22.8573 25.1271 18.4573 17.7901 14.6562 10.1531C19.4113 20.8451 25.1213 31.1101 31.6953 40.7831C32.6493 38.9561 33.8582 37.2741 35.2592 35.7561C30.2132 31.2731 25.8762 25.9911 22.4662 20.1721L27.7852 32.0821H27.7943ZM31.3672 22.3271C26.3762 12.8351 23.7762 1.70605 23.7762 1.70605C24.9212 10.7621 27.8032 19.2351 32.3672 27.1451L33.9133 29.8461C34.7773 31.4011 35.6412 32.9551 36.5132 34.5101C37.0412 34.0101 37.5863 33.5371 38.1503 33.0831C36.2043 30.4821 33.7402 26.8271 31.3672 22.3271Z" fill="url(#paint3_linear_435_62)"/>
<path d="M62.3992 84.5519C57.2082 87.3519 51.9622 90.1799 46.2522 91.6619C40.5422 93.1439 34.2412 93.1619 28.9862 90.4889C24.0402 87.9699 20.4492 83.2789 18.3122 78.1599C13.8392 67.4679 15.3673 54.7119 21.4043 44.8199C27.4413 34.9279 37.6513 27.8999 48.8073 24.7719C54.9173 23.0629 61.6363 22.4899 67.4823 24.9629C72.2823 26.9909 76.0743 30.8819 78.9923 35.2009C81.8653 39.4559 84.0292 44.2839 84.6292 49.3839C85.8112 59.3939 80.9472 69.1049 75.3732 77.5149C74.1102 79.4149 72.8913 82.2239 74.6283 83.7059C75.3373 84.3059 76.4552 84.5789 76.7012 85.4699C76.9652 86.4789 75.8642 87.4069 75.9642 88.4429C76.1192 89.9339 78.2922 90.0609 79.3472 91.1249C80.4382 92.2249 80.0652 94.0889 79.3472 95.4619C78.6372 96.8349 77.6283 98.1719 77.6283 99.7259C77.6283 101.463 78.9833 102.972 80.5653 103.709C82.1473 104.436 83.9292 104.536 85.6662 104.636C83.2022 106.163 79.7382 105.981 77.5372 104.099C75.3372 102.217 74.5463 98.8629 75.6643 96.1899C76.1643 95.0079 76.9652 93.5619 76.1192 92.5889C75.1282 91.4529 73.0192 92.4619 71.8642 91.4889C70.7552 90.5519 71.4283 88.6699 70.7553 87.3979C70.3373 86.6069 69.4823 86.1789 68.6823 85.7969C66.5003 84.7519 64.5182 83.4149 62.3902 84.5699L62.3992 84.5519Z" fill="url(#paint4_linear_435_62)"/>
<path style="mix-blend-mode:multiply" opacity="0.3" d="M75.3733 77.5051C80.9463 69.1041 85.8013 59.3941 84.6283 49.3751C84.2553 46.1831 83.2643 43.0921 81.8733 40.1831C81.5553 40.6741 81.2373 41.1741 80.9103 41.6561C77.0183 47.5201 72.7634 53.2021 67.5724 57.9941C59.9984 64.9771 50.0333 69.9951 39.7503 69.4221C29.9223 68.8771 20.1753 62.2401 17.7113 52.8021C14.9843 61.0401 14.9754 70.1681 18.3124 78.1511C20.4484 83.2691 24.0393 87.9611 28.9853 90.4791C34.2413 93.1521 40.5413 93.1341 46.2513 91.6521C51.9613 90.1701 57.2074 87.3431 62.3984 84.5421C64.5264 83.3971 66.5083 84.7331 68.6903 85.7701C69.4903 86.1521 70.3453 86.5881 70.7633 87.3701C71.4363 88.6521 70.7634 90.5341 71.8724 91.4611C73.0274 92.4341 75.1364 91.4251 76.1274 92.5621C76.9734 93.5251 76.1733 94.9801 75.6733 96.1621C74.5453 98.8351 75.3454 102.19 77.5464 104.072C79.7464 105.954 83.2104 106.136 85.6744 104.608C83.9374 104.517 82.1463 104.417 80.5733 103.681C78.9913 102.954 77.6464 101.444 77.6374 99.6991C77.6374 98.1531 78.6373 96.8161 79.3553 95.4351C80.0643 94.0621 80.4373 92.1981 79.3553 91.0981C78.3003 90.0341 76.1274 89.9071 75.9734 88.4161C75.8644 87.3791 76.9733 86.4431 76.7093 85.4421C76.4733 84.5421 75.3453 84.2791 74.6363 83.6791C72.9003 82.1971 74.1184 79.3961 75.3824 77.4871L75.3733 77.5051Z" fill="url(#paint5_linear_435_62)"/>
<path style="mix-blend-mode:multiply" opacity="0.3" d="M84.1376 46.5832C82.4106 54.1302 78.1645 61.2212 72.6005 66.7042C63.9805 75.1872 52.5885 80.2872 41.0505 83.9332C36.7685 85.2882 32.3495 86.4792 27.8585 86.3792C26.1945 86.3432 24.5035 86.1062 22.8945 85.6522C24.6125 87.6342 26.6495 89.3072 28.9855 90.4982C34.2415 93.1712 40.5415 93.1522 46.2515 91.6702C51.9615 90.1882 57.2076 87.3612 62.3986 84.5612C64.5266 83.4152 66.5086 84.7512 68.6906 85.7882C69.4906 86.1702 70.3455 86.6062 70.7635 87.3882C71.4365 88.6702 70.7636 90.5522 71.8726 91.4802C73.0276 92.4522 75.1366 91.4432 76.1276 92.5802C76.9736 93.5432 76.1735 94.9982 75.6735 96.1802C74.5455 98.8532 75.3456 102.208 77.5466 104.09C79.7466 105.972 83.2106 106.154 85.6746 104.626C83.9376 104.536 82.1465 104.436 80.5735 103.699C78.9915 102.972 77.6465 101.463 77.6365 99.7172C77.6365 98.1712 78.6375 96.8352 79.3555 95.4532C80.0645 94.0802 80.4375 92.2162 79.3555 91.1162C78.3005 90.0522 76.1276 89.9252 75.9736 88.4342C75.8646 87.3972 76.9735 86.4612 76.7095 85.4612C76.4735 84.5612 75.3455 84.2972 74.6365 83.6972C72.9005 82.2152 74.1186 79.4142 75.3826 77.5052C80.9556 69.1042 85.8106 59.3942 84.6376 49.3752C84.5286 48.4292 84.3655 47.4932 84.1465 46.5742L84.1376 46.5832Z" fill="url(#paint6_linear_435_62)"/>
<path style="mix-blend-mode:screen" opacity="0.6" d="M33.8398 49.4207C32.0218 48.7477 30.0848 47.5477 29.8028 45.6287C29.5128 43.6657 31.0668 41.9557 32.5858 40.6737C41.0318 33.5547 52.2058 29.7547 63.2438 30.2547C65.4078 30.3547 67.8348 30.7637 69.0898 32.5277C70.2438 34.1637 69.9528 36.5007 68.8618 38.1827C67.7808 39.8647 66.0528 41.0198 64.3258 42.0198C59.8068 44.6378 54.7428 46.6108 49.9878 48.7568C44.9598 51.0298 39.0228 51.3297 33.8398 49.4117V49.4207Z" fill="url(#paint7_linear_435_62)"/>
<path style="mix-blend-mode:screen" d="M59.4716 50.1838C60.3716 50.0378 61.4626 50.1018 61.9446 50.8658C62.2806 51.3928 62.1986 52.1018 61.8806 52.6378C61.5626 53.1748 61.0536 53.5658 60.5266 53.8928C59.3536 54.6298 53.9436 57.0478 52.8886 55.0838C51.6346 52.7478 58.0256 50.4198 59.4716 50.1838Z" fill="url(#paint8_linear_435_62)"/>
<path style="mix-blend-mode:multiply" opacity="0.6" d="M47.0612 80.424C46.2882 77.196 41.8692 82.142 46.4882 81.67C46.4882 81.606 47.2342 81.315 47.0612 80.424Z" fill="url(#paint9_linear_435_62)"/>
<path style="mix-blend-mode:multiply" opacity="0.6" d="M62.2189 62.8579C61.4549 61.1939 58.3189 64.2759 61.6279 64.5129C61.6279 64.4039 62.7829 64.3399 62.2189 62.8579Z" fill="url(#paint10_linear_435_62)"/>
<path style="mix-blend-mode:multiply" opacity="0.6" d="M74.8549 53.7208C74.6729 53.2668 73.546 53.9118 74.664 54.2578C74.692 54.1848 74.9279 54.2668 74.8549 53.7208Z" fill="url(#paint11_linear_435_62)"/>
<path style="mix-blend-mode:multiply" opacity="0.6" d="M74.3918 50.5018C74.0458 50.6108 74.2188 51.1468 74.5638 51.0378C74.9098 50.9288 74.7368 50.3928 74.3918 50.5018Z" fill="url(#paint12_linear_435_62)"/>
<path style="mix-blend-mode:multiply" opacity="0.6" d="M75.9369 69.2417C75.0549 67.3227 71.455 70.8777 75.255 71.1417C75.182 70.9867 76.5459 71.1327 75.9369 69.2417Z" fill="url(#paint13_linear_435_62)"/>
<path style="mix-blend-mode:multiply" opacity="0.6" d="M23.785 72.8421C22.084 70.6961 20.93 75.0151 23.139 76.1241C24.557 76.5601 25.912 73.7961 23.785 72.8421Z" fill="url(#paint14_linear_435_62)"/>
<path style="mix-blend-mode:multiply" opacity="0.6" d="M31.1581 64.0038C31.3671 63.6408 29.5491 63.7588 30.7581 64.6678C30.7941 64.5948 31.3131 64.7498 31.1581 64.0038Z" fill="url(#paint15_linear_435_62)"/>
<path style="mix-blend-mode:multiply" opacity="0.6" d="M40.9045 62.3772C40.0135 62.6592 40.4505 64.0502 41.3415 63.7592C42.2325 63.4772 41.7955 62.0862 40.9045 62.3772Z" fill="url(#paint16_linear_435_62)"/>
<path d="M85.6736 104.627C83.9366 104.536 82.1457 104.436 80.5727 103.7C78.9907 102.972 77.6457 101.463 77.6367 99.717C77.6367 98.172 78.6367 96.835 79.3547 95.453C80.0637 94.08 80.4367 92.216 79.3547 91.116C78.2997 90.053 76.1267 89.9249 75.9727 88.4339C75.8637 87.3979 76.9727 86.461 76.7087 85.461C76.4727 84.561 75.3447 84.2969 74.6357 83.6969C73.6177 82.8249 73.6177 81.497 74.0447 80.17C73.9907 80.17 73.9357 80.17 73.8727 80.17C73.1087 80.115 72.3537 79.579 71.6447 79.851C70.9177 80.133 70.7177 81.0699 70.1537 81.6149C69.1717 82.5609 67.5627 82.0059 66.1987 82.1329C64.3437 82.2969 62.9617 83.661 61.5977 84.997C61.8707 84.852 62.1437 84.707 62.4077 84.561C64.5347 83.415 66.5167 84.7519 68.6987 85.7879C69.4987 86.1699 70.3537 86.607 70.7717 87.389C71.4447 88.671 70.7717 90.553 71.8807 91.48C73.0357 92.453 75.1447 91.444 76.1357 92.58C76.9817 93.544 76.1817 94.999 75.6817 96.181C74.5537 98.854 75.3547 102.209 77.5547 104.091C79.7547 105.973 83.2187 106.154 85.6827 104.627H85.6736Z" fill="url(#paint17_linear_435_62)"/>
<defs>
<linearGradient id="paint0_linear_435_62" x1="-1.36161" y1="12.1139" x2="23.6984" y2="47.3639" gradientUnits="userSpaceOnUse">
<stop stop-color="#AEBF01"/>
<stop offset="1" stop-color="#5E7004"/>
</linearGradient>
<linearGradient id="paint1_linear_435_62" x1="-1.36038" y1="12.1138" x2="23.6996" y2="47.3638" gradientUnits="userSpaceOnUse">
<stop stop-color="#AEBF01"/>
<stop offset="1" stop-color="#5E7004"/>
</linearGradient>
<linearGradient id="paint2_linear_435_62" x1="19.2552" y1="2.23599" x2="36.0102" y2="41.313" gradientUnits="userSpaceOnUse">
<stop stop-color="#AEBF01"/>
<stop offset="1" stop-color="#5E7004"/>
</linearGradient>
<linearGradient id="paint3_linear_435_62" x1="19.1993" y1="4.88606" x2="34.9533" y2="41.6201" gradientUnits="userSpaceOnUse">
<stop stop-color="#AEBF01"/>
<stop offset="1" stop-color="#5E7004"/>
</linearGradient>
<linearGradient id="paint4_linear_435_62" x1="18.7852" y1="80.1619" x2="87.8992" y2="58.2369" gradientUnits="userSpaceOnUse">
<stop stop-color="#EB2B49"/>
<stop offset="1" stop-color="#9E1D44"/>
</linearGradient>
<linearGradient id="paint5_linear_435_62" x1="21.4073" y1="88.4291" x2="90.5214" y2="66.5051" gradientUnits="userSpaceOnUse">
<stop stop-color="#EB2B49"/>
<stop offset="1" stop-color="#9E1D44"/>
</linearGradient>
<linearGradient id="paint6_linear_435_62" x1="25.6775" y1="94.4952" x2="92.5736" y2="73.2752" gradientUnits="userSpaceOnUse">
<stop stop-color="#EB2B49"/>
<stop offset="1" stop-color="#9E1D44"/>
</linearGradient>
<linearGradient id="paint7_linear_435_62" x1="47.1538" y1="26.5887" x2="53.8278" y2="60.7368" gradientUnits="userSpaceOnUse">
<stop stop-color="#EB2B49"/>
<stop offset="1" stop-color="#9E1D44" stop-opacity="0"/>
</linearGradient>
<linearGradient id="paint8_linear_435_62" x1="52.0656" y1="25.6217" x2="58.7307" y2="59.7728" gradientUnits="userSpaceOnUse">
<stop stop-color="#EB2B49"/>
<stop offset="1" stop-color="#9E1D44" stop-opacity="0"/>
</linearGradient>
<linearGradient id="paint9_linear_435_62" x1="41.5102" y1="37.87" x2="46.5432" y2="89.126" gradientUnits="userSpaceOnUse">
<stop stop-color="#EB2B49"/>
<stop offset="1" stop-color="#9E1D44"/>
</linearGradient>
<linearGradient id="paint10_linear_435_62" x1="58.5419" y1="36.1979" x2="63.5648" y2="87.4559" gradientUnits="userSpaceOnUse">
<stop stop-color="#EB2B49"/>
<stop offset="1" stop-color="#9E1D44"/>
</linearGradient>
<linearGradient id="paint11_linear_435_62" x1="72.621" y1="34.8201" x2="77.652" y2="86.0713" gradientUnits="userSpaceOnUse">
<stop stop-color="#EB2B49"/>
<stop offset="1" stop-color="#9E1D44"/>
</linearGradient>
<linearGradient id="paint12_linear_435_62" x1="72.8798" y1="34.7974" x2="77.9065" y2="86.0317" gradientUnits="userSpaceOnUse">
<stop stop-color="#EB2B49"/>
<stop offset="1" stop-color="#9E1D44"/>
</linearGradient>
<linearGradient id="paint13_linear_435_62" x1="71.354" y1="34.9478" x2="76.383" y2="86.1947" gradientUnits="userSpaceOnUse">
<stop stop-color="#EB2B49"/>
<stop offset="1" stop-color="#9E1D44"/>
</linearGradient>
<linearGradient id="paint14_linear_435_62" x1="20.022" y1="39.9842" x2="25.0519" y2="91.232" gradientUnits="userSpaceOnUse">
<stop stop-color="#EB2B49"/>
<stop offset="1" stop-color="#9E1D44"/>
</linearGradient>
<linearGradient id="paint15_linear_435_62" x1="28.292" y1="39.1737" x2="33.3129" y2="90.4228" gradientUnits="userSpaceOnUse">
<stop stop-color="#EB2B49"/>
<stop offset="1" stop-color="#9E1D44"/>
</linearGradient>
<linearGradient id="paint16_linear_435_62" x1="38.6525" y1="38.1574" x2="43.6824" y2="89.405" gradientUnits="userSpaceOnUse">
<stop stop-color="#EB2B49"/>
<stop offset="1" stop-color="#9E1D44"/>
</linearGradient>
<linearGradient id="paint17_linear_435_62" x1="68.6717" y1="84.167" x2="80.8067" y2="109.944" gradientUnits="userSpaceOnUse">
<stop stop-color="#FCE9DF" stop-opacity="0"/>
<stop offset="1" stop-color="#FFC5B2"/>
</linearGradient>
</defs>
</svg>
