<svg width="86" height="106" viewBox="0 0 86 106" fill="none" xmlns="http://www.w3.org/2000/svg">
<path d="M25.5753 46.3941C19.1833 39.4391 9.85536 35.2661 0.418356 35.1291C0.0813558 32.7291 0.736338 29.7291 2.70034 28.3191C8.35534 27.9101 14.3654 29.0471 19.2934 31.8471C13.1284 25.4281 7.2643 19.0271 1.1003 12.6171C1.1183 11.7081 1.14532 10.2991 1.83632 9.71713C2.32732 9.29913 2.99134 9.13511 3.62734 8.99911C4.95534 8.69911 6.28233 8.39912 7.60933 8.09912C15.5473 19.0001 23.8573 29.4381 31.8033 40.3391C29.4663 42.0571 27.0123 43.8761 25.5753 46.3941Z" fill="url(#paint0_linear_435_44)"/>
<path style="mix-blend-mode:multiply" opacity="0.45" d="M15.3565 20.2819C15.3835 20.3729 15.5925 20.6549 15.9295 21.0909C15.5475 20.4999 15.3295 20.1999 15.3565 20.2819ZM26.0945 32.6559C23.5305 30.1009 17.7655 23.4369 15.9295 21.0909C18.2385 24.6099 26.7305 38.2119 26.7305 38.2119C26.7305 38.2119 22.2845 31.6929 19.1115 28.3469C16.7385 25.8369 7.68248 14.6088 3.25548 9.08984C2.73648 9.21684 2.23647 9.38086 1.83647 9.72586C1.14547 10.3169 1.11845 11.7269 1.10045 12.6269C7.26445 19.0459 13.1285 25.4459 19.2935 31.8559C19.2115 31.8109 19.1295 31.7649 19.0475 31.7289L22.0025 34.5659C23.7215 36.6659 25.1754 38.9838 26.3034 41.4478C26.1854 41.3388 26.0575 41.2298 25.9395 41.1208C20.4755 36.2568 12.9284 34.6288 5.74644 33.1928C4.00944 32.8468 2.20948 32.5108 0.445479 32.4558C0.300479 33.3648 0.291468 34.2929 0.409468 35.1469C9.85547 35.2839 19.1755 39.4569 25.5755 46.4119C27.0125 43.8939 29.4674 42.0758 31.8034 40.3568C29.9214 37.7748 28.0215 35.2199 26.1035 32.6739L26.0945 32.6559Z" fill="url(#paint1_linear_435_44)"/>
<path d="M31.0761 41.012C23.5111 29.883 17.0921 17.973 11.9551 5.535C14.0921 3.262 17.2101 1.25302 20.3111 0.916016C22.7201 10.254 26.5931 19.218 31.7391 27.374C27.1841 19.464 24.2931 10.99 23.1481 1.93399C27.1301 12.608 32.6401 22.746 39.3401 31.956C35.9221 34.284 32.9851 37.348 31.0671 41.012H31.0761Z" fill="url(#paint2_linear_435_44)"/>
<path style="mix-blend-mode:multiply" opacity="0.45" d="M27.1751 32.3008C22.2381 25.3458 17.8381 18.0088 14.0371 10.3708C18.7921 21.0628 24.5021 31.3278 31.0761 41.0018C32.0301 39.1748 33.2401 37.4928 34.6401 35.9738C29.5941 31.4918 25.2571 26.2098 21.8471 20.3908C23.6201 24.3638 25.3931 28.3278 27.1661 32.3008H27.1751ZM30.7481 22.5448C25.7571 13.0528 23.1571 1.9248 23.1571 1.9248C24.3021 10.9808 27.1841 19.4538 31.7491 27.3638L33.2941 30.0648C34.1581 31.6188 35.0221 33.1738 35.8941 34.7288C36.4221 34.2288 36.9671 33.7558 37.5311 33.3008C35.5851 30.7008 33.1211 27.0458 30.7481 22.5448Z" fill="url(#paint3_linear_435_44)"/>
<path d="M61.7824 84.7798C56.5904 87.5808 51.3444 90.4078 45.6344 91.8898C39.9254 93.3718 33.6244 93.3898 28.3694 90.7168C23.4234 88.1988 19.8324 83.5068 17.6954 78.3888C13.2224 67.6968 14.7494 54.9398 20.7864 45.0478C26.8234 35.1558 37.0344 28.1278 48.1894 25.0008C54.2994 23.2908 61.0184 22.7188 66.8644 25.1918C71.6654 27.2188 75.4564 31.1098 78.3754 35.4288C81.2484 39.6838 83.4124 44.5118 84.0124 49.6128C85.1944 59.6228 80.3294 69.3328 74.7564 77.7428C73.4924 79.6428 72.2744 82.4528 74.0114 83.9348C74.7204 84.5348 75.8384 84.8078 76.0844 85.6988C76.3474 86.7078 75.2474 87.6348 75.3474 88.6718C75.5024 90.1628 77.6754 90.2898 78.7294 91.3538C79.8204 92.4538 79.4474 94.3178 78.7294 95.6908C78.0204 97.0638 77.0114 98.3998 77.0114 99.9548C77.0114 101.691 78.3664 103.201 79.9484 103.937C81.5304 104.664 83.3124 104.764 85.0484 104.864C82.5844 106.392 79.1204 106.21 76.9204 104.328C74.7204 102.446 73.9294 99.0908 75.0474 96.4178C75.5474 95.2358 76.3474 93.7897 75.5024 92.8177C74.5114 91.6807 72.4014 92.6808 71.2474 91.7168C70.1374 90.7808 70.8104 88.8988 70.1374 87.6258C69.7194 86.8348 68.8644 86.4078 68.0644 86.0258C65.8824 84.9798 63.9004 83.6438 61.7734 84.7978L61.7824 84.7798Z" fill="#EB2B49"/>
<path style="mix-blend-mode:multiply" opacity="0.3" d="M74.7553 77.7341C80.3293 69.3331 85.1843 59.6231 84.0113 49.6031C83.6383 46.4121 82.6473 43.3211 81.2563 40.4111C80.9383 40.9021 80.6203 41.4021 80.2923 41.8841C76.4013 47.7481 72.1463 53.4311 66.9553 58.2221C59.3813 65.2051 49.4163 70.2241 39.1333 69.6511C29.3053 69.1051 19.5583 62.4681 17.0943 53.0311C14.3673 61.2681 14.3583 70.3971 17.6943 78.3791C19.8313 83.4981 23.4223 88.1891 28.3683 90.7081C33.6233 93.3811 39.9243 93.3631 45.6343 91.8811C51.3443 90.3991 56.5903 87.5711 61.7813 84.7711C63.9093 83.6251 65.8913 84.9621 68.0733 85.9981C68.8733 86.3801 69.7283 86.8171 70.1463 87.5991C70.8193 88.8801 70.1463 90.7631 71.2553 91.6901C72.4103 92.6631 74.5193 91.6531 75.5103 92.7901C76.3563 93.7541 75.5563 95.2081 75.0553 96.3901C73.9283 99.0631 74.7283 102.418 76.9283 104.3C79.1293 106.182 82.5933 106.364 85.0573 104.837C83.3203 104.746 81.5293 104.646 79.9563 103.909C78.3743 103.182 77.0283 101.673 77.0193 99.9271C77.0193 98.3821 78.0193 97.0451 78.7383 95.6631C79.4473 94.2901 79.8203 92.4261 78.7383 91.3261C77.6833 90.2621 75.5103 90.1351 75.3553 88.6441C75.2463 87.6081 76.3563 86.6711 76.0923 85.6711C75.8563 84.7711 74.7283 84.5071 74.0193 83.8981C72.2823 82.4161 73.5013 79.6161 74.7653 77.7061L74.7553 77.7341Z" fill="url(#paint4_linear_435_44)"/>
<path style="mix-blend-mode:multiply" opacity="0.3" d="M83.5204 46.8032C81.7934 54.3502 77.5474 61.4422 71.9824 66.9242C63.3634 75.4072 51.9713 80.5072 40.4333 84.1532C36.1513 85.5082 31.7324 86.6992 27.2414 86.5992C25.5774 86.5632 23.8863 86.3262 22.2773 85.8722C23.9953 87.8542 26.0323 89.5272 28.3683 90.7182C33.6233 93.3912 39.9243 93.3722 45.6343 91.8902C51.3443 90.4082 56.5904 87.5812 61.7814 84.7812C63.9094 83.6352 65.8914 84.9721 68.0734 86.0081C68.8734 86.3901 69.7284 86.8262 70.1464 87.6082C70.8194 88.8902 70.1464 90.7722 71.2554 91.7002C72.4104 92.6722 74.5194 91.6632 75.5104 92.8002C76.3564 93.7632 75.5564 95.2181 75.0554 96.4001C73.9284 99.0731 74.7283 102.428 76.9283 104.31C79.1293 106.192 82.5934 106.374 85.0574 104.846C83.3204 104.756 81.5294 104.656 79.9564 103.919C78.3744 103.192 77.0283 101.682 77.0193 99.9372C77.0193 98.3912 78.0193 97.0552 78.7383 95.6732C79.4473 94.3002 79.8203 92.4362 78.7383 91.3362C77.6833 90.2722 75.5103 90.1451 75.3553 88.6541C75.2463 87.6171 76.3563 86.6812 76.0923 85.6812C75.8563 84.7812 74.7283 84.5172 74.0193 83.9082C72.2823 82.4262 73.5014 79.6252 74.7654 77.7162C80.3384 69.3152 85.1934 59.6052 84.0204 49.5862C83.9114 48.6402 83.7474 47.7042 83.5294 46.7852L83.5204 46.8032Z" fill="url(#paint5_linear_435_44)"/>
<path style="mix-blend-mode:screen" d="M58.8546 50.4119C59.7546 50.2669 60.8457 50.3299 61.3277 51.0939C61.6637 51.6209 61.5816 52.3309 61.2636 52.8669C60.9456 53.4029 60.4367 53.7939 59.9087 54.1219C58.7357 54.8579 53.3266 57.2769 52.2716 55.3129C51.0166 52.9759 57.4086 50.6489 58.8546 50.4119Z" fill="url(#paint6_linear_435_44)"/>
<path style="mix-blend-mode:multiply" opacity="0.6" d="M46.444 80.652C45.671 77.425 41.252 82.371 45.871 81.898C45.871 81.834 46.616 81.543 46.444 80.652Z" fill="url(#paint7_linear_435_44)"/>
<path style="mix-blend-mode:multiply" opacity="0.6" d="M61.6002 63.0869C60.8362 61.4139 57.6992 64.5059 61.0092 64.7419C61.0092 64.6329 62.1632 64.5689 61.6002 63.0869Z" fill="url(#paint8_linear_435_44)"/>
<path style="mix-blend-mode:multiply" opacity="0.6" d="M74.2378 53.9502C74.0558 53.4952 72.9288 54.1412 74.0468 54.4862C74.0738 54.4132 74.3108 54.4952 74.2378 53.9502Z" fill="url(#paint9_linear_435_44)"/>
<path style="mix-blend-mode:multiply" opacity="0.6" d="M73.7746 50.7299C73.4286 50.8399 73.6016 51.3758 73.9466 51.2668C74.2926 51.1578 74.1196 50.6209 73.7746 50.7299Z" fill="url(#paint10_linear_435_44)"/>
<path style="mix-blend-mode:multiply" opacity="0.6" d="M75.3195 69.4688C74.4375 67.5508 70.8375 71.1058 74.6385 71.3688C74.5655 71.2148 75.9295 71.3598 75.3195 69.4688Z" fill="url(#paint11_linear_435_44)"/>
<path style="mix-blend-mode:multiply" opacity="0.6" d="M23.1673 73.0701C21.4673 70.9241 20.3123 75.2431 22.5223 76.3521C23.9403 76.7891 25.2953 74.0251 23.1673 73.0701Z" fill="url(#paint12_linear_435_44)"/>
<path style="mix-blend-mode:multiply" opacity="0.6" d="M30.5409 64.223C30.7499 63.859 28.9319 63.978 30.1409 64.887C30.1769 64.814 30.6959 64.969 30.5409 64.223Z" fill="url(#paint13_linear_435_44)"/>
<path style="mix-blend-mode:multiply" opacity="0.6" d="M40.2873 62.6052C39.3963 62.8872 39.8333 64.2782 40.7243 63.9872C41.6153 63.7052 41.1783 62.3142 40.2873 62.6052Z" fill="url(#paint14_linear_435_44)"/>
<path d="M85.0565 104.855C83.3195 104.764 81.5285 104.664 79.9555 103.927C78.3735 103.2 77.0275 101.691 77.0185 99.9451C77.0185 98.4001 78.0185 97.0631 78.7375 95.6811C79.4465 94.3081 79.8195 92.4441 78.7375 91.3441C77.6825 90.2801 75.5095 90.1531 75.3545 88.6621C75.2455 87.6261 76.3545 86.6891 76.0915 85.6891C75.8545 84.7891 74.7275 84.5251 74.0185 83.9161C73.0005 83.0431 73.0005 81.7161 73.4275 80.3881C73.3725 80.3881 73.3185 80.3881 73.2545 80.3881C72.4905 80.3341 71.7365 79.7971 71.0275 80.0701C70.2995 80.3521 70.0995 81.2881 69.5365 81.8341C68.5545 82.7801 66.9445 82.2251 65.5815 82.3521C63.7265 82.5161 62.3445 83.8801 60.9805 85.2161C61.2535 85.0711 61.5265 84.9251 61.7895 84.7801C63.9175 83.6341 65.8995 84.9711 68.0815 86.0071C68.8815 86.3891 69.7365 86.8261 70.1545 87.6071C70.8275 88.8891 70.1545 90.7711 71.2635 91.6991C72.4185 92.6721 74.5275 91.6621 75.5185 92.7991C76.3645 93.7631 75.5645 95.2171 75.0635 96.3991C73.9365 99.0721 74.7365 102.427 76.9365 104.309C79.1375 106.191 82.6015 106.373 85.0655 104.846L85.0565 104.855Z" fill="url(#paint15_linear_435_44)"/>
<defs>
<linearGradient id="paint0_linear_435_44" x1="-1.97864" y1="12.3441" x2="23.0734" y2="47.5971" gradientUnits="userSpaceOnUse">
<stop stop-color="#AEBF01"/>
<stop offset="1" stop-color="#5E7004"/>
</linearGradient>
<linearGradient id="paint1_linear_435_44" x1="-1.97753" y1="12.3438" x2="23.0735" y2="47.5968" gradientUnits="userSpaceOnUse">
<stop stop-color="#AEBF01"/>
<stop offset="1" stop-color="#5E7004"/>
</linearGradient>
<linearGradient id="paint2_linear_435_44" x1="18.6391" y1="2.46502" x2="35.3941" y2="41.542" gradientUnits="userSpaceOnUse">
<stop stop-color="#AEBF01"/>
<stop offset="1" stop-color="#5E7004"/>
</linearGradient>
<linearGradient id="paint3_linear_435_44" x1="18.5831" y1="5.1148" x2="34.3281" y2="41.8508" gradientUnits="userSpaceOnUse">
<stop stop-color="#AEBF01"/>
<stop offset="1" stop-color="#5E7004"/>
</linearGradient>
<linearGradient id="paint4_linear_435_44" x1="20.7923" y1="88.6591" x2="89.9063" y2="66.7341" gradientUnits="userSpaceOnUse">
<stop stop-color="#EB2B49"/>
<stop offset="1" stop-color="#9E1D44"/>
</linearGradient>
<linearGradient id="paint5_linear_435_44" x1="25.0543" y1="94.7282" x2="91.9584" y2="73.5051" gradientUnits="userSpaceOnUse">
<stop stop-color="#EB2B49"/>
<stop offset="1" stop-color="#9E1D44"/>
</linearGradient>
<linearGradient id="paint6_linear_435_44" x1="51.4426" y1="25.8539" x2="58.1166" y2="60.0019" gradientUnits="userSpaceOnUse">
<stop stop-color="#EB2B49"/>
<stop offset="1" stop-color="#9E1D44" stop-opacity="0"/>
</linearGradient>
<linearGradient id="paint7_linear_435_44" x1="40.895" y1="38.0999" x2="45.925" y2="89.347" gradientUnits="userSpaceOnUse">
<stop stop-color="#EB2B49"/>
<stop offset="1" stop-color="#9E1D44"/>
</linearGradient>
<linearGradient id="paint8_linear_435_44" x1="57.9162" y1="36.43" x2="62.9462" y2="87.6779" gradientUnits="userSpaceOnUse">
<stop stop-color="#EB2B49"/>
<stop offset="1" stop-color="#9E1D44"/>
</linearGradient>
<linearGradient id="paint9_linear_435_44" x1="72.0058" y1="35.0527" x2="77.0347" y2="86.2975" gradientUnits="userSpaceOnUse">
<stop stop-color="#EB2B49"/>
<stop offset="1" stop-color="#9E1D44"/>
</linearGradient>
<linearGradient id="paint10_linear_435_44" x1="72.2646" y1="35.0252" x2="77.2954" y2="86.2741" gradientUnits="userSpaceOnUse">
<stop stop-color="#EB2B49"/>
<stop offset="1" stop-color="#9E1D44"/>
</linearGradient>
<linearGradient id="paint11_linear_435_44" x1="70.7365" y1="35.1655" x2="75.7576" y2="86.4179" gradientUnits="userSpaceOnUse">
<stop stop-color="#EB2B49"/>
<stop offset="1" stop-color="#9E1D44"/>
</linearGradient>
<linearGradient id="paint12_linear_435_44" x1="19.4043" y1="40.2053" x2="24.4372" y2="91.4611" gradientUnits="userSpaceOnUse">
<stop stop-color="#EB2B49"/>
<stop offset="1" stop-color="#9E1D44"/>
</linearGradient>
<linearGradient id="paint13_linear_435_44" x1="27.6658" y1="39.3939" x2="32.6987" y2="90.654" gradientUnits="userSpaceOnUse">
<stop stop-color="#EB2B49"/>
<stop offset="1" stop-color="#9E1D44"/>
</linearGradient>
<linearGradient id="paint14_linear_435_44" x1="38.0353" y1="38.3794" x2="43.0552" y2="89.626" gradientUnits="userSpaceOnUse">
<stop stop-color="#EB2B49"/>
<stop offset="1" stop-color="#9E1D44"/>
</linearGradient>
<linearGradient id="paint15_linear_435_44" x1="68.0475" y1="84.3991" x2="80.1915" y2="110.173" gradientUnits="userSpaceOnUse">
<stop stop-color="#FCE9DF" stop-opacity="0"/>
<stop offset="1" stop-color="#FFC5B2"/>
</linearGradient>
</defs>
</svg>
