<svg width="124" height="237" viewBox="0 0 124 237" fill="none" xmlns="http://www.w3.org/2000/svg">
<path d="M71.7708 22.6689C71.7068 15.1319 71.0337 7.51288 72.5347 0.129883C75.4077 7.44888 75.7078 15.5039 75.4618 23.3689C75.2168 31.2339 74.4618 39.1249 75.3798 46.9259C81.1808 32.4339 85.0358 17.1499 86.7998 1.63889C88.1178 1.87589 89.4267 2.10288 90.7457 2.33888C89.9547 19.3049 86.6357 36.1519 80.9257 52.1449C89.2727 36.1429 97.6097 20.1409 105.957 4.12988C99.4827 20.7689 93.0188 37.4069 86.5448 54.0449C98.9828 40.7349 105.32 21.9869 119.876 11.0309C110.875 25.1779 101.874 39.3159 92.8728 53.4629C101.483 41.8439 111.821 31.5059 123.44 22.9049C108.702 37.6249 95.9547 54.3449 85.6627 72.4559C85.0447 73.5479 84.3178 74.7389 83.1178 75.1109C82.2988 75.3659 81.4168 75.1749 80.5808 74.9839C76.2078 74.0019 71.2528 73.4929 67.0788 71.8379C62.7418 70.1199 65.0607 66.3829 66.0697 62.9639C68.5607 54.5639 70.2518 45.9169 71.1068 37.1979C71.5618 32.5339 70.8527 27.1969 71.7617 22.6599L71.7708 22.6689Z" fill="url(#paint0_linear_435_81)"/>
<path style="mix-blend-mode:multiply" opacity="0.45" d="M92.8721 53.4726C101.345 40.1526 109.828 26.8327 118.302 13.5137C118.602 12.8767 118.893 12.2316 119.175 11.5856C105.119 22.6146 98.7821 40.9616 86.5441 54.0546C93.0171 37.4156 99.4821 20.7776 105.955 4.13965C103.309 9.21265 100.664 14.2857 98.0181 19.3687C92.8081 34.6977 88.8261 50.7356 78.4971 62.9736C79.0521 54.7906 79.6071 46.5987 80.1701 38.4157C77.6881 49.3087 73.0061 59.7007 66.5051 68.7737C66.1051 69.3377 65.6141 69.9107 65.0781 70.4107C65.4691 70.9837 66.1051 71.4746 67.0961 71.8656C71.2691 73.5196 76.2241 74.0196 80.5981 75.0116C81.4341 75.2016 82.3161 75.3837 83.1341 75.1387C84.3341 74.7657 85.0621 73.5747 85.6801 72.4837C95.9811 54.3727 108.728 37.6616 123.457 22.9326C111.828 31.5336 101.491 41.8706 92.8901 53.4906L92.8721 53.4726Z" fill="url(#paint1_linear_435_81)"/>
<path d="M41.5188 70.9019C43.4008 66.6649 45.5739 62.2279 49.5199 59.7919C53.7389 57.1729 59.1029 57.4099 64.0129 58.1549C72.4139 59.4369 80.6329 61.9649 88.2969 65.6379C93.4069 68.0839 98.5799 71.3659 100.844 76.5659C104.026 83.8579 100.517 92.1959 96.9068 99.2959C86.8428 119.108 75.6869 138.365 63.4939 156.948C51.2479 175.623 37.9638 193.616 23.7348 210.818C20.1618 215.137 16.5249 219.41 12.8249 223.629C10.9789 225.738 9.11483 227.838 7.23283 229.92C6.21483 231.057 3.12383 235.794 1.65983 236.012C-1.11317 236.421 0.99588 228.402 1.29588 226.584C2.21488 220.974 3.15088 215.373 4.10588 209.773C7.90588 187.488 12.0608 165.24 17.4618 143.274C22.8528 121.308 29.4909 99.6149 38.1639 78.7119C39.2459 76.0939 40.3638 73.4929 41.5188 70.9019Z" fill="#FB6B00"/>
<g style="mix-blend-mode:multiply" opacity="0.45">
<path d="M88.2891 65.6379C80.8511 62.0739 72.8961 59.5919 64.7501 58.2739C68.5411 59.6649 72.0591 61.5559 74.9781 64.3469C81.7331 70.8199 83.7701 80.9579 82.9791 90.2859C81.5511 107.161 72.305 122.235 63.313 136.583C47.42 161.931 31.5271 187.279 15.6351 212.628C14.2981 214.764 12.334 217.201 9.85204 216.746C6.67904 216.174 6.30606 211.818 6.71606 208.627C8.36106 195.68 11.7531 181.706 11.7891 168.486C8.95205 182.188 6.46104 195.971 4.11504 209.764C3.16104 215.364 2.23308 220.965 1.30608 226.575C1.00608 228.393 -1.10397 236.421 1.67003 236.003C3.13303 235.785 6.22503 231.048 7.24303 229.912C9.11603 227.829 10.98 225.729 12.834 223.62C16.526 219.401 20.163 215.128 23.745 210.809C37.983 193.607 51.2571 175.605 63.5041 156.939C75.6871 138.356 86.852 119.099 96.917 99.2869C100.517 92.1959 104.036 83.8579 100.854 76.5569C98.5901 71.3569 93.4161 68.0839 88.3071 65.6289L88.2891 65.6379Z" fill="#FF7D00"/>
</g>
<path style="mix-blend-mode:multiply" opacity="0.45" d="M13.071 162.413C13.026 162.622 12.98 162.831 12.935 163.04C20.035 163.413 27.027 165.586 33.046 169.45C38.41 172.896 42.602 177.378 45.72 182.57C45.929 182.279 46.148 181.988 46.357 181.706C43.047 176.451 38.547 171.905 33.482 168.695C27.345 164.813 20.263 162.704 13.071 162.413ZM28.382 125.218C26.627 124.954 24.6 124.481 22.518 124.154C22.445 124.399 22.381 124.645 22.308 124.89C24.609 125.299 26.9 125.927 29 126.272C34.21 127.118 39.492 127.691 44.638 128.927C50.13 130.255 55.33 132.482 59.576 136.292C63.277 139.61 66.432 143.638 69.496 147.611C69.668 147.338 69.841 147.056 70.023 146.784C67.195 142.965 64.204 139.201 60.786 136.001C51.894 127.672 39.838 126.945 28.382 125.236V125.218ZM5.77002 200.217C5.72502 200.49 5.67 200.763 5.625 201.035C7.698 202.199 9.56202 203.781 11.262 205.572C14.317 208.8 16.962 212.4 19.181 216.246C19.326 216.073 19.472 215.901 19.617 215.728C17.244 211.491 14.353 207.554 10.944 204.145C9.37997 202.581 7.66102 201.217 5.77002 200.208V200.217ZM78.56 106.952C76.606 104.815 74.524 102.733 72.16 101.033C69.741 99.296 67.114 97.723 64.586 96.151C59.458 92.95 53.367 90.159 47.43 89.05C42.984 88.222 38.619 88.195 34.246 88.568C34.183 88.741 34.11 88.913 34.046 89.095C37.774 88.913 41.511 89.05 45.166 89.895C48.221 90.605 51.439 91.677 54.276 93.032C56.794 94.232 59.44 95.26 61.804 96.778C64.277 98.36 66.85 99.706 69.114 101.606C71.223 103.379 73.423 105.043 75.615 106.706C79.951 109.998 83.67 113.698 87.016 117.944C87.116 117.762 87.216 117.589 87.316 117.408C84.607 113.789 81.661 110.325 78.56 106.952Z" fill="url(#paint2_linear_435_81)"/>
<path style="mix-blend-mode:multiply" opacity="0.75" d="M43.1378 162.14C41.4918 160.804 39.7638 159.567 37.9098 158.531C36.1458 157.54 34.2639 156.767 32.3269 156.185C30.3819 155.603 28.2449 154.912 26.2079 154.858C26.1269 154.858 26.1168 154.976 26.1898 155.003C28.2178 155.739 30.3089 156.14 32.3089 157.012C34.1179 157.803 35.8908 158.685 37.6278 159.631C39.4188 160.604 41.1648 161.695 42.7738 162.94C44.2378 164.077 45.5198 165.686 47.1378 166.595C47.2558 166.659 47.3558 166.532 47.3018 166.423C46.4828 164.695 44.6008 163.331 43.1378 162.149V162.14Z" fill="url(#paint3_linear_435_81)"/>
<path style="mix-blend-mode:multiply" opacity="0.75" d="M41.6206 151.985C40.9566 151.548 40.1566 151.284 39.4196 150.975C38.6746 150.657 37.9376 150.339 37.1926 150.012C37.0376 149.948 36.9016 150.166 37.0566 150.248C37.8196 150.621 38.5836 151.003 39.3476 151.375C40.0386 151.712 40.7206 152.13 41.4656 152.348C41.6836 152.412 41.7926 152.103 41.6116 151.985H41.6206Z" fill="url(#paint4_linear_435_81)"/>
<path style="mix-blend-mode:multiply" opacity="0.75" d="M71.0866 133.055C67.8506 128.482 63.4766 124.272 59.0766 120.826C55.2216 117.817 50.7396 115.289 45.9026 114.362C45.8026 114.344 45.7566 114.489 45.8566 114.526C50.8396 116.117 55.2486 118.599 59.2856 121.917C63.4766 125.372 66.7596 129.691 70.7776 133.301C70.9326 133.437 71.2146 133.255 71.0866 133.064V133.055Z" fill="url(#paint5_linear_435_81)"/>
<path style="mix-blend-mode:multiply" opacity="0.75" d="M73.3408 124.836C72.5498 123.99 71.7958 123.254 71.2408 122.217C71.1498 122.044 70.8868 122.199 70.9778 122.372C71.4958 123.381 72.2138 124.445 73.1778 125.063C73.3228 125.154 73.4598 124.954 73.3508 124.836H73.3408Z" fill="url(#paint6_linear_435_81)"/>
<path style="mix-blend-mode:multiply" opacity="0.75" d="M47.6472 100.997C45.1552 100.588 42.4102 100.906 39.9002 100.942C39.7182 100.942 39.7182 101.224 39.9002 101.233C42.4192 101.324 45.1552 101.697 47.6472 101.342C47.8192 101.315 47.8102 101.033 47.6472 101.006V100.997Z" fill="url(#paint7_linear_435_81)"/>
<path style="mix-blend-mode:multiply" opacity="0.75" d="M91.2517 98.3417C89.6787 96.1057 86.5057 94.4237 84.2147 93.0047C81.3237 91.2137 78.2597 89.6777 75.1227 88.3587C69.2497 85.8857 62.9847 84.4217 56.6387 83.8767C56.4207 83.8587 56.4297 84.1767 56.6387 84.2037C63.0667 85.0217 69.3227 86.7317 75.2777 89.2767C78.0417 90.4587 80.7057 91.8597 83.2787 93.4137C84.5607 94.1957 85.8237 95.0047 87.0607 95.8687C88.3427 96.7687 89.5427 97.9777 90.9887 98.6057C91.1517 98.6787 91.3797 98.5147 91.2517 98.3327V98.3417Z" fill="url(#paint8_linear_435_81)"/>
<path style="mix-blend-mode:multiply" opacity="0.75" d="M85.9613 81.6311C84.3793 79.8131 81.9882 78.6311 79.7432 77.8491C79.5062 77.7671 79.4063 78.1401 79.6433 78.2311C81.9703 79.0851 83.7703 80.4671 85.7343 81.9221C85.9163 82.0581 86.0893 81.7761 85.9523 81.6311H85.9613Z" fill="url(#paint9_linear_435_81)"/>
<path style="mix-blend-mode:multiply" opacity="0.75" d="M20.1252 195.453C19.5162 195.017 18.6892 194.771 17.9892 194.517C17.1802 194.217 16.3702 193.926 15.5702 193.635C15.4162 193.58 15.3072 193.835 15.4612 193.898C16.2432 194.244 17.0251 194.598 17.8161 194.944C18.5071 195.244 19.2622 195.644 20.0072 195.753C20.1982 195.78 20.2892 195.562 20.1352 195.453H20.1252Z" fill="url(#paint10_linear_435_81)"/>
<path style="mix-blend-mode:multiply" opacity="0.75" d="M34.2085 185.634C30.8445 178.969 21.8435 176.105 14.9335 177.551C14.7065 177.596 14.8065 177.924 15.0245 177.887C18.7435 177.26 22.5805 177.815 26.0075 179.397C29.2895 180.906 31.5175 183.242 33.7995 185.952C33.9995 186.188 34.3265 185.879 34.1995 185.634H34.2085Z" fill="url(#paint11_linear_435_81)"/>
<path style="mix-blend-mode:multiply" opacity="0.75" d="M10.8242 216.174C9.71515 215.655 8.57913 215.255 7.42413 214.846C7.26913 214.792 7.21517 215.028 7.36017 215.083C8.48817 215.537 9.58813 215.992 10.7521 216.346C10.8521 216.374 10.9152 216.219 10.8242 216.174Z" fill="url(#paint12_linear_435_81)"/>
<path style="mix-blend-mode:multiply" opacity="0.75" d="M25.2267 200.126C24.6907 199.771 24.1177 199.471 23.5537 199.162C23.3997 199.08 23.2717 199.308 23.4177 199.399C23.9717 199.717 24.5177 200.062 25.0997 200.344C25.2447 200.417 25.3537 200.217 25.2177 200.126H25.2267Z" fill="url(#paint13_linear_435_81)"/>
<path style="mix-blend-mode:screen" opacity="0.6" d="M31.0183 131.746C30.3453 131.637 29.6733 131.555 29.0003 131.482C28.6183 131.446 28.5363 132.064 28.9093 132.155C29.5363 132.3 30.1643 132.437 30.8093 132.546C31.3273 132.637 31.5463 131.837 31.0273 131.746H31.0183Z" fill="url(#paint14_linear_435_81)"/>
<path style="mix-blend-mode:screen" opacity="0.6" d="M24.5078 140.337C24.4628 140.356 24.4168 140.374 24.3718 140.392C24.3258 140.41 24.2898 140.428 24.2538 140.456C24.2168 140.492 24.1898 140.547 24.1808 140.601C24.1718 140.701 24.2168 140.81 24.3078 140.856C24.3898 140.901 24.4898 140.901 24.5718 140.856C24.6168 140.828 24.6538 140.783 24.6808 140.728C24.7078 140.674 24.7079 140.619 24.6899 140.565C24.6899 140.519 24.6718 140.465 24.6628 140.419C24.6538 140.356 24.5718 140.31 24.5078 140.328V140.337Z" fill="url(#paint15_linear_435_81)"/>
<path style="mix-blend-mode:screen" opacity="0.6" d="M37.384 115.28C37.256 115.216 37.093 115.18 36.956 115.226C36.82 115.271 36.675 115.353 36.611 115.489L36.493 115.762C36.429 115.898 36.402 116.026 36.438 116.171C36.475 116.298 36.575 116.435 36.693 116.498C36.82 116.562 36.966 116.589 37.102 116.553C37.147 116.535 37.193 116.517 37.238 116.498C37.32 116.453 37.384 116.38 37.429 116.307C37.484 116.226 37.547 116.144 37.602 116.062C37.684 115.953 37.693 115.762 37.657 115.635C37.62 115.498 37.52 115.353 37.393 115.289L37.384 115.28Z" fill="url(#paint16_linear_435_81)"/>
<path style="mix-blend-mode:screen" opacity="0.6" d="M50.3384 103.797C50.2194 103.824 50.1014 103.851 49.9744 103.888C49.7744 103.933 49.6374 104.169 49.7014 104.369C49.7654 104.569 49.9744 104.706 50.1834 104.642C50.3014 104.606 50.4194 104.569 50.5384 104.533C50.7284 104.479 50.8744 104.26 50.8014 104.06C50.7384 103.86 50.5384 103.742 50.3284 103.797H50.3384Z" fill="url(#paint17_linear_435_81)"/>
<path style="mix-blend-mode:screen" opacity="0.6" d="M39.0004 94.3498C38.7004 94.3318 38.4364 94.4598 38.1734 94.5688C37.9364 94.6688 37.7094 94.7508 37.5554 94.9598C37.4914 95.0408 37.5364 95.1958 37.6274 95.2408C37.8734 95.3508 38.1004 95.2959 38.3644 95.2689C38.6554 95.2319 38.9464 95.2049 39.1914 95.0409C39.5004 94.8319 39.3734 94.3688 39.0004 94.3498Z" fill="url(#paint18_linear_435_81)"/>
<path style="mix-blend-mode:screen" opacity="0.6" d="M68.7213 72.0199C68.3393 71.5479 67.6663 71.2109 67.0943 71.0109C66.4123 70.7749 65.6664 70.8019 64.9934 70.6109C63.4394 70.1659 63.3214 72.9479 64.9934 72.5479C65.2754 72.4839 65.7033 72.5479 65.9943 72.5659C66.2843 72.5749 66.5754 72.6389 66.8764 72.6479C67.4304 72.6749 68.0213 72.7299 68.5573 72.6199C68.8583 72.5569 68.8764 72.2109 68.7124 72.0109L68.7213 72.0199Z" fill="url(#paint19_linear_435_81)"/>
<path style="mix-blend-mode:screen" opacity="0.6" d="M48.2562 74.457C48.2562 74.457 48.2382 74.457 48.2282 74.457C48.2282 74.457 48.2192 74.448 48.2102 74.439C48.1472 74.402 48.0562 74.393 47.9922 74.412C47.9192 74.43 47.8562 74.484 47.8192 74.548C47.7832 74.612 47.7742 74.703 47.7922 74.766C47.8192 74.839 47.8562 74.903 47.9282 74.939C47.9922 74.975 48.0742 74.993 48.1472 74.966C48.2102 74.948 48.2562 74.912 48.3012 74.857C48.3102 74.839 48.3192 74.821 48.3282 74.802C48.3282 74.802 48.3472 74.784 48.3562 74.775C48.4652 74.684 48.4102 74.475 48.2652 74.448L48.2562 74.457Z" fill="url(#paint20_linear_435_81)"/>
<path style="mix-blend-mode:screen" opacity="0.6" d="M55.8666 65.6841C55.7856 65.6931 55.7126 65.7111 55.6306 65.7201C55.4856 65.7381 55.4036 65.8661 55.3666 66.0021C55.3666 66.0021 55.3666 66.0111 55.3666 66.0201C55.3036 66.1291 55.3395 66.2841 55.4575 66.3471C55.4575 66.3471 55.4666 66.3471 55.4766 66.3471C55.5766 66.4381 55.7126 66.5111 55.8396 66.4571C55.9126 66.4291 55.9856 66.3931 56.0576 66.3661C56.2306 66.2931 56.3675 66.1291 56.3035 65.9381C56.2395 65.7381 56.0675 65.6651 55.8765 65.6931L55.8666 65.6841Z" fill="url(#paint21_linear_435_81)"/>
<path style="mix-blend-mode:screen" opacity="0.6" d="M16.3332 173.268C16.1972 173.296 16.0973 173.314 15.9883 173.396C15.8973 173.468 15.8242 173.523 15.7602 173.623C15.7152 173.687 15.7422 173.796 15.8152 173.832C15.9152 173.887 16.0152 173.896 16.1332 173.914C16.2692 173.932 16.3692 173.896 16.4972 173.85C16.8602 173.714 16.7242 173.205 16.3332 173.268Z" fill="url(#paint22_linear_435_81)"/>
<path style="mix-blend-mode:screen" opacity="0.6" d="M11.6809 191.188C11.5449 191.088 11.3719 191.016 11.1989 190.979C10.9719 190.934 10.7989 190.988 10.5989 191.079C10.4629 191.134 10.4078 191.334 10.4448 191.461C10.4898 191.616 10.6259 191.698 10.7719 191.716C10.9539 191.734 11.1359 191.77 11.2899 191.87C11.4719 191.989 11.7269 191.898 11.8269 191.725C11.9449 191.525 11.8539 191.316 11.6809 191.188Z" fill="url(#paint23_linear_435_81)"/>
<path style="mix-blend-mode:screen" opacity="0.6" d="M8.57951 208.454C8.28851 208.536 8.40653 208.991 8.70653 208.909C8.99753 208.827 8.87951 208.372 8.57951 208.454Z" fill="url(#paint24_linear_435_81)"/>
<defs>
<linearGradient id="paint0_linear_435_81" x1="97.3678" y1="13.0559" x2="75.1928" y2="67.1569" gradientUnits="userSpaceOnUse">
<stop stop-color="#4F771A"/>
<stop offset="1" stop-color="#395E1F"/>
</linearGradient>
<linearGradient id="paint1_linear_435_81" x1="102.31" y1="17.7006" x2="82.3631" y2="89.5617" gradientUnits="userSpaceOnUse">
<stop stop-color="#4F771A"/>
<stop offset="1" stop-color="#395E1F"/>
</linearGradient>
<linearGradient id="paint2_linear_435_81" x1="-4.063" y1="128.566" x2="83.804" y2="181.285" gradientUnits="userSpaceOnUse">
<stop stop-color="#8F4520"/>
<stop offset="1" stop-color="#732E12"/>
</linearGradient>
<linearGradient id="paint3_linear_435_81" x1="28.3899" y1="162.966" x2="45.1688" y2="158.385" gradientUnits="userSpaceOnUse">
<stop stop-color="#FF7D00"/>
<stop offset="1" stop-color="#E92400"/>
</linearGradient>
<linearGradient id="paint4_linear_435_81" x1="37.4506" y1="151.652" x2="41.3446" y2="150.589" gradientUnits="userSpaceOnUse">
<stop stop-color="#FF7D00"/>
<stop offset="1" stop-color="#E92400"/>
</linearGradient>
<linearGradient id="paint5_linear_435_81" x1="49.1006" y1="126.352" x2="67.9226" y2="121.213" gradientUnits="userSpaceOnUse">
<stop stop-color="#FF7D00"/>
<stop offset="1" stop-color="#E92400"/>
</linearGradient>
<linearGradient id="paint6_linear_435_81" x1="71.4048" y1="123.787" x2="73.0108" y2="123.349" gradientUnits="userSpaceOnUse">
<stop stop-color="#FF7D00"/>
<stop offset="1" stop-color="#E92400"/>
</linearGradient>
<linearGradient id="paint7_linear_435_81" x1="40.0832" y1="102.094" x2="47.5292" y2="100.061" gradientUnits="userSpaceOnUse">
<stop stop-color="#FF7D00"/>
<stop offset="1" stop-color="#E92400"/>
</linearGradient>
<linearGradient id="paint8_linear_435_81" x1="59.5427" y1="95.1137" x2="88.2857" y2="87.2667" gradientUnits="userSpaceOnUse">
<stop stop-color="#FF7D00"/>
<stop offset="1" stop-color="#E92400"/>
</linearGradient>
<linearGradient id="paint9_linear_435_81" x1="80.2413" y1="80.5471" x2="85.3553" y2="79.1511" gradientUnits="userSpaceOnUse">
<stop stop-color="#FF7D00"/>
<stop offset="1" stop-color="#E92400"/>
</linearGradient>
<linearGradient id="paint10_linear_435_81" x1="15.8212" y1="195.189" x2="19.8562" y2="194.088" gradientUnits="userSpaceOnUse">
<stop stop-color="#FF7D00"/>
<stop offset="1" stop-color="#E92400"/>
</linearGradient>
<linearGradient id="paint11_linear_435_81" x1="16.5505" y1="183.916" x2="32.6015" y2="179.534" gradientUnits="userSpaceOnUse">
<stop stop-color="#FF7D00"/>
<stop offset="1" stop-color="#E92400"/>
</linearGradient>
<linearGradient id="paint12_linear_435_81" x1="7.60015" y1="215.963" x2="10.6261" y2="215.136" gradientUnits="userSpaceOnUse">
<stop stop-color="#FF7D00"/>
<stop offset="1" stop-color="#E92400"/>
</linearGradient>
<linearGradient id="paint13_linear_435_81" x1="23.5797" y1="199.923" x2="25.1407" y2="199.496" gradientUnits="userSpaceOnUse">
<stop stop-color="#FF7D00"/>
<stop offset="1" stop-color="#E92400"/>
</linearGradient>
<linearGradient id="paint14_linear_435_81" x1="39.0283" y1="146.386" x2="95.189" y2="236.731" gradientUnits="userSpaceOnUse">
<stop stop-color="#FF7D00"/>
<stop offset="1" stop-color="#E92400"/>
</linearGradient>
<linearGradient id="paint15_linear_435_81" x1="31.1581" y1="151.287" x2="87.3173" y2="241.648" gradientUnits="userSpaceOnUse">
<stop stop-color="#FF7D00"/>
<stop offset="1" stop-color="#E92400"/>
</linearGradient>
<linearGradient id="paint16_linear_435_81" x1="51.3179" y1="138.752" x2="107.48" y2="229.107" gradientUnits="userSpaceOnUse">
<stop stop-color="#FF7D00"/>
<stop offset="1" stop-color="#E92400"/>
</linearGradient>
<linearGradient id="paint17_linear_435_81" x1="66.0851" y1="129.574" x2="122.249" y2="219.918" gradientUnits="userSpaceOnUse">
<stop stop-color="#FF7D00"/>
<stop offset="1" stop-color="#E92400"/>
</linearGradient>
<linearGradient id="paint18_linear_435_81" x1="61.7592" y1="132.263" x2="117.912" y2="222.611" gradientUnits="userSpaceOnUse">
<stop stop-color="#FF7D00"/>
<stop offset="1" stop-color="#E92400"/>
</linearGradient>
<linearGradient id="paint19_linear_435_81" x1="92.0763" y1="113.412" x2="148.229" y2="203.752" gradientUnits="userSpaceOnUse">
<stop stop-color="#FF7D00"/>
<stop offset="1" stop-color="#E92400"/>
</linearGradient>
<linearGradient id="paint20_linear_435_81" x1="77.7668" y1="122.302" x2="133.914" y2="212.641" gradientUnits="userSpaceOnUse">
<stop stop-color="#FF7D00"/>
<stop offset="1" stop-color="#E92400"/>
</linearGradient>
<linearGradient id="paint21_linear_435_81" x1="87.2115" y1="116.437" x2="143.365" y2="206.784" gradientUnits="userSpaceOnUse">
<stop stop-color="#FF7D00"/>
<stop offset="1" stop-color="#E92400"/>
</linearGradient>
<linearGradient id="paint22_linear_435_81" x1="10.4322" y1="164.163" x2="66.5898" y2="254.522" gradientUnits="userSpaceOnUse">
<stop stop-color="#FF7D00"/>
<stop offset="1" stop-color="#E92400"/>
</linearGradient>
<linearGradient id="paint23_linear_435_81" x1="-1.22527" y1="171.409" x2="54.9279" y2="261.756" gradientUnits="userSpaceOnUse">
<stop stop-color="#FF7D00"/>
<stop offset="1" stop-color="#E92400"/>
</linearGradient>
<linearGradient id="paint24_linear_435_81" x1="-10.7657" y1="177.341" x2="45.3869" y2="267.688" gradientUnits="userSpaceOnUse">
<stop stop-color="#FF7D00"/>
<stop offset="1" stop-color="#E92400"/>
</linearGradient>
</defs>
</svg>
