<svg width="167" height="219" viewBox="0 0 167 219" fill="none" xmlns="http://www.w3.org/2000/svg">
<path d="M19.8398 47.4731C13.3568 43.6361 6.48373 40.2721 0.927734 35.1811C8.68373 36.4991 15.7388 40.4091 22.3398 44.6731C28.9408 48.9461 35.3138 53.6651 42.4788 56.9111C33.0588 44.4551 21.9667 33.2711 9.60175 23.7431C10.4837 22.7341 11.3568 21.7341 12.2388 20.7251C26.3588 30.1621 39.0687 41.7091 49.8157 54.8561C40.4237 39.4451 31.0227 24.0341 21.6307 8.63208C32.5407 22.7611 43.4418 36.8991 54.3528 51.0281C49.3798 33.4991 36.6048 18.3971 34.7318 0.268066C42.1968 15.2791 49.6607 30.2891 57.1257 45.3091C51.6157 31.9351 48.1067 17.7421 46.7427 3.35007C51.7427 23.5701 59.4718 43.1181 69.6638 61.2931C70.2818 62.3931 70.9267 63.6301 70.6177 64.8481C70.4087 65.6751 69.7998 66.3391 69.1998 66.9571C66.0998 70.1941 63.1077 74.1761 59.5347 76.8951C55.8167 79.7221 53.8248 75.8131 51.4158 73.1761C45.5058 66.7031 38.9778 60.7931 31.9498 55.5561C28.1948 52.7561 23.2578 50.6101 19.8398 47.4821V47.4731Z" fill="url(#paint0_linear_435_110)"/>
<path style="mix-blend-mode:multiply" opacity="0.45" d="M57.1161 45.3001C50.0882 31.1621 43.0601 17.0241 36.0321 2.88614C35.6411 2.30414 35.2411 1.72311 34.8311 1.14111C37.0141 18.8791 49.4511 33.7721 54.3431 51.0191C43.4321 36.8901 32.5311 22.7521 21.6211 8.62314C24.6031 13.5061 27.5761 18.3971 30.5581 23.2801C40.9961 35.6631 52.6701 47.3461 57.8161 62.5211C51.0971 57.8201 44.3691 53.1101 37.6501 48.4101C45.6961 56.1651 52.1791 65.5301 56.5881 75.7951C56.8611 76.4311 57.1071 77.1491 57.2431 77.8591C57.9341 77.8131 58.6891 77.5221 59.5251 76.8861C63.0981 74.1671 66.0811 70.1851 69.1901 66.9481C69.7811 66.3301 70.3991 65.6751 70.6081 64.8391C70.9171 63.6211 70.2631 62.3841 69.6541 61.2841C59.4621 43.1091 51.7331 23.5711 46.7331 3.34113C48.0971 17.7431 51.6061 31.9261 57.1161 45.3001Z" fill="url(#paint1_linear_435_110)"/>
<path d="M45.5156 98.2788C42.8616 94.4788 40.1886 90.3328 40.1336 85.6958C40.0786 80.7318 43.0426 76.2578 46.2166 72.4398C51.6536 65.9028 58.0626 60.1748 65.1636 55.5108C69.9006 52.4008 75.3836 49.6648 81.0016 50.4098C88.8936 51.4558 94.2216 58.7658 98.4316 65.5118C110.206 84.3588 120.925 103.862 130.544 123.9C140.209 144.03 148.765 164.696 156.138 185.771C157.993 191.063 159.775 196.381 161.475 201.727C162.33 204.401 163.166 207.074 163.976 209.765C164.421 211.229 166.876 216.32 166.312 217.684C165.23 220.266 159.457 214.32 158.048 213.12C153.72 209.437 149.401 205.746 145.101 202.037C127.981 187.271 111.079 172.224 95.0486 156.259C79.0286 140.302 63.8726 123.409 50.4526 105.189C48.7706 102.907 47.1256 100.607 45.4976 98.2878L45.5156 98.2788Z" fill="#FB6B00"/>
<g style="mix-blend-mode:multiply" opacity="0.45">
<path d="M65.1631 55.5108C58.2721 60.0378 52.035 65.5658 46.707 71.8668C49.853 69.3398 53.2981 67.3028 57.1901 66.2478C66.2271 63.8118 75.9561 67.2938 83.5291 72.7848C97.2401 82.7228 105.368 98.4248 113.014 113.536C126.516 140.239 140.008 166.933 153.51 193.636C154.647 195.89 155.719 198.818 154.056 200.718C151.928 203.137 148.009 201.209 145.482 199.218C135.244 191.117 125.034 180.998 113.724 174.143C123.998 183.653 134.508 192.899 145.109 202.037C149.41 205.746 153.728 209.437 158.056 213.12C159.465 214.32 165.239 220.266 166.321 217.684C166.893 216.32 164.429 211.229 163.984 209.765C163.166 207.083 162.338 204.401 161.484 201.727C159.774 196.381 158.001 191.063 156.147 185.771C148.764 164.696 140.218 144.03 130.553 123.9C120.934 103.871 110.214 84.3688 98.4401 65.5118C94.2211 58.7658 88.903 51.4468 81.011 50.4098C75.392 49.6648 69.909 52.4008 65.173 55.5108H65.1631Z" fill="#FF7D00"/>
</g>
<path style="mix-blend-mode:multiply" opacity="0.45" d="M109.197 169.906C109.351 170.051 109.506 170.197 109.661 170.342C113.643 164.46 119.116 159.596 125.535 156.432C131.254 153.613 137.264 152.349 143.319 152.358C143.183 152.031 143.046 151.695 142.901 151.367C136.691 151.495 130.472 152.995 125.108 155.677C118.616 158.923 113.152 163.905 109.188 169.906H109.197ZM85.249 137.584C84.121 138.948 82.667 140.448 81.303 142.048C81.476 142.23 81.648 142.421 81.821 142.603C83.358 140.848 85.0759 139.202 86.4579 137.584C89.8769 133.565 93.086 129.328 96.805 125.564C100.778 121.546 105.369 118.245 110.824 116.572C115.57 115.118 120.653 114.499 125.635 113.927C125.49 113.636 125.344 113.345 125.199 113.054C120.471 113.499 115.707 114.118 111.188 115.4C99.469 118.718 92.613 128.656 85.23 137.584H85.249ZM137.8 195.682C138.009 195.863 138.218 196.045 138.428 196.227C140.491 195.054 142.81 194.272 145.228 193.745C149.574 192.799 154.02 192.39 158.457 192.481C158.384 192.263 158.312 192.054 158.239 191.836C153.384 191.681 148.52 192.127 143.846 193.281C141.692 193.818 139.646 194.581 137.8 195.672V195.682ZM95.532 85.1872C92.695 85.7602 89.831 86.4692 87.167 87.6152C84.43 88.7872 81.73 90.2332 79.075 91.5792C73.693 94.3152 68.147 98.0882 64.137 102.598C61.137 105.971 58.855 109.699 56.918 113.636C57.036 113.781 57.145 113.927 57.264 114.081C59.037 110.799 61.073 107.662 63.692 104.971C65.883 102.716 68.456 100.525 71.074 98.7892C73.402 97.2522 75.657 95.5152 78.166 94.2792C80.803 92.9792 83.276 91.4602 86.076 90.5152C88.685 89.6332 91.24 88.6062 93.804 87.5872C98.859 85.5782 103.951 84.2962 109.324 83.6232C109.224 83.4412 109.115 83.2692 109.015 83.0962C104.515 83.5502 100.032 84.2782 95.541 85.1872H95.532Z" fill="url(#paint2_linear_435_110)"/>
<path style="mix-blend-mode:multiply" opacity="0.75" d="M124.49 144.011C122.499 144.73 120.544 145.575 118.699 146.621C116.944 147.621 115.298 148.83 113.807 150.194C112.307 151.558 110.607 153.031 109.516 154.749C109.47 154.822 109.57 154.886 109.625 154.84C111.307 153.485 112.725 151.903 114.498 150.64C116.107 149.494 117.78 148.43 119.481 147.43C121.235 146.403 123.072 145.475 124.972 144.739C126.699 144.066 128.745 143.802 130.354 142.893C130.473 142.83 130.409 142.675 130.291 142.657C128.381 142.466 126.245 143.375 124.481 144.021L124.49 144.011Z" fill="url(#paint3_linear_435_110)"/>
<path style="mix-blend-mode:multiply" opacity="0.75" d="M115.008 140.075C114.29 140.42 113.654 140.975 113.008 141.429C112.353 141.902 111.69 142.366 111.035 142.838C110.899 142.938 111.017 143.166 111.162 143.075C111.881 142.611 112.599 142.157 113.317 141.693C113.963 141.275 114.672 140.902 115.245 140.384C115.417 140.229 115.208 139.975 115.017 140.075H115.008Z" fill="url(#paint4_linear_435_110)"/>
<path style="mix-blend-mode:multiply" opacity="0.75" d="M114.015 105.062C108.424 105.471 102.568 107.044 97.3396 109.035C92.7666 110.78 88.2935 113.308 85.0025 116.981C84.9295 117.063 85.0385 117.172 85.1205 117.099C89.0575 113.654 93.4575 111.153 98.3855 109.417C103.505 107.607 108.905 107.035 114.07 105.453C114.27 105.389 114.251 105.053 114.024 105.071L114.015 105.062Z" fill="url(#paint5_linear_435_110)"/>
<path style="mix-blend-mode:multiply" opacity="0.75" d="M108.142 98.8893C107.005 99.1343 105.987 99.3983 104.814 99.3343C104.614 99.3253 104.614 99.6343 104.814 99.6433C105.942 99.7253 107.224 99.6523 108.251 99.1523C108.406 99.0803 108.297 98.8523 108.142 98.8893Z" fill="url(#paint6_linear_435_110)"/>
<path style="mix-blend-mode:multiply" opacity="0.75" d="M74.4563 108.572C72.8193 110.49 71.6743 113.008 70.4013 115.172C70.3103 115.336 70.5463 115.481 70.6463 115.318C72.0193 113.208 73.7564 111.063 74.7384 108.735C74.8014 108.581 74.5564 108.435 74.4474 108.562L74.4563 108.572Z" fill="url(#paint7_linear_435_110)"/>
<path style="mix-blend-mode:multiply" opacity="0.75" d="M94.7034 69.867C91.9764 70.058 88.8944 71.913 86.4934 73.14C83.4664 74.686 80.5654 76.523 77.8204 78.532C72.6744 82.287 68.1734 86.896 64.4364 92.042C64.3094 92.215 64.5914 92.379 64.7184 92.215C68.7374 87.133 73.4374 82.669 78.6924 78.868C81.1294 77.104 83.7024 75.55 86.3664 74.149C87.6944 73.449 89.0484 72.786 90.4214 72.177C91.8584 71.54 93.5124 71.14 94.7944 70.231C94.9404 70.131 94.9134 69.849 94.7034 69.867Z" fill="url(#paint8_linear_435_110)"/>
<path style="mix-blend-mode:multiply" opacity="0.75" d="M77.6665 65.767C75.2935 66.176 73.0385 67.621 71.2205 69.14C71.0295 69.303 71.2925 69.576 71.4925 69.422C73.4295 67.876 75.5385 67.039 77.8025 66.112C78.0115 66.03 77.8575 65.739 77.6665 65.767Z" fill="url(#paint9_linear_435_110)"/>
<path style="mix-blend-mode:multiply" opacity="0.75" d="M141.129 180.925C140.438 181.225 139.81 181.798 139.22 182.271C138.547 182.807 137.883 183.353 137.21 183.889C137.083 183.989 137.247 184.217 137.383 184.117C138.083 183.626 138.792 183.135 139.492 182.644C140.111 182.207 140.838 181.771 141.32 181.189C141.438 181.044 141.302 180.853 141.129 180.925Z" fill="url(#paint10_linear_435_110)"/>
<path style="mix-blend-mode:multiply" opacity="0.75" d="M139.991 163.796C132.544 163.233 125.453 169.461 123.116 176.125C123.043 176.343 123.371 176.425 123.452 176.225C124.843 172.716 127.298 169.715 130.417 167.597C133.408 165.56 136.554 164.869 140.054 164.315C140.354 164.269 140.263 163.824 139.991 163.806V163.796Z" fill="url(#paint11_linear_435_110)"/>
<path style="mix-blend-mode:multiply" opacity="0.75" d="M154.065 199.59C153.056 200.272 152.119 201.036 151.174 201.818C151.046 201.918 151.219 202.091 151.346 202C152.319 201.272 153.274 200.554 154.174 199.745C154.247 199.672 154.156 199.536 154.065 199.6V199.59Z" fill="url(#paint12_linear_435_110)"/>
<path style="mix-blend-mode:multiply" opacity="0.75" d="M147.763 178.98C147.181 179.252 146.636 179.598 146.072 179.907C145.917 179.989 146.054 180.225 146.199 180.143C146.763 179.834 147.336 179.543 147.881 179.198C148.018 179.107 147.908 178.916 147.763 178.98Z" fill="url(#paint13_linear_435_110)"/>
<path style="mix-blend-mode:screen" opacity="0.6" d="M92.194 138.693C91.749 139.211 91.33 139.738 90.921 140.284C90.685 140.593 91.185 140.975 91.449 140.702C91.903 140.238 92.3399 139.775 92.7579 139.284C93.1029 138.884 92.5309 138.284 92.1849 138.693H92.194Z" fill="url(#paint14_linear_435_110)"/>
<path style="mix-blend-mode:screen" opacity="0.6" d="M96.1941 148.712C96.1851 148.758 96.1751 148.812 96.1661 148.858C96.1661 148.903 96.1571 148.949 96.1661 148.994C96.1751 149.049 96.2121 149.094 96.2571 149.131C96.3391 149.194 96.4571 149.212 96.5391 149.158C96.6211 149.112 96.6661 149.031 96.6761 148.931C96.6761 148.876 96.6571 148.821 96.6211 148.776C96.5851 148.731 96.5391 148.703 96.4851 148.676C96.4391 148.658 96.3941 148.64 96.3481 148.621C96.2851 148.603 96.2121 148.649 96.1941 148.703V148.712Z" fill="url(#paint15_linear_435_110)"/>
<path style="mix-blend-mode:screen" opacity="0.6" d="M81.3841 124.737C81.2561 124.81 81.1471 124.928 81.1111 125.074C81.0741 125.21 81.0741 125.383 81.1651 125.501L81.3381 125.746C81.4201 125.864 81.5111 125.955 81.6561 126.001C81.7841 126.037 81.9471 126.019 82.0651 125.955C82.1841 125.883 82.2841 125.774 82.3201 125.637C82.3201 125.592 82.3291 125.546 82.3381 125.492C82.3381 125.401 82.3201 125.31 82.2651 125.228C82.2291 125.137 82.1841 125.046 82.1471 124.955C82.0931 124.828 81.9291 124.719 81.8111 124.683C81.6741 124.646 81.5021 124.655 81.3841 124.737Z" fill="url(#paint16_linear_435_110)"/>
<path style="mix-blend-mode:screen" opacity="0.6" d="M78.2467 107.716C78.2097 107.834 78.1737 107.953 78.1377 108.071C78.0737 108.271 78.2007 108.507 78.4097 108.553C78.6097 108.598 78.8378 108.498 78.8918 108.28C78.9188 108.162 78.9557 108.044 78.9827 107.916C79.0287 107.725 78.9287 107.489 78.7187 107.444C78.5097 107.398 78.3097 107.498 78.2467 107.707V107.716Z" fill="url(#paint17_linear_435_110)"/>
<path style="mix-blend-mode:screen" opacity="0.6" d="M64.3008 112.545C64.1368 112.79 64.1098 113.081 64.0638 113.372C64.0278 113.627 63.9728 113.863 64.0818 114.109C64.1188 114.2 64.2818 114.245 64.3638 114.191C64.5818 114.036 64.6638 113.809 64.7638 113.572C64.8818 113.309 65.0098 113.045 64.9908 112.745C64.9728 112.372 64.5098 112.245 64.3008 112.545Z" fill="url(#paint18_linear_435_110)"/>
<path style="mix-blend-mode:screen" opacity="0.6" d="M60.5258 75.5679C59.9168 75.6489 59.2889 76.0489 58.8259 76.4399C58.2709 76.9039 57.9168 77.5589 57.3978 78.0309C56.2158 79.1319 58.5348 80.6679 59.0618 79.0319C59.1528 78.7589 59.4348 78.4309 59.5988 78.1859C59.7618 77.9409 59.9619 77.7219 60.1259 77.4769C60.4349 77.0219 60.7898 76.5399 60.9708 76.0219C61.0708 75.7399 60.7809 75.5399 60.5349 75.5769L60.5258 75.5679Z" fill="url(#paint19_linear_435_110)"/>
<path style="mix-blend-mode:screen" opacity="0.6" d="M52.0445 94.343C52.0445 94.343 52.0355 94.352 52.0265 94.361C52.0265 94.361 52.0076 94.361 51.9986 94.37C51.9356 94.406 51.8805 94.479 51.8625 94.543C51.8445 94.615 51.8535 94.697 51.8895 94.761C51.9255 94.824 51.9895 94.879 52.0625 94.897C52.1355 94.915 52.2165 94.915 52.2805 94.87C52.3445 94.834 52.3985 94.77 52.4165 94.697C52.4355 94.633 52.4265 94.57 52.4075 94.515C52.4075 94.497 52.3895 94.479 52.3805 94.47C52.3805 94.461 52.3805 94.443 52.3805 94.433C52.3535 94.297 52.1535 94.233 52.0535 94.343H52.0445Z" fill="url(#paint20_linear_435_110)"/>
<path style="mix-blend-mode:screen" opacity="0.6" d="M48.4619 83.296C48.4349 83.368 48.399 83.441 48.372 83.514C48.317 83.65 48.3809 83.787 48.4719 83.878C48.4719 83.878 48.4719 83.887 48.4719 83.896C48.5349 84.005 48.681 84.05 48.799 83.987C48.799 83.987 48.808 83.987 48.817 83.987C48.944 83.95 49.0719 83.868 49.0989 83.732C49.1079 83.65 49.126 83.577 49.135 83.496C49.163 83.314 49.09 83.105 48.89 83.059C48.69 83.014 48.5349 83.123 48.4529 83.305L48.4619 83.296Z" fill="url(#paint21_linear_435_110)"/>
<path style="mix-blend-mode:screen" opacity="0.6" d="M120.171 172.706C120.126 172.834 120.09 172.934 120.108 173.07C120.117 173.188 120.135 173.279 120.181 173.388C120.217 173.461 120.326 173.488 120.39 173.452C120.49 173.388 120.553 173.316 120.617 173.225C120.699 173.116 120.726 173.016 120.753 172.879C120.826 172.497 120.317 172.352 120.171 172.715V172.706Z" fill="url(#paint22_linear_435_110)"/>
<path style="mix-blend-mode:screen" opacity="0.6" d="M133.11 185.953C132.955 186.026 132.8 186.126 132.691 186.253C132.537 186.426 132.492 186.599 132.465 186.817C132.447 186.962 132.583 187.108 132.711 187.153C132.865 187.199 133.01 187.126 133.1 186.999C133.21 186.853 133.328 186.717 133.501 186.635C133.691 186.544 133.756 186.281 133.656 186.099C133.547 185.899 133.32 185.862 133.12 185.944L133.11 185.953Z" fill="url(#paint23_linear_435_110)"/>
<path style="mix-blend-mode:screen" opacity="0.6" d="M146.301 197.527C146.219 197.818 146.674 197.954 146.756 197.654C146.837 197.364 146.383 197.227 146.301 197.527Z" fill="url(#paint24_linear_435_110)"/>
<defs>
<linearGradient id="paint0_linear_435_110" x1="24.7567" y1="20.6401" x2="59.6267" y2="67.5641" gradientUnits="userSpaceOnUse">
<stop stop-color="#4F771A"/>
<stop offset="1" stop-color="#395E1F"/>
</linearGradient>
<linearGradient id="paint1_linear_435_110" x1="31.2861" y1="18.8051" x2="82.5161" y2="72.9921" gradientUnits="userSpaceOnUse">
<stop stop-color="#4F771A"/>
<stop offset="1" stop-color="#395E1F"/>
</linearGradient>
<linearGradient id="paint2_linear_435_110" x1="71.282" y1="167.142" x2="161.802" y2="119.12" gradientUnits="userSpaceOnUse">
<stop stop-color="#8F4520"/>
<stop offset="1" stop-color="#732E12"/>
</linearGradient>
<linearGradient id="paint3_linear_435_110" x1="117.499" y1="157.114" x2="122.241" y2="140.379" gradientUnits="userSpaceOnUse">
<stop stop-color="#FF7D00"/>
<stop offset="1" stop-color="#E92400"/>
</linearGradient>
<linearGradient id="paint4_linear_435_110" x1="112.499" y1="143.515" x2="113.599" y2="139.631" gradientUnits="userSpaceOnUse">
<stop stop-color="#FF7D00"/>
<stop offset="1" stop-color="#E92400"/>
</linearGradient>
<linearGradient id="paint5_linear_435_110" x1="96.8455" y1="120.474" x2="102.166" y2="101.702" gradientUnits="userSpaceOnUse">
<stop stop-color="#FF7D00"/>
<stop offset="1" stop-color="#E92400"/>
</linearGradient>
<linearGradient id="paint6_linear_435_110" x1="106.16" y1="100.046" x2="106.611" y2="98.4543" gradientUnits="userSpaceOnUse">
<stop stop-color="#FF7D00"/>
<stop offset="1" stop-color="#E92400"/>
</linearGradient>
<linearGradient id="paint7_linear_435_110" x1="71.4173" y1="115.67" x2="73.5223" y2="108.243" gradientUnits="userSpaceOnUse">
<stop stop-color="#FF7D00"/>
<stop offset="1" stop-color="#E92400"/>
</linearGradient>
<linearGradient id="paint8_linear_435_110" x1="75.4884" y1="95.4" x2="83.6104" y2="66.734" gradientUnits="userSpaceOnUse">
<stop stop-color="#FF7D00"/>
<stop offset="1" stop-color="#E92400"/>
</linearGradient>
<linearGradient id="paint9_linear_435_110" x1="73.7025" y1="70.154" x2="75.1475" y2="65.054" gradientUnits="userSpaceOnUse">
<stop stop-color="#FF7D00"/>
<stop offset="1" stop-color="#E92400"/>
</linearGradient>
<linearGradient id="paint10_linear_435_110" x1="138.613" y1="184.519" x2="139.751" y2="180.504" gradientUnits="userSpaceOnUse">
<stop stop-color="#FF7D00"/>
<stop offset="1" stop-color="#E92400"/>
</linearGradient>
<linearGradient id="paint11_linear_435_110" x1="129.326" y1="178.071" x2="133.862" y2="162.063" gradientUnits="userSpaceOnUse">
<stop stop-color="#FF7D00"/>
<stop offset="1" stop-color="#E92400"/>
</linearGradient>
<linearGradient id="paint12_linear_435_110" x1="152.147" y1="202.283" x2="152.999" y2="199.274" gradientUnits="userSpaceOnUse">
<stop stop-color="#FF7D00"/>
<stop offset="1" stop-color="#E92400"/>
</linearGradient>
<linearGradient id="paint13_linear_435_110" x1="146.661" y1="180.318" x2="147.103" y2="178.761" gradientUnits="userSpaceOnUse">
<stop stop-color="#FF7D00"/>
<stop offset="1" stop-color="#E92400"/>
</linearGradient>
<linearGradient id="paint14_linear_435_110" x1="108.802" y1="139.445" x2="215.171" y2="138.003" gradientUnits="userSpaceOnUse">
<stop stop-color="#FF7D00"/>
<stop offset="1" stop-color="#E92400"/>
</linearGradient>
<linearGradient id="paint15_linear_435_110" x1="108.922" y1="148.721" x2="215.274" y2="147.283" gradientUnits="userSpaceOnUse">
<stop stop-color="#FF7D00"/>
<stop offset="1" stop-color="#E92400"/>
</linearGradient>
<linearGradient id="paint16_linear_435_110" x1="108.601" y1="124.977" x2="214.976" y2="123.538" gradientUnits="userSpaceOnUse">
<stop stop-color="#FF7D00"/>
<stop offset="1" stop-color="#E92400"/>
</linearGradient>
<linearGradient id="paint17_linear_435_110" x1="108.367" y1="107.589" x2="214.723" y2="106.154" gradientUnits="userSpaceOnUse">
<stop stop-color="#FF7D00"/>
<stop offset="1" stop-color="#E92400"/>
</linearGradient>
<linearGradient id="paint18_linear_435_110" x1="108.438" y1="112.684" x2="214.808" y2="111.251" gradientUnits="userSpaceOnUse">
<stop stop-color="#FF7D00"/>
<stop offset="1" stop-color="#E92400"/>
</linearGradient>
<linearGradient id="paint19_linear_435_110" x1="107.957" y1="76.9879" x2="214.327" y2="75.5459" gradientUnits="userSpaceOnUse">
<stop stop-color="#FF7D00"/>
<stop offset="1" stop-color="#E92400"/>
</linearGradient>
<linearGradient id="paint20_linear_435_110" x1="108.193" y1="93.8371" x2="214.574" y2="92.3979" gradientUnits="userSpaceOnUse">
<stop stop-color="#FF7D00"/>
<stop offset="1" stop-color="#E92400"/>
</linearGradient>
<linearGradient id="paint21_linear_435_110" x1="108.038" y1="82.717" x2="214.411" y2="81.284" gradientUnits="userSpaceOnUse">
<stop stop-color="#FF7D00"/>
<stop offset="1" stop-color="#E92400"/>
</linearGradient>
<linearGradient id="paint22_linear_435_110" x1="109.251" y1="173.119" x2="215.628" y2="171.68" gradientUnits="userSpaceOnUse">
<stop stop-color="#FF7D00"/>
<stop offset="1" stop-color="#E92400"/>
</linearGradient>
<linearGradient id="paint23_linear_435_110" x1="109.443" y1="186.848" x2="215.807" y2="185.403" gradientUnits="userSpaceOnUse">
<stop stop-color="#FF7D00"/>
<stop offset="1" stop-color="#E92400"/>
</linearGradient>
<linearGradient id="paint24_linear_435_110" x1="109.601" y1="198.071" x2="215.942" y2="196.633" gradientUnits="userSpaceOnUse">
<stop stop-color="#FF7D00"/>
<stop offset="1" stop-color="#E92400"/>
</linearGradient>
</defs>
</svg>
