<svg width="729" height="359" viewBox="0 0 729 359" fill="none" xmlns="http://www.w3.org/2000/svg">
<path d="M691.263 215.402C688.696 212.268 686.283 209.264 683.786 206.307C675.315 196.336 666.485 186.732 656.834 177.914C650.203 171.862 643.27 166.21 635.562 161.431C635.894 161.511 636.22 161.568 636.535 161.677C636.873 161.78 637.178 161.941 637.5 162.073C650.36 167.445 662.875 173.597 674.999 180.539C688.475 188.26 701.333 196.908 713.125 207.142C718.206 211.566 723.022 216.258 727.486 221.34C727.794 221.696 728.164 222.01 728.853 222.725C728.602 221.768 728.515 221.254 728.345 220.787C722.178 204.467 714.361 188.966 705.455 174.056C687.095 143.237 664.669 115.877 638.167 92.0291C623.236 78.5736 607.237 66.6079 590.213 56.0225C556.488 35.0808 520.237 20.6464 481.803 11.746C447.598 3.83767 412.919 0.506347 377.887 0.936905C366.518 1.06941 355.148 1.47101 343.794 2.21014C335.569 2.75233 327.376 3.96955 319.205 5.08335C307.155 6.72188 295.229 9.10828 283.423 11.9507C273.285 14.4094 263.219 17.1417 253.235 20.0958C244.249 22.7523 235.306 25.6657 226.479 28.8404C216.807 32.3446 207.246 36.1847 197.692 40.0475C186.151 44.7231 174.873 50.0355 163.688 55.6153C141.403 66.7278 119.885 79.2183 99.0829 92.979C75.9426 108.309 53.8915 125.148 32.7746 143.271C27.0963 148.149 20.5161 151.32 13.0928 152.278C11.0076 152.531 8.82191 152.128 6.7063 151.901C5.47743 151.773 4.26609 151.347 3.02527 151.174C1.3857 150.939 0.470419 151.825 0.789203 153.497C0.998865 154.661 1.39885 155.822 1.87612 156.913C7.03033 168.184 13.405 178.729 20.1349 189.079C37.6571 215.973 58.282 240.112 81.8493 261.612C98.0005 276.346 115.297 289.52 133.749 301.083C162.948 319.354 194.074 333.115 227.033 342.562C248.876 348.822 271.103 352.9 293.595 355.708C313.545 358.211 333.536 359.138 353.611 358.747C371.738 358.401 389.787 357.026 407.74 354.65C421.932 352.792 436.014 350.328 450.006 347.253C461.761 344.67 473.422 341.818 484.949 338.368C497.341 334.657 509.596 330.519 521.67 325.868C543.997 317.286 565.575 307.124 586.438 295.326C615.004 279.171 641.698 260.253 666.452 238.495C674.437 231.47 682.095 224.021 689.902 216.776C690.305 216.397 690.673 215.979 691.245 215.333" fill="#618B4E"/>
</svg>
