<svg width="435" height="345" viewBox="0 0 435 345" fill="none" xmlns="http://www.w3.org/2000/svg">
<path d="M428.163 48.0371C418.685 21.0113 400.468 -2.36064 368.25 1.1304C350.118 3.05646 333.348 12.847 316.506 18.9655C292.92 27.5068 269.092 35.2586 243.81 36.6441C232.032 37.2549 220.467 35.5123 209.047 32.7437C198.986 30.3406 186.781 31.0657 176.506 31.0158C156.302 30.9647 136.044 34.2195 117.074 40.8524C76.6029 54.983 64.1882 74.7448 42.8473 109.934C-3.63707 186.463 -7.84999 275.331 10.7308 310.322C24.8052 336.832 53.3363 344.099 82.0818 344.828C112.818 345.605 143.826 337.351 173.057 329.197C206.323 319.924 238.77 309.373 270.174 294.956C335.372 265.004 393.663 215.654 421.247 149.023C434.407 117.275 439.835 81.1844 428.213 48.1022" fill="white"/>
</svg>
