<svg width="729" height="359" viewBox="0 0 729 359" fill="none" xmlns="http://www.w3.org/2000/svg">
<path d="M37.5837 215.402C40.1505 212.268 42.5638 209.264 45.0604 206.307C53.5318 196.336 62.3613 186.732 72.0125 177.914C78.6436 171.862 85.5763 166.21 93.2845 161.431C92.9527 161.511 92.6268 161.568 92.3113 161.677C91.9735 161.78 91.6684 161.941 91.3469 162.073C78.4867 167.445 65.9721 173.597 53.8478 180.539C40.372 188.26 27.5138 196.908 15.7219 207.142C10.6411 211.566 5.8249 216.258 1.36074 221.34C1.05241 221.696 0.683121 222.01 -0.00645109 222.725C0.24458 221.768 0.331461 221.254 0.501592 220.787C6.66877 204.467 14.4862 188.966 23.3918 174.056C41.7516 143.237 64.1773 115.877 90.6792 92.0291C105.611 78.5736 121.61 66.6079 138.634 56.0225C172.359 35.0808 208.61 20.6464 247.044 11.746C281.249 3.83767 315.928 0.506347 350.959 0.936905C362.329 1.06941 373.699 1.47101 385.053 2.21014C393.278 2.75233 401.47 3.96955 409.642 5.08335C421.692 6.72188 433.618 9.10828 445.424 11.9507C455.562 14.4094 465.628 17.1417 475.612 20.0958C484.598 22.7523 493.541 25.6657 502.367 28.8404C512.04 32.3446 521.6 36.1847 531.155 40.0475C542.696 44.7231 553.974 50.0355 565.158 55.6153C587.444 66.7278 608.962 79.2183 629.764 92.979C652.904 108.309 674.955 125.148 696.072 143.271C701.75 148.149 708.331 151.32 715.754 152.278C717.839 152.531 720.025 152.128 722.14 151.901C723.369 151.773 724.581 151.347 725.821 151.174C727.461 150.939 728.376 151.825 728.057 153.497C727.848 154.661 727.448 155.822 726.971 156.913C721.816 168.184 715.442 178.729 708.712 189.079C691.19 215.973 670.565 240.112 646.997 261.612C630.846 276.346 613.55 289.52 595.098 301.083C565.898 319.354 534.773 333.115 501.814 342.562C479.971 348.822 457.743 352.9 435.251 355.708C415.302 358.211 395.311 359.138 375.235 358.747C357.108 358.401 339.06 357.026 321.106 354.65C306.914 352.792 292.833 350.328 278.84 347.253C267.086 344.67 255.425 341.818 243.898 338.368C231.506 334.657 219.25 330.519 207.177 325.868C184.85 317.286 163.271 307.124 142.409 295.326C113.843 279.171 87.1486 260.253 62.3944 238.495C54.41 231.47 46.7518 224.021 38.9447 216.776C38.542 216.397 38.1736 215.979 37.6017 215.333" fill="#618B4E"/>
</svg>
