<svg width="346" height="349" viewBox="0 0 346 349" fill="none" xmlns="http://www.w3.org/2000/svg">
<path d="M328.843 80.4558C318.109 54.9246 303.184 32.2491 278.081 18.9081C254.346 6.33434 224.453 -0.783692 197.553 0.0687688C184.039 0.494999 163.426 2.37038 154.317 13.0261C136.784 19.5901 121.602 29.4787 105.565 39.1115C71.0103 59.8689 41.16 88.9804 21.4879 124.059C4.08231 155.174 -4.64184 191.233 2.49999 226.397C8.70098 256.915 23.0702 286.538 42.8278 310.705C61.0031 332.912 87.475 350.814 117.411 348.853C132.55 347.873 147.903 341.564 160.005 332.614C173.647 322.512 183.612 308.574 194.645 295.915C200.119 289.607 206.021 283.682 212.564 278.44C215.985 275.712 219.749 273.538 223.597 271.492C229.927 268.21 235.957 268.338 242.927 268.125C266.705 267.315 283.768 256.063 302.329 242.508C316.356 232.236 328.287 222.348 336.028 206.492C342.913 192.341 345.565 176.571 345.949 160.971C346.676 133.436 339.492 105.774 328.843 80.4984" fill="white"/>
</svg>
