<svg width="1557" height="798" viewBox="0 0 1557 798" fill="none" xmlns="http://www.w3.org/2000/svg">
<path d="M305.924 33.7884C333.924 48.0623 359.013 67.24 378.531 91.9064C421.694 146.462 431.531 217.55 449.634 282.653C457.256 310.053 463.982 343.867 485.811 363.208C508.752 383.526 539.233 400.593 568.863 408.407C616.87 421.074 655.047 433.963 695.528 464.777C735.439 495.162 763.698 530.976 812.964 544.221C864.438 558.05 918.326 560.213 971.351 559.035C1041.89 557.465 1112.62 550.139 1182.83 557.095C1330.28 571.709 1469.9 652.516 1556.02 773.078C1420.67 802.833 1272.34 793.537 1133.6 795.559C988.271 797.678 842.919 797.707 697.595 795.648C584.24 794.041 470.908 791.159 357.62 787.011C246.192 782.93 133.681 771.004 22.275 771.004C10.4603 771.004 1.16414 418.037 0.749342 385.378C-0.828458 260.149 5.04554 135.632 11.6899 10.6553C76.8299 2.85534 142.83 -4.93717 207.836 3.95163C241.68 8.58122 275.517 18.2849 305.924 33.781V33.7884Z" fill="#A0E2F4"/>
</svg>
