<svg width="518" height="75" viewBox="0 0 518 75" fill="none" xmlns="http://www.w3.org/2000/svg">
<path d="M1.00624 65.5974L2.35433 8.85498C2.49396 5.76832 4.97231 3.29458 8.07315 3.17339C22.1583 2.62289 104.635 2.09518 112.751 3.22352C135.118 3.50056 171.31 0.807464 206.5 1.01099C255.873 1.29656 303.276 4.37863 307.759 3.88927C312.871 3.33115 499.573 3.37441 511.104 3.50988C514.502 3.54982 517.171 6.40414 516.991 9.78444L515.396 66.8744C515.217 70.2619 512.248 72.8223 508.854 72.5346C502.573 72.0024 453.791 73.3922 405 72.9467C354.396 72.4846 295 69.3626 270.565 69.3626C224 69.3626 136.249 72.3688 108.625 71.3657C81 70.3626 22.2337 71.1434 7.32858 71.8598C3.77953 72.0304 0.84637 69.1315 1.00624 65.5974Z" fill="#F2F2F2" fill-opacity="0.1"/>
<path d="M112.751 3.22352C104.635 2.09518 22.1583 2.62289 8.07315 3.17339C4.97231 3.29458 2.49396 5.76832 2.35433 8.85498L1.00624 65.5974C0.84637 69.1315 3.77953 72.0304 7.32858 71.8598C22.2337 71.1434 81 70.3626 108.625 71.3657C136.249 72.3688 224 69.3626 270.565 69.3626C295 69.3626 354.396 72.4846 405 72.9467C453.791 73.3922 502.573 72.0024 508.854 72.5346C512.248 72.8223 515.217 70.2619 515.396 66.8744L516.991 9.78444C517.171 6.40414 514.502 3.54982 511.104 3.50988C499.573 3.37441 312.871 3.33115 307.759 3.88927C303.276 4.37863 255.873 1.29656 206.5 1.01099M112.751 3.22352C135.118 3.50056 171.31 0.807464 206.5 1.01099M112.751 3.22352L206.5 1.01099" stroke="#F2F2F2" stroke-width="2"/>
</svg>
