<svg width="100" height="85" viewBox="0 0 100 85" fill="none" xmlns="http://www.w3.org/2000/svg">
<mask id="mask0_70_47730" style="mask-type:alpha" maskUnits="userSpaceOnUse" x="0" y="0" width="100" height="85">
<path d="M5.5396 35.1124C6.18763 34.5411 6.79907 33.9909 7.42097 33.4563C9.51661 31.6535 11.6227 29.9503 13.7497 28.4567C15.213 27.4348 16.6711 26.5124 18.1396 25.8154C18.0873 25.8154 18.0403 25.8154 17.988 25.8259C17.9358 25.8312 17.8783 25.8521 17.826 25.8678C15.6415 26.4496 13.4152 27.2252 11.1628 28.1842C8.65954 29.2585 6.14059 30.5635 3.59029 32.2667C2.49282 33.0056 1.40058 33.8127 0.313562 34.7245C0.240398 34.7874 0.156781 34.8398 0 34.9656C0.130651 34.7665 0.193363 34.6564 0.261302 34.5621C2.71231 31.2552 5.28352 28.2052 7.93835 25.3333C13.4205 19.4009 16.4516 14.417 22.2577 10.3974C25.5292 8.12824 29.3128 5.71754 32.5634 4.17679C38.9967 1.14769 46.658 0.183411 52.4642 0.0157105C57.6275 -0.131028 61.3432 0.754642 65.7644 2.48406C67.2016 3.04481 68.6074 3.6632 69.9818 4.35497C70.9748 4.85807 71.8946 5.50791 72.8248 6.13679C74.194 7.05915 75.9918 8.14396 77.2095 9.31787C78.2494 10.3346 79.7807 11.4036 80.7475 12.5199C81.6202 13.5261 82.9894 14.5847 83.789 15.6957C84.667 16.9168 85.4927 18.2113 86.3184 19.5109C87.3114 21.0779 88.2103 22.7759 89.0673 24.5262C90.7762 28.0165 92.2448 31.7688 93.4938 35.7727C94.8787 40.2325 95.9762 44.97 96.8228 49.9486C97.0475 51.2902 97.5649 52.2965 98.4115 52.852C98.6519 53.0039 98.9707 53.0197 99.2633 53.0668C99.4306 53.0983 99.6291 53.0563 99.8068 53.0773C100.042 53.1035 100.068 53.3393 99.8539 53.6957C99.7075 53.942 99.5403 54.1778 99.3678 54.398C97.5649 56.641 96.1956 58.6691 94.2881 60.6343C89.313 65.744 86.3184 70.099 81.1237 73.736C77.5648 76.2305 74.5389 78.3268 71.0114 80.009C65.43 82.6713 60.0576 84.254 54.8943 84.7937C51.4712 85.1553 47.1806 85.0138 44.0241 84.5841C41.2282 84.2068 38.0612 83.4731 35.5423 82.4512C33.2689 81.5288 30.5828 80.3811 28.5394 79.0238C26.9193 77.9494 25.3776 76.7493 23.9039 75.4235C22.6705 74.3072 20.9512 73.1333 19.8328 71.8336C18.6308 70.4396 17.4915 68.9512 16.4254 67.3633C14.4552 64.4286 12.7411 61.1846 11.283 57.6105C9.28667 52.7157 7.29032 47.3021 6.35486 41.354C6.05175 39.4359 5.83748 37.434 5.58141 35.474C5.57095 35.3691 5.56573 35.2643 5.55528 35.0914" fill="#FFCE75"/>
</mask>
<g mask="url(#mask0_70_47730)">
<path d="M98.288 15.2034C97.3778 7.95448 90.6425 2.22824 82.1136 1.45523C60.7254 -0.485077 39.2746 -0.485077 17.8871 1.45523C9.35822 2.22889 2.62222 7.95448 1.71204 15.2034C-0.570679 33.3828 -0.570679 51.6166 1.71204 69.796C2.62222 77.0455 9.35822 82.7711 17.8864 83.5448C39.2738 85.4851 60.7254 85.4851 82.1136 83.5448C90.6425 82.7711 97.3778 77.0455 98.288 69.796C100.571 51.6166 100.571 33.3834 98.288 15.2034Z" fill="url(#paint0_radial_70_47730)"/>
</g>
<defs>
<radialGradient id="paint0_radial_70_47730" cx="0" cy="0" r="1" gradientUnits="userSpaceOnUse" gradientTransform="translate(20.4994 74.2833) scale(110.282 93.74)">
<stop stop-color="#FAE100"/>
<stop offset="0.0544" stop-color="#FADC04"/>
<stop offset="0.1167" stop-color="#FBCE0E"/>
<stop offset="0.1829" stop-color="#FCB720"/>
<stop offset="0.2514" stop-color="#FE9838"/>
<stop offset="0.3054" stop-color="#FF7950"/>
<stop offset="0.4922" stop-color="#FF1C74"/>
<stop offset="1" stop-color="#6C1CD1"/>
</radialGradient>
</defs>
</svg>
