<svg width="500" height="225" viewBox="0 0 500 225" fill="none" xmlns="http://www.w3.org/2000/svg">
<path d="M23.7483 203.103C16.5183 196.043 15.1983 194.403 9.92827 182.983C5.52827 174.813 1.13829 161.613 1.13829 153.433C1.13829 145.253 -0.74171 93.7126 1.13829 52.2226C3.01829 10.7326 33.7883 10.1026 80.8883 3.82262C127.988 -2.46738 205.218 0.052619 270.528 3.82262C335.828 7.59262 424.368 13.8826 458.908 17.6526C486.538 20.6726 497.628 45.7326 499.718 57.8826C499.928 75.2726 500.218 114.963 499.718 134.573C499.088 159.093 482.768 186.753 465.808 201.833C448.858 216.923 419.338 220.693 382.288 223.833C345.238 226.973 303.168 222.573 249.798 223.833C196.418 225.093 90.2983 219.433 64.5583 217.543C43.9583 216.033 28.7683 207.273 23.7383 203.083L23.7483 203.103Z" fill="#F07F39"/>
</svg>
