<svg width="404" height="180" viewBox="0 0 404 180" fill="none" xmlns="http://www.w3.org/2000/svg">
<path d="M398.818 152.822C395.398 158.882 394.538 160.122 389.638 164.402C389.048 165.332 386.318 167.912 380.108 170.792C372.338 174.382 339.518 177.582 311.278 178.782C283.038 179.982 224.798 177.982 206.088 177.582C187.378 177.182 76.188 170.792 35.238 166.802C-5.70198 162.802 -0.0519845 121.672 0.648015 79.7425C1.35802 37.8125 29.238 13.0525 48.658 7.86248C68.068 2.67248 123.488 -0.527519 154.198 0.272481C184.908 1.07248 307.748 4.26248 352.928 5.46248C389.078 6.42248 401.878 41.2725 403.758 58.5725V133.242C403.758 144.422 400.458 150.942 398.818 152.812V152.822Z" fill="#F07F39"/>
</svg>
