<svg width="227" height="119" viewBox="0 0 227 119" fill="none" xmlns="http://www.w3.org/2000/svg">
<path d="M11.3646 98.261C11.9203 97.0659 12.4379 95.924 12.986 94.7897C14.8511 90.9607 16.8608 87.2153 19.1978 83.6451C20.804 81.1939 22.5397 78.8416 24.595 76.6949C24.4961 76.7482 24.3971 76.7939 24.3058 76.8548C24.2068 76.9157 24.1231 76.9918 24.0317 77.0603C20.3853 79.8312 16.9141 82.8153 13.6331 86.0126C9.98671 89.5676 6.61439 93.3586 3.71404 97.5531C2.46559 99.3648 1.32372 101.237 0.32649 103.202C0.257978 103.339 0.166628 103.468 0.00676664 103.75C0.00676664 103.43 -0.0084583 103.262 0.00676664 103.103C0.608152 97.4922 1.80331 91.996 3.39432 86.5911C6.66768 75.4236 11.5244 64.9869 17.9722 55.2962C21.6033 49.8305 25.6988 44.7377 30.2359 39.9876C39.2262 30.5862 49.5639 22.9965 61.0588 16.9446C71.2899 11.5626 82.054 7.56606 93.2443 4.71139C96.8754 3.78267 100.529 2.93768 104.206 2.19927C106.871 1.6664 109.581 1.34668 112.275 0.996503C116.249 0.478855 120.246 0.204806 124.242 0.0830067C127.675 -0.0159554 131.109 -0.0235678 134.534 0.0449444C137.617 0.105844 140.708 0.250481 143.783 0.486468C147.156 0.752904 150.521 1.13353 153.885 1.52176C157.95 1.99374 161.985 2.68647 166.012 3.47056C174.035 5.03111 181.93 7.08648 189.702 9.59859C198.35 12.4 206.777 15.7647 215.013 19.609C217.229 20.6443 219.588 21.0706 222.032 20.7356C222.717 20.6367 223.379 20.3246 224.034 20.0734C224.415 19.9287 224.765 19.6927 225.146 19.5329C225.648 19.3197 226.013 19.5176 226.051 20.0657C226.082 20.4464 226.051 20.8422 225.991 21.2228C225.29 25.1737 224.141 29.0028 222.862 32.8014C219.528 42.6748 214.975 51.9544 209.266 60.663C205.353 66.6312 200.945 72.2112 196.035 77.3876C188.263 85.571 179.501 92.5136 169.795 98.2686C163.363 102.082 156.626 105.249 149.698 108.043C143.555 110.525 137.267 112.519 130.842 114.11C125.042 115.549 119.18 116.66 113.265 117.452C108.591 118.084 103.902 118.518 99.1896 118.754C95.2311 118.952 91.2803 119.058 87.3218 118.967C83.0664 118.868 78.8187 118.624 74.5861 118.206C66.7605 117.437 59.0415 116.112 51.4138 114.217C40.9695 111.621 30.8906 108.005 21.1923 103.339C18.0635 101.831 15.0033 100.164 11.9127 98.5731C11.7528 98.4894 11.6006 98.3904 11.3646 98.2382" fill="#618A4D"/>
<path d="M57.275 72.8811C57.3055 73.6423 57.3816 74.3807 57.5338 75.1191C57.5338 75.142 57.5491 75.1648 57.5491 75.18C57.5795 75.3018 57.7089 75.3475 57.8003 75.2714C58.4169 74.7004 58.9574 74.0686 59.4065 73.3606C59.6197 73.0257 59.7947 72.6755 59.947 72.3101C60.1069 71.9219 60.2058 71.5184 60.2363 71.0997C60.2743 70.5821 60.1982 70.0873 59.9013 69.6534C59.5968 69.1966 59.1096 69.09 58.6376 69.3565C58.3636 69.5163 58.1581 69.7371 57.9906 69.9959C57.7698 70.3309 57.6252 70.6963 57.5186 71.0769C57.3511 71.6707 57.3131 72.2873 57.275 72.8887M102.189 50.5765C102.295 50.1807 102.348 49.8305 102.409 49.4879C102.638 48.2547 102.79 47.0063 102.858 45.7502C102.935 44.3876 102.927 43.0173 102.744 41.6623C102.645 40.9391 102.508 40.2312 102.303 39.5308C102.234 39.3024 102.135 39.0741 102.029 38.8609C101.998 38.7848 101.922 38.7239 101.854 38.663C101.755 38.5717 101.564 38.6097 101.511 38.7315C101.481 38.7924 101.45 38.8533 101.435 38.9142C101.382 39.2644 101.321 39.6146 101.306 39.9647C101.222 41.9288 101.306 43.8852 101.473 45.8416C101.526 46.481 101.602 47.1128 101.679 47.7447C101.778 48.5288 101.884 49.3205 101.991 50.1045C102.013 50.2568 102.029 50.409 102.173 50.5841M80.8737 76.9461C80.7747 76.9537 80.7138 77.0222 80.6757 77.0984C80.3789 77.5856 80.0744 78.0728 79.7927 78.5676C79.511 79.0624 79.2903 79.5952 79.1228 80.1433C78.8716 80.9579 78.8031 81.78 78.9249 82.6174C79.001 83.1427 79.1685 83.6451 79.4425 84.1018C79.5719 84.3074 79.7166 84.4977 79.9221 84.6423C80.2875 84.8935 80.691 84.8555 80.9955 84.5357C81.102 84.4216 81.1934 84.2921 81.2543 84.1551C81.338 83.9572 81.3989 83.744 81.4446 83.5309C81.6121 82.7696 81.5816 82.0008 81.5207 81.2319C81.4218 79.915 81.2162 78.6132 81.0107 77.3115C80.9879 77.1821 80.9726 77.0527 80.8737 76.9537M116.85 45.5447C116.805 45.5447 116.751 45.5294 116.721 45.5447C116.637 45.6132 116.553 45.6817 116.477 45.7654C116.104 46.2146 115.876 46.7398 115.724 47.2955C115.564 47.8893 115.465 48.4983 115.442 49.1149C115.419 49.8838 115.45 50.6526 115.587 51.4139C115.716 52.1523 115.906 52.8755 116.218 53.5606C116.386 53.9184 116.576 54.2686 116.82 54.5807C117.01 54.8243 117.231 55.0374 117.497 55.1973C117.878 55.418 118.274 55.4789 118.7 55.3343C119.119 55.1973 119.423 54.9232 119.659 54.5655C119.85 54.2686 119.971 53.9336 120.063 53.5911C120.223 52.9668 120.245 52.335 120.238 51.6955C120.238 51.5585 120.184 51.4367 120.055 51.3682C119.149 50.8353 118.54 50.0436 118.045 49.1454C117.65 48.4298 117.353 47.6686 117.155 46.8845C117.041 46.4353 116.942 45.9862 116.843 45.5447M75.073 66.0146C75.073 66.1897 75.073 66.3648 75.073 66.5399C75.1186 67.6741 75.3851 68.7627 75.8494 69.798C76.0017 70.1406 76.1844 70.4679 76.428 70.7572C76.5955 70.9627 76.7934 71.1378 77.037 71.252C77.273 71.3586 77.5013 71.3662 77.7373 71.2596C78.0494 71.1226 78.3007 70.9094 78.5138 70.6582C78.7269 70.3994 78.8868 70.1177 79.0238 69.8132C79.2218 69.3717 79.3664 68.9073 79.473 68.4354C79.5186 68.2374 79.5263 68.0471 79.4958 67.8492C79.3283 66.6008 79.1761 65.3599 79.0238 64.1115C78.9858 63.807 78.9477 63.5025 78.902 63.198C78.8868 63.0914 78.8564 62.9772 78.7955 62.8935C78.4377 62.4367 78.0038 62.0637 77.4404 61.881C76.9152 61.7136 76.4356 61.8125 76.0702 62.254C75.9484 62.4063 75.8418 62.5738 75.7429 62.7489C75.5678 63.0534 75.4536 63.3883 75.3622 63.7309C75.1643 64.4769 75.0577 65.2457 75.0806 66.0222M58.1885 77.1821C58.2722 77.4866 58.4397 77.7683 58.6148 78.0423C58.7671 78.2859 58.9498 78.5067 59.1629 78.697C59.6501 79.1157 60.1982 79.2527 60.8224 79.0852C61.302 78.9558 61.7207 78.7274 62.1013 78.4077C62.4058 78.1489 62.6723 77.852 62.9082 77.5323C63.266 77.0527 63.5553 76.535 63.8065 75.9945C64.347 74.8298 64.7048 73.6042 65.0017 72.3558C65.055 72.135 65.0473 71.9219 65.0017 71.7011C64.819 70.9475 64.6896 70.1938 64.5678 69.425C64.3622 68.0928 64.2785 66.753 64.3622 65.4056C64.3927 64.8956 64.4916 64.4008 64.6363 63.9136C64.7352 63.571 64.8799 63.2513 65.1006 62.9696C65.329 62.6803 65.6107 62.4976 65.9761 62.4215C66.3034 62.3606 66.5851 62.4291 66.8515 62.6194C67.0494 62.7641 67.1941 62.9544 67.3159 63.1675C67.4757 63.4568 67.5747 63.7765 67.6432 64.1039C67.7041 64.3855 67.7498 64.6672 67.7726 64.9565C67.8335 65.7938 67.8411 66.6312 67.7345 67.4686C67.6813 67.8644 67.6813 68.2527 67.7574 68.6561C67.8716 69.2651 67.9325 69.8817 68.0543 70.4831C68.2903 71.6098 68.6404 72.6984 69.0896 73.7565C69.2266 74.0838 69.3788 74.4035 69.592 74.6852C69.7062 74.8451 69.8432 74.9897 69.9954 75.1191C70.2619 75.3323 70.5512 75.3551 70.8633 75.1952C71.1069 75.0658 71.2896 74.8831 71.4494 74.67C71.6397 74.4264 71.7768 74.1523 71.9062 73.8631C72.1193 73.3759 72.2868 72.8734 72.401 72.3558C72.5456 71.7316 72.6522 71.0997 72.774 70.4755C72.8044 70.3233 72.7816 70.171 72.7588 70.0188C72.6294 69.0977 72.5456 68.1765 72.5837 67.2478C72.6522 65.6111 72.9034 64.0049 73.4667 62.452C73.6951 61.8277 73.9692 61.2264 74.3041 60.6554C74.5629 60.2215 74.8598 59.8104 75.2176 59.445C75.446 59.2091 75.6972 58.9883 75.9788 58.8132C76.7096 58.3488 77.4937 58.2499 78.3311 58.4478C78.4986 58.4859 78.666 58.5468 78.8411 58.5924C78.8716 58.5924 78.9325 58.5696 78.9553 58.5392C79.0467 58.3869 79.1152 58.227 79.2065 58.0748C79.3816 57.7855 79.61 57.5571 79.9221 57.4125C80.082 57.3364 80.2571 57.2983 80.4321 57.2831C80.7595 57.2679 81.0411 57.3745 81.2543 57.6257C81.3837 57.7779 81.4903 57.9454 81.574 58.1205C81.6806 58.3412 81.7567 58.5696 81.8176 58.8056C81.9546 59.3385 82.046 59.8866 82.1069 60.4347C82.2058 61.2873 82.2363 62.1475 82.2135 63.0077C82.2058 63.3579 82.1678 63.708 82.1449 64.0658C82.1297 64.3094 82.1069 64.553 82.1297 64.789C82.2058 65.5122 82.282 66.2354 82.3962 66.9585C82.5408 67.872 82.7235 68.7779 82.891 69.6914C82.8986 69.7523 82.9214 69.8208 82.9595 69.8741C82.9747 69.897 83.0584 69.9122 83.0661 69.897C83.1346 69.8132 83.2031 69.7295 83.2564 69.6305C84.147 67.872 84.8398 66.0451 85.3879 64.1572C85.5629 63.5634 85.7076 62.962 85.8674 62.3682C85.936 62.1094 85.9588 61.8506 85.9283 61.5841C85.8598 60.9447 85.8065 60.3129 85.7456 59.6734C85.6619 58.8208 85.5858 57.9606 85.502 57.108C85.3955 56.0118 85.2813 54.9156 85.1595 53.8194C85.0681 52.9668 84.9692 52.1142 84.855 51.2616C84.5886 49.3205 84.2384 47.3869 83.6751 45.499C83.4238 44.654 83.1193 43.8243 82.7539 43.0249C82.7083 42.926 82.6626 42.827 82.6169 42.7204C82.5484 42.5682 82.5865 42.454 82.7387 42.4083C82.9899 42.3322 83.2488 42.2637 83.5 42.1952C83.8882 42.081 84.284 42.0582 84.6723 42.0125C85.0529 41.9744 85.4259 42.0277 85.7837 42.1343C86.3699 42.3018 86.7886 42.6748 86.9789 43.2685C87.0322 43.436 87.0778 43.6111 87.1159 43.7786C87.5117 45.362 87.8238 46.9606 88.0598 48.5744C88.2806 50.036 88.4557 51.5052 88.5851 52.9744C88.6764 54.0097 88.7678 55.0374 88.8515 56.0727C88.8515 56.1184 88.8515 56.1641 88.882 56.2021C88.8972 56.2326 88.9429 56.2554 88.9733 56.2706C88.9809 56.2706 89.019 56.2554 89.0266 56.2402C89.0951 56.0575 89.1636 55.8748 89.2245 55.6845C89.4149 55.1212 89.6204 54.5654 89.8868 54.025C90.138 53.5073 90.4349 53.0201 90.8155 52.5862C91.1048 52.2513 91.4398 51.962 91.828 51.7488C92.1021 51.6042 92.3913 51.4976 92.7034 51.4596C93.1374 51.4139 93.5332 51.5052 93.8986 51.7412C94.1955 51.9391 94.4315 52.198 94.637 52.4872C94.9187 52.8831 95.1318 53.3246 95.3069 53.7738C95.6038 54.535 95.8169 55.3267 95.9616 56.126C96.1671 57.2146 96.2661 58.3108 96.365 59.407C96.4259 60.1073 96.4944 60.8153 96.6315 61.508C96.6924 61.8125 96.7761 62.1094 96.8751 62.3987C96.9284 62.5662 97.0197 62.7184 97.1263 62.863C97.2481 63.0381 97.4384 63.0914 97.6515 63.0533C97.8114 63.0229 97.9408 62.9468 98.0626 62.8554C98.3291 62.6499 98.5346 62.3911 98.7097 62.1094C98.938 61.7288 99.1207 61.3329 99.2806 60.9219C99.547 60.2215 99.745 59.4983 99.9277 58.7675C99.9581 58.6381 99.9886 58.5087 100.019 58.3793C100.072 58.0976 100.179 57.816 100.171 57.5343C100.171 57.2526 100.049 56.9786 99.9886 56.6969C99.7678 55.753 99.5699 54.8014 99.41 53.8423C99.2426 52.8222 99.0751 51.7945 98.9304 50.7744C98.801 49.8533 98.7097 48.9322 98.6107 48.0187C98.5346 47.2955 98.4737 46.5724 98.4128 45.8416C98.4128 45.773 98.3976 45.7121 98.3976 45.6436C98.3291 44.1668 98.2225 42.69 98.2605 41.2132C98.291 40.0865 98.3443 38.9675 98.5041 37.8485C98.6107 37.1024 98.763 36.3716 99.0142 35.6637C99.174 35.2222 99.3643 34.8111 99.6536 34.4381C99.882 34.1336 100.164 33.8976 100.529 33.753C101.146 33.5094 101.694 33.5931 102.181 34.0498C102.394 34.2478 102.562 34.4761 102.714 34.7197C102.935 35.0775 103.11 35.4582 103.262 35.8464C103.681 36.9197 103.978 38.0236 104.175 39.1578C104.495 40.9696 104.579 42.789 104.495 44.6236C104.457 45.5294 104.396 46.4277 104.297 47.326C104.183 48.3308 104.038 49.3357 103.856 50.3329C103.62 51.6346 103.353 52.9288 103.018 54.2077C102.935 54.535 102.927 54.8547 103.018 55.1821C103.27 56.027 103.559 56.8644 103.939 57.6561C104.206 58.2118 104.518 58.7447 104.906 59.2319C105.127 59.5059 105.378 59.7572 105.675 59.9551C105.858 60.0769 106.056 60.1758 106.276 60.2139C106.718 60.29 107.106 60.1682 107.434 59.8561C107.7 59.6049 107.86 59.2928 107.982 58.9655C108.096 58.6533 108.157 58.326 108.21 57.9987C108.309 57.3668 108.309 56.7274 108.279 56.0879C108.279 55.9966 108.233 55.9205 108.142 55.8824C108.058 55.8443 107.982 55.8139 107.898 55.7758C106.048 55.0222 104.693 53.081 104.419 51.254C104.305 50.5232 104.297 49.8077 104.434 49.0845C104.51 48.6734 104.64 48.2699 104.853 47.9045C105.363 47.0443 106.345 46.7322 107.258 47.1281C107.67 47.3108 108.012 47.5848 108.301 47.9198C108.606 48.2699 108.857 48.6582 109.07 49.0692C109.344 49.6021 109.557 50.1578 109.74 50.7212C109.976 51.4596 110.121 52.2132 110.25 52.9744C110.265 53.0582 110.288 53.1419 110.326 53.2257C110.342 53.2561 110.395 53.2942 110.425 53.2942C110.509 53.2942 110.6 53.3018 110.684 53.2866C111.103 53.18 111.453 52.9592 111.765 52.6699C112.191 52.2665 112.503 51.7869 112.732 51.2616C112.808 51.0865 112.831 50.881 112.854 50.6831C112.899 50.2187 112.953 49.762 113.036 49.3052C113.234 48.2852 113.531 47.2955 113.988 46.3516C114.262 45.773 114.589 45.2249 114.993 44.7225C115.533 44.045 116.165 43.4665 116.98 43.1163C117.147 43.0478 117.277 42.9488 117.383 42.789C117.581 42.4845 117.863 42.2713 118.205 42.1571C118.441 42.081 118.677 42.0734 118.921 42.1495C119.202 42.2332 119.446 42.3703 119.667 42.5606C119.918 42.7737 120.139 43.0249 120.329 43.2914C120.641 43.7253 120.892 44.1897 121.106 44.6692C121.532 45.6208 121.814 46.6104 122.027 47.6305C122.095 47.9502 122.141 48.2776 122.202 48.6049C122.217 48.6886 122.24 48.78 122.255 48.8637C122.293 49.0388 122.384 49.0921 122.537 49.0464C123.039 48.9094 123.481 48.6658 123.838 48.3004C124.059 48.0796 124.257 47.8436 124.44 47.6C124.706 47.2499 124.897 46.8464 125.087 46.4506C125.209 46.1993 125.239 45.9481 125.193 45.6817C124.889 43.8928 124.478 42.1419 123.785 40.4595C123.732 40.3377 123.679 40.2159 123.641 40.0865C123.625 40.0256 123.641 39.9571 123.641 39.881C124.432 39.6602 125.216 39.6755 126 39.8734C126.168 39.9191 126.335 39.9876 126.495 40.0637C127.043 40.3225 127.409 40.7412 127.599 41.3121C127.66 41.5025 127.713 41.6928 127.766 41.8755C127.858 41.8907 127.873 41.8222 127.888 41.7689C127.964 41.5405 128.041 41.3121 128.109 41.0762C128.292 40.4595 128.513 39.8658 128.787 39.2796C128.992 38.8381 129.228 38.4118 129.51 38.0159C129.753 37.6734 130.027 37.3613 130.362 37.0948C130.674 36.8436 131.025 36.6609 131.413 36.562C131.656 36.5011 131.892 36.5011 132.128 36.5696C132.433 36.6533 132.692 36.8132 132.935 37.0111C133.187 37.2242 133.4 37.4755 133.59 37.7495C134.214 38.6478 134.641 39.645 134.838 40.7184C135.074 41.982 134.602 43.0097 133.582 43.7862C133.278 44.0146 133.08 44.1059 132.578 44.2658C132.463 44.2125 132.425 44.1135 132.395 44.007C132.25 43.4969 132.121 42.9869 131.969 42.4768C131.854 42.0962 131.71 41.7308 131.557 41.3654C131.474 41.1599 131.352 40.9772 131.238 40.7869C131.184 40.6955 131.101 40.6118 131.025 40.5357C130.811 40.3301 130.545 40.3225 130.301 40.4976C130.142 40.6194 130.012 40.7717 129.906 40.9391C129.708 41.236 129.571 41.5557 129.449 41.8907C129.213 42.5377 129.053 43.2 128.946 43.8775C128.764 45.0346 128.672 46.1993 128.703 47.3717C128.748 49.0997 128.962 50.7973 129.441 52.4644C129.639 53.1419 129.883 53.8042 130.187 54.4436C130.263 54.6035 130.241 54.7329 130.134 54.8699C129.807 55.3191 129.449 55.7378 129.045 56.1108C128.817 56.3163 128.573 56.5066 128.292 56.6437C128.132 56.7274 127.964 56.7731 127.782 56.7807C127.477 56.7959 127.218 56.6893 127.013 56.4686C126.8 56.2402 126.655 55.9585 126.564 55.6693C126.457 55.3115 126.358 54.9461 126.29 54.5807C126.092 53.5378 125.962 52.4872 125.863 51.4367C125.81 50.843 125.757 50.2492 125.696 49.6554C125.681 49.526 125.635 49.4042 125.605 49.2748C125.605 49.2596 125.574 49.2443 125.559 49.2443C125.536 49.2443 125.506 49.2443 125.498 49.2596C125.407 49.3814 125.315 49.5032 125.224 49.6326C124.98 49.9751 124.714 50.2949 124.402 50.5841C123.937 51.0028 123.427 51.3378 122.818 51.5052C122.712 51.5357 122.613 51.5814 122.514 51.627C122.499 51.627 122.483 51.6575 122.445 51.6879C122.438 51.8173 122.423 51.9696 122.415 52.1218C122.362 53.0506 122.255 53.9641 122.027 54.8699C121.867 55.517 121.654 56.1412 121.357 56.735C121.052 57.3516 120.672 57.9149 120.169 58.3945C119.614 58.9198 118.966 59.2776 118.22 59.4603C117.36 59.6658 116.561 59.5364 115.8 59.0949C115.45 58.8969 115.153 58.6381 114.879 58.3412C114.513 57.953 114.224 57.5115 113.973 57.0395C113.6 56.3315 113.341 55.5855 113.158 54.809C113.128 54.6796 113.09 54.5578 113.052 54.4284C113.029 54.3675 112.937 54.3447 112.892 54.3904C112.8 54.4817 112.709 54.5807 112.618 54.6796C112.138 55.1821 111.59 55.5779 110.935 55.8215C110.836 55.8596 110.73 55.8976 110.638 55.9585C110.593 55.989 110.539 56.0575 110.539 56.1184C110.524 56.3392 110.524 56.5599 110.524 56.7807C110.517 57.8921 110.387 58.9807 110.121 60.054C109.969 60.6783 109.755 61.2796 109.458 61.8506C109.2 62.3454 108.888 62.7945 108.492 63.1828C108.126 63.5406 107.715 63.8374 107.243 64.0354C106.086 64.5302 104.967 64.4617 103.894 63.7918C103.407 63.4873 102.988 63.0914 102.622 62.6423C102.173 62.0942 101.808 61.4928 101.481 60.861C101.404 60.7087 101.366 60.526 101.199 60.427C101.062 60.526 101.054 60.6859 101.016 60.8229C100.796 61.6755 100.521 62.5129 100.202 63.335C99.9353 64.0354 99.6308 64.7205 99.2502 65.3675C99.0522 65.7101 98.8239 66.0374 98.5955 66.3572C98.39 66.6464 98.1388 66.8977 97.8647 67.126C97.5374 67.4001 97.1643 67.5752 96.7457 67.6741C96.2204 67.7959 95.7408 67.6893 95.2917 67.4001C94.972 67.1945 94.7284 66.9129 94.5228 66.5931C94.2716 66.1973 94.0889 65.7786 93.9595 65.3295C93.792 64.7585 93.6702 64.1724 93.5865 63.5862C93.4495 62.6499 93.3733 61.7059 93.2972 60.7544C93.2059 59.5668 93.0765 58.3869 92.7796 57.2222C92.673 56.8187 92.5588 56.4153 92.3913 56.027C92.2924 55.8063 92.1858 55.5855 92.0183 55.4104C91.8052 55.1897 91.5616 55.2125 91.3636 55.3571C91.2038 55.4789 91.082 55.6388 90.983 55.8063C90.7927 56.1032 90.6481 56.4305 90.5187 56.7578C90.1609 57.6637 89.9249 58.6077 89.7574 59.5592C89.6508 60.1454 89.5823 60.7392 89.5138 61.3253C89.4529 61.9191 89.4681 62.5053 89.5747 63.099C89.765 64.1419 89.963 65.1772 90.2674 66.1973C90.4501 66.8063 90.6633 67.4077 90.8841 68.0547C90.8384 68.1385 90.7927 68.2603 90.7242 68.3745C90.4273 68.8693 90.1 69.3336 89.727 69.7752C89.529 70.0111 89.3083 70.2319 89.0571 70.4146C88.8972 70.5288 88.7297 70.6278 88.5318 70.6963C88.2197 70.8028 87.9609 70.7191 87.7477 70.4983C87.6259 70.3689 87.527 70.2243 87.4585 70.0644C87.3595 69.8437 87.2758 69.6153 87.2149 69.3793C87.0017 68.6181 86.8495 67.834 86.6972 67.0575C86.6439 66.7987 86.5982 66.5399 86.545 66.281C86.4917 66.2963 86.4384 66.2886 86.4232 66.3115C86.3775 66.3876 86.3318 66.4637 86.309 66.5475C85.6619 68.5267 84.8398 70.4222 83.8273 72.234C83.4391 72.9343 83.4543 72.9419 83.5609 73.7413C83.873 75.9489 84.0176 78.1717 83.9034 80.4022C83.8425 81.6354 83.6598 82.861 83.2488 84.0333C83.0432 84.6423 82.7692 85.2209 82.4038 85.7461C81.7339 86.7053 80.8508 87.3676 79.709 87.6568C78.3996 87.9918 77.3415 87.5503 76.6335 86.5378C76.1539 85.8527 75.9179 85.0762 75.8418 84.2541C75.7505 83.2721 75.8799 82.3205 76.1844 81.3842C76.428 80.6229 76.7477 79.8997 77.1131 79.1994C77.5013 78.4534 77.9353 77.7378 78.3996 77.0375C78.9249 76.2458 79.473 75.4693 80.0058 74.6928C80.0972 74.5634 80.1809 74.4416 80.2723 74.3122C80.3408 74.2208 80.3712 74.1067 80.3484 74.0001C80.2723 73.5662 80.1962 73.1323 80.1124 72.6984C80.1048 72.6603 80.0667 72.6222 80.0363 72.5765C79.9906 72.6222 79.9373 72.6527 79.9069 72.706C79.7699 72.9572 79.6557 73.2236 79.5186 73.4748C79.2674 73.9163 78.9782 74.335 78.6128 74.6928C78.2397 75.0506 77.8211 75.3094 77.3186 75.4617C76.6259 75.6672 75.9712 75.5759 75.3394 75.2257C74.9283 74.9973 74.5934 74.6776 74.3117 74.3046C74.1747 74.1295 74.0681 73.9392 73.9311 73.7641C73.9006 73.7184 73.8245 73.6956 73.756 73.6499C73.6951 73.8554 73.6418 74.0458 73.5961 74.2361C73.3906 75.0506 73.1394 75.8499 72.8044 76.6188C72.5913 77.106 72.3477 77.5703 72.0356 78.0042C71.8148 78.3087 71.5636 78.5904 71.2667 78.8188C70.81 79.1689 70.2923 79.3288 69.729 79.3593C69.4169 79.3745 69.12 79.306 68.8231 79.1842C68.473 79.0395 68.1685 78.8264 67.8944 78.56C67.5442 78.225 67.255 77.8292 66.9961 77.4181C66.684 76.908 66.4328 76.3676 66.2044 75.8195C66.1283 75.6368 66.0598 75.4541 65.9761 75.2714C65.9608 75.2333 65.9152 75.2029 65.8771 75.1876C65.8543 75.1876 65.801 75.2181 65.7934 75.2485C65.702 75.5226 65.6183 75.7966 65.5269 76.0631C65.2377 76.9461 64.8951 77.7987 64.4764 78.6285C64.0882 79.3973 63.6314 80.1281 63.0833 80.7904C62.7027 81.2548 62.2764 81.6658 61.7968 82.0236C61.2411 82.4271 60.6321 82.7316 59.9546 82.8914C58.9193 83.135 57.9906 82.9295 57.1608 82.2596C56.765 81.9323 56.4453 81.544 56.1712 81.1101C55.821 80.5696 55.5622 79.9835 55.3491 79.3821C55.2882 79.2146 55.2425 79.0471 55.1816 78.8797C55.1511 78.8035 55.0978 78.7274 55.0522 78.6513C54.9304 78.6361 54.8238 78.6208 54.7172 78.6132C54.0625 78.56 53.5221 78.1032 53.4079 77.4105C53.4003 77.3572 53.4612 77.2734 53.5144 77.2658C53.7961 77.2354 54.0854 77.2049 54.367 77.1669C54.4356 77.1593 54.4965 77.144 54.565 77.1288C54.7172 77.0984 54.801 76.9918 54.7933 76.8548C54.7933 76.7634 54.7933 76.6797 54.7781 76.5883C54.6715 75.7281 54.6944 74.8755 54.7781 74.0153C54.8999 72.7745 55.1816 71.5793 55.6231 70.4222C55.9048 69.6762 56.2626 68.9682 56.7041 68.306C57.0314 67.8111 57.4044 67.3468 57.8459 66.9357C58.1885 66.616 58.5539 66.3419 58.9726 66.1288C59.2466 65.9841 59.5359 65.8852 59.8404 65.8243C60.4951 65.6949 61.0584 65.8624 61.5456 66.3115C61.8425 66.5855 62.048 66.9281 62.2003 67.2935C62.4439 67.8873 62.5733 68.5115 62.6037 69.1586C62.6418 69.9579 62.5124 70.7419 62.2764 71.5032C62.0556 72.2264 61.7511 72.9039 61.3629 73.5509C60.6245 74.7994 59.6958 75.8804 58.5463 76.771C58.4093 76.8776 58.2418 76.9537 58.1504 77.1516" fill="white"/>
<path d="M182.835 29.7336C182.85 27.7391 182.743 25.8893 182.431 24.0623C182.31 23.3696 182.15 22.6768 181.921 22.0145C181.86 21.8242 181.784 21.6415 181.701 21.4664C181.662 21.3903 181.602 21.3218 181.548 21.2533C181.449 21.1315 181.221 21.1467 181.152 21.2837C181.069 21.4436 181.008 21.6035 180.977 21.7785C180.894 22.281 180.856 22.7834 180.848 23.2934C180.817 25.0367 180.962 26.7723 181.152 28.508C181.305 29.8478 181.503 31.1723 181.777 32.4893C181.906 33.1135 182.058 33.7377 182.195 34.362C182.218 34.4685 182.256 34.5751 182.287 34.6817C182.332 34.8339 182.378 34.8796 182.439 34.8415C182.507 34.8035 182.523 34.7502 182.53 34.6817C182.576 34.263 182.637 33.8519 182.667 33.4332C182.766 32.1543 182.858 30.8831 182.835 29.7412M165.996 33.7149C165.92 33.7301 165.844 33.7225 165.798 33.753C165.585 33.8824 165.433 34.0651 165.296 34.2706C165.082 34.5827 164.938 34.9253 164.839 35.2907C164.633 36.0595 164.557 36.8512 164.611 37.6505C164.649 38.1986 164.709 38.7467 164.839 39.2872C165.006 40.018 165.235 40.726 165.608 41.3883C165.798 41.7384 166.026 42.0658 166.308 42.3474C166.483 42.5149 166.674 42.6672 166.887 42.7813C167.625 43.1544 168.47 42.9488 168.881 42.1952C168.972 42.0201 169.049 41.8374 169.102 41.6471C169.254 41.1142 169.315 40.5661 169.307 40.0104C169.307 39.8962 169.262 39.7973 169.178 39.7211C169.132 39.6755 169.079 39.6374 169.026 39.5993C168.371 39.0969 167.869 38.4575 167.442 37.7571C166.917 36.8817 166.536 35.9454 166.285 34.9557C166.186 34.5523 166.095 34.1412 165.996 33.7225M176.319 35.991C176.319 36.3107 176.372 36.8817 176.478 37.445C176.623 38.2215 176.836 38.9903 177.148 39.7211C177.285 40.0485 177.445 40.3606 177.651 40.6499C177.841 40.9239 178.062 41.1751 178.343 41.3502C178.77 41.6243 179.234 41.7232 179.729 41.5481C179.98 41.4568 180.193 41.3045 180.384 41.1142C180.665 40.8326 180.886 40.4976 181.061 40.1474C181.114 40.0409 181.107 39.9343 181.061 39.8277C181.023 39.7211 180.985 39.6222 180.939 39.5232C180.345 38.0921 179.889 36.6229 179.516 35.1308C179.455 34.8948 179.409 34.6588 179.341 34.4229C179.295 34.2782 179.242 34.126 179.15 34.0042C178.937 33.7225 178.694 33.4637 178.404 33.2658C178.244 33.1516 178.069 33.045 177.879 32.9917C177.384 32.8471 177.072 32.9537 176.79 33.3647C176.631 33.6007 176.539 33.8748 176.463 34.1564C176.326 34.6741 176.318 35.1993 176.311 35.9834M157.813 41.6014C157.813 41.6014 157.79 41.5634 157.767 41.5557C157.698 41.5025 157.63 41.4492 157.554 41.4035C156.655 40.8935 155.948 40.1855 155.361 39.3405C154.691 38.3737 154.235 37.3004 153.976 36.1509C153.915 35.8921 153.869 35.6332 153.801 35.382C153.801 35.3668 153.717 35.344 153.702 35.3516C153.649 35.382 153.603 35.4353 153.565 35.4886C153.314 35.854 153.161 36.2651 153.055 36.699C152.887 37.3613 152.804 38.0388 152.781 38.7239C152.766 39.5156 152.804 40.3073 152.925 41.0914C153.07 42.0049 153.306 42.8955 153.702 43.7405C153.892 44.1364 154.105 44.5246 154.387 44.8596C154.57 45.0803 154.775 45.2782 155.019 45.4305C155.224 45.5599 155.445 45.6512 155.696 45.6665C156.267 45.7121 156.724 45.5066 157.089 45.0651C157.272 44.8443 157.402 44.5855 157.508 44.3191C157.79 43.5883 157.919 42.4464 157.813 41.5938M203.716 29.7716C203.51 29.8021 203.32 29.7412 203.13 29.6955C201.759 29.3682 200.374 29.1094 198.981 28.8658C198.22 28.7287 197.458 28.6298 196.682 28.6831C196.195 28.7135 195.715 28.7972 195.258 28.9495C193.728 29.4671 192.731 30.5101 192.229 32.0325C192.046 32.5806 191.939 33.144 191.833 33.7073C191.642 34.7502 191.475 35.7931 191.285 36.836C191.049 38.1606 190.775 39.4775 190.356 40.7564C190.181 41.3045 189.975 41.8374 189.724 42.355C189.503 42.8118 189.237 43.2457 188.917 43.6416C188.696 43.9156 188.445 44.1668 188.156 44.3724C187.227 45.0346 186.222 45.1717 185.141 44.7834C184.593 44.5855 184.121 44.2658 183.68 43.8928C183.276 43.5426 182.926 43.1467 182.614 42.7204C182.538 42.6139 182.485 42.4845 182.317 42.4388C182.226 42.6063 182.119 42.7737 182.028 42.9488C181.784 43.3903 181.503 43.8166 181.16 44.1973C180.909 44.4789 180.627 44.7301 180.307 44.9281C179.782 45.2478 179.211 45.3696 178.602 45.3163C177.948 45.2554 177.361 45.027 176.821 44.6616C176.303 44.3115 175.877 43.8699 175.504 43.3751C174.804 42.4388 174.37 41.3883 174.096 40.2616C174.058 40.1094 174.035 39.9571 173.997 39.8125C173.936 39.5841 173.867 39.5537 173.685 39.6831C173.327 39.9419 172.939 40.155 172.512 40.2768C172.253 40.353 171.995 40.3758 171.728 40.391C171.485 40.4063 171.439 40.4519 171.416 40.7184C171.378 41.1371 171.348 41.5557 171.287 41.9668C171.195 42.6443 171.02 43.3066 170.761 43.9384C170.563 44.4104 170.312 44.8443 169.993 45.2478C169.011 46.4734 167.298 46.8997 165.867 46.344C165.326 46.1384 164.847 45.8263 164.428 45.4229C164.009 45.027 163.659 44.5703 163.37 44.0755C162.951 43.3675 162.654 42.6139 162.433 41.8222C162.372 41.609 162.319 41.3959 162.266 41.1903C162.205 41.1827 162.167 41.1599 162.129 41.1675C162.091 41.1675 162.045 41.198 162.015 41.2208C161.444 41.609 160.812 41.8679 160.15 41.9668C160.043 42.0734 160.035 42.18 160.028 42.2942C159.997 42.8651 159.975 43.436 159.921 44.007C159.845 44.8443 159.662 45.6589 159.366 46.4506C159.152 47.0139 158.878 47.5391 158.513 48.0111C158.026 48.6353 157.424 49.0997 156.663 49.3509C155.559 49.7087 154.486 49.6097 153.466 49.0388C152.963 48.7571 152.53 48.3765 152.157 47.9426C151.707 47.4173 151.365 46.8312 151.076 46.207C151.007 46.0699 150.939 45.9329 150.87 45.7959C150.87 45.7807 150.786 45.7883 150.763 45.8111C150.725 45.8568 150.687 45.9177 150.664 45.9786C150.474 46.4962 150.261 47.0063 150.01 47.4935C149.743 48.0035 149.446 48.4907 149.073 48.9322C148.83 49.2215 148.563 49.4803 148.244 49.6859C147.962 49.8686 147.665 49.998 147.33 50.0513C146.775 50.1274 146.28 49.9904 145.853 49.625C145.595 49.4118 145.389 49.153 145.214 48.8713C144.917 48.3993 144.719 47.8893 144.575 47.3564C144.384 46.6256 144.27 45.8872 144.194 45.1412C144.118 44.3495 144.08 43.5578 144.034 42.7661C143.981 41.9059 143.935 41.0457 143.783 40.2007C143.707 39.744 143.585 39.2948 143.425 38.8609C143.349 38.6554 143.258 38.4575 143.113 38.2824C143.029 38.1758 142.923 38.0997 142.801 38.0464C142.694 38.0083 142.588 38.0007 142.481 38.0312C142.306 38.0845 142.169 38.1834 142.04 38.3128C141.849 38.5031 141.705 38.7239 141.568 38.9523C141.354 39.3177 141.187 39.6983 141.042 40.0941C140.669 41.1371 140.441 42.2104 140.319 43.3142C140.182 44.616 140.273 45.9101 140.441 47.2042C140.555 48.1025 140.745 48.9855 140.966 49.8609C141.065 50.272 141.187 50.6679 141.354 51.0561C141.377 51.117 141.385 51.1855 141.408 51.2616C141.362 51.353 141.316 51.452 141.248 51.5357C140.913 52.0305 140.54 52.4949 140.114 52.9059C139.908 53.1039 139.68 53.2866 139.428 53.4236C139.314 53.4845 139.185 53.5378 139.063 53.5682C138.789 53.6367 138.538 53.5758 138.325 53.3779C138.172 53.2409 138.058 53.081 137.982 52.8983C137.876 52.6319 137.777 52.3654 137.708 52.0838C137.48 51.1627 137.305 50.234 137.168 49.29C137.046 48.4374 136.924 47.5848 136.817 46.7322C136.749 46.1613 136.696 45.5903 136.642 45.0194C136.566 44.2277 136.498 43.436 136.429 42.6443C136.376 42.0277 136.33 41.4111 136.285 40.7945C136.224 39.9343 136.17 39.0817 136.109 38.2215C136.041 37.3004 135.972 36.3717 135.904 35.4505C135.851 34.773 135.79 34.0879 135.744 33.4104C135.645 32.1163 135.516 30.8222 135.363 29.528C135.219 28.3024 135.044 27.0768 134.823 25.8664C134.579 24.5419 134.26 23.2401 133.765 21.9841C133.734 21.9003 133.712 21.8166 133.696 21.7329C133.696 21.6948 133.719 21.6491 133.75 21.6187C133.78 21.5882 133.818 21.5654 133.856 21.5502C134.572 21.2837 135.318 21.2 136.071 21.3066C136.932 21.436 137.533 21.9003 137.754 22.7758C137.891 23.3087 137.997 23.8491 138.089 24.3896C138.264 25.4554 138.416 26.5211 138.53 27.6021C138.637 28.6526 138.759 29.7031 138.865 30.7613C138.934 31.4616 138.987 32.1696 139.048 32.8699C139.116 33.6159 139.185 34.362 139.246 35.108C139.307 35.7703 139.36 36.4249 139.413 37.0872C139.467 37.7647 139.527 38.4499 139.581 39.1274C139.581 39.1578 139.619 39.1959 139.642 39.2263C139.664 39.2568 139.756 39.1959 139.779 39.1121C139.809 39.0284 139.832 38.9447 139.862 38.8609C140.03 38.427 140.19 37.9931 140.365 37.5668C140.555 37.1177 140.791 36.6914 141.073 36.2955C141.316 35.953 141.583 35.6332 141.918 35.3744C142.215 35.1384 142.542 34.971 142.915 34.8796C143.638 34.6969 144.27 34.8568 144.833 35.3211C145.092 35.5343 145.298 35.7931 145.473 36.0748C145.709 36.4478 145.891 36.8512 146.044 37.2623C146.28 37.9094 146.447 38.5717 146.569 39.2416C146.706 40.0028 146.805 40.764 146.858 41.5329C146.927 42.4769 147.01 43.4208 147.102 44.3647C147.125 44.6464 147.178 44.9281 147.239 45.2097C147.292 45.4457 147.406 45.6665 147.589 45.8339C147.81 46.0395 148.114 46.0775 148.388 45.9405C148.571 45.8492 148.723 45.7198 148.837 45.5599C148.99 45.3391 149.127 45.1184 149.249 44.8824C149.462 44.4713 149.599 44.0298 149.728 43.5807C149.812 43.3066 149.873 43.0249 149.949 42.7509C150.04 42.4312 150.063 42.1038 150.04 41.7689C149.979 40.8173 150.01 39.8734 150.154 38.9294C150.33 37.7647 150.634 36.6457 151.144 35.58C151.372 35.1004 151.646 34.6512 151.974 34.2249C152.263 33.8595 152.583 33.5246 152.956 33.2505C153.276 33.0146 153.626 32.8319 154.014 32.7253C154.189 32.6796 154.334 32.5959 154.455 32.4588C154.958 31.926 155.567 31.8803 156.214 32.1391C156.564 32.2761 156.869 32.5121 157.135 32.771C157.485 33.1135 157.782 33.4941 158.033 33.9128C158.437 34.5751 158.749 35.2755 159.008 36.0063C159.373 37.0492 159.632 38.1225 159.799 39.2111C159.807 39.272 159.815 39.3405 159.83 39.409C159.845 39.5156 159.959 39.5993 160.066 39.5993C160.332 39.5993 160.591 39.5537 160.842 39.4623C161.154 39.3481 161.436 39.173 161.703 38.9751C161.923 38.8 162.045 38.6097 162.045 38.3052C162.045 37.2623 162.243 36.2422 162.586 35.2602C162.791 34.6512 163.065 34.0803 163.423 33.5398C163.72 33.0983 164.062 32.6948 164.474 32.3599C164.961 31.9716 165.501 31.6824 166.133 31.5834C166.293 31.5606 166.43 31.5073 166.544 31.3855C166.666 31.2561 166.803 31.1495 166.97 31.081C167.343 30.9287 167.701 30.982 168.059 31.1495C168.303 31.2637 168.508 31.4235 168.706 31.6062C169.011 31.8955 169.262 32.2305 169.49 32.5883C169.924 33.2582 170.244 33.9813 170.51 34.735C170.815 35.5876 171.028 36.463 171.188 37.3537C171.218 37.5287 171.249 37.7038 171.287 37.8713C171.325 38.0616 171.401 38.1073 171.614 38.1073C172.17 38.1073 172.649 37.9094 173.076 37.5744C173.304 37.3993 173.51 37.2014 173.677 36.9274C173.677 36.7142 173.685 36.4706 173.7 36.227C173.745 35.2526 173.905 34.3011 174.217 33.3723C174.415 32.7862 174.674 32.2229 175.024 31.7128C175.298 31.3094 175.611 30.944 175.999 30.6395C176.6 30.1751 177.262 29.9391 178.031 30.0305C178.138 30.0457 178.252 30.0533 178.359 30.0685C178.412 30.0685 178.488 30 178.488 29.9467C178.465 29.6651 178.442 29.3758 178.412 29.0941C178.336 28.4166 178.244 27.7391 178.184 27.054C178.107 26.2166 178.039 25.3869 177.993 24.5495C177.917 23.2021 177.902 21.8623 178.016 20.5149C178.077 19.8145 178.145 19.1066 178.321 18.4214C178.404 18.1017 178.503 17.782 178.625 17.4775C178.716 17.2567 178.838 17.0436 178.99 16.8533C179.348 16.3889 179.775 16.2747 180.345 16.4422C180.665 16.5336 180.947 16.7086 181.198 16.9294C181.465 17.1654 181.693 17.4318 181.883 17.7287C182.157 18.1322 182.37 18.5661 182.561 19.0152C182.957 19.9516 183.238 20.926 183.474 21.9156C183.809 23.2858 184.03 24.6789 184.167 26.0872C184.334 27.8 184.426 29.5204 184.38 31.2408C184.35 32.3218 184.289 33.4028 184.182 34.4761C184.068 35.6409 183.901 36.7979 183.68 37.9398C183.649 38.0768 183.672 38.1986 183.733 38.3204C184.152 39.0741 184.647 39.7744 185.278 40.3682C185.552 40.627 185.857 40.8402 186.192 41.0229C186.702 41.2969 187.166 41.2284 187.615 40.9011C187.851 40.7336 188.042 40.5128 188.202 40.2768C188.399 39.98 188.544 39.6602 188.666 39.3329C188.925 38.6478 189.062 37.9322 189.168 37.2166C189.381 35.8236 189.602 34.4305 189.968 33.0602C190.204 32.1848 190.485 31.3322 190.874 30.5101C191.132 29.9696 191.422 29.4519 191.787 28.9799C192.152 28.5004 192.564 28.0817 193.058 27.7391C193.751 27.2671 194.505 27.0007 195.342 26.955C196.05 26.917 196.75 26.9931 197.435 27.1682C199.537 27.7087 201.539 28.5156 203.457 29.5204C203.533 29.5585 203.609 29.6042 203.678 29.6651C203.701 29.6803 203.693 29.7412 203.701 29.7793L203.716 29.764V29.7716Z" fill="white"/>
<path d="M52.7073 56.1945C52.616 56.3924 52.5246 56.5904 52.4257 56.7883C51.8699 57.9454 51.4132 59.1329 51.0859 60.3738C50.8194 61.3786 50.6672 62.4063 50.6291 63.4416C50.5834 64.7662 50.6063 66.0831 50.7129 67.4077C50.8803 69.4098 51.162 71.3966 51.5045 73.3683C51.9917 76.1925 52.6388 78.9863 53.2859 81.7724C53.3544 82.0541 53.461 82.3129 53.5904 82.5717C53.8873 83.1655 54.1156 83.7821 54.245 84.4368C54.3973 85.2133 54.1765 85.6548 53.4533 85.9745C52.7682 86.279 52.0603 86.3627 51.3218 86.2562C51.162 86.2333 51.0326 86.1572 50.926 86.0354C50.8803 85.9821 50.8423 85.9364 50.7966 85.8832C48.5205 83.0894 46.0007 80.5316 43.3211 78.126C42.1031 77.0375 40.8775 75.9565 39.6595 74.8755C39.6139 74.8298 39.553 74.7918 39.4997 74.7613C39.4845 74.7537 39.454 74.7461 39.4388 74.7613C39.4083 74.7842 39.355 74.8146 39.3627 74.8451C39.3627 74.9973 39.3779 75.1496 39.4083 75.3018C39.69 76.8624 39.964 78.4229 40.1924 79.9987C40.3903 81.369 40.6111 82.7468 40.7862 84.1247C40.9232 85.1523 40.9993 86.1876 41.1135 87.2153C41.1973 88.007 41.2353 88.7987 41.2429 89.5904C41.2429 89.8797 41.2353 90.1614 41.2277 90.4506C41.2277 90.8617 41.0679 91.2195 40.8243 91.5468C40.6416 91.798 40.4132 92.0036 40.1696 92.1939C39.5986 92.6202 38.9744 92.9399 38.2969 93.1531C37.726 93.3358 37.1474 93.4576 36.5537 93.5337C36.409 93.5565 36.3557 93.4728 36.4242 93.3358C36.8049 92.5973 36.9647 91.798 37.1018 90.9911C37.2692 89.9863 37.3606 88.9814 37.3986 87.969C37.4443 86.7586 37.5128 85.5482 37.4672 84.3302C37.4215 82.9828 37.4063 81.643 37.2845 80.3032C37.2159 79.5572 37.1779 78.8112 37.1018 78.0651C37.0028 77.144 36.8734 76.2305 36.7516 75.3094C36.6146 74.2132 36.409 73.1323 36.1883 72.0513C36.173 71.9676 36.1502 71.8762 36.135 71.7925C36.0665 71.3966 35.9294 71.0312 35.7391 70.6734C35.3204 69.8741 34.9627 69.0368 34.6734 68.1842C34.4755 67.598 34.3308 66.9966 34.2471 66.3876C34.1938 65.9689 34.2166 65.5502 34.3308 65.1392C34.4678 64.6672 34.7495 64.3246 35.2063 64.1267C35.526 63.9897 35.8457 63.9897 36.1654 64.1267C36.371 64.2181 36.5537 64.3322 36.7135 64.4921C37.1779 64.9489 37.5052 65.4893 37.6575 66.1288C37.6803 66.2125 37.6955 66.3039 37.7108 66.3876C37.7412 66.517 37.7945 66.6388 37.8858 66.7378C38.198 67.0727 38.5101 67.4229 38.8298 67.7579C40.1696 69.1662 41.616 70.4603 43.0852 71.7316C44.189 72.6831 45.3004 73.6271 46.3966 74.571C47.5004 75.5226 48.589 76.4894 49.6319 77.5094C49.6928 77.5703 49.7689 77.616 49.8374 77.6617C49.8526 77.6693 49.8831 77.6693 49.8983 77.6617C49.9135 77.6541 49.9288 77.6236 49.9288 77.6008C49.9212 77.517 49.9135 77.4257 49.8907 77.342C49.3426 75.3018 48.9011 73.2312 48.4824 71.153C48.1779 69.6229 47.881 68.0852 47.607 66.5399C47.4014 65.3904 47.2111 64.2333 47.0589 63.0762C46.8305 61.3329 47.3481 59.8104 48.5281 58.5087C48.825 58.1814 49.1599 57.8921 49.5177 57.6333C50.416 56.9786 51.3904 56.4838 52.4409 56.1108C52.517 56.0803 52.517 56.0879 52.6845 56.1717" fill="white"/>
<path d="M73.8015 44.38C73.8168 44.6007 73.832 44.8215 73.8472 45.0346C73.8472 45.1032 73.8777 45.1793 73.8929 45.2478C73.9233 45.3848 74.0604 45.4457 74.1593 45.3696C74.6313 45.0194 75.0348 44.5931 75.3545 44.0983C75.5067 43.8699 75.6209 43.6263 75.6894 43.3675C75.7732 43.0326 75.7884 42.69 75.6057 42.3703C75.4078 42.0277 74.9891 41.9211 74.6617 42.1419C74.5247 42.2333 74.4029 42.3627 74.2963 42.4921C74.1441 42.6824 74.0528 42.9108 73.9766 43.1467C73.8472 43.5426 73.7939 43.9537 73.8015 44.3724M54.2451 37.7114C54.3365 37.582 54.4506 37.5364 54.5648 37.4983C55.1586 37.3232 55.7676 37.2395 56.3842 37.3384C56.643 37.3765 56.8562 37.3232 57.0846 37.1938C57.6555 36.8588 58.2417 36.5391 58.8278 36.227C59.216 36.0215 59.6347 35.8616 60.0686 35.7703C61.1953 35.5419 62.1545 35.8159 62.9385 36.6838C63.0603 36.8208 63.0451 36.9426 62.969 37.0872C63.3039 37.5896 63.3116 37.5896 63.4638 38.1377C63.814 39.3938 64.0804 40.6651 64.2479 41.9592C64.3621 42.8879 64.4686 43.8166 64.5752 44.7378C64.5752 44.7758 64.6209 44.8139 64.6514 44.8443C64.6894 44.89 64.7732 44.8443 64.8188 44.753C64.9026 44.5703 64.9711 44.3876 65.0624 44.2125C65.1995 43.9537 65.3441 43.6948 65.5116 43.4589C65.6562 43.2609 65.8237 43.0782 66.0064 42.9108C66.2576 42.6748 66.5697 42.5225 66.9046 42.4236C67.4223 42.2713 67.879 42.3931 68.2825 42.7281C68.5946 42.9793 68.8078 43.3066 68.9828 43.6644C69.2645 44.2429 69.4548 44.8519 69.5538 45.4838C69.6604 46.1613 69.7365 46.8464 69.8431 47.5239C69.8811 47.7904 69.9344 48.0568 70.0105 48.3156C70.0562 48.4755 70.1476 48.6277 70.2313 48.78C70.3302 48.9474 70.5738 49.0236 70.7489 48.9398C70.8783 48.8789 71.0154 48.8104 71.122 48.7115C71.2666 48.5744 71.396 48.4222 71.495 48.2623C71.6396 48.034 71.7462 47.7904 71.868 47.5468C72.0507 47.1814 72.0963 46.8083 72.0202 46.4049C71.7842 45.0803 72.0202 43.8166 72.5074 42.5834C72.7206 42.0353 73.0175 41.5253 73.3905 41.0609C73.6569 40.7336 73.9538 40.4443 74.304 40.2083C74.6389 39.9876 74.9891 39.8353 75.3925 39.7744C76.032 39.6831 76.5572 39.8886 76.9455 40.4063C77.151 40.6879 77.2804 41.0076 77.3566 41.3426C77.4936 41.9592 77.4479 42.5606 77.2652 43.162C77.1054 43.6568 76.8694 44.1135 76.5725 44.5398C76.0853 45.2326 75.4839 45.8035 74.7912 46.2831C74.6694 46.3668 74.5552 46.4506 74.441 46.5495C74.4105 46.5724 74.4105 46.6409 74.4105 46.6865C74.4105 46.7094 74.4181 46.7322 74.4334 46.7551C74.6008 47.09 74.8292 47.3793 75.1109 47.6153C75.6666 48.072 76.2832 48.1938 76.9759 47.9883C77.5621 47.8132 78.0265 47.463 78.3919 46.9758C78.742 46.5191 78.9628 46.0014 79.115 45.4533C79.1455 45.3391 79.1759 45.2173 79.214 45.1032C79.2292 45.0651 79.2749 45.0346 79.313 45.0042C79.351 44.9737 79.4576 45.0042 79.5033 45.0575C79.6251 45.1869 79.6936 45.3391 79.724 45.5142C79.8306 45.9862 79.7849 46.4506 79.6555 46.8997C79.1303 48.7571 77.5545 49.998 75.6742 50.0817C74.7759 50.1274 73.9842 49.8153 73.3296 49.1834C73.1697 49.0312 73.0403 48.8485 72.888 48.6886C72.8424 48.6353 72.7739 48.6049 72.713 48.5668C72.5607 48.6886 72.5226 48.8561 72.4541 49.0083C72.2486 49.4575 72.0202 49.8914 71.7386 50.2949C71.5406 50.5765 71.3199 50.843 71.061 51.0713C70.8174 51.2845 70.5434 51.4367 70.2313 51.5281C69.6299 51.7032 69.1123 51.5509 68.6707 51.1322C68.3815 50.8506 68.1988 50.508 68.077 50.1274C67.9171 49.6326 67.8181 49.1301 67.7572 48.6125C67.6659 47.8817 67.6202 47.1433 67.4756 46.4201C67.3842 45.9329 67.2548 45.4609 67.0417 45.0194C66.9655 44.8596 66.8742 44.7225 66.7372 44.6083C66.6382 44.5246 66.4251 44.5018 66.3185 44.5779C66.2195 44.654 66.1129 44.7225 66.052 44.8215C65.8922 45.0651 65.7399 45.3239 65.6181 45.5903C65.3593 46.1765 65.2071 46.8007 65.1081 47.4326C65.0777 47.6533 65.0548 47.8741 65.0244 48.0872C64.9939 48.308 65.0168 48.5211 65.0548 48.7495C65.2223 49.6478 65.4659 50.5156 65.8313 51.353C65.877 51.4672 65.9226 51.5814 65.9607 51.6727C65.9531 51.825 65.877 51.9239 65.8008 52.0229C65.5725 52.3122 65.3289 52.5862 65.0472 52.8298C64.8721 52.9744 64.6894 53.0886 64.4839 53.1724C64.2098 53.2789 63.9434 53.2104 63.7531 52.9821C63.6084 52.807 63.5171 52.609 63.4638 52.3959C63.3268 51.8782 63.1669 51.353 63.0527 50.8277C62.8472 49.8914 62.6949 48.9474 62.5808 47.9959C62.4361 46.7474 62.2991 45.5066 62.1392 44.2658C61.9565 42.8499 61.7662 41.4416 61.4161 40.0561C61.2562 39.4395 61.0659 38.8305 60.8223 38.2367C60.769 38.0997 60.7005 37.9703 60.5939 37.8409C60.4721 37.8789 60.3503 37.9018 60.2437 37.9474C59.3987 38.3509 58.5766 38.7772 57.8154 39.272C57.7392 39.4242 57.7545 39.5384 57.7697 39.6602C57.9067 40.6118 58.059 41.5557 58.1884 42.4997C58.5157 44.8139 58.8126 47.1281 59.2313 49.4194C59.3987 50.3329 59.6043 51.2464 59.825 52.1523C60.0763 53.2028 60.4036 54.2381 60.906 55.2049C60.9669 55.3191 60.9821 55.4409 60.906 55.5475C60.3122 56.4381 59.4977 57.0471 58.4929 57.3897C58.4091 57.4201 58.2645 57.3668 58.234 57.2983C58.1199 57.0319 57.9904 56.7578 57.8915 56.4838C57.625 55.7378 57.4652 54.9689 57.3129 54.2001C57.0693 52.8983 56.8714 51.589 56.6887 50.272C56.4679 48.7115 56.232 47.1585 56.0112 45.6056C55.8361 44.3647 55.623 43.1315 55.3794 41.9059C55.3337 41.6699 55.2652 41.4339 55.1967 41.198C55.189 41.1675 55.1053 41.1371 55.0825 41.1523C54.9683 41.198 54.8617 41.2589 54.7628 41.3274C54.1233 41.7841 53.4915 42.2561 52.852 42.7128C52.3496 43.0706 51.8472 43.4208 51.3371 43.7557C51.0935 43.9156 50.8271 44.0526 50.5607 44.1668C50.2029 44.3267 49.8375 44.2886 49.5025 44.0831C49.3351 43.9841 49.1828 43.8547 49.0458 43.7177C48.787 43.4512 48.589 43.1391 48.4216 42.8118C48.216 42.4007 48.0029 41.9897 47.9268 41.5329C48.0486 41.3959 48.2008 41.3807 48.3454 41.3578C49.3731 41.198 50.3399 40.8478 51.2915 40.4367C52.3268 39.98 53.324 39.4395 54.2984 38.8762C54.3441 38.8533 54.3821 38.8229 54.4202 38.7924C54.4887 38.7467 54.542 38.6173 54.5115 38.5336C54.4583 38.3433 54.3897 38.1606 54.3288 37.9703C54.2984 37.8789 54.2756 37.7876 54.2603 37.7114" fill="white"/>
<path d="M119.971 79.3745C119.522 79.3973 119.118 79.5343 118.806 79.8845C118.555 80.1586 118.38 80.4783 118.258 80.8285C118.083 81.3385 117.976 81.8638 117.961 82.4042C117.931 83.0894 118.014 83.7669 118.167 84.4368C118.281 84.962 118.433 85.4721 118.661 85.9593C118.829 86.317 119.019 86.652 119.286 86.9413C119.468 87.1392 119.674 87.3143 119.925 87.4209C120.184 87.535 120.435 87.5427 120.701 87.4361C121.052 87.2914 121.333 87.0631 121.569 86.7814C121.874 86.4236 122.079 86.0125 122.232 85.5634C122.3 85.3731 122.3 85.1904 122.27 84.9925C122.102 84.0333 121.942 83.0665 121.874 82.0921C121.843 81.6811 121.805 81.27 121.76 80.8513C121.744 80.7371 121.722 80.6077 121.668 80.5011C121.47 80.1586 121.204 79.8693 120.877 79.6561C120.603 79.4811 120.306 79.3897 119.978 79.3593M97.0115 95.3683C97.0115 94.3101 96.8897 93.2672 96.7755 92.2243C96.7374 91.8589 96.6765 91.4935 96.6233 91.1357C96.6156 91.0672 96.5852 90.9911 96.57 90.9226C96.5395 90.7932 96.4101 90.7399 96.2807 90.8084C95.2682 91.3641 94.3243 92.0112 93.4793 92.8029C93.1215 93.1378 92.7942 93.5032 92.5125 93.8991C91.7208 95.0105 91.4087 96.2285 91.6675 97.5759C91.8198 98.3524 92.0938 99.0832 92.5582 99.7302C92.8018 100.073 93.0911 100.37 93.4565 100.583C93.8523 100.804 94.271 100.895 94.7278 100.819C95.2911 100.72 95.7174 100.415 96.0599 99.9738C96.3264 99.616 96.5091 99.2126 96.6309 98.7939C96.7983 98.2306 96.9201 97.652 96.9506 97.0659C96.981 96.5025 96.9963 95.9392 97.0191 95.3835M99.79 86.0278C99.9499 85.9593 100.041 85.9288 100.125 85.8831C101.602 85.0686 103.056 84.2008 104.464 83.2721C104.548 83.2188 104.624 83.1579 104.7 83.1046C104.799 83.0285 104.868 82.9219 104.852 82.7925C104.746 82.016 104.647 81.2395 104.533 80.4631C104.411 79.6181 104.281 78.7731 104.152 77.9205C103.886 76.2305 103.581 74.5482 103.14 72.8887C102.82 71.6783 102.416 70.4983 101.853 69.3793C101.823 69.3108 101.792 69.2423 101.769 69.1738C101.739 69.0976 101.785 68.9682 101.868 68.9226C102.645 68.5572 103.436 68.2374 104.289 68.0776C104.456 68.0471 104.632 68.0243 104.799 68.0319C105.393 68.0471 105.888 68.2907 106.253 68.7703C106.497 69.0824 106.664 69.4402 106.771 69.8132C106.892 70.2319 107.007 70.6658 107.09 71.0921C107.349 72.3634 107.532 73.6499 107.699 74.9288C107.874 76.261 108.057 77.5932 108.232 78.9329C108.278 79.2679 108.263 79.6181 108.385 79.9454C108.407 79.9987 108.522 80.052 108.567 80.0139C108.59 79.9987 108.605 79.9911 108.628 79.9682C109.336 79.2831 109.998 78.5676 110.379 77.6388C110.394 77.5932 110.432 77.5627 110.47 77.5246C110.486 77.5094 110.508 77.5018 110.531 77.4866C110.988 77.753 111.315 78.0118 111.719 78.4458C112.039 78.7883 112.328 79.1537 112.526 79.5724C112.609 79.7475 112.678 79.9302 112.731 80.1205C112.868 80.5544 112.838 80.9883 112.678 81.4146C112.541 81.7648 112.343 82.0617 112.092 82.3433C111.795 82.6707 111.475 82.9752 111.117 83.2264C110.638 83.5613 110.143 83.8811 109.648 84.2008C109.504 84.2921 109.351 84.3759 109.207 84.4596C109.039 84.5586 108.986 84.7108 109.016 84.8935C109.016 84.9164 109.016 84.9392 109.024 84.9696C109.268 86.5683 109.511 88.1593 109.884 89.735C110.036 90.3745 110.212 91.0139 110.455 91.6305C110.585 91.9503 110.737 92.2548 110.935 92.5364C111.064 92.7191 111.209 92.8866 111.391 93.0084C111.696 93.2063 112.008 93.2748 112.366 93.153C112.678 93.0541 112.944 92.8866 113.18 92.6735C113.439 92.4451 113.645 92.171 113.835 91.8894C114.124 91.4555 114.345 90.9987 114.551 90.5267C115.007 89.4382 115.304 88.3039 115.571 87.162C115.639 86.8728 115.616 86.5759 115.571 86.2866C115.464 85.6776 115.457 85.0686 115.464 84.4596C115.495 82.9523 115.776 81.4984 116.347 80.0977C116.675 79.2983 117.086 78.5523 117.634 77.8824C117.946 77.5018 118.288 77.1592 118.699 76.8776C119.385 76.4132 120.138 76.1696 120.983 76.2077C121.257 76.2229 121.508 76.3066 121.767 76.3828C121.851 76.4056 121.98 76.3371 122.003 76.261C122.072 76.0554 122.125 75.8347 122.209 75.6367C122.3 75.416 122.407 75.1876 122.536 74.9821C122.627 74.8451 122.757 74.7233 122.894 74.6243C123.153 74.4416 123.442 74.434 123.731 74.5558C124.036 74.6852 124.257 74.9136 124.432 75.18C124.721 75.6139 124.888 76.1011 124.987 76.6111C125.071 77.0679 125.14 77.5246 125.147 77.9966C125.17 79.07 125.178 80.1509 125.048 81.2243C124.987 81.7343 124.942 82.2444 124.873 82.7544C124.82 83.135 124.858 83.4852 125.041 83.8202C125.14 84.0181 125.223 84.2236 125.337 84.4139C125.436 84.5814 125.543 84.7489 125.665 84.9011C125.977 85.2818 126.274 85.3122 126.685 85.0077C126.944 84.8174 127.149 84.5738 127.332 84.315C127.591 83.9267 127.789 83.508 127.956 83.0741C128.276 82.252 128.504 81.3994 128.679 80.5392C128.923 79.3592 128.908 79.7094 128.664 78.5904C128.322 77.0298 127.857 75.515 127.104 74.099C127.058 74.0153 127.035 73.9163 126.997 73.8021C127.088 73.7565 127.172 73.6956 127.263 73.6803C128.009 73.5281 128.763 73.4291 129.517 73.5966C129.707 73.6347 129.897 73.688 130.08 73.7641C130.552 73.9544 130.902 74.2817 131.1 74.7613C131.146 74.8755 131.176 74.9973 131.222 75.1039C131.237 75.1343 131.298 75.1724 131.321 75.1648C131.359 75.1572 131.405 75.1191 131.427 75.0734C131.458 75.0125 131.466 74.9364 131.496 74.8679C131.686 74.335 131.861 73.8021 132.067 73.2845C132.265 72.7821 132.524 72.3101 132.821 71.861C133.072 71.4956 133.353 71.1606 133.681 70.8637C134.054 70.5364 134.472 70.2928 134.952 70.1558C135.241 70.072 135.531 70.072 135.82 70.1558C136.132 70.2471 136.406 70.3918 136.657 70.5897C136.985 70.8485 137.259 71.1606 137.495 71.5032C137.898 72.0893 138.203 72.7288 138.416 73.4139C138.629 74.1066 138.56 74.7689 138.233 75.4008C138.012 75.8194 137.715 76.1696 137.335 76.4513C137.122 76.6112 136.886 76.7482 136.65 76.87C136.246 77.0831 136.132 77.0907 135.98 76.5883C135.827 76.1011 135.645 75.6215 135.447 75.1419C135.325 74.8527 135.18 74.5634 135.013 74.2893C134.914 74.1219 134.785 73.9772 134.64 73.8402C134.419 73.6271 134.084 73.6194 133.833 73.8098C133.65 73.9392 133.513 74.1143 133.391 74.297C133.209 74.5862 133.064 74.8983 132.95 75.2181C132.752 75.7509 132.615 76.2914 132.524 76.8471C132.12 79.4278 132.303 81.9703 133.117 84.4596C133.3 85.0153 133.529 85.5558 133.818 86.0734C133.902 86.2257 133.978 86.3779 134.039 86.4997C134.039 86.6672 133.955 86.7586 133.879 86.8499C133.589 87.2153 133.285 87.5655 132.935 87.87C132.699 88.0831 132.448 88.2734 132.166 88.4257C131.991 88.517 131.808 88.5856 131.61 88.6084C131.245 88.6541 130.933 88.5551 130.681 88.2811C130.514 88.0984 130.385 87.8928 130.301 87.6568C130.194 87.36 130.095 87.0555 130.019 86.751C129.814 85.944 129.684 85.1219 129.57 84.2997C129.555 84.1779 129.54 84.0561 129.502 83.942C129.494 83.9115 129.433 83.8811 129.395 83.8658C129.38 83.8658 129.342 83.8811 129.334 83.8963C129.266 84.0485 129.189 84.2008 129.128 84.3606C128.885 85.0001 128.603 85.6243 128.276 86.2257C128.025 86.6748 127.751 87.1087 127.416 87.5046C127.164 87.8091 126.883 88.0831 126.555 88.2963C125.71 88.8444 124.866 88.8824 124.005 88.3343C123.884 88.2582 123.769 88.1669 123.648 88.0831C123.587 88.0451 123.48 88.0679 123.457 88.1288C123.373 88.3344 123.297 88.5399 123.214 88.7378C122.94 89.3696 122.582 89.9558 122.087 90.443C121.699 90.8236 121.25 91.1205 120.747 91.326C119.849 91.6838 118.973 91.6306 118.136 91.151C117.748 90.9302 117.413 90.6409 117.124 90.306C116.994 90.1613 116.872 90.0091 116.743 89.8568C116.705 89.8112 116.568 89.8264 116.553 89.8797C116.484 90.1157 116.416 90.344 116.347 90.58C116.043 91.6915 115.654 92.7724 115.16 93.8153C114.809 94.5461 114.406 95.2389 113.896 95.8783C113.515 96.3579 113.081 96.7918 112.564 97.1344C112.13 97.416 111.665 97.6292 111.148 97.7129C110.516 97.8119 109.93 97.6977 109.374 97.4008C108.94 97.1648 108.582 96.8299 108.263 96.4492C107.882 95.9925 107.593 95.4901 107.342 94.9572C106.984 94.2036 106.725 93.4119 106.512 92.6049C106.2 91.425 105.956 90.2222 105.758 89.0195C105.644 88.3191 105.537 87.6188 105.423 86.9184C105.408 86.8271 105.37 86.7281 105.34 86.6368C105.324 86.5835 105.218 86.5378 105.157 86.5683C105.02 86.6292 104.89 86.6824 104.753 86.7433C103.421 87.36 102.097 87.9842 100.764 88.6008C100.65 88.6541 100.544 88.7074 100.429 88.7607C100.262 88.8368 100.155 88.9586 100.178 89.1565C100.194 89.324 100.201 89.4991 100.224 89.6665C100.361 90.9302 100.445 92.2015 100.422 93.4804C100.399 94.8049 100.308 96.1219 100.026 97.416C99.8586 98.2077 99.6226 98.9766 99.2952 99.7226C99.1125 100.126 98.9146 100.514 98.671 100.887C97.5063 102.653 95.862 103.628 93.7686 103.879C93.053 103.963 92.3527 103.917 91.6599 103.734C90.5485 103.445 89.6655 102.828 88.9803 101.915C88.4094 101.161 88.0592 100.309 87.8461 99.3876C87.4883 97.8499 87.6634 96.3731 88.3485 94.9572C88.7063 94.2264 89.163 93.5641 89.6883 92.9475C90.343 92.1786 91.0738 91.5011 91.8579 90.8693C92.9464 89.9939 94.1111 89.2326 95.3139 88.5094C95.5423 88.3724 95.7859 88.2582 95.9534 88.0984C96.0295 87.969 95.999 87.87 95.9838 87.7786C95.6793 86.2714 95.2987 84.7717 94.8952 83.2873C94.1949 80.7371 93.3956 78.225 92.4288 75.7586C92.0101 74.6852 91.561 73.6347 91.0433 72.5994C90.9976 72.5156 90.9672 72.4243 90.9291 72.3329C90.9139 72.2873 90.9672 72.1655 91.0129 72.1426C91.0357 72.135 91.0509 72.1198 91.0738 72.1122C92.0482 71.7544 93.0454 71.5336 94.0807 71.5336C94.4309 71.5336 94.7658 71.5869 95.0932 71.6859C95.7174 71.8762 96.1665 72.2568 96.3644 72.8963C96.707 73.9925 97.0572 75.0887 97.3769 76.1925C98.0772 78.5599 98.7015 80.9503 99.2115 83.371C99.3485 84.0181 99.4703 84.6651 99.5997 85.3122C99.6378 85.5254 99.6911 85.7385 99.7748 86.0049" fill="white"/>
<path d="M154.532 71.0617C154.509 71.5565 154.616 72.1122 154.707 72.6603C154.73 72.7821 154.882 72.8278 154.996 72.7364C155.202 72.5613 155.407 72.3939 155.605 72.2112C156.07 71.7772 156.481 71.2977 156.823 70.7648C157.097 70.3309 157.303 69.8589 157.402 69.3565C157.493 68.8845 157.447 68.4354 157.227 68.0091C156.915 67.3925 156.229 67.2402 155.689 67.6513C155.491 67.7959 155.331 67.9862 155.202 68.1918C155.034 68.4582 154.905 68.7475 154.814 69.052C154.623 69.6838 154.524 70.3309 154.539 71.0617M167.846 65.6264C167.686 65.5046 167.648 65.3599 167.58 65.2305C167.389 64.8347 167.199 64.4388 166.993 64.0506C166.864 63.8146 166.712 63.5938 166.544 63.3807C166.43 63.2284 166.286 63.0914 166.133 62.962C165.555 62.4672 164.87 62.9925 164.801 63.5177C164.725 64.1572 164.87 64.7357 165.258 65.2458C165.418 65.4589 165.616 65.6492 165.829 65.8167C166.118 66.0374 166.43 66.243 166.75 66.4105C167.268 66.6845 167.808 66.9205 168.341 67.1717C168.957 67.4686 169.582 67.7503 170.191 68.0624C170.784 68.3593 171.333 68.7323 171.827 69.1662C172.581 69.8285 173.122 70.6278 173.373 71.6098C173.685 72.8125 173.517 73.9392 172.787 74.9593C172.429 75.4617 171.987 75.8804 171.477 76.2305C170.373 76.9994 169.148 77.479 167.831 77.6998C167.108 77.8216 166.369 77.7987 165.646 77.6236C164.847 77.4333 164.139 77.0679 163.515 76.5274C163.385 76.4209 163.256 76.3067 163.111 76.1773C163.043 76.2762 162.974 76.3447 162.928 76.4285C162.822 76.6188 162.738 76.8243 162.624 77.0146C161.505 78.933 159.823 79.9835 157.63 80.1814C156.473 80.288 155.4 79.9454 154.463 79.2451C153.885 78.8188 153.428 78.2859 153.047 77.6769C152.773 77.243 152.553 76.7786 152.37 76.2991C152.256 75.9946 152.225 75.888 151.852 75.9337C151.578 75.9641 151.319 75.9337 151.053 75.8499C150.49 75.6901 150.132 75.3247 149.987 74.7537C149.964 74.6548 150.025 74.5482 150.124 74.5482C150.345 74.5482 150.566 74.5482 150.787 74.5406C151.083 74.5254 151.373 74.4949 151.654 74.3959C151.784 74.3503 151.86 74.2513 151.852 74.1219C151.852 74.0458 151.845 73.9773 151.837 73.9011C151.7 72.9724 151.73 72.0513 151.845 71.1226C151.974 70.0721 152.225 69.0596 152.621 68.0776C152.895 67.3925 153.238 66.7454 153.656 66.144C153.984 65.6797 154.349 65.261 154.783 64.8956C155.118 64.6063 155.491 64.3703 155.894 64.1952C156.306 64.0125 156.724 63.9288 157.173 63.9212C157.935 63.9212 158.544 64.2257 159.031 64.8042C159.419 65.261 159.647 65.8015 159.792 66.3724C160.051 67.3696 160.013 68.3593 159.724 69.3413C159.472 70.1939 159.069 70.9703 158.551 71.6935C157.828 72.6984 156.953 73.5433 155.925 74.2285C155.765 74.335 155.605 74.4492 155.453 74.5634C155.423 74.5863 155.423 74.6472 155.415 74.7004C155.415 74.7233 155.415 74.7537 155.43 74.7689C155.681 75.3094 156.009 75.789 156.443 76.2001C157.371 77.0831 158.445 77.2735 159.632 76.8472C160.074 76.6873 160.462 76.4361 160.812 76.1164C161.193 75.7662 161.497 75.3551 161.764 74.906C161.954 74.5862 162.091 74.2665 162.038 73.8707C161.977 73.4748 162.106 73.0942 162.274 72.7364C162.639 71.9371 163.21 71.3053 163.956 70.8409C164.124 70.742 164.306 70.6658 164.489 70.6049C164.679 70.544 164.87 70.5364 165.068 70.6049C165.151 70.6278 165.258 70.7267 165.265 70.8029C165.273 70.9247 165.281 71.0465 165.288 71.1683C165.334 71.8305 165.463 72.4776 165.684 73.1018C165.844 73.5433 166.065 73.9468 166.369 74.3122C166.651 74.6548 166.986 74.9364 167.382 75.142C167.877 75.4008 168.402 75.4845 168.95 75.3932C169.688 75.2714 170.351 74.7537 170.389 73.7869C170.419 73.0485 170.168 72.3939 169.688 71.8305C169.452 71.5489 169.178 71.2977 168.874 71.0997C168.508 70.8561 168.135 70.6278 167.747 70.4146C167.298 70.1634 166.834 69.9503 166.377 69.7067C165.882 69.4402 165.387 69.1738 164.9 68.8921C164.481 68.6485 164.093 68.344 163.735 68.0015C162.875 67.1869 162.403 66.1821 162.38 65.0098C162.335 62.8935 163.614 61.3634 165.418 60.9675C166.346 60.762 167.26 60.7848 168.151 61.1502C168.653 61.3558 169.095 61.6603 169.468 62.0637C169.704 62.3226 169.879 62.6042 170.008 62.9316C170.168 63.3502 170.13 63.7461 169.917 64.1267C169.871 64.2105 169.818 64.2942 169.757 64.3703C169.239 64.9869 168.577 65.3752 167.861 65.6568" fill="white"/>
<path d="M179.569 55.007C180.003 55.182 180.376 55.4485 180.703 55.791C181 56.0955 181.206 56.4533 181.335 56.8568C181.404 57.0775 181.396 57.2907 181.32 57.5038C181.229 57.7855 181.069 58.0291 180.863 58.2499C180.597 58.5391 180.292 58.7904 179.973 59.0035C179.402 59.3917 178.793 59.7039 178.161 59.9703C177.689 60.1682 177.209 60.3509 176.73 60.5336C176.57 60.5945 176.509 60.6935 176.524 60.8762C176.539 61.0969 176.547 61.3177 176.577 61.5308C176.753 62.8402 176.897 64.1495 177.141 65.4513C177.255 66.0527 177.377 66.6464 177.567 67.2326C177.719 67.6969 177.91 68.1461 178.161 68.5724C178.351 68.8921 178.564 69.189 178.838 69.4326C179.006 69.5772 179.181 69.7142 179.371 69.8208C179.744 70.034 180.14 70.0949 180.574 69.9578C180.901 69.8513 181.206 69.7066 181.472 69.4859C181.602 69.3793 181.723 69.2575 181.853 69.1433C181.921 69.0824 182.058 69.1433 182.081 69.2347C182.081 69.2575 182.104 69.2803 182.104 69.3032C182.332 70.5059 182.165 71.6402 181.548 72.6983C181.35 73.0409 181.114 73.3454 180.825 73.6194C180.209 74.198 179.478 74.3883 178.656 74.2741C178.115 74.198 177.62 74.0001 177.164 73.6956C176.73 73.4063 176.357 73.0561 176.029 72.6603C175.672 72.2264 175.359 71.7544 175.101 71.252C174.446 70.0035 174.058 68.6713 173.905 67.2706C173.753 65.8852 173.677 64.4921 173.601 63.099C173.578 62.6879 173.54 62.2693 173.502 61.8582C173.472 61.5461 173.433 61.5156 173.152 61.5385C173.03 61.5461 172.908 61.5613 172.786 61.5689C172.566 61.5689 172.345 61.5689 172.124 61.5689C171.926 61.5689 171.736 61.508 171.553 61.4319C171.363 61.3481 171.218 61.2187 171.173 61.0132C171.058 60.5336 170.975 60.054 171.058 59.5592C171.074 59.4679 171.119 59.3765 171.157 59.2699C171.34 59.2699 171.508 59.2623 171.675 59.2547C172.063 59.2395 172.459 59.2319 172.847 59.209C173.144 59.1938 173.22 59.0872 173.175 58.7751C173.121 58.3412 173.06 57.8997 172.977 57.4734C172.718 56.1488 172.345 54.8623 171.743 53.6443C171.713 53.5758 171.69 53.5073 171.66 53.4388C171.614 53.3322 171.66 53.2333 171.751 53.2028C172.345 53.0353 172.954 53.0125 173.57 53.0506C173.845 53.0658 174.103 53.1419 174.347 53.2485C174.842 53.454 175.207 53.8118 175.382 54.3218C175.496 54.6416 175.595 54.9765 175.656 55.3115C175.809 56.126 175.946 56.9481 176.09 57.7703C176.105 57.8388 176.121 57.9149 176.151 57.9758C176.166 58.0063 176.227 58.0291 176.273 58.0291C176.319 58.0291 176.372 58.0139 176.41 57.9911C177.346 57.4886 178.176 56.8492 178.823 55.9966C179.013 55.7454 179.173 55.4637 179.333 55.1973C179.386 55.1059 179.447 55.045 179.554 55.0146" fill="white"/>
<path d="M150.787 66.7759C150.817 66.9053 150.787 66.989 150.733 67.0804C150.581 67.3849 150.421 67.6894 150.277 68.0015C149.614 69.4326 149.226 70.9399 149.059 72.508C148.937 73.6042 148.922 74.7004 148.929 75.8042C148.929 76.535 148.937 77.2734 148.944 78.0042C148.944 78.7883 148.899 79.5724 148.785 80.3413C148.701 80.897 148.579 81.4451 148.366 81.9703C148.237 82.2901 148.077 82.5946 147.864 82.861C147.536 83.2797 147.125 83.569 146.623 83.7364C146.037 83.9344 145.466 83.8658 144.91 83.6299C144.499 83.4548 144.141 83.2112 143.798 82.9219C143.41 82.587 143.06 82.2063 142.74 81.8029C142.192 81.1101 141.728 80.3641 141.309 79.5876C140.16 77.4409 139.338 75.1724 138.873 72.7821C138.759 72.1807 138.668 71.5793 138.675 70.9627C138.675 70.6202 138.721 70.2776 138.812 69.9503C138.873 69.7447 138.972 69.5392 139.086 69.3565C139.231 69.1205 139.459 68.9759 139.718 68.8845C140.373 68.6561 141.043 68.5572 141.728 68.5191C141.85 68.5191 141.971 68.5496 142.093 68.5648C142.23 68.5876 142.306 68.7018 142.284 68.8236C142.246 69.0139 142.2 69.2042 142.154 69.3945C141.979 70.2243 142.086 71.0541 142.245 71.8686C142.421 72.7821 142.733 73.6575 143.037 74.533C143.418 75.6215 143.859 76.6797 144.392 77.6997C144.651 78.1946 144.94 78.6818 145.29 79.1309C145.488 79.3821 145.702 79.6181 145.968 79.8008C146.113 79.8997 146.272 79.9454 146.448 79.953C146.623 79.953 146.79 79.8465 146.851 79.6866C146.95 79.4126 147.011 79.1233 147.003 78.8264C147.003 78.362 147.003 77.8977 146.973 77.4333C146.874 76.1696 146.729 74.906 146.63 73.6347C146.539 72.3939 146.425 71.1454 146.448 69.897C146.455 69.3108 146.516 68.7246 146.607 68.1461C146.676 67.735 146.79 67.3392 147.003 66.9738C147.209 66.616 147.506 66.3724 147.909 66.2887C148.419 66.1745 148.929 66.1745 149.439 66.281C149.919 66.38 150.391 66.5018 150.779 66.7835" fill="white"/>
</svg>
