<svg width="670" height="962" viewBox="0 0 670 962" fill="none" xmlns="http://www.w3.org/2000/svg">
<path opacity="0.5" d="M377.709 898.909C373.808 895.643 370.068 892.573 366.386 889.396C353.973 878.617 342.017 867.382 331.04 855.102C323.506 846.665 316.47 837.844 310.519 828.036C310.619 828.458 310.691 828.873 310.826 829.274C310.955 829.704 311.155 830.092 311.319 830.501C318.007 846.865 325.665 862.788 334.308 878.215C343.92 895.362 354.685 911.722 367.426 926.726C372.934 933.191 378.775 939.319 385.102 944.999C385.544 945.392 385.935 945.861 386.826 946.739C385.634 946.419 384.994 946.309 384.413 946.092C364.096 938.245 344.798 928.298 326.236 916.967C287.87 893.606 253.81 865.072 224.12 831.351C207.37 812.352 192.473 791.995 179.295 770.333C153.225 727.422 135.255 681.297 124.175 632.393C114.33 588.871 110.183 544.746 110.719 500.172C110.884 485.706 111.384 471.238 112.304 456.792C112.979 446.326 114.494 435.902 115.881 425.505C117.92 410.173 120.891 394.998 124.43 379.976C127.491 367.076 130.892 354.268 134.57 341.565C137.877 330.131 141.504 318.752 145.456 307.522C149.819 295.214 154.599 283.05 159.408 270.893C165.229 256.208 171.842 241.857 178.789 227.627C192.623 199.271 208.172 171.892 225.303 145.423C244.387 115.979 265.351 87.9217 287.912 61.0527C293.985 53.8278 297.932 45.4552 299.125 36.0099C299.44 33.3566 298.938 30.5755 298.656 27.8836C298.497 26.32 297.967 24.7787 297.751 23.1999C297.458 21.1137 298.561 19.9491 300.643 20.3548C302.092 20.6215 303.538 21.1304 304.896 21.7377C318.927 28.2959 332.054 36.407 344.94 44.9701C378.42 67.2652 408.47 93.5082 435.236 123.495C453.579 144.046 469.98 166.054 484.374 189.532C507.12 226.685 524.252 266.289 536.012 308.226C543.806 336.019 548.882 364.301 552.378 392.92C555.493 418.303 556.648 443.74 556.161 469.284C555.73 492.348 554.018 515.313 551.061 538.157C548.747 556.215 545.68 574.132 541.853 591.936C538.636 606.893 535.086 621.729 530.791 636.397C526.171 652.164 521.019 667.758 515.23 683.12C504.545 711.529 491.895 738.985 477.208 765.53C457.095 801.878 433.545 835.843 406.458 867.34C397.712 877.5 388.439 887.244 379.42 897.178C378.948 897.69 378.427 898.159 377.624 898.886" fill="url(#paint0_radial_110_162)"/>
<path d="M372.002 842.744C368.619 839.912 365.376 837.249 362.183 834.494C351.419 825.147 341.05 815.405 331.532 804.756C324.998 797.439 318.896 789.789 313.736 781.284C313.823 781.65 313.885 782.01 314.003 782.358C314.114 782.731 314.287 783.067 314.43 783.422C320.23 797.612 326.871 811.42 334.365 824.798C342.701 839.668 352.036 853.855 363.085 866.866C367.861 872.472 372.927 877.787 378.413 882.712C378.796 883.053 379.136 883.46 379.908 884.221C378.874 883.944 378.319 883.848 377.816 883.66C360.197 876.856 343.462 868.23 327.366 858.403C294.095 838.145 264.559 813.401 238.813 784.159C224.287 767.683 211.369 750.03 199.941 731.245C177.333 694.033 161.751 654.034 152.142 611.626C143.604 573.884 140.008 535.62 140.473 496.966C140.616 484.421 141.049 471.875 141.847 459.348C142.433 450.272 143.747 441.233 144.949 432.216C146.718 418.92 149.294 405.761 152.363 392.734C155.017 381.548 157.967 370.441 161.156 359.425C164.024 349.51 167.169 339.642 170.596 329.903C174.379 319.231 178.525 308.682 182.695 298.139C187.743 285.405 193.478 272.96 199.502 260.62C211.498 236.03 224.983 212.287 239.838 189.334C256.388 163.801 274.567 139.47 294.132 116.17C299.398 109.904 302.821 102.644 303.855 94.4529C304.129 92.152 303.693 89.7403 303.448 87.406C303.31 86.0501 302.851 84.7135 302.664 83.3443C302.41 81.5352 303.366 80.5253 305.171 80.8771C306.428 81.1084 307.682 81.5497 308.86 82.0764C321.027 87.7635 332.411 94.7973 343.585 102.223C372.619 121.557 398.678 144.314 421.888 170.319C437.795 188.14 452.017 207.225 464.5 227.584C484.225 259.803 499.081 294.147 509.28 330.514C516.038 354.615 520.44 379.141 523.472 403.959C526.173 425.971 527.175 448.029 526.753 470.18C526.379 490.182 524.894 510.096 522.33 529.906C520.323 545.565 517.664 561.103 514.344 576.542C511.555 589.512 508.477 602.379 504.752 615.098C500.746 628.771 496.278 642.293 491.258 655.615C481.992 680.251 471.022 704.061 458.286 727.08C440.845 758.6 420.422 788.054 396.932 815.368C389.349 824.178 381.307 832.628 373.486 841.242C373.077 841.687 372.625 842.093 371.928 842.724" fill="#F18039"/>
<defs>
<radialGradient id="paint0_radial_110_162" cx="0" cy="0" r="1" gradientUnits="userSpaceOnUse" gradientTransform="translate(562 481.264) rotate(-104.201) scale(252.723 244.12)">
<stop stop-color="#F18039"/>
<stop offset="1" stop-color="#F18039" stop-opacity="0"/>
</radialGradient>
</defs>
</svg>
