<svg width="670" height="962" viewBox="0 0 670 962" fill="none" xmlns="http://www.w3.org/2000/svg">
<path opacity="0.5" d="M377.709 898.91C373.808 895.644 370.068 892.573 366.386 889.397C353.973 878.618 342.017 867.383 331.04 855.103C323.506 846.665 316.47 837.844 310.519 828.037C310.619 828.459 310.691 828.873 310.826 829.275C310.955 829.705 311.155 830.093 311.319 830.502C318.007 846.865 325.665 862.789 334.308 878.215C343.92 895.362 354.685 911.723 367.426 926.727C372.934 933.191 378.775 939.32 385.102 945C385.544 945.392 385.935 945.862 386.826 946.739C385.634 946.42 384.994 946.309 384.413 946.093C364.096 938.246 344.798 928.299 326.236 916.968C287.87 893.607 253.81 865.072 224.12 831.351C207.37 812.353 192.473 791.995 179.295 770.334C153.225 727.422 135.255 681.297 124.175 632.394C114.33 588.871 110.183 544.746 110.719 500.173C110.884 485.706 111.384 471.239 112.304 456.792C112.979 446.326 114.494 435.903 115.881 425.506C117.921 410.173 120.891 394.999 124.43 379.976C127.491 367.077 130.892 354.269 134.57 341.565C137.877 330.131 141.504 318.753 145.456 307.522C149.819 295.215 154.599 283.05 159.408 270.893C165.229 256.208 171.842 241.858 178.789 227.627C192.623 199.271 208.172 171.892 225.303 145.424C244.387 115.98 265.351 87.9222 287.912 61.0532C293.985 53.8283 297.932 45.4557 299.125 36.0104C299.44 33.3571 298.938 30.576 298.656 27.8841C298.497 26.3205 297.967 24.7792 297.751 23.2004C297.458 21.1142 298.561 19.9496 300.643 20.3553C302.092 20.622 303.538 21.1309 304.896 21.7382C318.927 28.2964 332.055 36.4075 344.94 44.9706C378.42 67.2657 408.471 93.5088 435.236 123.496C453.579 144.046 469.98 166.054 484.374 189.532C507.121 226.686 524.252 266.289 536.012 308.226C543.806 336.019 548.882 364.301 552.378 392.92C555.493 418.304 556.648 443.74 556.161 469.284C555.73 492.349 554.018 515.313 551.061 538.157C548.747 556.215 545.68 574.132 541.853 591.937C538.636 606.893 535.086 621.73 530.791 636.397C526.171 652.164 521.019 667.758 515.23 683.12C504.545 711.529 491.895 738.986 477.208 765.531C457.095 801.878 433.545 835.844 406.458 867.341C397.712 877.5 388.439 887.244 379.42 897.178C378.948 897.691 378.427 898.159 377.624 898.887" fill="url(#paint0_radial_110_165)"/>
<path d="M372.17 843.182C368.788 840.35 365.544 837.687 362.352 834.932C351.587 825.585 341.219 815.842 331.7 805.193C325.167 797.876 319.065 790.227 313.905 781.722C313.991 782.088 314.053 782.447 314.171 782.795C314.282 783.168 314.456 783.505 314.598 783.859C320.398 798.049 327.039 811.858 334.534 825.236C342.869 840.105 352.205 854.293 363.253 867.304C368.03 872.91 373.095 878.224 378.581 883.15C378.965 883.49 379.304 883.898 380.076 884.659C379.043 884.382 378.488 884.286 377.984 884.098C360.366 877.293 343.631 868.667 327.534 858.841C294.263 838.583 264.727 813.838 238.981 784.596C224.455 768.121 211.537 750.467 200.11 731.683C177.502 694.471 161.919 654.472 152.31 612.064C143.773 574.322 140.176 536.057 140.641 497.404C140.784 484.859 141.218 472.313 142.016 459.785C142.601 450.709 143.915 441.67 145.118 432.654C146.887 419.358 149.463 406.199 152.531 393.172C155.186 381.986 158.135 370.879 161.325 359.862C164.192 349.947 167.338 340.08 170.765 330.341C174.548 319.668 178.694 309.119 182.864 298.577C187.911 285.842 193.647 273.398 199.67 261.057C211.667 236.467 225.151 212.725 240.007 189.772C256.556 164.239 274.735 139.908 294.301 116.607C299.567 110.342 302.99 103.081 304.024 94.8904C304.297 92.5895 303.862 90.1778 303.617 87.8435C303.479 86.4876 303.019 85.151 302.832 83.7818C302.578 81.9727 303.535 80.9628 305.34 81.3146C306.597 81.5459 307.85 81.9873 309.028 82.5139C321.195 88.201 332.58 95.2348 343.753 102.661C372.787 121.995 398.846 144.752 422.057 170.756C437.963 188.577 452.186 207.662 464.669 228.022C484.394 260.241 499.25 294.584 509.448 330.951C516.207 355.053 520.609 379.579 523.64 404.396C526.342 426.409 527.343 448.466 526.921 470.618C526.547 490.619 525.063 510.534 522.498 530.343C520.492 546.003 517.832 561.54 514.513 576.98C511.724 589.95 508.645 602.816 504.921 615.536C500.914 629.208 496.447 642.731 491.426 656.053C482.161 680.689 471.191 704.498 458.454 727.518C441.013 759.037 420.59 788.492 397.101 815.806C389.517 824.616 381.476 833.066 373.654 841.68C373.245 842.124 372.793 842.531 372.096 843.162" fill="#F0594D"/>
<defs>
<radialGradient id="paint0_radial_110_165" cx="0" cy="0" r="1" gradientUnits="userSpaceOnUse" gradientTransform="translate(369.5 894.029) rotate(-51.0465) scale(198.031 191.29)">
<stop stop-color="#F0594D"/>
<stop offset="1" stop-color="#F0594D" stop-opacity="0"/>
</radialGradient>
</defs>
</svg>
