<svg width="670" height="962" viewBox="0 0 670 962" fill="none" xmlns="http://www.w3.org/2000/svg">
<path opacity="0.5" d="M377.709 898.91C373.808 895.644 370.068 892.574 366.386 889.397C353.973 878.618 342.017 867.383 331.04 855.103C323.506 846.666 316.47 837.845 310.519 828.037C310.619 828.459 310.691 828.874 310.826 829.275C310.955 829.705 311.155 830.093 311.319 830.502C318.007 846.866 325.665 862.789 334.308 878.216C343.92 895.363 354.685 911.723 367.426 926.727C372.934 933.192 378.775 939.32 385.102 945C385.544 945.392 385.935 945.862 386.826 946.74C385.634 946.42 384.994 946.31 384.413 946.093C364.096 938.246 344.798 928.299 326.236 916.968C287.87 893.607 253.81 865.073 224.12 831.352C207.37 812.353 192.473 791.996 179.295 770.334C153.225 727.423 135.255 681.298 124.175 632.394C114.33 588.872 110.183 544.747 110.719 500.173C110.884 485.707 111.384 471.239 112.304 456.793C112.979 446.327 114.494 435.903 115.881 425.506C117.92 410.174 120.891 394.999 124.43 379.977C127.491 367.077 130.892 354.269 134.57 341.566C137.877 330.132 141.504 318.753 145.456 307.523C149.819 295.215 154.599 283.051 159.408 270.894C165.229 256.209 171.842 241.858 178.789 227.628C192.623 199.272 208.172 171.893 225.303 145.424C244.387 115.98 265.351 87.9227 287.912 61.0537C293.985 53.8288 297.932 45.4561 299.125 36.0108C299.44 33.3575 298.938 30.5764 298.656 27.8846C298.497 26.321 297.967 24.7797 297.751 23.2009C297.458 21.1147 298.561 19.9501 300.642 20.3558C302.092 20.6225 303.537 21.1314 304.896 21.7387C318.926 28.2969 332.054 36.408 344.939 44.9711C378.42 67.2662 408.47 93.5092 435.236 123.496C453.579 144.047 469.98 166.055 484.374 189.533C507.12 226.686 524.252 266.29 536.012 308.227C543.806 336.02 548.882 364.302 552.378 392.921C555.493 418.304 556.648 443.741 556.161 469.285C555.73 492.349 554.018 515.314 551.061 538.158C548.747 556.216 545.68 574.133 541.853 591.937C538.636 606.893 535.086 621.73 530.791 636.398C526.171 652.165 521.019 667.759 515.23 683.121C504.545 711.53 491.895 738.986 477.208 765.531C457.095 801.878 433.545 835.844 406.458 867.341C397.712 877.501 388.439 887.245 379.42 897.179C378.948 897.691 378.427 898.16 377.624 898.887" fill="url(#paint0_radial_110_168)"/>
<path d="M372.542 843.289C369.16 840.457 365.916 837.794 362.724 835.039C351.959 825.692 341.591 815.95 332.072 805.3C325.539 797.984 319.437 790.334 314.277 781.829C314.363 782.195 314.425 782.555 314.543 782.903C314.654 783.275 314.828 783.612 314.97 783.967C320.77 798.157 327.411 811.965 334.906 825.343C343.241 840.212 352.577 854.4 363.625 867.411C368.402 873.017 373.467 878.332 378.953 883.257C379.337 883.598 379.676 884.005 380.448 884.766C379.415 884.489 378.86 884.393 378.356 884.205C360.738 877.401 344.003 868.775 327.906 858.948C294.636 838.69 265.099 813.946 239.353 784.704C224.827 768.228 211.909 750.575 200.482 731.79C177.874 694.578 162.291 654.579 152.682 612.171C144.145 574.429 140.548 536.165 141.013 497.511C141.156 484.966 141.59 472.42 142.388 459.893C142.973 450.817 144.287 441.778 145.49 432.761C147.259 419.465 149.835 406.306 152.903 393.279C155.558 382.093 158.507 370.986 161.697 359.97C164.564 350.054 167.71 340.187 171.137 330.448C174.92 319.775 179.066 309.226 183.236 298.684C188.283 285.95 194.018 273.505 200.042 261.164C212.039 236.575 225.523 212.832 240.379 189.879C256.928 164.346 275.107 140.015 294.672 116.715C299.939 110.449 303.362 103.189 304.396 94.9978C304.669 92.697 304.234 90.2852 303.989 87.9509C303.851 86.595 303.391 85.2584 303.204 83.8892C302.95 82.0801 303.907 81.0702 305.712 81.422C306.969 81.6533 308.222 82.0947 309.4 82.6213C321.567 88.3084 332.952 95.3422 344.125 102.768C373.159 122.102 399.218 144.859 422.429 170.863C438.335 188.685 452.558 207.77 465.041 228.129C484.766 260.348 499.622 294.692 509.82 331.059C516.579 355.16 520.981 379.686 524.012 404.504C526.714 426.516 527.715 448.574 527.293 470.725C526.919 490.726 525.435 510.641 522.87 530.451C520.864 546.11 518.204 561.648 514.885 577.087C512.096 590.057 509.017 602.923 505.293 615.643C501.286 629.316 496.819 642.838 491.798 656.16C482.533 680.796 471.563 704.606 458.826 727.625C441.385 759.145 420.962 788.599 397.473 815.913C389.889 824.723 381.848 833.173 374.026 841.787C373.617 842.232 373.165 842.638 372.468 843.269" fill="#618A4D"/>
<defs>
<radialGradient id="paint0_radial_110_168" cx="0" cy="0" r="1" gradientUnits="userSpaceOnUse" gradientTransform="translate(108.5 480.795) rotate(77.2354) scale(224.037 216.41)">
<stop stop-color="#618A4D"/>
<stop offset="1" stop-color="#618A4D" stop-opacity="0"/>
</radialGradient>
</defs>
</svg>
