<svg width="600" height="452" viewBox="0 0 600 452" fill="none" xmlns="http://www.w3.org/2000/svg">
<path opacity="0.05" d="M591.356 125.813C585.583 113.901 576.761 103.542 567.485 94.1544C557.237 83.8604 546.599 73.4369 535.442 64.0493C513.777 45.792 488.803 31.9371 461.949 22.938C433.279 13.2914 404.024 11.6081 373.992 10.3133C359.527 9.66584 345.062 10.0542 330.597 10.9606C315.483 11.2196 300.305 12.5145 285.191 11.0254C277.407 10.2485 269.883 7.85303 262.229 6.23447C255.418 4.81014 248.607 3.25636 241.666 2.22049C234.531 1.18461 227.331 0.731445 220.066 0.731445C212.088 0.731445 203.201 3.77427 195.742 6.23447C180.174 11.2844 165.579 18.9887 151.374 26.952C100.584 55.2443 53.816 92.8594 24.2374 143.423C-3.58984 190.944 -6.18449 247.075 13.6643 298.027C23.2644 322.759 37.6647 345.484 55.1783 365.489C73.146 386.012 94.6813 401.485 117.384 416.376C141.32 432.109 167.071 447.453 196.066 451.143C209.493 452.826 223.828 450.949 236.023 444.863C245.623 440.072 251.396 431.396 254.639 421.491C256.391 415.988 257.364 410.226 258.337 404.528C259.569 397.407 262.553 389.961 264.499 382.905C266.25 376.625 268.326 370.604 271.44 364.841C275.202 357.785 280.585 352.411 286.294 346.908C308.737 325.155 334.748 308.257 364.91 298.999C393.711 290.129 424.133 287.539 453.841 282.943C483.874 278.281 512.933 270.965 539.658 256.139C561.907 243.774 580.329 225.775 590.642 202.403C601.475 177.672 603.615 150.48 591.615 125.878" fill="#F2F2F2"/>
</svg>
