<svg width="670" height="962" viewBox="0 0 670 962" fill="none" xmlns="http://www.w3.org/2000/svg">
<path opacity="0.5" d="M377.98 898.892C374.076 895.626 370.333 892.554 366.649 889.377C354.227 878.595 342.262 867.357 331.278 855.073C323.738 846.634 316.697 837.81 310.742 828C310.842 828.422 310.913 828.837 311.049 829.238C311.178 829.668 311.378 830.056 311.542 830.466C318.235 846.833 325.899 862.761 334.548 878.192C344.166 895.344 354.939 911.709 367.69 926.717C373.201 933.183 379.047 939.313 385.378 944.995C385.82 945.387 386.212 945.857 387.103 946.735C385.91 946.416 385.27 946.305 384.689 946.088C364.357 938.239 345.046 928.29 326.47 916.955C288.076 893.588 253.992 865.046 224.281 831.315C207.518 812.311 192.611 791.948 179.424 770.281C153.335 727.358 135.352 681.22 124.264 632.303C114.412 588.769 110.262 544.631 110.798 500.045C110.963 485.575 111.463 471.104 112.384 456.653C113.06 446.184 114.576 435.758 115.964 425.358C118.005 410.021 120.978 394.843 124.519 379.816C127.582 366.913 130.986 354.102 134.666 341.395C137.976 329.958 141.605 318.576 145.56 307.342C149.926 295.031 154.71 282.863 159.522 270.703C165.347 256.014 171.965 241.66 178.917 227.425C192.761 199.061 208.321 171.675 225.465 145.199C244.562 115.747 265.541 87.6817 288.119 60.8052C294.196 53.5783 298.146 45.2034 299.339 35.7555C299.655 33.1015 299.153 30.3196 298.87 27.627C298.711 26.063 298.18 24.5213 297.964 22.942C297.671 20.8553 298.775 19.6904 300.858 20.0961C302.309 20.3629 303.755 20.872 305.114 21.4795C319.155 28.0395 332.293 36.1528 345.187 44.7182C378.692 67.0194 408.763 93.2697 435.548 123.265C453.904 143.821 470.317 165.835 484.722 189.32C507.484 226.483 524.628 266.098 536.397 308.046C544.196 335.847 549.276 364.137 552.774 392.764C555.892 418.154 557.047 443.597 556.56 469.148C556.129 492.219 554.416 515.19 551.456 538.041C549.141 556.104 546.072 574.025 542.241 591.835C539.022 606.795 535.47 621.636 531.172 636.308C526.548 652.079 521.393 667.677 515.599 683.044C504.907 711.46 492.248 738.924 477.55 765.477C457.423 801.834 433.856 835.809 406.749 867.315C397.998 877.477 388.718 887.224 379.692 897.16C379.22 897.673 378.698 898.142 377.894 898.87" fill="url(#paint0_radial_110_159)"/>
<path d="M372.271 843.389C368.886 840.556 365.64 837.892 362.446 835.137C351.674 825.787 341.298 816.042 331.772 805.39C325.234 798.071 319.128 790.419 313.964 781.912C314.051 782.278 314.113 782.638 314.231 782.986C314.342 783.359 314.516 783.695 314.658 784.05C320.462 798.244 327.108 812.056 334.608 825.438C342.949 840.311 352.291 854.503 363.348 867.518C368.128 873.125 373.197 878.441 378.687 883.368C379.071 883.708 379.41 884.116 380.183 884.877C379.149 884.6 378.594 884.504 378.09 884.316C360.458 877.51 343.712 868.882 327.603 859.052C294.309 838.789 264.751 814.037 238.987 784.787C224.45 768.307 211.523 750.649 200.087 731.859C177.463 694.637 161.869 654.627 152.254 612.207C143.71 574.455 140.111 536.18 140.576 497.516C140.719 484.967 141.153 472.418 141.952 459.887C142.538 450.808 143.853 441.767 145.056 432.748C146.826 419.448 149.404 406.286 152.475 393.255C155.131 382.066 158.083 370.956 161.274 359.936C164.144 350.018 167.292 340.148 170.722 330.407C174.507 319.731 178.656 309.179 182.829 298.634C187.88 285.896 193.62 273.448 199.648 261.104C211.653 236.507 225.147 212.758 240.013 189.799C256.574 164.259 274.767 139.921 294.346 116.614C299.616 110.347 303.041 103.085 304.076 94.8916C304.35 92.59 303.914 90.1777 303.669 87.8427C303.531 86.4864 303.071 85.1494 302.884 83.7799C302.629 81.9703 303.587 80.9601 305.393 81.312C306.651 81.5433 307.905 81.9849 309.084 82.5117C321.26 88.2003 332.652 95.236 343.834 102.664C372.889 122.003 398.967 144.767 422.194 170.778C438.112 188.604 452.344 207.694 464.836 228.06C484.576 260.287 499.442 294.641 509.648 331.017C516.411 355.126 520.817 379.658 523.85 404.483C526.554 426.501 527.556 448.565 527.133 470.722C526.759 490.729 525.274 510.649 522.707 530.464C520.699 546.128 518.038 561.67 514.716 577.114C511.925 590.087 508.844 602.957 505.117 615.68C501.108 629.356 496.637 642.883 491.613 656.208C482.341 680.851 471.363 704.667 458.617 727.693C441.164 759.221 420.726 788.684 397.22 816.005C389.631 824.818 381.584 833.27 373.756 841.887C373.347 842.331 372.895 842.738 372.197 843.369" fill="#FFCE75"/>
<defs>
<radialGradient id="paint0_radial_110_159" cx="0" cy="0" r="1" gradientUnits="userSpaceOnUse" gradientTransform="translate(301.678 22.28) rotate(39.4668) scale(191.201 184.677)">
<stop stop-color="#FFCE75"/>
<stop offset="1" stop-color="#FFCE75" stop-opacity="0"/>
</radialGradient>
</defs>
</svg>
