<svg width="587" height="577" viewBox="0 0 587 577" fill="none" xmlns="http://www.w3.org/2000/svg">
<path opacity="0.05" d="M479.868 230.589C465.278 223.901 449.32 221.133 434.425 215.06C419.987 209.141 406.005 201.992 392.935 193.459C368.238 177.393 349.24 154.485 341.869 125.043C334.422 95.4469 321.199 66.7734 302.126 43.0967C283.964 20.5731 258.583 4.66047 230.087 0.893717C200.146 -3.02678 168.458 6.35172 142.317 21.1881C112.377 38.1769 57.436 117.202 49.9889 128.656C32.0551 156.407 17.3889 188.386 8.87791 220.518C-9.58781 290.395 2.26681 367.114 30.4593 432.456C43.4537 462.59 60.7795 491.032 84.6406 513.479C106.83 534.389 133.427 549.379 161.695 559.68C218.688 580.435 281.988 580.435 341.033 570.672C373.405 565.291 405.625 555.836 436.857 545.612C470.901 534.465 502.513 517.784 528.122 491.801C540.28 479.425 551.679 467.509 561.178 452.75C571.057 437.452 578.732 420.079 582.151 402.014C588.838 366.192 606.772 288.55 479.868 230.589Z" fill="#F2F2F2"/>
</svg>
