<svg width="572" height="225" viewBox="0 0 572 225" fill="none" xmlns="http://www.w3.org/2000/svg">
<path d="M564.918 191.153C558.898 199.663 559.188 199.513 551.918 205.653C551.088 206.823 547.218 210.053 538.418 213.653C527.418 218.153 480.918 222.153 440.918 223.653C400.918 225.153 318.418 222.653 291.918 222.153C265.418 221.653 107.918 213.653 49.9182 208.653C-8.08177 203.653 -0.0817692 152.153 0.918231 99.6526C1.91823 47.1526 41.4182 16.1526 68.9182 9.6526C96.4182 3.1526 174.918 -0.847401 218.418 0.152599C261.928 1.1526 435.918 5.1526 499.908 6.6526C551.108 7.8526 569.248 51.4826 571.908 73.1526V166.653C571.908 180.653 567.248 188.823 564.908 191.153H564.918Z" fill="#F07F39"/>
</svg>
