<svg width="410" height="264" viewBox="0 0 410 264" fill="none" xmlns="http://www.w3.org/2000/svg">
<path d="M392.534 81.5087C379.72 72.5971 363.381 69.6347 348.585 65.5683C339.83 63.1773 331.372 59.6714 324.173 54.0958C316.723 48.3638 310.959 40.9212 304.852 33.8451C294.517 21.9066 281.469 13.7083 265.739 11.1487C251.334 8.81105 236.749 11.5589 222.945 15.7443C204.308 21.3976 188.455 33.0086 171.16 41.5164C158.032 47.98 143.663 52.9272 128.94 49.9042C114.437 46.9017 104.616 36.3051 95.121 25.8188C86.438 16.2326 77.5007 6.2328 64.6876 2.45031C50.2291 -1.82349 34.313 3.29724 22.5353 12.0404C10.6682 20.8902 3.29266 34.441 0.754293 48.8009C-1.03463 58.9172 0.527081 69.3575 4.15721 79.0443C4.2159 80.1483 4.27462 81.2522 4.32456 82.2579C4.75418 88.4194 5.57621 94.547 6.26266 100.706C7.04219 107.689 7.60238 114.651 8.81183 121.577C15.1608 158.041 31.848 192.918 57.6902 219.575C63.3514 225.422 70.0162 230.549 76.4154 235.58C82.341 240.176 88.4972 244.476 94.9271 248.296C107.848 255.95 122.249 261.14 137.228 262.814C155.225 264.861 173 263.52 190.715 259.729C209.379 255.717 227.696 249.794 245.935 244.334C285.107 232.586 324.506 219.61 358.214 195.779C370.955 186.754 382.647 175.266 392.014 162.771C401.255 150.405 407.715 136.122 409.494 120.778C411.278 105.275 405.312 90.4434 392.497 81.5317" fill="white"/>
</svg>
