<svg width="330" height="267" viewBox="0 0 330 267" fill="none" xmlns="http://www.w3.org/2000/svg">
<path d="M80.784 4.8335H74.2044H67.6335L64.7219 78.7487H83.6955L80.784 4.8335Z" fill="#8F4520"/>
<path style="mix-blend-mode:multiply" opacity="0.45" d="M67.3075 13.1548H81.1089L80.7834 4.8335H67.633L67.3075 13.1548Z" fill="url(#paint0_linear_326_281)"/>
<path d="M58.2827 94.0544C58.2827 93.3243 59.2503 74.1308 60.7105 73.4007C62.1707 72.6706 88.41 70.2428 89.1313 72.9169C89.8614 75.591 90.829 92.8405 89.3777 93.5706C87.9175 94.3007 58.2827 94.0544 58.2827 94.0544Z" fill="#732E12"/>
<path style="mix-blend-mode:multiply" opacity="0.45" d="M89.3779 93.5708C90.2575 93.131 90.2487 86.7185 89.9496 81.0889C80.4672 81.7046 66.6306 83.7981 58.8371 85.056C58.4764 89.5597 58.2742 93.7203 58.2742 94.0546C58.2742 94.0546 87.9089 94.3009 89.3691 93.5708H89.3779Z" fill="#732E12"/>
<path d="M81.4085 0.461914H67.009C65.7459 0.461914 64.7219 1.48589 64.7219 2.74898V6.91842C64.7219 8.18151 65.7459 9.20543 67.009 9.20543H81.4085C82.6716 9.20543 83.6955 8.18151 83.6955 6.91842V2.74898C83.6955 1.48589 82.6716 0.461914 81.4085 0.461914Z" fill="url(#paint1_linear_326_281)"/>
<path d="M286.284 197.789H8.60217L12.974 92.8407L149.264 82.9977L163.839 2.09814L280.452 3.92774L283.249 96.7902L286.284 197.789Z" fill="#9E1D44"/>
<path d="M159.344 78.7492L170.762 11.9414L222.994 11.4575L223.61 78.415L159.344 78.7492Z" fill="#85D5ED"/>
<path d="M230.524 78.7492H274.259L271.831 11.4575H231.5L230.524 78.7492Z" fill="#85D5ED"/>
<path d="M43.6033 116.556V135.635C40.8941 135.907 38.2288 136.198 35.7131 136.479V116.556C35.7131 114.374 37.4811 112.615 39.6626 112.615C41.8441 112.615 43.6033 114.383 43.6033 116.556Z" fill="#333333"/>
<path d="M58.5046 116.556V134.306C55.9449 134.491 53.2973 134.711 50.6144 134.949V116.556C50.6144 114.374 52.3824 112.615 54.5551 112.615C56.7278 112.615 58.4959 114.383 58.4959 116.556H58.5046Z" fill="#333333"/>
<path d="M73.4137 116.556V133.796C71.197 133.717 68.5142 133.761 65.5234 133.893V116.556C65.5234 114.374 67.2915 112.615 69.4642 112.615C71.6368 112.615 73.4049 114.383 73.4049 116.556H73.4137Z" fill="#333333"/>
<path d="M88.3236 116.555V137.499C85.5792 136.382 82.8963 135.441 80.4333 134.79V116.547C80.4333 114.365 82.2014 112.606 84.3741 112.606C86.5468 112.606 88.3148 114.374 88.3148 116.547L88.3236 116.555Z" fill="#333333"/>
<path d="M103.234 116.556V144.827C100.788 143.446 98.1053 142.012 95.3433 140.657V116.556C95.3433 114.374 97.1113 112.615 99.2928 112.615C101.474 112.615 103.234 114.383 103.234 116.556Z" fill="#333333"/>
<path d="M118.143 116.556V151.767C118.143 152.858 117.703 153.843 116.991 154.556C116.797 154.74 116.595 154.916 116.366 155.066C115.487 153.737 114.677 152.647 114.027 151.987C113.349 151.318 112.039 150.316 110.262 149.128V116.556C110.262 114.374 112.03 112.615 114.202 112.615C116.375 112.615 118.143 114.383 118.143 116.556Z" fill="#333333"/>
<path style="mix-blend-mode:multiply" opacity="0.75" d="M286.283 197.789H40.0399L28.4024 155.523L29.37 143.622L42.0015 132.688L75.7704 135.116C75.7704 135.116 102.177 140.525 112.935 150.905C125.443 162.974 122.664 180.346 124.352 181.516C127.51 183.706 156.907 182.246 156.177 178.358C155.456 174.47 159.458 164.759 159.458 163.537C159.458 162.314 176.831 109.844 213.758 99.4028C246.718 90.0787 273.678 93.5268 283.24 96.7991L286.275 197.798L286.283 197.789Z" fill="url(#paint2_linear_326_281)"/>
<path d="M2.40924 200.71C2.40924 200.71 6.42035 92.1105 9.33192 90.2896C12.2435 88.4688 22.8166 87.7387 23.5467 89.1989C24.2768 90.659 20.9958 201.07 18.8055 201.44C16.6152 201.8 2.40924 200.71 2.40924 200.71Z" fill="url(#paint3_linear_326_281)"/>
<g style="mix-blend-mode:multiply" opacity="0.45">
<path d="M20.0371 142.425C19.8259 145.398 19.6148 148.468 18.269 151.116C16.9144 153.772 14.082 155.919 11.1352 155.488C9.01531 155.18 7.23846 153.597 6.1917 151.723C5.44401 150.386 5.0218 148.899 4.71393 147.395C3.37689 174.356 2.4093 200.71 2.4093 200.71C2.4093 200.71 16.6241 201.8 18.8056 201.44C20.3449 201.185 22.4296 146.322 23.2741 113.397C21.8315 123.029 20.7496 132.714 20.0459 142.425H20.0371Z" fill="#732E12"/>
</g>
<path d="M61.256 261.563C94.5629 261.563 121.563 234.562 121.563 201.255C121.563 167.948 94.5629 140.948 61.256 140.948C27.9492 140.948 0.948608 167.948 0.948608 201.255C0.948608 234.562 27.9492 261.563 61.256 261.563Z" fill="#333333"/>
<path d="M61.2563 238.85C82.0197 238.85 98.8517 222.018 98.8517 201.255C98.8517 180.492 82.0197 163.66 61.2563 163.66C40.493 163.66 23.6609 180.492 23.6609 201.255C23.6609 222.018 40.493 238.85 61.2563 238.85Z" fill="url(#paint4_linear_326_281)"/>
<path d="M61.2561 217.475C70.2144 217.475 77.4765 210.213 77.4765 201.255C77.4765 192.297 70.2144 185.035 61.2561 185.035C52.2979 185.035 45.0358 192.297 45.0358 201.255C45.0358 210.213 52.2979 217.475 61.2561 217.475Z" fill="#732E12"/>
<path style="mix-blend-mode:multiply" opacity="0.45" d="M61.2559 214.678C52.7675 214.678 45.8096 208.16 45.1059 199.856C45.0707 200.314 45.0443 200.78 45.0443 201.255C45.0443 210.21 52.3013 217.475 61.2647 217.475C70.2281 217.475 77.4851 210.218 77.4851 201.255C77.4851 200.78 77.4587 200.323 77.4235 199.856C76.711 208.16 69.7531 214.678 61.2735 214.678H61.2559Z" fill="url(#paint5_linear_326_281)"/>
<path d="M64.4492 174.593C64.4492 176.353 63.0242 177.778 61.2649 177.778C59.5057 177.778 58.0807 176.353 58.0807 174.593C58.0807 172.834 59.5057 171.409 61.2649 171.409C63.0242 171.409 64.4492 172.834 64.4492 174.593Z" fill="url(#paint6_linear_326_281)"/>
<path d="M44.6576 180.144C45.9066 181.393 45.9066 183.407 44.6576 184.656C43.4085 185.905 41.3941 185.905 40.1451 184.656C38.896 183.407 38.896 181.393 40.1451 180.144C41.3941 178.895 43.4085 178.895 44.6576 180.144Z" fill="url(#paint7_linear_326_281)"/>
<path d="M34.5944 198.062C36.3536 198.062 37.7786 199.487 37.7786 201.246C37.7786 203.006 36.3536 204.431 34.5944 204.431C32.8351 204.431 31.4101 203.006 31.4101 201.246C31.4101 199.487 32.8351 198.062 34.5944 198.062Z" fill="url(#paint8_linear_326_281)"/>
<path d="M40.1536 217.854C41.4027 216.605 43.417 216.605 44.6661 217.854C45.9152 219.103 45.9152 221.117 44.6661 222.366C43.417 223.615 41.4027 223.615 40.1536 222.366C38.9045 221.117 38.9045 219.103 40.1536 217.854Z" fill="url(#paint9_linear_326_281)"/>
<path d="M58.0721 227.917C58.0721 226.157 59.4971 224.732 61.2564 224.732C63.0157 224.732 64.4407 226.157 64.4407 227.917C64.4407 229.676 63.0157 231.101 61.2564 231.101C59.4971 231.101 58.0721 229.676 58.0721 227.917Z" fill="url(#paint10_linear_326_281)"/>
<path d="M77.8548 222.366C76.6057 221.117 76.6057 219.103 77.8548 217.854C79.1038 216.605 81.1182 216.605 82.3673 217.854C83.6164 219.103 83.6164 221.117 82.3673 222.366C81.1182 223.615 79.1038 223.615 77.8548 222.366Z" fill="url(#paint11_linear_326_281)"/>
<path d="M87.9175 204.439C86.1583 204.439 84.7333 203.014 84.7333 201.255C84.7333 199.496 86.1583 198.071 87.9175 198.071C89.6768 198.071 91.1018 199.496 91.1018 201.255C91.1018 203.014 89.6768 204.439 87.9175 204.439Z" fill="url(#paint12_linear_326_281)"/>
<path d="M82.3673 184.656C81.1182 185.905 79.1038 185.905 77.8548 184.656C76.6057 183.407 76.6057 181.393 77.8548 180.144C79.1038 178.895 81.1182 178.895 82.3673 180.144C83.6164 181.393 83.6164 183.407 82.3673 184.656Z" fill="url(#paint13_linear_326_281)"/>
<path d="M219.22 183.346C221.279 183.346 222.941 185.008 222.941 187.067C222.941 189.125 221.279 190.787 219.22 190.787C217.162 190.787 215.5 189.125 215.5 187.067C215.5 185.008 217.162 183.346 219.22 183.346Z" fill="url(#paint14_linear_326_281)"/>
<path d="M329.868 187.067V179.194L324.881 177.285C324.019 170.67 322.295 164.337 319.823 158.382L323.183 154.239L319.251 147.422L315.319 140.605L310.042 141.44V141.458C306.048 136.259 301.386 131.597 296.187 127.613H296.205L297.041 122.335L290.224 118.403L283.406 114.471L279.263 117.831C273.308 115.359 266.966 113.635 260.351 112.773L258.443 107.786H250.57H242.697L240.788 112.773C234.174 113.635 227.831 115.359 221.876 117.831L217.733 114.471L210.916 118.403L204.099 122.335L204.935 127.613H204.952C199.754 131.606 195.092 136.268 191.107 141.467V141.449L185.829 140.613L181.897 147.431L177.965 154.248L181.325 158.391C178.854 164.346 177.13 170.688 176.268 177.303L171.28 179.212V187.084V194.957L176.268 196.866C177.13 203.481 178.854 209.814 181.325 215.769L177.965 219.912L181.897 226.729L185.829 233.546L191.107 232.711V232.693C195.1 237.892 199.762 242.554 204.961 246.547H204.943L204.108 251.825L210.925 255.757L217.742 259.689L221.885 256.329C227.84 258.8 234.182 260.525 240.797 261.387L242.706 266.374H250.579H258.451L260.36 261.387C266.975 260.525 273.317 258.8 279.272 256.329L283.415 259.689L290.232 255.757L297.05 251.825L296.214 246.547H296.196C301.395 242.554 306.057 237.892 310.042 232.693V232.711L315.319 233.546L319.251 226.729L323.183 219.912L319.823 215.769C322.295 209.814 324.019 203.472 324.881 196.857L329.868 194.948V187.075V187.067Z" fill="#333333"/>
<path d="M267.803 227.031C289.926 217.531 300.159 191.896 290.659 169.773C281.159 147.65 255.523 137.417 233.4 146.917C211.277 156.417 201.044 182.053 210.544 204.176C220.045 226.299 245.68 236.532 267.803 227.031Z" fill="url(#paint15_linear_326_281)"/>
<path d="M250.57 204.932C260.436 204.932 268.435 196.933 268.435 187.066C268.435 177.2 260.436 169.201 250.57 169.201C240.703 169.201 232.704 177.2 232.704 187.066C232.704 196.933 240.703 204.932 250.57 204.932Z" fill="#732E12"/>
<path style="mix-blend-mode:multiply" opacity="0.45" d="M250.57 201.29C241.316 201.29 233.707 194.253 232.792 185.246C232.731 185.844 232.704 186.451 232.704 187.066C232.704 196.936 240.7 204.932 250.57 204.932C260.439 204.932 268.435 196.936 268.435 187.066C268.435 186.451 268.4 185.844 268.347 185.246C267.432 194.262 259.823 201.29 250.57 201.29Z" fill="url(#paint16_linear_326_281)"/>
<path d="M254.291 155.716C254.291 157.775 252.628 159.437 250.57 159.437C248.511 159.437 246.849 157.775 246.849 155.716C246.849 153.658 248.511 151.996 250.57 151.996C252.628 151.996 254.291 153.658 254.291 155.716Z" fill="url(#paint17_linear_326_281)"/>
<path d="M231.033 162.261C232.485 163.712 232.485 166.07 231.033 167.521C229.582 168.973 227.225 168.973 225.773 167.521C224.322 166.07 224.322 163.712 225.773 162.261C227.225 160.81 229.582 160.81 231.033 162.261Z" fill="url(#paint18_linear_326_281)"/>
<path d="M225.773 206.603C227.225 205.152 229.582 205.152 231.033 206.603C232.485 208.055 232.485 210.412 231.033 211.863C229.582 213.315 227.225 213.315 225.773 211.863C224.322 210.412 224.322 208.055 225.773 206.603Z" fill="url(#paint19_linear_326_281)"/>
<path d="M246.849 218.417C246.849 216.358 248.511 214.696 250.57 214.696C252.628 214.696 254.291 216.358 254.291 218.417C254.291 220.475 252.628 222.137 250.57 222.137C248.511 222.137 246.849 220.475 246.849 218.417Z" fill="url(#paint20_linear_326_281)"/>
<path d="M270.106 211.863C268.655 210.412 268.655 208.055 270.106 206.603C271.558 205.152 273.915 205.152 275.366 206.603C276.818 208.055 276.818 210.412 275.366 211.863C273.915 213.315 271.558 213.315 270.106 211.863Z" fill="url(#paint21_linear_326_281)"/>
<path d="M281.92 190.787C279.861 190.787 278.199 189.125 278.199 187.067C278.199 185.008 279.861 183.346 281.92 183.346C283.978 183.346 285.64 185.008 285.64 187.067C285.64 189.125 283.978 190.787 281.92 190.787Z" fill="url(#paint22_linear_326_281)"/>
<path d="M275.366 167.53C273.915 168.981 271.558 168.981 270.106 167.53C268.655 166.079 268.655 163.721 270.106 162.27C271.558 160.818 273.915 160.818 275.366 162.27C276.818 163.721 276.818 166.079 275.366 167.53Z" fill="url(#paint23_linear_326_281)"/>
<path d="M154.893 169.201L165.87 180.285C165.87 180.285 171.491 123.047 223.108 107.821C274.725 92.6033 306.154 118.077 306.154 118.077L302.187 97.8898C302.187 97.8898 260.167 77.7023 210.204 94.5824C160.241 111.454 154.893 169.193 154.893 169.193V169.201Z" fill="#B52F57"/>
<path d="M29.3696 143.613C29.3696 143.613 59.9808 128.553 90.5919 143.613C121.203 158.672 125.575 189.529 125.575 189.529L134.811 189.283C134.811 189.283 130.105 147.087 94.4798 132.433C54.9141 116.168 27.6719 131.703 27.6719 131.703L29.3696 143.604V143.613Z" fill="#B52F57"/>
<defs>
<linearGradient id="paint0_linear_326_281" x1="72.7964" y1="3.55803" x2="75.7959" y2="16.6206" gradientUnits="userSpaceOnUse">
<stop stop-color="#8F4520"/>
<stop offset="1" stop-color="#732E12"/>
</linearGradient>
<linearGradient id="paint1_linear_326_281" x1="74.2043" y1="0.56747" x2="74.2043" y2="8.50173" gradientUnits="userSpaceOnUse">
<stop stop-color="#8F4520"/>
<stop offset="1" stop-color="#732E12"/>
</linearGradient>
<linearGradient id="paint2_linear_326_281" x1="221.903" y1="30.9676" x2="108.73" y2="277.774" gradientUnits="userSpaceOnUse">
<stop stop-color="#EB2B49"/>
<stop offset="1" stop-color="#9E1D44"/>
</linearGradient>
<linearGradient id="paint3_linear_326_281" x1="19.2717" y1="63.9183" x2="9.98281" y2="203.304" gradientUnits="userSpaceOnUse">
<stop stop-color="#8F4520"/>
<stop offset="1" stop-color="#732E12"/>
</linearGradient>
<linearGradient id="paint4_linear_326_281" x1="60.8605" y1="173.441" x2="63.042" y2="325.406" gradientUnits="userSpaceOnUse">
<stop stop-color="#FCE9DF"/>
<stop offset="1" stop-color="#FFC5B2"/>
</linearGradient>
<linearGradient id="paint5_linear_326_281" x1="60.8601" y1="193.62" x2="62.2411" y2="220.29" gradientUnits="userSpaceOnUse">
<stop stop-color="#8F4520"/>
<stop offset="1" stop-color="#732E12"/>
</linearGradient>
<linearGradient id="paint6_linear_326_281" x1="60.9923" y1="169.536" x2="61.4761" y2="178.754" gradientUnits="userSpaceOnUse">
<stop stop-color="#5E5E5E"/>
<stop offset="1" stop-color="#1C1C1C"/>
</linearGradient>
<linearGradient id="paint7_linear_326_281" x1="38.6687" y1="179.021" x2="45.523" y2="185.204" gradientUnits="userSpaceOnUse">
<stop stop-color="#5E5E5E"/>
<stop offset="1" stop-color="#1C1C1C"/>
</linearGradient>
<linearGradient id="paint8_linear_326_281" x1="29.5453" y1="201.51" x2="38.7638" y2="201.035" gradientUnits="userSpaceOnUse">
<stop stop-color="#5E5E5E"/>
<stop offset="1" stop-color="#1C1C1C"/>
</linearGradient>
<linearGradient id="paint9_linear_326_281" x1="39.0361" y1="223.839" x2="45.2249" y2="216.978" gradientUnits="userSpaceOnUse">
<stop stop-color="#5E5E5E"/>
<stop offset="1" stop-color="#1C1C1C"/>
</linearGradient>
<linearGradient id="paint10_linear_326_281" x1="61.5203" y1="232.975" x2="61.0365" y2="223.756" gradientUnits="userSpaceOnUse">
<stop stop-color="#5E5E5E"/>
<stop offset="1" stop-color="#1C1C1C"/>
</linearGradient>
<linearGradient id="paint11_linear_326_281" x1="83.8686" y1="223.465" x2="77.0018" y2="217.282" gradientUnits="userSpaceOnUse">
<stop stop-color="#5E5E5E"/>
<stop offset="1" stop-color="#1C1C1C"/>
</linearGradient>
<linearGradient id="paint12_linear_326_281" x1="92.9666" y1="200.991" x2="83.7481" y2="201.466" gradientUnits="userSpaceOnUse">
<stop stop-color="#5E5E5E"/>
<stop offset="1" stop-color="#1C1C1C"/>
</linearGradient>
<linearGradient id="paint13_linear_326_281" x1="83.4884" y1="178.639" x2="77.312" y2="185.499" gradientUnits="userSpaceOnUse">
<stop stop-color="#5E5E5E"/>
<stop offset="1" stop-color="#1C1C1C"/>
</linearGradient>
<linearGradient id="paint14_linear_326_281" x1="216.467" y1="187.102" x2="231.518" y2="186.882" gradientUnits="userSpaceOnUse">
<stop stop-color="#5E5E5E"/>
<stop offset="1" stop-color="#1C1C1C"/>
</linearGradient>
<linearGradient id="paint15_linear_326_281" x1="250.073" y1="154.805" x2="252.615" y2="331.004" gradientUnits="userSpaceOnUse">
<stop stop-color="#FCE9DF"/>
<stop offset="1" stop-color="#FFC5B2"/>
</linearGradient>
<linearGradient id="paint16_linear_326_281" x1="250.579" y1="187.585" x2="251.159" y2="227.89" gradientUnits="userSpaceOnUse">
<stop stop-color="#8F4520"/>
<stop offset="1" stop-color="#732E12"/>
</linearGradient>
<linearGradient id="paint17_linear_326_281" x1="250.535" y1="152.963" x2="250.746" y2="168.005" gradientUnits="userSpaceOnUse">
<stop stop-color="#5E5E5E"/>
<stop offset="1" stop-color="#1C1C1C"/>
</linearGradient>
<linearGradient id="paint18_linear_326_281" x1="226.454" y1="162.98" x2="237.251" y2="173.467" gradientUnits="userSpaceOnUse">
<stop stop-color="#5E5E5E"/>
<stop offset="1" stop-color="#1C1C1C"/>
</linearGradient>
<linearGradient id="paint19_linear_326_281" x1="226.511" y1="211.174" x2="236.997" y2="200.389" gradientUnits="userSpaceOnUse">
<stop stop-color="#5E5E5E"/>
<stop offset="1" stop-color="#1C1C1C"/>
</linearGradient>
<linearGradient id="paint20_linear_326_281" x1="250.614" y1="221.161" x2="250.394" y2="206.119" gradientUnits="userSpaceOnUse">
<stop stop-color="#5E5E5E"/>
<stop offset="1" stop-color="#1C1C1C"/>
</linearGradient>
<linearGradient id="paint21_linear_326_281" x1="274.702" y1="211.123" x2="263.904" y2="200.636" gradientUnits="userSpaceOnUse">
<stop stop-color="#5E5E5E"/>
<stop offset="1" stop-color="#1C1C1C"/>
</linearGradient>
<linearGradient id="paint22_linear_326_281" x1="284.673" y1="187.023" x2="269.622" y2="187.242" gradientUnits="userSpaceOnUse">
<stop stop-color="#5E5E5E"/>
<stop offset="1" stop-color="#1C1C1C"/>
</linearGradient>
<linearGradient id="paint23_linear_326_281" x1="274.653" y1="162.929" x2="264.166" y2="173.714" gradientUnits="userSpaceOnUse">
<stop stop-color="#5E5E5E"/>
<stop offset="1" stop-color="#1C1C1C"/>
</linearGradient>
</defs>
</svg>
