<svg width="595" height="225" viewBox="0 0 595 225" fill="none" xmlns="http://www.w3.org/2000/svg">
<path d="M564.922 191.153C570.122 197.953 587.089 205.986 594.922 209.153C563.322 211.952 553.089 207.986 551.922 205.653C551.089 206.819 547.222 210.053 538.422 213.653C527.422 218.153 480.922 222.153 440.922 223.653C400.922 225.153 318.422 222.653 291.922 222.153C265.422 221.653 107.922 213.653 49.9221 208.653C-8.07786 203.653 -0.0778632 152.153 0.922137 99.6528C1.92214 47.1528 41.4221 16.1526 68.9221 9.6526C96.4221 3.1526 174.922 -0.847401 218.422 0.152599L218.431 0.152806C261.946 1.15315 435.927 5.1527 499.922 6.6526C551.122 7.8526 569.255 51.4859 571.922 73.1526V166.653C571.922 180.653 567.255 188.819 564.922 191.153Z" fill="#F18039"/>
</svg>
