<svg width="578" height="330" viewBox="0 0 578 330" fill="none" xmlns="http://www.w3.org/2000/svg">
<path opacity="0.89" d="M46.1247 5.51302C56.1149 4.18956 106.718 5.07187 121.268 4.41013C149.719 3.52782 213.917 1.54263 243.106 0.660318C279.592 -0.442569 355.17 -0.221991 381.883 1.76321C408.596 3.7484 473.749 1.54263 502.634 3.08667C531.518 4.63071 549.11 11.6892 562.575 28.6736C576.04 45.6581 570.828 65.5101 572.348 83.818C573.868 102.126 572.131 164.77 573.651 191.901C575.171 219.032 577.777 261.383 577.995 282.558C578.212 303.734 571.914 329.762 542.377 329.762C512.841 329.762 452.683 328.438 418.586 328.438C384.489 328.438 346.048 330.423 326.502 329.762C306.956 329.1 245.495 331.306 214.872 328.659C184.25 326.012 148.416 328.659 126.915 328.659C105.414 328.659 89.5604 328.218 50.4683 324.688C11.3762 321.159 10.0731 294.028 8.77005 283.882C7.46698 273.735 3.34059 240.207 1.38599 209.327C-0.568618 178.446 -0.785796 134.11 2.90624 112.934C6.59827 91.7588 5.51238 76.0978 7.90134 46.5404C10.2903 16.983 36.1345 6.83648 46.1247 5.51302Z" fill="#618A4D"/>
</svg>
