<svg xmlns="http://www.w3.org/2000/svg" xmlns:xlink="http://www.w3.org/1999/xlink" width="280.868" height="68.175" viewBox="0 0 280.868 68.175">
  <defs>
    <linearGradient id="linear-gradient" y1="0.5" x2="1" y2="0.5" gradientUnits="objectBoundingBox">
      <stop offset="0.01" stop-color="#fbd790"/>
      <stop offset="0.12" stop-color="#fbc662"/>
      <stop offset="0.25" stop-color="#fbc662"/>
      <stop offset="0.29" stop-color="#ebb556"/>
      <stop offset="0.37" stop-color="#ca923f"/>
      <stop offset="0.59" stop-color="#fcc970"/>
      <stop offset="0.61" stop-color="#fbd07c"/>
      <stop offset="0.63" stop-color="#f9e49d"/>
      <stop offset="0.64" stop-color="#f9e6a0"/>
      <stop offset="0.69" stop-color="#fcc970"/>
      <stop offset="0.74" stop-color="#f1bd65"/>
      <stop offset="0.85" stop-color="#d39c48"/>
      <stop offset="0.88" stop-color="#ca923f"/>
      <stop offset="1" stop-color="#fccf7c"/>
    </linearGradient>
    <linearGradient id="linear-gradient-2" x1="0" y1="0.473" x2="1" y2="0.473" xlink:href="#linear-gradient"/>
    <linearGradient id="linear-gradient-3" x1="0" y1="0.5" x2="1" y2="0.5" xlink:href="#linear-gradient"/>
    <linearGradient id="linear-gradient-4" y1="0.5" x2="0.997" y2="0.5" gradientUnits="objectBoundingBox">
      <stop offset="0" stop-color="#fbc662"/>
      <stop offset="0.2" stop-color="#ebb556"/>
      <stop offset="0.51" stop-color="#ca923f"/>
      <stop offset="1" stop-color="#fccf7c"/>
    </linearGradient>
    <linearGradient id="linear-gradient-5" x1="0" y1="0.501" x2="0.999" y2="0.501" xlink:href="#linear-gradient"/>
  </defs>
  <g id="AmaariEventsLogo" transform="translate(0.021 -0.01)">
    <path id="Path_12" data-name="Path 12" d="M98.476,45.284a1.843,1.843,0,0,0-1.23.556q-.939.933-1.466.936a.431.431,0,0,1-.319-.118,3.294,3.294,0,0,1-.776-1.316,12.91,12.91,0,0,1-.511-2.125,26.883,26.883,0,0,1-.294-2.811q-.086-1.562-.086-3.351V35.342q0-.866.058-1.8a7.374,7.374,0,0,1,1.319.789,4.954,4.954,0,0,1,.511.47l.409.441a1.6,1.6,0,0,0,.412.319,1.051,1.051,0,0,0,.511.118,1.677,1.677,0,0,0,1.083-.409,1.869,1.869,0,0,0,.639-1,.77.77,0,0,0,.029-.233,1.185,1.185,0,0,0-.2-.7A5.974,5.974,0,0,0,96.8,31.693a14.856,14.856,0,0,0-2.783-1.377q.294-4.473.719-8.668t.882-7.9q.457-3.7.907-6.853t.805-5.508a1.425,1.425,0,0,0,.029-.319A.945.945,0,0,0,96.278.01,1.677,1.677,0,0,0,95.4.3a2.939,2.939,0,0,0-.76.879A11.182,11.182,0,0,0,93.847,2.8q-.409,1-.994,2.463-.764,1.875-1.789,4.454T88.8,15.253q-1.246,2.962-2.652,6.2T83.2,27.917q-5.367-.754-11.853-1.128t-13.53-.367q-5.914,0-11.933.233t-11.744.7q-5.741.45-10.955,1.128t-9.5,1.53a65.235,65.235,0,0,0-7.438,1.917,17.135,17.135,0,0,0-4.757,2.236,11.556,11.556,0,0,0-.958.821,1.664,1.664,0,0,0-.514.907,1.278,1.278,0,0,0-.029.294,1.147,1.147,0,0,0,.319.821,1.061,1.061,0,0,0,.805.319,1.808,1.808,0,0,0,.719-.16,1.706,1.706,0,0,0,.639-.482c.058-.061.128-.125.2-.192l.265-.22a14.975,14.975,0,0,1,4.434-2.019,65.678,65.678,0,0,1,7.118-1.728q4.1-.8,9.144-1.4T34.244,30.1q5.562-.428,11.437-.639t11.639-.22q6.853,0,13.121.319t11.45,1.026q-1.748,3.607-3.581,6.85a65.8,65.8,0,0,1-3.629,5.783,25.952,25.952,0,0,1-3.514,4.1,6.256,6.256,0,0,1-3.268,1.77,1.824,1.824,0,0,0-.978.486,1.738,1.738,0,0,0-.543.92.665.665,0,0,1-.016.131.7.7,0,0,0,0,.134,1.156,1.156,0,0,0,.291.834,1.121,1.121,0,0,0,.85.319l.2-.029A8.181,8.181,0,0,0,71.86,49.8a29.422,29.422,0,0,0,4.278-4.671,66.82,66.82,0,0,0,4.291-6.514q2.137-3.661,4.128-7.645c1.278.217,2.486.444,3.588.69s2.105.511,3,.805Q91.038,34.83,91.038,37t.118,4.054c.077,1.278.2,2.431.364,3.457a14.057,14.057,0,0,0,.674,2.664,4.53,4.53,0,0,0,1.042,1.712,2.875,2.875,0,0,0,1.99.85q1.728,0,3.866-2.137a1.684,1.684,0,0,0,.5-.879,1.06,1.06,0,0,0,.029-.294,1.1,1.1,0,0,0-1.141-1.141Zm-6.39-24.9q-.492,4.543-.786,9.1c-.821-.217-1.68-.425-2.578-.639s-1.856-.387-2.875-.543q2.109-4.361,3.923-8.581T93.051,11.9q-.492,3.93-.974,8.485Z" fill="url(#linear-gradient)"/>
    <path id="Path_13" data-name="Path 13" d="M645.039,74.939l-.089-.029.176.176C645.107,74.983,645.078,74.939,645.039,74.939Z" transform="translate(-438.914 -50.971)" fill="url(#linear-gradient-2)"/>
    <path id="Path_14" data-name="Path 14" d="M418.142,61.857a1.192,1.192,0,0,1-.639-.339,3.865,3.865,0,0,1-.543-.639,4.963,4.963,0,0,1-.438-.805l-.383-.869a6.07,6.07,0,0,0-.958-1.773,1.722,1.722,0,0,0-1.361-.639,2.236,2.236,0,0,0-1.422.6,7.828,7.828,0,0,0-1.537,2.006c-.272.489-.562,1.07-.863,1.744s-.617,1.39-.939,2.15-.639,1.562-.958,2.4c-.15.393-.3.792-.444,1.188l-.371.521q.272-1.754.521-3.936.32-2.722.543-6.265V57.1a1.029,1.029,0,0,0-.319-.789,1.105,1.105,0,0,0-.805-.294,2.141,2.141,0,0,0-1.121.412,1.633,1.633,0,0,0-.613,1l-.032.233q-.32,4.744-.773,7.987t-.923,5.386c-.109.527-.211,1-.319,1.425-.233.288-.463.572-.693.847a57.5,57.5,0,0,1-4.863,5.256,20.987,20.987,0,0,1-3.923,3.016,6.454,6.454,0,0,1-3.016.958,3.15,3.15,0,0,1-2.447-1.1,8.328,8.328,0,0,1-1.581-2.859,18.724,18.724,0,0,1-.834-3.936,39.289,39.289,0,0,1-.249-4.428q0-2.022.176-3.856a28.5,28.5,0,0,1,.466-3.195,10.862,10.862,0,0,1,.514-1.7,6.214,6.214,0,0,0,.364-1.115.907.907,0,0,0,.029-.265A.831.831,0,0,0,387,59.3a1.562,1.562,0,0,0-.879-.249,1.259,1.259,0,0,0-.805.294,4.05,4.05,0,0,0-.748.818,6.511,6.511,0,0,0-1.866-1.141,5.153,5.153,0,0,0-1.834-.351,5.946,5.946,0,0,0-3.393,1.134,12.643,12.643,0,0,0-2.978,2.914,20.414,20.414,0,0,0-2.319,4.013,22.685,22.685,0,0,0-1.45,4.422,12.655,12.655,0,0,0-.249,1.508,13.1,13.1,0,0,0-.073,1.39,5.5,5.5,0,0,0,.658,2.875,2.125,2.125,0,0,0,1.348,1q-.342.319-.671.639a20.986,20.986,0,0,1-3.923,3.016,6.454,6.454,0,0,1-3.016.958,3.141,3.141,0,0,1-2.444-1.1,8.226,8.226,0,0,1-1.581-2.859,18.715,18.715,0,0,1-.872-3.942,39.289,39.289,0,0,1-.249-4.428q0-2.022.176-3.856a28.5,28.5,0,0,1,.466-3.195,10.862,10.862,0,0,1,.514-1.7,6.215,6.215,0,0,0,.371-1.137.885.885,0,0,0,.032-.265.837.837,0,0,0-.374-.754,1.6,1.6,0,0,0-.882-.249,1.259,1.259,0,0,0-.805.294,4.047,4.047,0,0,0-.748.818,6.544,6.544,0,0,0-1.863-1.141,5.173,5.173,0,0,0-1.837-.351,5.946,5.946,0,0,0-3.4,1.128,12.642,12.642,0,0,0-2.978,2.914,20.569,20.569,0,0,0-2.319,4.013,22.685,22.685,0,0,0-1.438,4.428,12.655,12.655,0,0,0-.249,1.508,13.106,13.106,0,0,0-.073,1.39v.208a9.044,9.044,0,0,1-1.827.2,7.623,7.623,0,0,1-3.735-.923,12.872,12.872,0,0,1-3.045-2.313,20.768,20.768,0,0,1-2.447-3.016q-1.083-1.629-1.962-3.032l-1.316-2.022a1.243,1.243,0,0,0-1.054-.585,2.737,2.737,0,0,0-1.613.732,10.383,10.383,0,0,0-1.463,1.364c-.546.594-1.07,1.185-1.565,1.77s-.933,1.1-1.3,1.54-.6.658-.674.658c-.019,0-.029-.061-.029-.176a14.31,14.31,0,0,1,.131-1.466c.086-.722.192-1.572.319-2.556s.22-2.026.319-3.15.134-2.211.134-3.265q0-1.083-.089-2.048a10.064,10.064,0,0,0-.291-1.716,3.782,3.782,0,0,0-.559-1.23,1.476,1.476,0,0,0-.879-.6l-.233-.029a2.305,2.305,0,0,0-1.581.939,15.206,15.206,0,0,0-1.773,2.518q-.92,1.581-1.933,3.661t-2.064,4.332q-.9,1.936-1.843,3.91T310.057,71.5q-.879,1.76-1.684,3.195t-1.418,2.326a8.417,8.417,0,0,0,.2-1.141c.038-.371.115-.84.233-1.406q.383-1.732,1-3.866t1.377-4.473l.029-.176a1.376,1.376,0,0,0,.029-.319,1.01,1.01,0,0,0-.319-.764,1.278,1.278,0,0,0-.837-.319,1.661,1.661,0,0,0-1.01.364,1.872,1.872,0,0,0-.658.895q-.818,2.457-1.45,4.712t-1.061,4.112A18.476,18.476,0,0,0,304,78.3q0,2.486,1.728,2.489l.351-.029a2.779,2.779,0,0,0,1.141-.47,7.627,7.627,0,0,0,1.965-2.153c.725-1.064,1.476-2.323,2.268-3.776s1.6-3.038,2.415-4.744,1.62-3.393,2.4-5.051q.847-1.818,1.508-3.383t1.141-2.725c.319-.77.591-1.377.808-1.815s.38-.658.5-.658c.217.019.319.5.319,1.434,0,.665-.042,1.479-.131,2.444s-.2,1.978-.335,3.032-.281,2.1-.425,3.134-.268,1.917-.367,2.693c-.058.489-.112.933-.16,1.332a8.719,8.719,0,0,0-.073,1.1q0,1.262.674,1.5a1.776,1.776,0,0,0,.556.086,3.367,3.367,0,0,0,1.917-.76,16.265,16.265,0,0,0,2.109-1.847q1.054-1.083,2.035-2.236t1.684-1.872l.639.958q.911,1.466,2.141,3.281a21.246,21.246,0,0,0,2.875,3.4,15.8,15.8,0,0,0,3.69,2.652,9.792,9.792,0,0,0,4.6,1.07,11.84,11.84,0,0,0,2.987-.419,2.236,2.236,0,0,0,2.029,1.032h.319a2.012,2.012,0,0,0,.335-.045,4.051,4.051,0,0,0,1.815-1.173,26.225,26.225,0,0,0,2.387-2.636q.853-1.061,1.738-2.236l.042-.035a44.062,44.062,0,0,0,3.281-3.23c-.042.786-.067,1.6-.067,2.409q0,2.084.208,4.156a22.413,22.413,0,0,0,.709,3.831,11.368,11.368,0,0,0,2.447,4.626,5.23,5.23,0,0,0,3.987,1.7,9.124,9.124,0,0,0,3.69-.926,19.745,19.745,0,0,0,4.569-3.105,55.143,55.143,0,0,0,5.533-5.732q2.339-2.722,5.025-6.431c-.022.61-.038,1.23-.038,1.863a41.59,41.59,0,0,0,.208,4.156,22.411,22.411,0,0,0,.709,3.831,11.317,11.317,0,0,0,2.447,4.626,5.23,5.23,0,0,0,3.987,1.7,9.125,9.125,0,0,0,3.69-.927,19.744,19.744,0,0,0,4.569-3.105,47.748,47.748,0,0,0,3.939-3.888.818.818,0,0,0,.236.393,1.853,1.853,0,0,0,1.16.265h.262a2.361,2.361,0,0,0,1.537-.895A11.124,11.124,0,0,0,407.174,75a30.821,30.821,0,0,0,1.406-3.089q.684-1.744,1.39-3.588l.24-.639h0l.818-2.163h0c.214-.565.428-1.115.639-1.642.284-.693.562-1.335.837-1.917s.537-1.118.789-1.565q.265.639.572,1.361a6.593,6.593,0,0,0,.776,1.348,4.472,4.472,0,0,0,1.1,1.054,3.262,3.262,0,0,0,1.537.511,1.556,1.556,0,0,0,1.1-.415,2.294,2.294,0,0,0,.639-1.067.921.921,0,0,0,.029-.265,1.1,1.1,0,0,0-.249-.716A.987.987,0,0,0,418.142,61.857Zm-63.066,3.38-1.789,2.68c-.45.68-.9,1.335-1.348,1.984a26.257,26.257,0,0,1-3.418,2.556c-.479.3-.958.553-1.4.78a8.12,8.12,0,0,1,.064-.882,12.708,12.708,0,0,1,.22-1.3,19.583,19.583,0,0,1,.936-3.064,18.443,18.443,0,0,1,1.524-3.057,10.434,10.434,0,0,1,1.962-2.358,3.39,3.39,0,0,1,2.256-.958,3.163,3.163,0,0,1,1.259.278,4.59,4.59,0,0,1,1.319.923Q355.954,63.921,355.076,65.237Zm26.162,0-1.789,2.68q-.9,1.361-1.8,2.636T376,72.837q-.764,1.01-1.319,1.639c-.371.422-.639.639-.789.661h-.061c-.195,0-.319-.147-.425-.441a4.275,4.275,0,0,1-.131-1.169,10.323,10.323,0,0,1,.073-1.16,12.708,12.708,0,0,1,.22-1.3A19.579,19.579,0,0,1,374.5,68a18.438,18.438,0,0,1,1.524-3.057,10.435,10.435,0,0,1,1.962-2.358,3.383,3.383,0,0,1,2.256-.958,3.163,3.163,0,0,1,1.259.278,4.536,4.536,0,0,1,1.316.923Q382.117,63.921,381.238,65.237Zm31.706-5.652.089.029c.038,0,.067.051.086.147Z" transform="translate(-206.891 -35.652)" fill="url(#linear-gradient-3)"/>
    <path id="Path_15" data-name="Path 15" d="M679.362,81.531a2.506,2.506,0,0,0,.441-.058l1.243-.348a1.885,1.885,0,0,0,.85-.511,1.837,1.837,0,0,0,.466-.837v-.2c0-.8-.371-1.2-1.112-1.2a1.278,1.278,0,0,0-.2,0l-.2.045-1.259.351a1.885,1.885,0,0,0-.85.511,1.844,1.844,0,0,0-.482.888v.2Q678.25,81.531,679.362,81.531Z" transform="translate(-461.575 -53.323)" fill="url(#linear-gradient-4)"/>
    <path id="Path_16" data-name="Path 16" d="M734.245,89.171a9.881,9.881,0,0,0-3.588-.543,38.507,38.507,0,0,0-5.214.435q-3.016.428-6.559,1.112T711.4,91.742q-3.939.875-7.965,1.8t-7.987,1.8q-3.968.882-7.572,1.569t-6.7,1.1a40.006,40.006,0,0,1-5.374.425,13.1,13.1,0,0,1-2.5-.2,3.268,3.268,0,0,1-1.565-.674,1.955,1.955,0,0,1-.588-1.5,4.366,4.366,0,0,1,.045-.6c.029-.2.064-.422.1-.658a11.15,11.15,0,0,1,.687-2.035,13.1,13.1,0,0,1,.958-1.77,1.95,1.95,0,0,0,.236-.559,1.018,1.018,0,0,0,.029-.291,1.086,1.086,0,0,0-.319-.792,1.112,1.112,0,0,0-.821-.319,1.722,1.722,0,0,0-.805.2,1.763,1.763,0,0,0-.664.613,14.429,14.429,0,0,0-1.243,2.236,13.478,13.478,0,0,0-.888,2.652,11.867,11.867,0,0,0-.176,1.962,5.048,5.048,0,0,0,.32,1.875,3.106,3.106,0,0,0,1.125,1.39,5.79,5.79,0,0,0,2.147.866,16.332,16.332,0,0,0,3.374.291,46.594,46.594,0,0,0,6.07-.454q3.428-.45,7.348-1.2t8.128-1.684q4.217-.933,8.434-1.917l7.834-1.77q3.834-.863,7.147-1.524t5.987-1.054a31.037,31.037,0,0,1,4.335-.393,5.994,5.994,0,0,1,1.553.16,1.048,1.048,0,0,1,.732.482,1.045,1.045,0,0,0,1.083.674,1.626,1.626,0,0,0,1.07-.409,1.894,1.894,0,0,0,.639-1,1.4,1.4,0,0,0,.029-.319Q735.606,89.7,734.245,89.171Z" transform="translate(-454.795 -60.302)" fill="url(#linear-gradient-5)"/>
    <path id="Path_17" data-name="Path 17" d="M343.018,183.832c-.163,0-.243-.1-.243-.3a.214.214,0,0,1,.243-.243,2.6,2.6,0,0,0,1.409-.262,1,1,0,0,0,.364-.879V171.925a1.035,1.035,0,0,0-.319-.84,2.246,2.246,0,0,0-1.345-.281c-.163,0-.243-.093-.243-.278a.214.214,0,0,1,.243-.243l1.428.016q1.278.019,3.767.019,2.355,0,3.565-.019l1.383-.016a.4.4,0,0,1,.447.428,3.6,3.6,0,0,1,.057.553c0,.256.026.524.038.811s.019.543.026.767,0,.367,0,.428a.438.438,0,0,1-.035.16.169.169,0,0,1-.169.083.5.5,0,0,1-.195-.029.259.259,0,0,1-.121-.157,9.67,9.67,0,0,0-.572-1.073,3.291,3.291,0,0,0-.914-.981,2.479,2.479,0,0,0-1.486-.412h-3.294v5.751h1.195a1.85,1.85,0,0,0,1.195-.319,2.1,2.1,0,0,0,.607-.786c.131-.3.24-.553.319-.767a.894.894,0,0,1,.1-.214c.029-.045.1-.064.195-.064a.179.179,0,0,1,.179.093.438.438,0,0,1,.045.185v.534c0,.256,0,.534-.016.831s0,.572,0,.821v.85c0,.329,0,.639.016.9s0,.444,0,.534c0,.185-.073.278-.224.278s-.23-.08-.281-.243c-.086-.236-.2-.511-.335-.831a2.377,2.377,0,0,0-.617-.84,1.748,1.748,0,0,0-1.195-.364h-1.195v5.68q0,.355.374.355h2.521a3.176,3.176,0,0,0,1.514-.319,3.24,3.24,0,0,0,1.016-.821,4.4,4.4,0,0,0,.639-.99,8.335,8.335,0,0,0,.339-.831c.035-.112.077-.176.121-.185a.486.486,0,0,1,.195,0h.019c.1,0,.153.042.166.093a.658.658,0,0,1,.019.166q0,.077,0,.47v.9c0,.342,0,.661-.019.958s0,.5,0,.607a.639.639,0,0,1-.141.412.5.5,0,0,1-.4.169l-.578-.019q-.45-.019-1.476-.029h-2.875q-2.281,0-3.748.029Z" transform="translate(-233.277 -115.871)" fill="#3e3e3e"/>
    <path id="Path_18" data-name="Path 18" d="M388.527,184.035a.511.511,0,0,1-.486-.393,6.588,6.588,0,0,0-.243-.68c-.15-.4-.345-.93-.588-1.572s-.5-1.342-.786-2.1l-.84-2.281c-.281-.757-.543-1.463-.786-2.109s-.441-1.185-.6-1.6-.246-.668-.272-.728a3.156,3.156,0,0,0-.811-1.4,1.6,1.6,0,0,0-1.035-.364.227.227,0,0,1-.169-.083.259.259,0,0,1-.073-.179c0-.2.08-.3.243-.3l.511.016.879.038c.319,0,.639.019.958.019q.54,0,1.188-.019l1.137-.038.588-.016c.163,0,.246.1.246.3a.284.284,0,0,1-.067.179.217.217,0,0,1-.179.083q-1.489,0-1.1,1.252c.035.137.134.441.3.914s.358,1.042.588,1.7l.719,2.067q.374,1.073.712,2.026l.55,1.569c.144.412.22.639.233.69,0-.035.077-.236.2-.6s.268-.824.457-1.39.387-1.176.6-1.821.415-1.278.617-1.917l.524-1.661c.147-.479.249-.824.3-1.038a1.4,1.4,0,0,0-.2-1.307,1.6,1.6,0,0,0-1.278-.486.268.268,0,0,1-.2-.083.259.259,0,0,1-.073-.179.319.319,0,0,1,.073-.2.246.246,0,0,1,.2-.093c.112,0,.361,0,.748.035s.866.038,1.441.038,1.006,0,1.38-.038a6.407,6.407,0,0,1,.728-.035c.188,0,.281.1.281.3a.268.268,0,0,1-.281.262,1.632,1.632,0,0,0-1.243.486,4.154,4.154,0,0,0-.792,1.383c-.064.173-.176.489-.335.958s-.355,1-.572,1.636-.45,1.31-.7,2.026-.5,1.428-.738,2.141L389.8,181.4c-.208.6-.374,1.093-.5,1.482s-.217.639-.252.722C388.92,183.885,388.738,184.035,388.527,184.035Z" transform="translate(-259.863 -115.851)" fill="#3e3e3e"/>
    <path id="Path_19" data-name="Path 19" d="M426.808,183.833c-.163,0-.243-.1-.243-.3a.214.214,0,0,1,.243-.243,2.6,2.6,0,0,0,1.409-.262,1,1,0,0,0,.364-.879V171.926a1.035,1.035,0,0,0-.335-.84,2.252,2.252,0,0,0-1.345-.281c-.163,0-.243-.093-.243-.278a.214.214,0,0,1,.243-.243l1.428.016q1.278.019,3.764.019,2.358,0,3.569-.019l1.383-.016a.4.4,0,0,1,.447.428,3.6,3.6,0,0,1,.057.553c0,.256.022.524.035.811s.022.543.029.767,0,.367,0,.428a.39.39,0,0,1-.038.16.163.163,0,0,1-.166.083.517.517,0,0,1-.2-.029.284.284,0,0,1-.121-.157,9.1,9.1,0,0,0-.569-1.073,3.332,3.332,0,0,0-.914-.981,2.479,2.479,0,0,0-1.486-.412h-3.265v5.751h1.195a1.856,1.856,0,0,0,1.195-.319,2.1,2.1,0,0,0,.607-.786c.131-.3.24-.553.319-.767a1.018,1.018,0,0,1,.105-.214c.029-.045.1-.064.195-.064a.173.173,0,0,1,.176.093.4.4,0,0,1,.048.185c0,.1,0,.278,0,.534s0,.534-.019.831,0,.572,0,.821v.85c0,.329,0,.639.019.9a4.675,4.675,0,0,1,0,.534c0,.185-.073.278-.224.278s-.23-.08-.281-.243c-.086-.236-.2-.511-.335-.831a2.377,2.377,0,0,0-.617-.84,1.754,1.754,0,0,0-1.195-.364h-1.188v5.68c0,.236.125.355.371.355h2.5a3.176,3.176,0,0,0,1.514-.319,3.274,3.274,0,0,0,1.016-.821,4.517,4.517,0,0,0,.639-.99,8.367,8.367,0,0,0,.335-.831c.038-.112.08-.176.121-.185a.5.5,0,0,1,.2,0h.01c.1,0,.153.042.166.093a.658.658,0,0,1,.019.166v.47c0,.259,0,.562-.019.9s0,.661-.019.958a6.067,6.067,0,0,0,0,.607.639.639,0,0,1-.137.412.5.5,0,0,1-.4.169l-.578-.019q-.45-.019-1.476-.029t-2.875,0q-2.275,0-3.744.029Z" transform="translate(-290.298 -115.872)" fill="#3e3e3e"/>
    <path id="Path_20" data-name="Path 20" d="M476.973,183.841a3.134,3.134,0,0,1-.738-.035.617.617,0,0,1-.383-.3q-.24-.374-.719-1.15t-1.112-1.792c-.422-.677-.869-1.393-1.335-2.147s-.93-1.5-1.39-2.236-.888-1.415-1.278-2.045-.725-1.16-1-1.6-.454-.709-.54-.834v9.006a2.772,2.772,0,0,0,.55,1.971,1.78,1.78,0,0,0,1.3.55.275.275,0,0,1,.176.067.224.224,0,0,1,.083.195.252.252,0,0,1-.083.2.256.256,0,0,1-.176.077q-.185,0-.767-.029c-.387-.019-.853-.029-1.4-.029q-.958,0-1.466.029t-.7.029c-.163,0-.243-.1-.243-.281s.08-.262.243-.262a1.632,1.632,0,0,0,1.278-.559,2.946,2.946,0,0,0,.5-1.942v-8.693a1.371,1.371,0,0,0-.3-.981,1.46,1.46,0,0,0-1.064-.319c-.163,0-.243-.093-.243-.278a.214.214,0,0,1,.243-.243l1,.016q.847.019,2.236.019a.885.885,0,0,1,.466.1.84.84,0,0,1,.281.32c.051.086.2.319.447.709l.958,1.457,1.233,1.917,1.335,2.073,1.259,1.952,1,1.53.543.831v-7.847a2.945,2.945,0,0,0-.514-1.952,1.773,1.773,0,0,0-1.412-.591q-.24,0-.24-.278a.214.214,0,0,1,.24-.243c.137,0,.406,0,.805.026s.872.029,1.419.029,1,0,1.383-.029.639-.026.767-.026c.185,0,.278.08.278.243a.246.246,0,0,1-.278.278,1.6,1.6,0,0,0-1.224.572,2.948,2.948,0,0,0-.514,1.971v7.1a16.3,16.3,0,0,0,.073,1.674c.051.454.089.882.112,1.278a.4.4,0,0,1-.137.348A1.863,1.863,0,0,1,476.973,183.841Z" transform="translate(-316.965 -115.826)" fill="#3e3e3e"/>
    <path id="Path_21" data-name="Path 21" d="M515.919,183.819c-.163,0-.243-.089-.243-.262s.08-.281.243-.281a2.321,2.321,0,0,0,1.4-.3,1.048,1.048,0,0,0,.355-.843v-11.3h-1.514a2.189,2.189,0,0,0-1.214.319,2.948,2.948,0,0,0-.84.824,5.772,5.772,0,0,0-.543.978q-.208.489-.32.824a.182.182,0,0,1-.112.131.54.54,0,0,1-.2,0h-.038a.125.125,0,0,1-.131-.086.478.478,0,0,1-.019-.137c0-.051,0-.214.019-.486s.029-.588.048-.936.032-.671.045-.958.019-.5.019-.617c0-.284.163-.428.486-.428l.8.016c.476,0,1.112.022,1.917.029s1.728,0,2.773,0h2.773c.8,0,1.451,0,1.936-.029l.821-.016a.415.415,0,0,1,.466.447,5.45,5.45,0,0,0,.029.569c.029.291.032.617.045.958s.026.674.038.958.019.444.019.5a.441.441,0,0,1-.019.157c0,.032-.067.054-.169.067a.156.156,0,0,0-.054.019.787.787,0,0,1-.131,0c-.038,0-.08-.061-.131-.16q-.15-.319-.364-.805a6.327,6.327,0,0,0-.543-.958,3.1,3.1,0,0,0-.811-.821,2.048,2.048,0,0,0-1.195-.335h-1.642v11.3a1.544,1.544,0,0,0,.105.581.773.773,0,0,0,.466.409,3.105,3.105,0,0,0,1.128.15.249.249,0,0,1,.281.281c0,.173-.093.262-.281.262-.125,0-.431,0-.923-.029s-1.125-.029-1.895-.029-1.412,0-1.917.029S516.056,183.819,515.919,183.819Z" transform="translate(-348.943 -115.858)" fill="#3e3e3e"/>
    <path id="Path_22" data-name="Path 22" d="M560.63,183.572a6.752,6.752,0,0,1-1.85-.243,8.419,8.419,0,0,1-1.419-.524c-.387-.192-.668-.32-.84-.4-.163.128-.319.24-.422.339s-.262.236-.438.409q-.189.185-.355.105a.3.3,0,0,1-.169-.291v-3.642c0-.15.086-.236.252-.262s.272.019.32.131a5.387,5.387,0,0,0,1.083,1.866,5.112,5.112,0,0,0,1.744,1.278,5.278,5.278,0,0,0,2.195.457,2.875,2.875,0,0,0,1.6-.393,2.48,2.48,0,0,0,.9-1,2.7,2.7,0,0,0,.3-1.208,1.853,1.853,0,0,0-.451-1.3,3.261,3.261,0,0,0-1.176-.8,11.02,11.02,0,0,0-1.617-.534c-.591-.15-1.179-.319-1.764-.486a7.432,7.432,0,0,1-1.6-.68,3.38,3.38,0,0,1-1.176-1.121,3.24,3.24,0,0,1-.45-1.786,3.581,3.581,0,0,1,.639-2.157,3.911,3.911,0,0,1,1.671-1.316,5.661,5.661,0,0,1,2.262-.447,5.975,5.975,0,0,1,1.5.185,9.052,9.052,0,0,1,1.3.438,6.66,6.66,0,0,1,.9.46l.38-.348.252-.214a.291.291,0,0,1,.339-.064.336.336,0,0,1,.147.319v3.195a.275.275,0,0,1-.233.3.252.252,0,0,1-.319-.185,7.925,7.925,0,0,0-1.093-1.709,5.314,5.314,0,0,0-1.438-1.278,3.412,3.412,0,0,0-1.783-.486,2.843,2.843,0,0,0-1.419.345,2.7,2.7,0,0,0-.958.907,2.3,2.3,0,0,0-.355,1.252,1.709,1.709,0,0,0,.46,1.252,3.237,3.237,0,0,0,1.2.744,12.068,12.068,0,0,0,1.652.486q.9.208,1.8.46a7.149,7.149,0,0,1,1.645.68,3.2,3.2,0,0,1,1.661,3.025,3.878,3.878,0,0,1-2.371,3.728,6.07,6.07,0,0,1-2.521.511Z" transform="translate(-377.795 -115.388)" fill="#3e3e3e"/>
  </g>
</svg>
