<svg xmlns="http://www.w3.org/2000/svg" xmlns:xlink="http://www.w3.org/1999/xlink" width="257.132" height="62.414" viewBox="0 0 257.132 62.414">
  <defs>
    <linearGradient id="linear-gradient" y1="0.5" x2="1" y2="0.5" gradientUnits="objectBoundingBox">
      <stop offset="0.01" stop-color="#fbd790"/>
      <stop offset="0.12" stop-color="#fbc662"/>
      <stop offset="0.25" stop-color="#fbc662"/>
      <stop offset="0.29" stop-color="#ebb556"/>
      <stop offset="0.37" stop-color="#ca923f"/>
      <stop offset="0.59" stop-color="#fcc970"/>
      <stop offset="0.61" stop-color="#fbd07c"/>
      <stop offset="0.63" stop-color="#f9e49d"/>
      <stop offset="0.64" stop-color="#f9e6a0"/>
      <stop offset="0.69" stop-color="#fcc970"/>
      <stop offset="0.74" stop-color="#f1bd65"/>
      <stop offset="0.85" stop-color="#d39c48"/>
      <stop offset="0.88" stop-color="#ca923f"/>
      <stop offset="1" stop-color="#fccf7c"/>
    </linearGradient>
    <linearGradient id="linear-gradient-2" x1="0" y1="0.473" x2="1" y2="0.473" xlink:href="#linear-gradient"/>
    <linearGradient id="linear-gradient-3" x1="0" y1="0.5" x2="1" y2="0.5" xlink:href="#linear-gradient"/>
    <linearGradient id="linear-gradient-4" y1="0.5" x2="0.997" y2="0.5" gradientUnits="objectBoundingBox">
      <stop offset="0" stop-color="#fbc662"/>
      <stop offset="0.2" stop-color="#ebb556"/>
      <stop offset="0.51" stop-color="#ca923f"/>
      <stop offset="1" stop-color="#fccf7c"/>
    </linearGradient>
    <linearGradient id="linear-gradient-5" x1="0" y1="0.501" x2="0.999" y2="0.501" xlink:href="#linear-gradient"/>
  </defs>
  <g id="AmaariEventsWhite" transform="translate(0.021 -0.01)">
    <path id="Path_253" data-name="Path 253" d="M90.152,41.458a1.688,1.688,0,0,0-1.126.509q-.86.854-1.342.857a.4.4,0,0,1-.292-.108,3.015,3.015,0,0,1-.711-1.205,11.819,11.819,0,0,1-.468-1.945,24.608,24.608,0,0,1-.269-2.574q-.079-1.43-.079-3.068V32.356q0-.793.053-1.65a6.751,6.751,0,0,1,1.208.722,4.535,4.535,0,0,1,.468.43l.374.4a1.462,1.462,0,0,0,.377.292.962.962,0,0,0,.468.108,1.536,1.536,0,0,0,.992-.374,1.711,1.711,0,0,0,.585-.913.7.7,0,0,0,.026-.214,1.085,1.085,0,0,0-.187-.643,5.47,5.47,0,0,0-1.609-1.5,13.6,13.6,0,0,0-2.548-1.261q.269-4.095.658-7.935t.807-7.236q.418-3.39.831-6.274t.737-5.042a1.3,1.3,0,0,0,.026-.292A.865.865,0,0,0,88.14.01a1.536,1.536,0,0,0-.8.269,2.691,2.691,0,0,0-.7.8,10.237,10.237,0,0,0-.725,1.477q-.374.913-.91,2.255-.7,1.717-1.638,4.077T81.3,13.964q-1.141,2.711-2.428,5.677t-2.705,5.917q-4.914-.69-10.851-1.032T52.925,24.19q-5.414,0-10.924.214t-10.752.638q-5.256.412-10.029,1.032t-8.7,1.4a59.722,59.722,0,0,0-6.809,1.755,15.687,15.687,0,0,0-4.355,2.047,10.58,10.58,0,0,0-.877.752,1.524,1.524,0,0,0-.471.831,1.17,1.17,0,0,0-.026.269,1.05,1.05,0,0,0,.292.752.971.971,0,0,0,.737.292,1.656,1.656,0,0,0,.658-.146,1.562,1.562,0,0,0,.585-.442c.053-.056.117-.114.187-.175l.243-.2a13.71,13.71,0,0,1,4.06-1.849,60.128,60.128,0,0,1,6.517-1.582q3.75-.731,8.371-1.281t9.719-.939q5.092-.392,10.471-.585t10.655-.2q6.274,0,12.012.292T74.969,28q-1.6,3.3-3.279,6.271a60.235,60.235,0,0,1-3.323,5.294,23.759,23.759,0,0,1-3.217,3.755,5.728,5.728,0,0,1-2.992,1.62,1.67,1.67,0,0,0-.895.445,1.591,1.591,0,0,0-.5.842.608.608,0,0,1-.015.12.641.641,0,0,0,0,.123,1.059,1.059,0,0,0,.266.763,1.027,1.027,0,0,0,.778.292l.187-.026a7.489,7.489,0,0,0,3.8-1.9A26.936,26.936,0,0,0,69.7,41.32a61.173,61.173,0,0,0,3.928-5.964q1.957-3.352,3.779-7c1.17.2,2.276.407,3.285.632s1.927.468,2.749.737q-.1,2.161-.1,4.144t.108,3.712c.07,1.17.184,2.226.333,3.165a12.869,12.869,0,0,0,.617,2.439,4.148,4.148,0,0,0,.953,1.568,2.632,2.632,0,0,0,1.822.778q1.582,0,3.539-1.957a1.541,1.541,0,0,0,.456-.8A.971.971,0,0,0,91.2,42.5a1.006,1.006,0,0,0-1.044-1.044Zm-5.85-22.8q-.45,4.159-.72,8.327c-.752-.2-1.538-.389-2.36-.585s-1.7-.354-2.632-.5q1.93-3.992,3.592-7.856t3-7.157q-.45,3.6-.892,7.768Z" fill="url(#linear-gradient)"/>
    <path id="Path_254" data-name="Path 254" d="M645.032,74.936l-.082-.026.161.161C645.093,74.977,645.067,74.936,645.032,74.936Z" transform="translate(-456.327 -52.993)" fill="url(#linear-gradient-2)"/>
    <path id="Path_255" data-name="Path 255" d="M408.5,61.058a1.091,1.091,0,0,1-.585-.31,3.538,3.538,0,0,1-.5-.585,4.542,4.542,0,0,1-.4-.737l-.351-.8a5.557,5.557,0,0,0-.877-1.623,1.576,1.576,0,0,0-1.246-.585,2.047,2.047,0,0,0-1.3.55,7.166,7.166,0,0,0-1.407,1.837c-.249.448-.515.98-.79,1.6s-.565,1.272-.86,1.968-.585,1.43-.877,2.2c-.137.36-.272.725-.407,1.088l-.339.477q.249-1.606.477-3.6.292-2.492.5-5.736v-.1a.942.942,0,0,0-.292-.722,1.012,1.012,0,0,0-.737-.269,1.96,1.96,0,0,0-1.027.377,1.5,1.5,0,0,0-.562.913l-.029.214q-.292,4.343-.708,7.312t-.845,4.931c-.1.483-.193.915-.292,1.3-.214.263-.424.524-.635.775a52.645,52.645,0,0,1-4.452,4.811,19.212,19.212,0,0,1-3.592,2.761,5.908,5.908,0,0,1-2.761.877,2.884,2.884,0,0,1-2.24-1.006,7.626,7.626,0,0,1-1.448-2.618,17.144,17.144,0,0,1-.763-3.6,35.985,35.985,0,0,1-.228-4.054q0-1.851.161-3.53a26.092,26.092,0,0,1,.427-2.925,9.941,9.941,0,0,1,.471-1.556,5.688,5.688,0,0,0,.333-1.021.83.83,0,0,0,.026-.243.761.761,0,0,0-.348-.711,1.43,1.43,0,0,0-.8-.228,1.152,1.152,0,0,0-.737.269,3.707,3.707,0,0,0-.684.749,5.96,5.96,0,0,0-1.708-1.044,4.717,4.717,0,0,0-1.679-.322,5.443,5.443,0,0,0-3.106,1.038,11.574,11.574,0,0,0-2.726,2.667,18.688,18.688,0,0,0-2.123,3.674,20.763,20.763,0,0,0-1.328,4.048,11.578,11.578,0,0,0-.228,1.381,11.98,11.98,0,0,0-.067,1.272,5.036,5.036,0,0,0,.6,2.632,1.945,1.945,0,0,0,1.234.913q-.313.292-.614.585a19.212,19.212,0,0,1-3.592,2.761,5.908,5.908,0,0,1-2.761.877,2.875,2.875,0,0,1-2.238-1.006,7.532,7.532,0,0,1-1.448-2.618,17.136,17.136,0,0,1-.8-3.609,35.964,35.964,0,0,1-.228-4.054q0-1.851.161-3.53a26.085,26.085,0,0,1,.427-2.925,9.945,9.945,0,0,1,.471-1.556,5.693,5.693,0,0,0,.339-1.041.812.812,0,0,0,.029-.243.766.766,0,0,0-.342-.69,1.462,1.462,0,0,0-.807-.228,1.152,1.152,0,0,0-.737.269,3.707,3.707,0,0,0-.684.749,5.989,5.989,0,0,0-1.705-1.044,4.735,4.735,0,0,0-1.682-.322,5.443,5.443,0,0,0-3.115,1.032,11.574,11.574,0,0,0-2.726,2.667,18.832,18.832,0,0,0-2.123,3.674,20.766,20.766,0,0,0-1.316,4.054,11.579,11.579,0,0,0-.228,1.381,11.988,11.988,0,0,0-.067,1.272c0,.064,0,.126,0,.19a8.281,8.281,0,0,1-1.673.187,6.979,6.979,0,0,1-3.419-.845,11.785,11.785,0,0,1-2.787-2.118,19.011,19.011,0,0,1-2.24-2.761q-.992-1.492-1.8-2.776l-1.205-1.851a1.138,1.138,0,0,0-.965-.535,2.506,2.506,0,0,0-1.477.67,9.508,9.508,0,0,0-1.34,1.249c-.5.544-.98,1.085-1.433,1.62s-.854,1.006-1.193,1.41-.547.6-.617.6c-.018,0-.026-.056-.026-.161a13.106,13.106,0,0,1,.12-1.342c.079-.661.175-1.439.292-2.34s.2-1.854.292-2.884.123-2.024.123-2.989q0-.992-.082-1.875a9.216,9.216,0,0,0-.266-1.571,3.464,3.464,0,0,0-.512-1.126,1.351,1.351,0,0,0-.8-.55l-.214-.026a2.111,2.111,0,0,0-1.448.86,13.92,13.92,0,0,0-1.623,2.3q-.842,1.448-1.77,3.352T312.9,62.883q-.828,1.772-1.688,3.58t-1.664,3.419q-.8,1.612-1.541,2.925t-1.3,2.129a7.706,7.706,0,0,0,.187-1.044c.035-.339.105-.769.214-1.287q.351-1.585.913-3.539t1.261-4.095l.026-.161a1.26,1.26,0,0,0,.026-.292.924.924,0,0,0-.292-.7,1.17,1.17,0,0,0-.766-.292,1.521,1.521,0,0,0-.924.333,1.714,1.714,0,0,0-.6.819q-.749,2.249-1.328,4.314t-.971,3.764A16.913,16.913,0,0,0,304,76.112q0,2.276,1.582,2.278l.322-.026a2.545,2.545,0,0,0,1.044-.43,6.982,6.982,0,0,0,1.8-1.971c.664-.974,1.351-2.126,2.077-3.457s1.462-2.782,2.211-4.343,1.483-3.106,2.2-4.624q.775-1.664,1.381-3.1t1.044-2.495c.292-.7.541-1.261.74-1.661s.348-.6.453-.6c.2.018.292.456.292,1.313,0,.608-.038,1.354-.12,2.238s-.184,1.81-.307,2.776-.257,1.922-.389,2.869-.246,1.755-.336,2.466c-.053.448-.1.854-.146,1.22a7.986,7.986,0,0,0-.067,1.006q0,1.155.617,1.369a1.626,1.626,0,0,0,.509.079,3.083,3.083,0,0,0,1.755-.7,14.9,14.9,0,0,0,1.93-1.691q.965-.992,1.863-2.047t1.541-1.714l.585.877q.834,1.342,1.96,3a19.451,19.451,0,0,0,2.632,3.109,14.463,14.463,0,0,0,3.378,2.428,8.965,8.965,0,0,0,4.209.98,10.839,10.839,0,0,0,2.735-.383,2.047,2.047,0,0,0,1.857.945h.292a1.843,1.843,0,0,0,.307-.041,3.709,3.709,0,0,0,1.661-1.073A24.008,24.008,0,0,0,347.8,72.3q.781-.971,1.591-2.047l.038-.032a40.34,40.34,0,0,0,3-2.957c-.038.72-.061,1.462-.061,2.205a38.088,38.088,0,0,0,.19,3.8,20.521,20.521,0,0,0,.649,3.508,10.408,10.408,0,0,0,2.24,4.235,4.788,4.788,0,0,0,3.65,1.556,8.353,8.353,0,0,0,3.378-.848,18.076,18.076,0,0,0,4.183-2.843,50.482,50.482,0,0,0,5.066-5.247q2.141-2.492,4.6-5.888c-.021.559-.035,1.126-.035,1.705a38.087,38.087,0,0,0,.19,3.8,20.521,20.521,0,0,0,.649,3.508A10.361,10.361,0,0,0,379.37,81a4.788,4.788,0,0,0,3.65,1.556,8.353,8.353,0,0,0,3.378-.848,18.075,18.075,0,0,0,4.183-2.843,43.711,43.711,0,0,0,3.606-3.56.749.749,0,0,0,.216.36,1.7,1.7,0,0,0,1.062.243h.24a2.161,2.161,0,0,0,1.407-.819,10.186,10.186,0,0,0,1.343-2,28.222,28.222,0,0,0,1.287-2.828q.626-1.6,1.272-3.285l.219-.585h0l.749-1.98h0c.2-.518.392-1.021.585-1.5.26-.635.515-1.223.766-1.755s.491-1.024.722-1.433q.243.585.524,1.246a6.035,6.035,0,0,0,.711,1.234,4.1,4.1,0,0,0,1.006.965,2.986,2.986,0,0,0,1.407.468,1.424,1.424,0,0,0,1.006-.38,2.1,2.1,0,0,0,.585-.977.843.843,0,0,0,.026-.243,1.009,1.009,0,0,0-.228-.655.9.9,0,0,0-.6-.322Zm-57.736,3.094-1.638,2.454c-.412.623-.825,1.223-1.234,1.816a24.04,24.04,0,0,1-3.13,2.34c-.439.272-.877.506-1.284.714a7.44,7.44,0,0,1,.059-.807,11.646,11.646,0,0,1,.2-1.19,17.93,17.93,0,0,1,.857-2.8,16.884,16.884,0,0,1,1.4-2.8,9.553,9.553,0,0,1,1.8-2.159,3.1,3.1,0,0,1,2.065-.877,2.9,2.9,0,0,1,1.152.254,4.2,4.2,0,0,1,1.208.845Q351.564,62.947,350.759,64.152Zm23.952,0-1.638,2.454q-.828,1.246-1.647,2.413t-1.515,2.091q-.7.924-1.208,1.5c-.339.386-.585.585-.722.605h-.056c-.178,0-.292-.135-.389-.4a3.912,3.912,0,0,1-.12-1.07,9.44,9.44,0,0,1,.067-1.062,11.638,11.638,0,0,1,.2-1.19,17.923,17.923,0,0,1,.857-2.8,16.884,16.884,0,0,1,1.4-2.8,9.554,9.554,0,0,1,1.8-2.159,3.1,3.1,0,0,1,2.065-.877,2.9,2.9,0,0,1,1.152.254,4.153,4.153,0,0,1,1.205.845Q375.515,62.947,374.711,64.152Zm29.026-5.174.082.026c.035,0,.061.047.079.135Z" transform="translate(-215.1 -37.067)" fill="url(#linear-gradient-3)"/>
    <path id="Path_256" data-name="Path 256" d="M679.268,81.264a2.294,2.294,0,0,0,.4-.053l1.138-.319a1.726,1.726,0,0,0,.778-.468,1.682,1.682,0,0,0,.427-.766v-.187c0-.731-.339-1.1-1.018-1.1a1.169,1.169,0,0,0-.187,0l-.187.041-1.152.322a1.725,1.725,0,0,0-.778.468,1.688,1.688,0,0,0-.442.813V80.2Q678.25,81.264,679.268,81.264Z" transform="translate(-479.887 -55.439)" fill="url(#linear-gradient-4)"/>
    <path id="Path_257" data-name="Path 257" d="M728.671,89.124a9.047,9.047,0,0,0-3.285-.5,35.254,35.254,0,0,0-4.773.4q-2.761.392-6,1.018t-6.85,1.436q-3.606.8-7.292,1.647t-7.312,1.65q-3.633.807-6.932,1.436t-6.133,1a36.627,36.627,0,0,1-4.92.389,11.992,11.992,0,0,1-2.293-.187,2.992,2.992,0,0,1-1.433-.617,1.79,1.79,0,0,1-.538-1.369,4,4,0,0,1,.041-.55c.026-.187.059-.386.094-.6a10.206,10.206,0,0,1,.629-1.863,11.991,11.991,0,0,1,.877-1.62,1.784,1.784,0,0,0,.216-.512.931.931,0,0,0,.026-.266,1,1,0,0,0-.292-.725,1.018,1.018,0,0,0-.752-.292,1.577,1.577,0,0,0-.737.187,1.614,1.614,0,0,0-.608.562,13.213,13.213,0,0,0-1.138,2.047,12.34,12.34,0,0,0-.813,2.428,10.868,10.868,0,0,0-.161,1.8,4.622,4.622,0,0,0,.293,1.717,2.843,2.843,0,0,0,1.03,1.272,5.3,5.3,0,0,0,1.965.793,14.952,14.952,0,0,0,3.089.266,42.657,42.657,0,0,0,5.557-.415q3.138-.412,6.727-1.1t7.441-1.541q3.861-.854,7.722-1.755l7.172-1.62q3.51-.79,6.543-1.4t5.481-.965a28.415,28.415,0,0,1,3.969-.36,5.487,5.487,0,0,1,1.421.146.959.959,0,0,1,.67.442.956.956,0,0,0,.992.617,1.489,1.489,0,0,0,.98-.374,1.734,1.734,0,0,0,.585-.913,1.289,1.289,0,0,0,.026-.292Q729.917,89.61,728.671,89.124Z" transform="translate(-472.838 -62.694)" fill="url(#linear-gradient-5)"/>
    <path id="Path_258" data-name="Path 258" d="M343,182.686c-.149,0-.222-.091-.222-.275a.2.2,0,0,1,.222-.222,2.384,2.384,0,0,0,1.29-.24.918.918,0,0,0,.333-.8v-9.359a.948.948,0,0,0-.293-.769,2.056,2.056,0,0,0-1.231-.257c-.149,0-.222-.085-.222-.254a.2.2,0,0,1,.222-.222l1.307.015q1.17.018,3.448.018,2.156,0,3.264-.018l1.266-.015a.363.363,0,0,1,.409.392,3.3,3.3,0,0,1,.053.506c0,.234.023.48.035.743s.018.5.023.7,0,.336,0,.392a.4.4,0,0,1-.032.146.155.155,0,0,1-.155.076.456.456,0,0,1-.178-.026.237.237,0,0,1-.111-.143,8.86,8.86,0,0,0-.524-.983,3.013,3.013,0,0,0-.837-.9,2.27,2.27,0,0,0-1.36-.377h-3.016v5.265h1.094a1.693,1.693,0,0,0,1.094-.292,1.922,1.922,0,0,0,.556-.72c.12-.275.219-.506.292-.7a.819.819,0,0,1,.094-.2c.026-.041.088-.058.178-.058a.164.164,0,0,1,.164.085.4.4,0,0,1,.041.17c0,.094,0,.254,0,.488s0,.488-.015.76,0,.524,0,.752v.778c0,.3,0,.585.015.822s0,.407,0,.488c0,.17-.067.254-.2.254s-.211-.073-.257-.222c-.079-.216-.181-.468-.307-.76a2.176,2.176,0,0,0-.564-.769,1.6,1.6,0,0,0-1.094-.333h-1.094v5.2q0,.325.342.325h2.308a2.907,2.907,0,0,0,1.386-.292,2.966,2.966,0,0,0,.93-.752,4.028,4.028,0,0,0,.585-.907,7.642,7.642,0,0,0,.31-.76c.032-.1.07-.161.111-.17a.444.444,0,0,1,.178,0h.018c.091,0,.14.038.152.085a.6.6,0,0,1,.018.152v1.258c0,.313,0,.605-.018.877a5.553,5.553,0,0,0,0,.556.585.585,0,0,1-.129.377.453.453,0,0,1-.369.155l-.529-.018q-.412-.018-1.351-.026h-2.632q-2.088,0-3.431.026Z" transform="translate(-242.532 -120.468)" fill="#fff"/>
    <path id="Path_259" data-name="Path 259" d="M387.962,182.87a.468.468,0,0,1-.445-.36,6.023,6.023,0,0,0-.222-.623c-.137-.369-.316-.851-.538-1.439s-.462-1.228-.72-1.922l-.769-2.088c-.257-.693-.5-1.34-.72-1.93s-.4-1.085-.547-1.462-.225-.611-.249-.667a2.89,2.89,0,0,0-.743-1.284,1.462,1.462,0,0,0-.948-.333.208.208,0,0,1-.155-.076.237.237,0,0,1-.067-.164c0-.181.073-.272.222-.272l.468.015.8.035c.292,0,.585.018.877.018q.494,0,1.088-.018l1.041-.035.538-.015c.149,0,.225.091.225.272a.26.26,0,0,1-.061.164.2.2,0,0,1-.164.076q-1.363,0-1.006,1.147c.032.126.123.4.272.837s.328.953.538,1.556l.658,1.892q.342.983.652,1.854l.5,1.436c.132.377.2.585.214.632,0-.032.07-.216.181-.547s.246-.755.418-1.272.354-1.076.547-1.667.38-1.17.564-1.755l.48-1.521c.135-.439.228-.755.272-.951a1.278,1.278,0,0,0-.187-1.2,1.462,1.462,0,0,0-1.17-.445.246.246,0,0,1-.187-.076.237.237,0,0,1-.067-.164.292.292,0,0,1,.067-.187.225.225,0,0,1,.187-.085c.1,0,.331,0,.684.032s.793.035,1.319.035.921,0,1.264-.035a5.863,5.863,0,0,1,.667-.032c.173,0,.257.091.257.272a.246.246,0,0,1-.257.24,1.5,1.5,0,0,0-1.138.445,3.8,3.8,0,0,0-.725,1.266c-.059.158-.161.448-.307.877s-.325.915-.524,1.5-.412,1.2-.641,1.854-.453,1.307-.676,1.96l-.614,1.8c-.19.547-.342,1-.462,1.357s-.2.585-.231.661C388.321,182.733,388.155,182.87,387.962,182.87Z" transform="translate(-270.173 -120.447)" fill="#fff"/>
    <path id="Path_260" data-name="Path 260" d="M426.787,182.688c-.149,0-.222-.091-.222-.275a.2.2,0,0,1,.222-.222,2.384,2.384,0,0,0,1.29-.24.919.919,0,0,0,.333-.8v-9.359a.948.948,0,0,0-.307-.769,2.062,2.062,0,0,0-1.231-.257c-.149,0-.222-.085-.222-.254a.2.2,0,0,1,.222-.222l1.307.015q1.17.018,3.445.018,2.159,0,3.267-.018l1.266-.015a.366.366,0,0,1,.409.392,3.3,3.3,0,0,1,.053.506c0,.234.02.48.032.743s.021.5.026.7,0,.336,0,.392a.357.357,0,0,1-.035.146.149.149,0,0,1-.152.076.474.474,0,0,1-.181-.026.26.26,0,0,1-.111-.143,8.334,8.334,0,0,0-.521-.983,3.051,3.051,0,0,0-.836-.9,2.27,2.27,0,0,0-1.36-.377h-2.989v5.265h1.094a1.7,1.7,0,0,0,1.094-.292,1.922,1.922,0,0,0,.556-.72c.12-.275.219-.506.292-.7a.929.929,0,0,1,.1-.2c.026-.041.088-.059.178-.059a.158.158,0,0,1,.161.085.366.366,0,0,1,.044.17v.488c0,.234,0,.488-.018.76s0,.524,0,.752v.778c0,.3,0,.585.018.822a4.279,4.279,0,0,1,0,.488c0,.17-.067.254-.2.254s-.211-.073-.257-.222c-.079-.216-.181-.468-.307-.76a2.176,2.176,0,0,0-.564-.769,1.606,1.606,0,0,0-1.094-.333h-1.088v5.2c0,.216.114.325.339.325h2.293a2.907,2.907,0,0,0,1.386-.292,3,3,0,0,0,.93-.752,4.135,4.135,0,0,0,.585-.907,7.665,7.665,0,0,0,.307-.76c.035-.1.073-.161.111-.17a.459.459,0,0,1,.181,0h.009c.091,0,.14.038.152.085a.6.6,0,0,1,.018.152v.43c0,.237,0,.515-.018.828s0,.605-.018.877,0,.453,0,.556a.585.585,0,0,1-.126.377.459.459,0,0,1-.369.155l-.529-.018q-.412-.018-1.351-.026t-2.632,0q-2.083,0-3.428.026Z" transform="translate(-301.815 -120.469)" fill="#fff"/>
    <path id="Path_261" data-name="Path 261" d="M476.025,182.689a2.87,2.87,0,0,1-.676-.032.564.564,0,0,1-.351-.275q-.219-.342-.658-1.053t-1.018-1.641c-.386-.62-.8-1.275-1.223-1.965s-.851-1.372-1.272-2.047-.813-1.3-1.17-1.872-.664-1.062-.915-1.462-.415-.649-.494-.763v8.245a2.538,2.538,0,0,0,.5,1.8,1.629,1.629,0,0,0,1.19.5.252.252,0,0,1,.161.061.2.2,0,0,1,.076.178.231.231,0,0,1-.076.187.234.234,0,0,1-.161.07q-.17,0-.7-.026c-.354-.018-.781-.026-1.284-.026q-.877,0-1.342.026t-.641.026c-.149,0-.222-.088-.222-.257s.073-.24.222-.24a1.5,1.5,0,0,0,1.17-.512,2.7,2.7,0,0,0,.453-1.778v-7.958a1.255,1.255,0,0,0-.275-.9,1.337,1.337,0,0,0-.974-.292c-.149,0-.222-.085-.222-.254a.2.2,0,0,1,.222-.222l.915.015q.775.018,2.047.018a.81.81,0,0,1,.427.088.769.769,0,0,1,.257.292c.047.079.181.292.409.649l.877,1.334,1.129,1.755,1.223,1.9,1.152,1.787.915,1.4.5.76v-7.183a2.7,2.7,0,0,0-.471-1.787,1.623,1.623,0,0,0-1.293-.541q-.219,0-.219-.254a.2.2,0,0,1,.219-.222c.126,0,.371,0,.737.023s.8.026,1.3.026.913,0,1.266-.026.585-.023.7-.023c.17,0,.254.073.254.222a.225.225,0,0,1-.254.254,1.462,1.462,0,0,0-1.12.524,2.7,2.7,0,0,0-.471,1.8v6.5a14.915,14.915,0,0,0,.067,1.533c.047.415.082.807.1,1.17a.363.363,0,0,1-.126.319A1.705,1.705,0,0,1,476.025,182.689Z" transform="translate(-329.54 -120.421)" fill="#fff"/>
    <path id="Path_262" data-name="Path 262" d="M515.65,182.673c-.149,0-.222-.082-.222-.24s.073-.257.222-.257a2.124,2.124,0,0,0,1.284-.272.959.959,0,0,0,.325-.772V170.786h-1.386a2,2,0,0,0-1.111.292,2.7,2.7,0,0,0-.769.755,5.281,5.281,0,0,0-.5.9q-.19.448-.293.755a.167.167,0,0,1-.1.12.494.494,0,0,1-.187,0h-.035a.114.114,0,0,1-.12-.079.436.436,0,0,1-.018-.126c0-.047,0-.2.018-.445s.026-.538.044-.857.029-.614.041-.877.018-.462.018-.564c0-.26.149-.392.445-.392l.734.015c.436,0,1.018.02,1.755.026s1.582,0,2.539,0h2.539c.734,0,1.328,0,1.772-.026l.752-.015a.38.38,0,0,1,.427.409,4.992,4.992,0,0,0,.026.521c.026.266.029.564.041.877s.023.617.035.877.018.407.018.453a.4.4,0,0,1-.018.143c0,.029-.061.05-.155.061a.144.144,0,0,0-.05.018.718.718,0,0,1-.12,0c-.035,0-.073-.056-.12-.146q-.137-.292-.333-.737a5.791,5.791,0,0,0-.5-.877,2.837,2.837,0,0,0-.743-.752,1.875,1.875,0,0,0-1.094-.307h-1.5v10.345a1.412,1.412,0,0,0,.1.532.708.708,0,0,0,.427.374,2.843,2.843,0,0,0,1.033.137.228.228,0,0,1,.257.257c0,.158-.085.24-.257.24-.114,0-.395,0-.845-.026s-1.03-.026-1.734-.026-1.293,0-1.755.026S515.776,182.673,515.65,182.673Z" transform="translate(-362.786 -120.454)" fill="#fff"/>
    <path id="Path_263" data-name="Path 263" d="M560.166,182.389a6.181,6.181,0,0,1-1.693-.222,7.7,7.7,0,0,1-1.3-.48c-.354-.175-.611-.292-.769-.369-.149.117-.292.219-.386.31s-.24.216-.4.374q-.173.17-.325.1a.275.275,0,0,1-.155-.266V178.5c0-.137.079-.216.231-.24s.249.018.292.12a4.931,4.931,0,0,0,.992,1.708,4.68,4.68,0,0,0,1.6,1.17,4.832,4.832,0,0,0,2.009.418,2.632,2.632,0,0,0,1.462-.36,2.27,2.27,0,0,0,.828-.913,2.469,2.469,0,0,0,.275-1.106,1.7,1.7,0,0,0-.412-1.187,2.986,2.986,0,0,0-1.076-.734,10.089,10.089,0,0,0-1.48-.488c-.541-.137-1.079-.292-1.615-.445a6.806,6.806,0,0,1-1.462-.623,3.094,3.094,0,0,1-1.076-1.027,2.966,2.966,0,0,1-.412-1.635,3.278,3.278,0,0,1,.585-1.974,3.58,3.58,0,0,1,1.53-1.205,5.183,5.183,0,0,1,2.071-.409,5.471,5.471,0,0,1,1.378.17,8.289,8.289,0,0,1,1.188.4,6.1,6.1,0,0,1,.822.421l.348-.319.231-.2a.266.266,0,0,1,.31-.059.307.307,0,0,1,.135.292V173.2a.252.252,0,0,1-.214.272.231.231,0,0,1-.292-.17,7.248,7.248,0,0,0-1-1.565,4.865,4.865,0,0,0-1.316-1.17,3.124,3.124,0,0,0-1.632-.445,2.6,2.6,0,0,0-1.3.316,2.469,2.469,0,0,0-.878.831,2.1,2.1,0,0,0-.325,1.147,1.565,1.565,0,0,0,.421,1.147,2.963,2.963,0,0,0,1.1.681,11.049,11.049,0,0,0,1.512.445q.828.19,1.65.421a6.546,6.546,0,0,1,1.506.623,2.925,2.925,0,0,1,1.521,2.77,3.551,3.551,0,0,1-2.17,3.413,5.557,5.557,0,0,1-2.308.468Z" transform="translate(-392.784 -119.966)" fill="#fff"/>
  </g>
</svg>
