<svg id="Group_71" data-name="Group 71" xmlns="http://www.w3.org/2000/svg" xmlns:xlink="http://www.w3.org/1999/xlink" width="200" height="172" viewBox="0 0 200 172">
  <defs>
    <clipPath id="clip-path">
      <rect id="Rectangle_45" data-name="Rectangle 45" width="200" height="172" fill="#dfdfdf"/>
    </clipPath>
  </defs>
  <g id="Group_70" data-name="Group 70" clip-path="url(#clip-path)">
    <path id="Path_269" data-name="Path 269" d="M200,119q0,25.992-15.5,39.5T151,172q-18.984,0-34-13.5Q102,145,102,117q0-16.008,7-33.5A188.4,188.4,0,0,1,126.5,50,221.964,221.964,0,0,1,149,21,160.03,160.03,0,0,1,172,0l2,1q-16.992,21-15,36.5A63.9,63.9,0,0,0,170,66q9,12.984,19.5,25.5Q200,103.992,200,119M97,119q0,25.992-15,39.5T48,172q-18,0-33-13.5T0,117q0-16.008,7-33.5A188.4,188.4,0,0,1,24.5,50,221.964,221.964,0,0,1,47,21,160.031,160.031,0,0,1,70,0l1,1Q54.008,22,56,37.5A63.9,63.9,0,0,0,67,66q9,12.984,19.5,25.5Q97,103.992,97,119" fill="#dfdfdf"/>
  </g>
</svg>
