<svg xmlns="http://www.w3.org/2000/svg" width="1211" height="285"><path fill-rule="evenodd" fill="#313E47" d="M1211 229.587h-62.308l-75.449-72.045.002 18.393v53.985h-43.273V55.007h43.273l-.002 63.515 66.462-63.185h57.542l-84.437 79.98 98.19 94.27Zm-196.194.333h-47.923l-35.599-56.145h-16.781v56.145h-45.751V55.007h82.757c36.05 0 63.926 22.647 63.926 61.982 0 27.995-16.25 44.781-39.197 52.36l38.568 60.571ZM951.779 93.877h-37.475v43.188h37.475c12.965 0 22.976-8.184 22.976-20.023 0-11.75-8.591-23.165-22.976-23.165Zm-414.914 64.782h-48.056l.108 71.261h-45.281V55.007h45.173l.108 71.259h48.037V55.007h45.155V229.92h-45.244v-71.261ZM369.127 94.575c-26.262 0-47.624 21.482-47.624 47.889 0 26.404 21.362 47.891 47.624 47.891 10.983 0 21.07-3.803 29.134-10.104l29.213 27.122c-15.451 14.061-35.867 22.703-58.347 22.703-48.119 0-87.128-39.224-87.128-87.61 0-48.389 39.009-87.617 87.128-87.617 22.913 0 43.682 8.977 59.236 23.522l-29.129 27.043c-8.213-6.763-18.687-10.839-30.107-10.839Zm-222-39.568h119.001v45.348h-73.564v25.911h60.582v32.393h-60.582v28.07h73.564v43.191H147.127V55.007ZM86.546 229.92H41.109V100.355H0V55.007h131.982v45.348H86.546V229.92Z"/><path fill-rule="evenodd" fill="#1EBED8" d="M705.557 204.26a527.971 527.971 0 0 1 123.091-49.603l.019-.019c-.042-.089-.063-.175-.105-.262C806.036 97.432 773.906 45.305 734.204 0c-71.941 76.962-121.208 175.302-137.196 284.418-.023.194-.066.388-.087.582a533.174 533.174 0 0 1 92.128-71.109l16.508-9.631Z"/><path fill-rule="evenodd" fill="#097991" d="M853.94 238.53a535.393 535.393 0 0 0-35.461-1.166c-71.963 0-140.572 14.272-203.167 40.164a.716.716 0 0 1 .239-.215l.021-.021c60.863-54.245 134.319-94.713 215.455-116.48h.021c.455 1.209.909 2.44 1.363 3.651.714 1.921 1.429 3.842 2.101 5.765.236.626.452 1.23.669 1.856.218.584.412 1.145.607 1.729.433 1.251.887 2.503 1.297 3.756a135.15 135.15 0 0 1 1.665 4.966c.152.432.304.886.435 1.318a239.748 239.748 0 0 1 1.817 5.529c.541 1.728 1.082 3.455 1.579 5.182.391 1.231.758 2.463 1.103 3.692.412 1.297.779 2.592 1.147 3.887.475 1.619.951 3.239 1.386 4.882.171.582.344 1.187.497 1.792.26.884.498 1.791.714 2.699.042.129.086.237.108.367.107.367.217.755.304 1.143.518 1.858.995 3.737 1.47 5.616.693 2.72 1.363 5.441 1.97 8.184.173.669.346 1.361.496 2.052a429.273 429.273 0 0 1 2.164 9.652Z"/></svg>