<svg width="160" height="285" fill="none" xmlns="http://www.w3.org/2000/svg"><mask id="a" style="mask-type:alpha" maskUnits="userSpaceOnUse" x="0" y="0" width="160" height="285"><path d="M0 30C0 13.431 13.431 0 30 0h130v285H0V30Z" fill="#D9D9D9"/></mask><g mask="url(#a)" stroke="#fff" stroke-width="10.065"><path d="M166.802-53.543c-17.972 6.936-57.504 16.619-80.24 43.493C63.829 16.825 79.045 48.33 55.7 79.13c-23.962 31.613-60.566 29.436-87.163 63.942-26.598 34.506-4.264 56.917-28.093 85.585-21.437 25.788-58.018 26.129-76.636 50.284-18.618 24.154-12.818 49.388-7.59 58.985M235.427-13.517c-17.972 6.937-57.504 16.62-80.239 43.494-22.735 26.875-7.519 58.38-30.864 89.179-23.962 31.614-60.566 29.436-87.163 63.943-26.598 34.506-4.264 56.917-28.093 85.584-21.437 25.789-58.017 26.13-76.636 50.284-18.618 24.155-12.818 49.388-7.59 58.986"/><path d="M102.184 104.396c-23.962 31.614-60.566 29.436-87.164 63.942-26.597 34.507-4.263 56.918-28.092 85.585M-13.555 160.788c-19.762 29.749-.132 46.821-17.97 71.635M189.3-42.264c-17.972 6.937-57.504 16.62-80.239 43.494-22.735 26.874-7.519 58.379-30.864 89.179-23.962 31.614-60.566 29.436-87.163 63.942"/><path d="M105.195 91.843c19.188-26.916 3.379-53.522 21.998-77.677 18.618-24.154 49.243-31.126 62.228-31.593"/></g></svg>