<svg width="176" height="377" fill="none" xmlns="http://www.w3.org/2000/svg"><mask id="a" style="mask-type:alpha" maskUnits="userSpaceOnUse" x="0" y="0" width="176" height="377"><path d="M0 0h156c11.046 0 20 8.954 20 20v357H0V0Z" fill="#D9D9D9"/></mask><g mask="url(#a)" stroke="#fff" stroke-width="13.091"><path d="M-18.333-39.591C2.29-30.867 47.86-18.156 73.28 13.907c25.42 32.064 6.576 68.103 32.559 104.75 26.67 37.615 69.277 36.439 98.902 77.512s2.849 66.285 29.474 100.471c23.951 30.754 66.438 32.503 87.175 61.255 20.738 28.751 13.066 57.853 6.638 68.81M-100.999 4.227c20.624 8.723 66.194 21.435 91.614 53.498 25.42 32.064 6.577 68.103 32.56 104.75 26.67 37.615 69.277 36.439 98.902 77.512s2.848 66.284 29.473 100.471c23.951 30.754 66.438 32.503 87.176 61.254 20.737 28.752 13.065 57.854 6.637 68.811"/><path d="M50.9 146.292c26.67 37.616 69.277 36.44 98.902 77.513 29.625 41.073 2.849 66.284 29.473 100.471M183.278 216.089c21.86 35.294-1.579 54.402 18.228 83.89M-44.888-27.319c20.623 8.724 66.194 21.435 91.614 53.499 25.42 32.063 6.576 68.103 32.559 104.749 26.67 37.616 69.277 36.44 98.902 77.513"/><path d="M47.866 131.597C26.568 99.617 45.919 69.29 25.18 40.539 4.444 11.788-30.879 2.555-45.947 1.533"/></g></svg>