<svg width="284" height="306" fill="none" xmlns="http://www.w3.org/2000/svg"><mask id="a" style="mask-type:alpha" maskUnits="userSpaceOnUse" x="0" y="0" width="284" height="306"><path fill="#D9D9D9" d="M0 0h284v306H0z"/></mask><g mask="url(#a)" stroke="#fff" stroke-width="15.064"><path d="M65.575-65.634c23.243 6.317 73.653 13.277 105.382 43.777 31.73 30.501 16.856 71.638 49.848 106.942 33.864 36.237 79.108 28.824 116.622 68.32 37.515 39.495 12.619 70.238 45.94 102.827 29.975 29.317 75.513 25.039 101.773 52.686 26.26 27.647 22.29 59.775 17.022 72.383M-14.016-14.874C9.227-8.557 59.637-1.597 91.367 28.904c31.729 30.5 16.855 71.638 49.847 106.941 33.865 36.238 79.108 28.824 116.622 68.32 37.515 39.495 12.619 70.238 45.94 102.827 29.975 29.318 75.513 25.039 101.773 52.686 26.26 27.647 22.29 59.775 17.022 72.383"/><path d="M167.08 117.627c33.865 36.238 79.108 28.824 116.623 68.32 37.514 39.495 12.619 70.238 45.939 102.828M317.431 177.739c28.402 34.458 6.182 58.213 31.557 86.78M39.045-48.714c23.243 6.316 73.653 13.277 105.383 43.777 31.729 30.5 16.855 71.638 49.847 106.942 33.865 36.237 79.108 28.824 116.622 68.32"/><path d="M160.883 107.259c-27.324-31.007-11.083-66.13-37.343-93.776C97.28-14.164 58.297-18.898 42.088-17.81"/></g></svg>