<svg width="84" height="47" viewBox="0 0 84 47" fill="none" xmlns="http://www.w3.org/2000/svg">
<path d="M20.7213 22.0678H14.47C13.6175 22.0678 13.0893 22.1379 12.8811 22.2759C12.673 22.414 12.3969 22.8762 12.0527 23.6607L10.9201 26.204C10.4078 27.3686 10.1537 28.2351 10.1537 28.7994C10.1537 29.3637 10.2898 29.7339 10.5599 29.976C10.8301 30.2181 11.3623 30.4262 12.1568 30.5983C12.5029 30.6664 12.681 30.8004 12.693 31.0025C12.705 31.1926 12.543 31.2887 12.2108 31.2887C12.0847 31.2887 11.8886 31.2827 11.6245 31.2687L9.9716 31.1726C9.41931 31.1466 8.78297 31.1326 8.06059 31.1326C7.72841 31.1326 7.46828 31.1406 7.28618 31.1566C6.69987 31.2207 6.3797 31.2527 6.32167 31.2527C6.0115 31.2527 5.85742 31.1466 5.85742 30.9345C5.85742 30.7464 5.95547 30.6223 6.15158 30.5623L6.78992 30.3722C7.02004 30.3022 7.3302 30.024 7.72241 29.5338C8.11262 29.0455 8.43679 28.5352 8.68892 28.005L9.18919 26.8644L18.0639 7.14791C18.214 6.80173 18.3801 6.62964 18.5642 6.62964C18.7483 6.62964 18.9043 6.79773 19.0304 7.1319L26.4563 26.154L26.8365 27.0885C27.3768 28.4832 27.8271 29.3517 28.1832 29.6919C28.5394 30.032 29.2658 30.3002 30.3584 30.4963C30.7146 30.5643 30.8887 30.7044 30.8767 30.9185C30.8647 31.1086 30.7046 31.2047 30.3924 31.2047C30.2884 31.2047 30.0702 31.1926 29.7361 31.1706C29.1378 31.1126 28.0732 31.0846 26.5424 31.0846C25.0116 31.0846 23.941 31.1186 23.5388 31.1886C23.2967 31.2347 23.1186 31.2587 23.0025 31.2587C22.7023 31.2587 22.5543 31.1406 22.5543 30.9045C22.5543 30.7244 22.6983 30.6063 22.9865 30.5503L23.5228 30.4282C24.0991 30.3142 24.3852 29.92 24.3852 29.2516C24.3852 28.6393 24.0351 27.4227 23.3327 25.6017L22.4702 23.3185C22.2281 22.6841 22.038 22.3179 21.8999 22.2199C21.7618 22.1218 21.3696 22.0718 20.7253 22.0718L20.7213 22.0678ZM20.9294 19.2863L18.218 12.4487L18.0799 12.0865C17.9418 11.7183 17.7917 11.5282 17.6317 11.5162C17.5516 11.5042 17.4596 11.6143 17.3555 11.8444L13.9877 19.3204C13.8376 19.6425 13.7636 19.8566 13.7636 19.9587C13.7636 20.2589 14.0277 20.4069 14.558 20.4069L15.0243 20.4249H20.239C20.8153 20.4249 21.1015 20.2809 21.1015 19.9927C21.1015 19.9127 21.0735 19.7806 21.0155 19.5965L20.9294 19.2863Z" fill="#1E5D97"/>
<path d="M36.8672 10.2394V24.6511L36.8492 26.328L36.9012 27.7787C37.0273 29.1735 37.5455 29.9859 38.456 30.216C39.0884 30.3881 39.5666 30.4762 39.8888 30.4762C40.235 30.4762 40.4131 30.5782 40.4251 30.7803C40.4471 31.0725 40.247 31.2186 39.8207 31.2186C39.6246 31.2186 39.2384 31.1945 38.6641 31.1485C38.2959 31.1265 37.6976 31.1145 36.8692 31.1145L35.6425 31.0805L34.2958 31.0985C33.6155 31.0985 33.1032 31.1225 32.759 31.1665C32.3108 31.2246 31.9826 31.2526 31.7745 31.2526C31.4743 31.2526 31.3262 31.1405 31.3262 30.9144C31.3262 30.6883 31.5163 30.5662 31.8965 30.5082C32.795 30.3701 33.4073 29.8638 33.7355 28.9894C34.0637 28.1149 34.2278 26.5401 34.2278 24.2609V13.7873C34.2278 11.372 34.0837 9.84524 33.7955 9.2069C33.5074 8.56856 32.789 8.18636 31.6364 8.06029C31.3262 8.03628 31.1762 7.91821 31.1882 7.7061C31.2002 7.43596 31.4243 7.29989 31.8625 7.29989C32.0806 7.29989 32.3748 7.3279 32.743 7.38593C33.4674 7.48999 34.0677 7.54201 34.5379 7.54201C35.2743 7.54201 36.3449 7.47798 37.7496 7.35191C38.474 7.29388 39.0683 7.26587 39.5286 7.26587C41.9339 7.26587 43.8889 7.84418 45.3917 9.00079C46.8945 10.1574 47.6449 11.6682 47.6449 13.5332C47.6449 15.7904 46.7244 17.5673 44.8814 18.868C43.5007 19.8345 42.0379 20.3188 40.4951 20.3188C39.7707 20.3188 39.1044 20.2407 38.5 20.0827C37.8957 19.9246 37.6056 19.7565 37.6276 19.5764C37.6516 19.4383 37.7596 19.3703 37.9558 19.3703C38.0478 19.3703 38.1619 19.3883 38.2999 19.4223C38.5641 19.5024 38.9883 19.5424 39.5746 19.5424C41.2295 19.5424 42.5522 19.0861 43.5447 18.1736C44.5372 17.2612 45.0355 16.0485 45.0355 14.5357C45.0355 12.7928 44.3812 11.348 43.0705 10.2054C41.7598 9.06282 40.1009 8.49052 38.0898 8.49052C37.6296 8.49052 37.3154 8.57656 37.1413 8.75066C36.9692 8.92275 36.8832 9.25092 36.8832 9.73518L36.8652 10.2354L36.8672 10.2394Z" fill="#1E5D97"/>
<path d="M50.548 25.8758V12.5247C50.548 11.0019 50.3239 9.88131 49.8736 9.16093C49.4254 8.44055 48.729 8.08036 47.7845 8.08036C47.3123 8.08036 47.0762 7.9563 47.0762 7.70816C47.0762 7.46003 47.3063 7.31996 47.7665 7.31996C47.8586 7.31996 48.1527 7.33196 48.647 7.35398C48.9932 7.37799 49.4694 7.38799 50.0798 7.38799C50.9322 7.38799 51.5866 7.37599 52.0488 7.35398L53.9818 7.23391C54.5921 7.19989 55.1685 7.18188 55.7087 7.18188C58.2521 7.18188 60.2531 7.69015 61.7099 8.70269C63.1667 9.71723 63.8951 11.112 63.8951 12.8869C63.8951 14.6618 63.1347 16.1426 61.6159 17.1572L60.8735 17.6754C60.7014 17.7795 60.6193 17.8655 60.6313 17.9336C60.6434 18.0496 60.9415 18.1697 61.5298 18.2958C62.7965 18.5839 63.837 19.2743 64.6555 20.3669C65.4719 21.4594 65.8821 22.7121 65.8821 24.1269C65.8821 26.244 65.1017 27.9889 63.5409 29.3636C61.9821 30.7384 59.999 31.4247 57.5937 31.4247L56.263 31.3727L54.6582 31.3027L53.2594 31.2166C52.339 31.1586 51.6086 31.1306 51.0663 31.1306C50.524 31.1306 50.0638 31.1546 49.6855 31.2006C49.1333 31.2706 48.7411 31.3047 48.5109 31.3047C48.1888 31.3047 48.0267 31.1806 48.0267 30.9345C48.0267 30.7424 48.1988 30.6243 48.5449 30.5803C49.5235 30.4422 50.1038 29.8999 50.2899 28.9554C50.462 28.125 50.548 27.0984 50.548 25.8778V25.8758ZM54.1419 18.9941C53.7257 18.9941 53.4636 19.0322 53.3555 19.1062C53.2454 19.1802 53.1914 19.3623 53.1914 19.6485V27.6147L53.1574 28.4071L53.2614 29.0795C53.4235 29.5737 53.8418 29.9279 54.5161 30.14C55.1905 30.3522 56.231 30.4582 57.6378 30.4582C59.4487 30.4582 60.8555 29.984 61.858 29.0355C62.8605 28.087 63.3628 26.7623 63.3628 25.0614C63.3628 23.3605 62.8125 21.8657 61.7099 20.7171C60.6093 19.5684 59.2226 18.9921 57.5497 18.9921H54.1419V18.9941ZM54.368 17.7855H57.2235C60.1191 17.7855 61.5658 16.4848 61.5658 13.8834C61.5658 12.2826 60.9475 10.9359 59.7149 9.84329C58.4802 8.74871 56.9574 8.20243 55.1464 8.20243C54.35 8.20243 53.8257 8.31448 53.5716 8.5386C53.3175 8.76272 53.1914 9.23297 53.1914 9.94535V16.869C53.1914 17.2712 53.2574 17.5254 53.3895 17.6294C53.5216 17.7335 53.8478 17.7855 54.368 17.7855Z" fill="#1E5D97"/>
<path d="M75.0815 7.0437C76.3121 7.0437 77.3547 7.2218 78.2071 7.57798L79.3977 8.07825C79.5018 8.12427 79.6059 8.14628 79.7079 8.14628C79.846 8.14628 79.9841 8.08825 80.1221 7.97419L80.3643 7.76608C80.3983 7.72006 80.4623 7.69805 80.5544 7.69805C80.8425 7.68604 80.9866 7.96819 80.9866 8.5445C80.9866 8.7406 81.0606 9.32091 81.2107 10.2894L81.4868 12.0684C81.5449 12.4486 81.5729 12.6847 81.5729 12.7767C81.5729 13.1329 81.4488 13.313 81.2027 13.313C81.0146 13.313 80.8265 13.0349 80.6404 12.4806C80.2262 11.2339 79.3877 10.2054 78.1191 9.39695C76.8504 8.58852 75.4356 8.18431 73.8748 8.18431C72.6362 8.18431 71.5996 8.5505 70.7672 9.28289C69.9347 10.0153 69.5185 10.9278 69.5185 12.0223C69.5185 12.9909 69.7887 13.8253 70.3289 14.5297C70.8012 15.13 71.3155 15.5662 71.8718 15.8424C72.43 16.1185 73.8008 16.6208 75.9839 17.3472C80.2362 18.7399 82.3633 21.0231 82.3633 24.1968C82.3633 26.3479 81.5809 28.1089 80.0141 29.4776C78.4492 30.8463 76.4402 31.5307 73.9869 31.5307C73.1004 31.5307 72.1239 31.4046 71.0593 31.1505C69.9948 30.8983 69.2143 30.6042 68.7201 30.27C68.512 30.1319 68.3759 29.9859 68.3059 29.8298C68.2358 29.6737 68.1338 29.2735 67.9957 28.6291C67.9717 28.5371 67.8276 28.0128 67.5635 27.0583C67.2633 26.0218 67.1152 25.2854 67.1152 24.8471C67.1152 24.5009 67.2333 24.3349 67.4674 24.3469C67.6775 24.3589 67.8656 24.641 68.0297 25.1953C68.4439 26.6261 69.3164 27.8287 70.6471 28.7972C71.9778 29.7677 73.4246 30.252 74.9874 30.252C76.5502 30.252 77.913 29.7857 79.0075 28.8513C80.1041 27.9188 80.6524 26.7822 80.6524 25.4454C80.6524 24.1087 80.1461 23.0902 79.1356 22.2137C78.6193 21.7635 77.1245 21.1252 74.6532 20.2947C72.0999 19.4323 70.2929 18.4778 69.2304 17.4312C68.1658 16.3846 67.6355 15.0259 67.6355 13.359C67.6355 11.4961 68.3279 9.97725 69.7166 8.80463C71.1033 7.63201 72.8903 7.0437 75.0775 7.0437H75.0815Z" fill="#1E5D97"/>
<path fill-rule="evenodd" clip-rule="evenodd" d="M66.436 44.0293C48.1563 44.7677 23.2551 35.4648 10.8165 23.2483C-0.955699 11.6882 2.66422 1.66688 18.5847 0C18.5146 0.00200106 18.4446 0.00200106 18.3745 0.00400212C-0.801618 0.780413 -5.76825 11.7982 7.28067 24.613C20.3296 37.4278 46.4534 47.189 65.6316 46.4126C78.3263 45.8983 84.7877 40.8957 83.9233 33.8539C83.5151 39.609 77.4298 43.5851 66.438 44.0293H66.436Z" fill="#F7942C"/>
</svg>
