<svg width="34" height="34" viewBox="0 0 34 34" fill="none" xmlns="http://www.w3.org/2000/svg">
<path d="M18.0675 3.26538C18.0675 2.98359 17.9556 2.71334 17.7563 2.51408C17.5571 2.31482 17.2868 2.20288 17.005 2.20288C16.7232 2.20288 16.453 2.31482 16.2537 2.51408C16.0545 2.71334 15.9425 2.98359 15.9425 3.26538V5.36205C15.9425 5.64384 16.0545 5.91409 16.2537 6.11335C16.453 6.31261 16.7232 6.42455 17.005 6.42455C17.2868 6.42455 17.5571 6.31261 17.7563 6.11335C17.9556 5.91409 18.0675 5.64384 18.0675 5.36205V3.26538ZM25.3081 14.5845C25.0129 13.4366 24.4769 12.3645 23.7356 11.4395C23.0008 10.5081 22.0791 9.74081 21.0298 9.18705C19.9831 8.63765 18.8363 8.30518 17.6581 8.20955C16.4766 8.12078 15.2895 8.28002 14.1731 8.67705C13.0506 9.06849 12.0226 9.69106 11.1556 10.5045C10.298 11.3043 9.60916 12.2677 9.12979 13.3379C8.6613 14.4246 8.42486 15.5971 8.43562 16.7804C8.40279 18.1471 8.69522 19.5021 9.28882 20.7336C9.88242 21.9652 10.7602 23.038 11.8498 23.8637L12.3456 24.3312C12.7706 24.7704 12.7706 24.7704 12.7565 25.7479V26.2012C12.7394 26.5147 12.7876 26.8282 12.8981 27.122C12.9973 27.4365 13.173 27.7241 13.4081 27.9579C13.5158 28.0684 13.6338 28.1675 13.7623 28.2554V29.672C13.739 29.929 13.7667 30.188 13.844 30.4341C13.9212 30.6803 14.0464 30.9087 14.2123 31.1062C14.3783 31.3037 14.5816 31.4665 14.8108 31.5851C15.0399 31.7036 15.2902 31.7757 15.5473 31.797H18.3806C18.901 31.7538 19.3828 31.5056 19.7202 31.1071C20.0576 30.7086 20.2229 30.1924 20.1798 29.672V28.2554C20.3077 28.1685 20.4264 28.0689 20.534 27.9579C20.7564 27.7227 20.9264 27.4422 21.0298 27.1362C21.1383 26.837 21.1865 26.5192 21.1715 26.2012V25.677C21.1715 24.8979 21.1715 24.8979 21.6106 24.402L22.149 23.9062C23.9652 22.4936 25.1513 20.4219 25.4498 18.1404C25.6584 16.9587 25.61 15.7459 25.3081 14.5845ZM29.9831 18.2254H27.3906C27.1088 18.2254 26.8386 18.1134 26.6393 17.9142C26.4401 17.7149 26.3281 17.4447 26.3281 17.1629C26.3281 16.8811 26.4401 16.6108 26.6393 16.4116C26.8386 16.2123 27.1088 16.1004 27.3906 16.1004H29.9831C30.2649 16.1004 30.5352 16.2123 30.7344 16.4116C30.9337 16.6108 31.0456 16.8811 31.0456 17.1629C31.0456 17.4447 30.9337 17.7149 30.7344 17.9142C30.5352 18.1134 30.2649 18.2254 29.9831 18.2254ZM24.7698 9.71121C24.6302 9.71187 24.4919 9.68464 24.3629 9.63112C24.234 9.5776 24.1171 9.49887 24.019 9.39955C23.82 9.20033 23.7082 8.93028 23.7082 8.64871C23.7082 8.36715 23.82 8.0971 24.019 7.89788L25.8606 6.05621C26.062 5.86853 26.3284 5.76636 26.6037 5.77122C26.879 5.77607 27.1416 5.88758 27.3363 6.08225C27.5309 6.27692 27.6424 6.53955 27.6473 6.81481C27.6521 7.09007 27.55 7.35647 27.3623 7.55788L25.5206 9.39955C25.423 9.49953 25.3062 9.57869 25.1771 9.63225C25.0481 9.68582 24.9095 9.71268 24.7698 9.71121ZM28.0281 27.3345C27.7479 27.3271 27.4804 27.216 27.2773 27.0229L25.4356 25.1812C25.3112 25.0578 25.2191 24.9056 25.1678 24.738C25.1164 24.5705 25.1073 24.3928 25.1412 24.2208C25.1752 24.0489 25.2511 23.888 25.3623 23.7526C25.4735 23.6171 25.6164 23.5112 25.7785 23.4444C25.9729 23.3624 26.1874 23.341 26.3942 23.383C26.6009 23.4249 26.7902 23.5283 26.9373 23.6795L28.779 25.5212C28.8792 25.6189 28.9589 25.7356 29.0133 25.8646C29.0677 25.9935 29.0957 26.1321 29.0957 26.272C29.0957 26.412 29.0677 26.5505 29.0133 26.6795C28.9589 26.8085 28.8792 26.9252 28.779 27.0229C28.5799 27.2222 28.3098 27.3343 28.0281 27.3345ZM9.25729 9.71121C8.97559 9.71097 8.70552 9.59886 8.50646 9.39955L6.66479 7.55788C6.46566 7.35687 6.35453 7.08498 6.35586 6.80204C6.35719 6.51909 6.47086 6.24826 6.67188 6.04913C6.87289 5.85 7.14477 5.73887 7.42772 5.7402C7.71066 5.74153 7.98149 5.8552 8.18062 6.05621L10.0081 7.89788C10.1565 8.04647 10.2576 8.23571 10.2985 8.44169C10.3394 8.64767 10.3184 8.86116 10.238 9.05519C10.1577 9.24922 10.0217 9.41509 9.8471 9.53185C9.67254 9.64861 9.4673 9.71103 9.25729 9.71121ZM6.01312 27.3345C5.87306 27.3386 5.73372 27.3129 5.6043 27.2592C5.47488 27.2055 5.35832 27.1249 5.26229 27.0229C5.06332 26.8237 4.95156 26.5536 4.95156 26.272C4.95156 25.9905 5.06332 25.7204 5.26229 25.5212L7.10396 23.6795C7.30537 23.4919 7.57177 23.3897 7.84703 23.3945C8.12229 23.3994 8.38492 23.5109 8.57959 23.7056C8.77426 23.9002 8.88577 24.1629 8.89062 24.4381C8.89548 24.7134 8.7933 24.9798 8.60562 25.1812L6.77812 27.037C6.56925 27.2283 6.29634 27.3344 6.01312 27.3345ZM6.60812 18.2254H4.01562C3.73383 18.2254 3.46358 18.1134 3.26432 17.9142C3.06507 17.7149 2.95312 17.4447 2.95312 17.1629C2.95312 16.8811 3.06507 16.6108 3.26432 16.4116C3.46358 16.2123 3.73383 16.1004 4.01562 16.1004H6.60812C6.88992 16.1004 7.16017 16.2123 7.35943 16.4116C7.55868 16.6108 7.67062 16.8811 7.67062 17.1629C7.67062 17.4447 7.55868 17.7149 7.35943 17.9142C7.16017 18.1134 6.88992 18.2254 6.60812 18.2254Z" fill="#F7942C"/>
</svg>
