<svg width="167" height="93" viewBox="0 0 167 93" fill="none" xmlns="http://www.w3.org/2000/svg">
<path fill-rule="evenodd" clip-rule="evenodd" d="M131.912 87.4222C95.6166 88.8883 46.1741 70.4169 21.4767 46.1606C-1.89758 23.2074 5.28993 3.30967 36.9007 0C36.7616 0.00397319 36.6225 0.00397319 36.4835 0.00794639C-1.59165 1.54955 -11.4531 23.426 14.4561 48.8703C40.3653 74.3146 92.2354 93.6959 130.314 92.1543C155.52 91.1332 168.35 81.2002 166.633 67.2185C165.823 78.6454 153.74 86.5402 131.916 87.4222H131.912Z" fill="#F7942C"/>
<path fill-rule="evenodd" clip-rule="evenodd" d="M140.694 65.4076C113.538 66.5045 76.5465 52.6845 58.0685 34.5364C40.5803 17.3633 45.9578 2.47623 69.6083 0C69.5043 0.00297267 69.4003 0.00297267 69.2962 0.00594533C40.8092 1.15934 33.431 17.5268 52.8158 36.5638C72.2005 55.6007 111.009 70.1014 139.499 68.948C158.357 68.184 167.956 60.7524 166.672 50.2915C166.065 58.8409 157.026 64.7476 140.697 65.4076H140.694Z" fill="#F7942C"/>
</svg>
