<svg width="167" height="93" viewBox="0 0 167 93" fill="none" xmlns="http://www.w3.org/2000/svg">
<path fill-rule="evenodd" clip-rule="evenodd" d="M131.912 5.57779C95.6166 4.11168 46.1741 22.5831 21.4767 46.8394C-1.89758 69.7926 5.28993 89.6903 36.9007 93C36.7616 92.996 36.6225 92.996 36.4835 92.9921C-1.59165 91.4505 -11.4531 69.574 14.4561 44.1297C40.3653 18.6854 92.2354 -0.695884 130.314 0.845715C155.52 1.86683 168.35 11.7998 166.633 25.7815C165.823 14.3546 153.74 6.45984 131.916 5.57779H131.912Z" fill="#F7942C"/>
<path fill-rule="evenodd" clip-rule="evenodd" d="M140.694 27.5924C113.538 26.4955 76.5465 40.3155 58.0685 58.4636C40.5803 75.6367 45.9578 90.5238 69.6083 93C69.5043 92.997 69.4003 92.997 69.2962 92.9941C40.8092 91.8407 33.431 75.4732 52.8158 56.4362C72.2005 37.3993 111.009 22.8986 139.499 24.052C158.357 24.816 167.956 32.2476 166.672 42.7085C166.065 34.1591 157.026 28.2524 140.697 27.5924H140.694Z" fill="#F7942C"/>
</svg>
