<svg width="134" height="75" viewBox="0 0 134 75" fill="none" xmlns="http://www.w3.org/2000/svg">
<g clip-path="url(#clip0_1844_7033)">
<path d="M37.8923 30.1335H29.3561C28.1921 30.1335 27.4707 30.2291 27.1866 30.4177C26.9024 30.6062 26.5253 31.2374 26.0553 32.3085L24.5088 35.7815C23.8093 37.3717 23.4623 38.5549 23.4623 39.3254C23.4623 40.096 23.6481 40.6015 24.0169 40.9321C24.3858 41.2627 25.1126 41.5469 26.1974 41.7819C26.6701 41.8748 26.9133 42.0579 26.9297 42.3338C26.9461 42.5934 26.7248 42.7246 26.2712 42.7246C26.0991 42.7246 25.8313 42.7164 25.4706 42.6973L23.2136 42.5661C22.4594 42.5306 21.5905 42.5115 20.6041 42.5115C20.1505 42.5115 19.7953 42.5224 19.5467 42.5442C18.7461 42.6317 18.3089 42.6754 18.2296 42.6754C17.8061 42.6754 17.5957 42.5306 17.5957 42.2409C17.5957 41.9841 17.7296 41.8147 17.9974 41.7327L18.869 41.4731C19.1832 41.3775 19.6068 40.9977 20.1423 40.3282C20.6752 39.6615 21.1178 38.9647 21.4621 38.2407L22.1452 36.6832L34.2636 9.76044C34.4685 9.28772 34.6953 9.05273 34.9467 9.05273C35.1981 9.05273 35.4112 9.28226 35.5833 9.73858L45.7234 35.7131L46.2426 36.9892C46.9804 38.8937 47.5952 40.0796 48.0815 40.5441C48.5679 41.0086 49.5598 41.3748 51.0517 41.6425C51.5381 41.7354 51.7758 41.9267 51.7594 42.2191C51.743 42.4787 51.5244 42.6098 51.0981 42.6098C50.9561 42.6098 50.6582 42.5934 50.2019 42.5634C49.3849 42.4841 47.9312 42.4459 45.8409 42.4459C43.7506 42.4459 42.2888 42.4923 41.7395 42.588C41.4089 42.6508 41.1657 42.6836 41.0072 42.6836C40.5974 42.6836 40.3952 42.5224 40.3952 42.2C40.3952 41.954 40.5919 41.7928 40.9854 41.7163L41.7177 41.5496C42.5046 41.3939 42.8954 40.8556 42.8954 39.943C42.8954 39.1068 42.4172 37.4455 41.4581 34.959L40.2804 31.8413C39.9498 30.9751 39.6902 30.4751 39.5017 30.3412C39.3131 30.2073 38.7776 30.139 37.8977 30.139L37.8923 30.1335ZM38.1764 26.3354L34.474 16.9987L34.2854 16.5041C34.0969 16.0013 33.892 15.7417 33.6734 15.7254C33.5641 15.709 33.4384 15.8592 33.2963 16.1735L28.6976 26.3819C28.4927 26.8218 28.3916 27.1142 28.3916 27.2535C28.3916 27.6634 28.7523 27.8656 29.4763 27.8656L30.113 27.8902H37.2337C38.0207 27.8902 38.4114 27.6934 38.4114 27.3C38.4114 27.1907 38.3732 27.0103 38.2939 26.7589L38.1764 26.3354Z" fill="#1E5D97"/>
<path d="M59.9401 13.982V33.6611L59.9156 35.9509L59.9866 37.9319C60.1587 39.8364 60.8664 40.9457 62.1097 41.26C62.9731 41.495 63.6262 41.6152 64.0661 41.6152C64.5388 41.6152 64.782 41.7546 64.7984 42.0305C64.8285 42.4295 64.5552 42.6289 63.9732 42.6289C63.7054 42.6289 63.1781 42.5961 62.3939 42.5333C61.8911 42.5032 61.0741 42.4868 59.9429 42.4868L58.2679 42.4404L56.429 42.465C55.4999 42.465 54.8004 42.4978 54.3304 42.5579C53.7184 42.6371 53.2703 42.6754 52.9861 42.6754C52.5762 42.6754 52.374 42.5224 52.374 42.2136C52.374 41.9048 52.6336 41.7382 53.1528 41.6589C54.3796 41.4704 55.2158 40.7791 55.6639 39.585C56.112 38.3909 56.3361 36.2405 56.3361 33.1282V18.8267C56.3361 15.5286 56.1393 13.4437 55.7458 12.5721C55.3524 11.7004 54.3714 11.1786 52.7975 11.0064C52.374 10.9736 52.1691 10.8124 52.1855 10.5228C52.2019 10.1539 52.5079 9.96808 53.1063 9.96808C53.4041 9.96808 53.8058 10.0063 54.3086 10.0856C55.2977 10.2277 56.1175 10.2987 56.7596 10.2987C57.7651 10.2987 59.227 10.2113 61.1451 10.0391C62.1343 9.95989 62.9458 9.92163 63.5743 9.92163C66.8587 9.92163 69.5283 10.7113 71.5803 12.2907C73.6324 13.87 74.6571 15.933 74.6571 18.4796C74.6571 21.5618 73.4001 23.9882 70.8836 25.7643C68.9982 27.0841 67.0008 27.7453 64.8941 27.7453C63.9049 27.7453 62.995 27.6388 62.1698 27.4229C61.3446 27.207 60.9484 26.9775 60.9785 26.7316C61.0113 26.5431 61.1588 26.4502 61.4266 26.4502C61.5523 26.4502 61.708 26.4747 61.8966 26.5212C62.2573 26.6305 62.8365 26.6851 63.6371 26.6851C65.8969 26.6851 67.703 26.0621 69.0583 24.8162C70.4136 23.5702 71.094 21.9143 71.094 19.8486C71.094 17.4686 70.2005 15.4958 68.4107 13.9356C66.621 12.3754 64.3558 11.5939 61.6097 11.5939C60.9812 11.5939 60.5522 11.7114 60.3145 11.9491C60.0795 12.1841 59.962 12.6322 59.962 13.2935L59.9374 13.9766L59.9401 13.982Z" fill="#1E5D97"/>
<path d="M78.6216 35.3333V17.1025C78.6216 15.0231 78.3156 13.4929 77.7008 12.5093C77.0887 11.5256 76.1378 11.0338 74.8481 11.0338C74.2033 11.0338 73.8809 10.8643 73.8809 10.5255C73.8809 10.1867 74.1951 9.99542 74.8235 9.99542C74.9492 9.99542 75.3509 10.0118 76.0258 10.0419C76.4985 10.0747 77.1489 10.0883 77.9822 10.0883C79.1463 10.0883 80.0398 10.0719 80.671 10.0419L83.3105 9.87793C84.1439 9.83148 84.9308 9.80688 85.6686 9.80688C89.1415 9.80688 91.874 10.5009 93.8632 11.8835C95.8524 13.2689 96.847 15.1734 96.847 17.5971C96.847 20.0207 95.8087 22.0427 93.7348 23.4281L92.721 24.1358C92.486 24.2779 92.374 24.3954 92.3904 24.4883C92.4068 24.6468 92.8139 24.8107 93.6173 24.9829C95.3469 25.3763 96.7678 26.319 97.8853 27.8109C99.0002 29.3028 99.5603 31.0133 99.5603 32.9452C99.5603 35.8361 98.4947 38.2188 96.3634 40.096C94.2348 41.9732 91.527 42.9104 88.2426 42.9104L86.4255 42.8393L84.2341 42.7437L82.3241 42.6262C81.0672 42.547 80.0698 42.5087 79.3293 42.5087C78.5888 42.5087 77.9604 42.5415 77.444 42.6044C76.6898 42.7 76.1542 42.7464 75.84 42.7464C75.4001 42.7464 75.1788 42.577 75.1788 42.2409C75.1788 41.9786 75.4138 41.8174 75.8865 41.7573C77.2226 41.5688 78.015 40.8283 78.2692 39.5386C78.5041 38.4046 78.6216 37.0029 78.6216 35.3361V35.3333ZM83.5291 25.9365C82.9608 25.9365 82.6028 25.9884 82.4552 26.0895C82.305 26.1906 82.2312 26.4392 82.2312 26.83V37.7078L82.1847 38.7899L82.3268 39.708C82.5482 40.3829 83.1192 40.8665 84.0401 41.1562C84.9609 41.4458 86.3818 41.5906 88.3027 41.5906C90.7755 41.5906 92.6964 40.943 94.0654 39.6479C95.4343 38.3527 96.1202 36.5438 96.1202 34.2212C96.1202 31.8987 95.3688 29.8575 93.8632 28.2891C92.3603 26.7207 90.4668 25.9337 88.1824 25.9337H83.5291V25.9365ZM83.8379 24.2861H87.7371C91.6909 24.2861 93.6664 22.51 93.6664 18.9578C93.6664 16.7719 92.8221 14.9329 91.1389 13.441C89.453 11.9464 87.3736 11.2004 84.9008 11.2004C83.8133 11.2004 83.0974 11.3534 82.7504 11.6595C82.4033 11.9655 82.2312 12.6076 82.2312 13.5804V23.0346C82.2312 23.5838 82.3214 23.9309 82.5017 24.073C82.682 24.215 83.1274 24.2861 83.8379 24.2861Z" fill="#1E5D97"/>
<path d="M112.122 9.61816C113.802 9.61816 115.226 9.86135 116.39 10.3477L118.016 11.0308C118.158 11.0937 118.3 11.1237 118.439 11.1237C118.628 11.1237 118.816 11.0445 119.005 10.8887L119.336 10.6046C119.382 10.5417 119.47 10.5117 119.595 10.5117C119.989 10.4953 120.185 10.8806 120.185 11.6675C120.185 11.9353 120.287 12.7277 120.491 14.0502L120.869 16.4793C120.948 16.9985 120.986 17.3209 120.986 17.4466C120.986 17.933 120.817 18.1789 120.481 18.1789C120.224 18.1789 119.967 17.7991 119.713 17.0422C119.147 15.3399 118.002 13.9354 116.27 12.8315C114.537 11.7276 112.606 11.1757 110.474 11.1757C108.783 11.1757 107.368 11.6757 106.231 12.6758C105.094 13.6758 104.526 14.9218 104.526 16.4165C104.526 17.739 104.895 18.8784 105.632 19.8402C106.277 20.66 106.98 21.2556 107.739 21.6327C108.501 22.0098 110.373 22.6956 113.354 23.6875C119.161 25.5893 122.065 28.707 122.065 33.0406C122.065 35.978 120.997 38.3826 118.857 40.2515C116.721 42.1205 113.977 43.055 110.627 43.055C109.417 43.055 108.083 42.8829 106.63 42.5359C105.176 42.1916 104.11 41.7899 103.436 41.3336C103.151 41.1451 102.966 40.9456 102.87 40.7325C102.774 40.5193 102.635 39.9728 102.446 39.093C102.414 38.9673 102.217 38.2514 101.856 36.948C101.446 35.5326 101.244 34.5271 101.244 33.9287C101.244 33.456 101.405 33.2292 101.725 33.2456C102.012 33.262 102.269 33.6472 102.493 34.4041C103.058 36.3578 104.25 38 106.067 39.3225C107.884 40.6477 109.86 41.309 111.994 41.309C114.128 41.309 115.988 40.6723 117.483 39.3963C118.98 38.123 119.729 36.5709 119.729 34.7457C119.729 32.9204 119.038 31.5296 117.658 30.3328C116.953 29.718 114.912 28.8463 111.537 27.7124C108.051 26.5347 105.583 25.2313 104.132 23.8023C102.679 22.3732 101.955 20.5179 101.955 18.2417C101.955 15.6978 102.9 13.6239 104.796 12.0227C106.69 10.4215 109.13 9.61816 112.117 9.61816H112.122Z" fill="#1E5D97"/>
<path fill-rule="evenodd" clip-rule="evenodd" d="M100.316 60.1219C75.3549 61.1301 41.3524 48.427 24.3676 31.7455C8.29265 15.9602 13.2356 2.27612 34.9749 0C34.8793 0.00273244 34.7837 0.00273244 34.688 0.00546488C8.50305 1.06565 1.72114 16.1105 19.5394 33.609C37.3576 51.1075 73.0296 64.4364 99.2173 63.3762C116.552 62.674 125.375 55.8429 124.195 46.2274C123.637 54.0859 115.328 59.5153 100.318 60.1219H100.316Z" fill="#F7942C"/>
<path d="M2.42504 73.3606H1.40584C1.26648 73.3606 1.17904 73.3715 1.14625 73.3934C1.11346 73.4152 1.06701 73.4917 1.00963 73.6202L0.823826 74.0355C0.73912 74.2268 0.698133 74.3661 0.698133 74.459C0.698133 74.5519 0.719993 74.612 0.763712 74.6503C0.807431 74.6885 0.894869 74.7241 1.02329 74.7514C1.08067 74.7623 1.108 74.7842 1.11073 74.817C1.11073 74.8498 1.08614 74.8634 1.03149 74.8634C1.00963 74.8634 0.979575 74.8634 0.935856 74.8607L0.665344 74.8443C0.575174 74.8388 0.471341 74.8388 0.353846 74.8388C0.299197 74.8388 0.258211 74.8388 0.228154 74.8443C0.132518 74.8552 0.0806021 74.8607 0.0696724 74.8607C0.017756 74.8607 -0.00683594 74.8443 -0.00683594 74.8088C-0.00683594 74.7787 0.0095587 74.7568 0.042348 74.7487L0.146181 74.7186C0.184435 74.7077 0.233619 74.6612 0.299197 74.582C0.362043 74.5027 0.416692 74.418 0.457679 74.3333L0.539652 74.1475L1.98784 70.9287C2.01244 70.8713 2.03976 70.844 2.06982 70.844C2.09987 70.844 2.12447 70.8713 2.14633 70.926L3.35953 74.0328L3.42238 74.1858C3.50981 74.4126 3.58359 74.5546 3.64097 74.6093C3.69835 74.6639 3.81858 74.7077 3.99619 74.7405C4.05357 74.7514 4.08363 74.7732 4.08089 74.8088C4.08089 74.8388 4.05357 74.8552 4.00165 74.8552C3.98526 74.8552 3.94974 74.8552 3.89509 74.8498C3.79672 74.8388 3.62458 74.8361 3.37319 74.8361C3.12181 74.8361 2.94693 74.8416 2.88135 74.8525C2.8431 74.8607 2.81304 74.8634 2.79391 74.8634C2.74473 74.8634 2.72014 74.8443 2.72014 74.806C2.72014 74.776 2.74473 74.7568 2.79118 74.7487L2.87862 74.7295C2.97152 74.7104 3.02071 74.6476 3.02071 74.5383C3.02071 74.4372 2.96333 74.2404 2.84856 73.9426L2.70648 73.571C2.66822 73.4671 2.63543 73.407 2.61357 73.3906C2.59171 73.3742 2.52614 73.366 2.4223 73.366L2.42504 73.3606ZM2.46056 72.907L2.0179 71.7894L1.99604 71.7293C1.97418 71.6692 1.94959 71.6391 1.92227 71.6364C1.9086 71.6364 1.89494 71.6528 1.87855 71.6911L1.32933 72.9125C1.30473 72.9644 1.29381 72.9999 1.29381 73.0163C1.29381 73.0655 1.33752 73.0901 1.42223 73.0901H1.49874L2.35126 73.0928C2.44416 73.0928 2.49335 73.0682 2.49335 73.0217C2.49335 73.0081 2.48788 72.9862 2.47968 72.9562L2.46602 72.9043L2.46056 72.907Z" fill="#1E5D97"/>
<path d="M5.43677 70.907C5.63897 70.907 5.80838 70.937 5.94773 70.9944L6.14174 71.0764C6.15813 71.0846 6.17453 71.0873 6.19365 71.0873C6.21551 71.0873 6.24011 71.0791 6.26197 71.06L6.30295 71.0272C6.30295 71.0272 6.31935 71.0163 6.33301 71.0163C6.37946 71.0163 6.40405 71.06 6.40405 71.1529C6.40405 71.1857 6.41498 71.2813 6.43957 71.4371L6.48329 71.7267C6.49149 71.7896 6.49695 71.8278 6.49695 71.8415C6.49695 71.8989 6.47783 71.9289 6.43684 71.9289C6.40678 71.9289 6.37673 71.8825 6.34394 71.7923C6.27563 71.5874 6.139 71.4207 5.93134 71.2895C5.72367 71.1584 5.49415 71.0928 5.2373 71.0928C5.0351 71.0928 4.86569 71.1529 4.72907 71.2731C4.59244 71.3934 4.52413 71.5409 4.52413 71.7213C4.52413 71.8797 4.56785 72.0164 4.65529 72.1311C4.7318 72.2295 4.8165 72.3005 4.90667 72.347C4.99685 72.3907 5.22091 72.4727 5.57886 72.5929C6.27289 72.8197 6.61991 73.194 6.61991 73.7105C6.61991 74.063 6.49149 74.3499 6.23737 74.5739C5.98052 74.798 5.65263 74.91 5.25369 74.91C5.10888 74.91 4.95039 74.8882 4.77552 74.8472C4.60064 74.8062 4.47495 74.757 4.39298 74.7023C4.36019 74.6805 4.3356 74.6559 4.32467 74.6313C4.31374 74.6067 4.29734 74.5411 4.27275 74.4346C4.27002 74.4209 4.24542 74.3335 4.20171 74.1777C4.15252 74.0083 4.12793 73.8881 4.12793 73.817C4.12793 73.7596 4.14706 73.7323 4.18531 73.7351C4.2181 73.7351 4.25089 73.7842 4.27821 73.8744C4.34652 74.1094 4.48861 74.3034 4.70447 74.4619C4.92307 74.6204 5.15806 74.6996 5.41218 74.6996C5.66629 74.6996 5.89035 74.6231 6.06796 74.4701C6.24557 74.3171 6.33574 74.1313 6.33574 73.9154C6.33574 73.6995 6.25377 73.5301 6.08709 73.388C6.00238 73.3143 5.7592 73.2104 5.3548 73.0738C4.93673 72.9345 4.64163 72.776 4.46948 72.6066C4.29461 72.4371 4.2099 72.2131 4.2099 71.9426C4.2099 71.6393 4.32193 71.3906 4.54873 71.1994C4.77552 71.0081 5.06789 70.9124 5.42311 70.9124L5.43677 70.907Z" fill="#1E5D97"/>
<path d="M8.33032 70.907C8.53252 70.907 8.70193 70.937 8.84129 70.9944L9.03529 71.0764C9.05169 71.0846 9.06808 71.0873 9.08721 71.0873C9.10907 71.0873 9.13093 71.0791 9.15552 71.06L9.19377 71.0272C9.19377 71.0272 9.21017 71.0163 9.22383 71.0163C9.27028 71.0163 9.29487 71.06 9.29487 71.1529C9.29487 71.1857 9.30854 71.2813 9.3304 71.4371L9.37411 71.7267C9.38231 71.7896 9.38778 71.8278 9.38778 71.8415C9.38778 71.8989 9.36865 71.9289 9.32766 71.9289C9.29761 71.9289 9.26755 71.8825 9.23476 71.7923C9.16645 71.5874 9.02983 71.4207 8.82216 71.2895C8.6145 71.1584 8.38497 71.0928 8.13085 71.0928C7.92865 71.0928 7.75924 71.1529 7.62262 71.2731C7.486 71.3934 7.41769 71.5409 7.41769 71.7213C7.41769 71.8797 7.46141 72.0164 7.54884 72.1311C7.62535 72.2295 7.71006 72.3005 7.80023 72.347C7.8904 72.3907 8.11446 72.4727 8.47241 72.5929C9.16645 72.8197 9.51347 73.194 9.51347 73.7105C9.51347 74.063 9.38504 74.3499 9.13093 74.5739C8.87408 74.798 8.54619 74.91 8.14725 74.91C8.00243 74.91 7.84395 74.8882 7.66907 74.8472C7.4942 74.8062 7.3685 74.757 7.28653 74.7023C7.25374 74.6805 7.22915 74.6559 7.21822 74.6313C7.20729 74.6067 7.1909 74.5411 7.1663 74.4346C7.16357 74.4209 7.13898 74.3335 7.09526 74.1777C7.04608 74.0083 7.02148 73.8881 7.02148 73.817C7.02148 73.7596 7.04061 73.7323 7.07887 73.7351C7.11439 73.7351 7.14444 73.7842 7.17177 73.8744C7.24008 74.1094 7.38217 74.3034 7.59803 74.4619C7.81389 74.6204 8.05161 74.6996 8.30573 74.6996C8.55985 74.6996 8.78391 74.6231 8.96152 74.4701C9.14186 74.3171 9.22929 74.1313 9.22929 73.9154C9.22929 73.6995 9.14732 73.5301 8.98064 73.388C8.89594 73.3143 8.65275 73.2104 8.24835 73.0738C7.83029 72.9345 7.53518 72.776 7.36304 72.6066C7.18816 72.4371 7.10346 72.2131 7.10346 71.9426C7.10346 71.6393 7.21549 71.3906 7.44228 71.1994C7.66907 71.0081 7.96144 70.9124 8.31666 70.9124L8.33032 70.907Z" fill="#1E5D97"/>
<path d="M12.0329 70.907C12.6204 70.907 13.104 71.0901 13.4811 71.4535C13.8582 71.8169 14.0467 72.2814 14.0467 72.8497C14.0467 73.4509 13.8582 73.9427 13.4784 74.328C13.0986 74.7133 12.6122 74.9045 12.022 74.9045C11.4318 74.9045 10.9236 74.7215 10.5492 74.3526C10.1749 73.9837 9.98633 73.5001 9.98633 72.9044C9.98633 72.6448 10.0355 72.388 10.1339 72.1338C10.2322 71.8797 10.3661 71.6666 10.5328 71.4972C10.7104 71.3168 10.9345 71.1748 11.205 71.0682C11.4755 70.9616 11.7542 70.9097 12.0357 70.9097L12.0329 70.907ZM11.8499 71.0928C11.4127 71.0928 11.0656 71.2403 10.8088 71.5327C10.5519 71.8251 10.4235 72.2213 10.4235 72.7186C10.4235 73.2869 10.5875 73.7678 10.9154 74.1586C11.2433 74.5493 11.6477 74.7433 12.1258 74.7433C12.563 74.7433 12.9237 74.5848 13.2079 74.2652C13.492 73.9482 13.6341 73.5438 13.6341 73.0574C13.6341 72.4973 13.4647 72.0273 13.1232 71.6529C12.7816 71.2786 12.3581 71.0901 11.8499 71.0901V71.0928Z" fill="#1E5D97"/>
<path d="M18.0167 71.3113L18.1068 71.989L18.115 72.06L18.1068 72.0873C18.0986 72.1037 18.0822 72.1147 18.0658 72.1147C18.044 72.1147 18.0085 72.0764 17.9647 71.9972C17.6123 71.3824 17.1368 71.0736 16.5329 71.0736C16.052 71.0736 15.675 71.2212 15.399 71.5163C15.123 71.8114 14.9837 72.213 14.9837 72.724C14.9837 73.3115 15.1367 73.7924 15.4454 74.164C15.7542 74.5356 16.1477 74.7214 16.6313 74.7214C16.9128 74.7214 17.1915 74.6449 17.4647 74.4946C17.738 74.3443 17.9265 74.1613 18.0331 73.9454C18.0822 73.8443 18.1205 73.7951 18.1451 73.7924C18.1751 73.7924 18.1888 73.8088 18.1888 73.847V73.8798L18.1751 73.9427L18.1096 74.2897L18.0986 74.3416C18.0904 74.3908 18.0467 74.44 17.9675 74.4946C17.533 74.7706 17.0548 74.91 16.5329 74.91C15.9263 74.91 15.44 74.7296 15.0684 74.3717C14.6995 74.0137 14.5137 73.541 14.5137 72.9535C14.5137 72.3661 14.7049 71.8797 15.0875 71.4917C15.47 71.1037 15.9509 70.9097 16.5302 70.9097C16.9264 70.9097 17.2926 70.9998 17.6232 71.1774L17.7352 71.2376L17.7817 71.2567L17.8309 71.2731C17.8309 71.2731 17.8554 71.2649 17.8718 71.2512C17.9128 71.2212 17.9429 71.2075 17.9565 71.2075C17.9866 71.2075 18.0057 71.243 18.0167 71.3141V71.3113Z" fill="#1E5D97"/>
<path d="M19.5413 71.806V73.9209C19.5413 74.186 19.5577 74.3581 19.5905 74.4428C19.6288 74.5385 19.6752 74.6068 19.7299 74.645C19.7845 74.686 19.872 74.7133 19.9894 74.7297C20.0823 74.7434 20.1315 74.7653 20.1315 74.798C20.1315 74.8418 20.1015 74.8636 20.0441 74.8636C20.0168 74.8636 19.9812 74.8609 19.9375 74.8527C19.8801 74.8445 19.779 74.8418 19.6397 74.8418L19.2298 74.8363L18.8965 74.8554C18.8418 74.8609 18.7981 74.8636 18.7598 74.8636C18.7079 74.8636 18.6833 74.8445 18.6833 74.8062C18.6833 74.7735 18.7134 74.7516 18.7708 74.7434C18.9129 74.7188 19.0058 74.6696 19.0468 74.5958C19.0877 74.5221 19.1096 74.3636 19.1096 74.1259V71.7077C19.1096 71.4754 19.0823 71.3169 19.0304 71.2377C18.9757 71.1557 18.8637 71.1011 18.6888 71.0737C18.6314 71.0628 18.6014 71.0409 18.5986 71.0082C18.5986 70.9672 18.6232 70.948 18.6806 70.948C18.6943 70.948 18.7134 70.948 18.7325 70.9508C18.8691 70.9672 19.0522 70.9754 19.279 70.9754C19.4184 70.9754 19.5386 70.9726 19.637 70.9644L19.8255 70.948C19.861 70.948 19.8856 70.9453 19.8965 70.9453C19.9485 70.9453 19.973 70.9617 19.973 70.9972C19.973 71.0327 19.9485 71.0546 19.8993 71.071L19.7517 71.1284C19.6124 71.1803 19.5441 71.4071 19.5441 71.8033L19.5413 71.806Z" fill="#1E5D97"/>
<path d="M22.585 73.3606H21.5631C21.4237 73.3606 21.3363 73.3715 21.3035 73.3934C21.2707 73.4152 21.2242 73.4917 21.1669 73.6202L20.9811 74.0355C20.8963 74.2268 20.8554 74.3661 20.8554 74.459C20.8554 74.5519 20.8772 74.612 20.9209 74.6503C20.9647 74.6885 21.0521 74.7241 21.1805 74.7514C21.2379 74.7623 21.2652 74.7842 21.268 74.817C21.268 74.8498 21.2434 74.8634 21.1887 74.8634C21.1669 74.8634 21.1368 74.8634 21.0931 74.8607L20.8226 74.8443C20.7324 74.8388 20.6286 74.8388 20.5111 74.8388C20.4564 74.8388 20.4154 74.8388 20.3854 74.8443C20.2897 74.8552 20.2378 74.8607 20.2269 74.8607C20.1777 74.8607 20.1504 74.8443 20.1504 74.8088C20.1504 74.7787 20.1668 74.7568 20.1996 74.7487L20.3034 74.7186C20.3417 74.7077 20.3908 74.6612 20.4564 74.582C20.5193 74.5027 20.5739 74.418 20.6149 74.3333L20.6969 74.1475L22.1451 70.9287C22.1697 70.8713 22.197 70.844 22.227 70.844C22.2571 70.844 22.2817 70.8713 22.3036 70.926L23.5168 74.0328L23.5796 74.1858C23.667 74.4126 23.7408 74.5546 23.7982 74.6093C23.8556 74.6639 23.9758 74.7077 24.1534 74.7405C24.2108 74.7514 24.2409 74.7732 24.2381 74.8088C24.2381 74.8388 24.2108 74.8552 24.1589 74.8552C24.1425 74.8552 24.107 74.8552 24.0523 74.8498C23.9539 74.8388 23.7818 74.8361 23.5304 74.8361C23.279 74.8361 23.1069 74.8416 23.0386 74.8525C23.0003 74.8607 22.9703 74.8634 22.9511 74.8634C22.902 74.8634 22.8774 74.8443 22.8774 74.806C22.8774 74.776 22.902 74.7568 22.9484 74.7487L23.0358 74.7295C23.1287 74.7104 23.1779 74.6476 23.1779 74.5383C23.1779 74.4372 23.1206 74.2404 23.0058 73.9426L22.8637 73.571C22.8254 73.4671 22.7927 73.407 22.7708 73.3906C22.7489 73.3742 22.6834 73.366 22.5795 73.366L22.585 73.3606ZM22.6205 72.907L22.1779 71.7894L22.156 71.7293C22.1341 71.6692 22.1095 71.6391 22.0822 71.6364C22.0686 71.6364 22.0549 71.6528 22.0385 71.6911L21.4893 72.9125C21.4647 72.9644 21.4538 72.9999 21.4538 73.0163C21.4538 73.0655 21.4975 73.0901 21.5849 73.0901H21.6614L22.514 73.0928C22.6069 73.0928 22.656 73.0682 22.656 73.0217C22.656 73.0081 22.6506 72.9862 22.6424 72.9562L22.6287 72.9043L22.6205 72.907Z" fill="#1E5D97"/>
<path d="M26.8395 71.2782H26.0471C25.9651 71.2782 25.9132 71.2891 25.8914 71.311C25.8695 71.3329 25.8586 71.3902 25.8586 71.4777V74.3549C25.8695 74.5763 25.9952 74.7074 26.2302 74.7484C26.2958 74.7593 26.3285 74.7812 26.3285 74.8113C26.3285 74.8522 26.3012 74.8714 26.2493 74.8714C26.2274 74.8714 26.181 74.8659 26.1099 74.855C26.0744 74.8495 25.9897 74.8468 25.8558 74.8468H25.6509H25.4296C25.3503 74.8468 25.2848 74.8468 25.2301 74.855C25.1235 74.8659 25.0607 74.8714 25.0416 74.8714C24.9842 74.8714 24.9569 74.8522 24.9569 74.8113C24.9569 74.7812 24.9869 74.7621 25.0498 74.7566C25.1946 74.7375 25.2929 74.6965 25.3421 74.6364C25.394 74.5763 25.4186 74.467 25.4186 74.3085V71.4367C25.4159 71.3684 25.405 71.3247 25.3859 71.3055C25.3667 71.2864 25.3203 71.2782 25.2492 71.2782H24.5033C24.3503 71.2782 24.241 71.3083 24.1726 71.3711C24.1043 71.4312 24.0497 71.546 24.0142 71.7154C23.9978 71.7892 23.9704 71.8247 23.9377 71.822C23.9049 71.822 23.8857 71.7946 23.8857 71.7455C23.8857 71.7072 23.8967 71.6334 23.9185 71.5296C23.9459 71.3957 23.9623 71.2837 23.9623 71.1962C23.9623 71.1088 23.9732 71.0541 23.9923 71.0268C24.0114 70.9995 24.0552 70.9858 24.118 70.9858H27.1537C27.2576 70.9858 27.3204 70.9968 27.3423 71.0186C27.3641 71.0405 27.3751 71.1088 27.3751 71.2181C27.3751 71.3274 27.3805 71.4094 27.3887 71.4585C27.3969 71.5214 27.4051 71.5678 27.4051 71.5952C27.4051 71.6525 27.3887 71.6826 27.345 71.6853C27.3122 71.6853 27.2876 71.658 27.2767 71.5979C27.2521 71.464 27.2139 71.3766 27.1592 71.3356C27.1046 71.2946 26.998 71.2755 26.8395 71.2755V71.2782Z" fill="#1E5D97"/>
<path d="M28.5579 71.806V73.9209C28.5579 74.186 28.5743 74.3581 28.6071 74.4428C28.6454 74.5385 28.6918 74.6068 28.7465 74.645C28.8011 74.686 28.8886 74.7133 29.006 74.7297C29.099 74.7434 29.1481 74.7653 29.1481 74.798C29.1481 74.8418 29.1181 74.8636 29.0607 74.8636C29.0334 74.8636 28.9978 74.8609 28.9541 74.8527C28.8967 74.8445 28.7956 74.8418 28.6563 74.8418L28.2464 74.8363L27.9131 74.8554C27.8584 74.8609 27.8147 74.8636 27.7764 74.8636C27.7245 74.8636 27.6999 74.8445 27.6999 74.8062C27.6999 74.7735 27.73 74.7516 27.7874 74.7434C27.9295 74.7188 28.0224 74.6696 28.0634 74.5958C28.1043 74.5221 28.1262 74.3636 28.1262 74.1259V71.7077C28.1262 71.4754 28.0989 71.3169 28.047 71.2377C27.9923 71.1557 27.8803 71.1011 27.7054 71.0737C27.648 71.0628 27.618 71.0409 27.6152 71.0082C27.6152 70.9672 27.6398 70.948 27.6972 70.948C27.7136 70.948 27.73 70.948 27.7491 70.9508C27.8857 70.9672 28.0688 70.9754 28.2956 70.9754C28.435 70.9754 28.5552 70.9726 28.6536 70.9644L28.8421 70.948C28.8776 70.948 28.9022 70.9453 28.9131 70.9453C28.9651 70.9453 28.9897 70.9617 28.9897 70.9972C28.9897 71.0327 28.9651 71.0546 28.9159 71.071L28.7683 71.1284C28.629 71.1803 28.5607 71.4071 28.5607 71.8033L28.5579 71.806Z" fill="#1E5D97"/>
<path d="M31.5691 70.907C32.1565 70.907 32.6402 71.0901 33.0172 71.4535C33.3943 71.8169 33.5829 72.2814 33.5829 72.8497C33.5829 73.4509 33.3943 73.9427 33.0145 74.328C32.6347 74.7133 32.1483 74.9045 31.5581 74.9045C30.9679 74.9045 30.4597 74.7215 30.0853 74.3526C29.711 73.9837 29.5225 73.5001 29.5225 72.9044C29.5225 72.6448 29.5716 72.388 29.67 72.1338C29.7684 71.8797 29.9023 71.6666 30.0689 71.4972C30.2466 71.3168 30.4706 71.1748 30.7411 71.0682C31.0116 70.9616 31.2903 70.9097 31.5718 70.9097L31.5691 70.907ZM31.386 71.0928C30.9488 71.0928 30.6018 71.2403 30.3449 71.5327C30.0881 71.8251 29.9597 72.2213 29.9597 72.7186C29.9597 73.2869 30.1236 73.7678 30.4515 74.1586C30.7794 74.5493 31.1838 74.7433 31.662 74.7433C32.0991 74.7433 32.4598 74.5848 32.744 74.2652C33.0282 73.9482 33.1703 73.5438 33.1703 73.0574C33.1703 72.4973 33.0009 72.0273 32.6593 71.6529C32.3177 71.2786 31.8942 71.0901 31.386 71.0901V71.0928Z" fill="#1E5D97"/>
<path d="M37.4713 72.0625V74.4261C37.4713 74.6392 37.4658 74.7676 37.4576 74.8141C37.4494 74.8605 37.4221 74.8824 37.3784 74.8796C37.351 74.8796 37.3292 74.8687 37.3128 74.855L37.2499 74.7813L34.8727 72.0625L34.8454 72.0324C34.8454 72.0324 34.8208 72.016 34.8071 72.016C34.7716 72.016 34.7525 72.0598 34.7525 72.1417V74.1747L34.7579 74.3741C34.7716 74.4998 34.8017 74.5845 34.8536 74.631C34.9055 74.6774 35.0039 74.713 35.1514 74.7348C35.2143 74.743 35.2443 74.7649 35.2443 74.8059C35.2443 74.8414 35.2252 74.8605 35.1842 74.8605C35.1569 74.8605 35.1296 74.8605 35.0995 74.855C35.0776 74.8523 34.9984 74.8469 34.8536 74.8387L34.5667 74.825L34.4301 74.8304C34.3563 74.8304 34.288 74.8359 34.2224 74.8441C34.1732 74.8523 34.1377 74.855 34.1186 74.855C34.0694 74.855 34.042 74.8387 34.0393 74.8031C34.0393 74.7758 34.0639 74.7539 34.1186 74.7348C34.277 74.6802 34.3836 74.6064 34.4382 74.5162C34.4929 74.426 34.5202 74.2785 34.5202 74.0736V72.1554C34.5202 71.8302 34.4683 71.5734 34.3645 71.3876C34.2606 71.2018 34.1104 71.0925 33.9164 71.0679C33.8644 71.0597 33.8398 71.0406 33.8398 71.005C33.8398 70.9695 33.8617 70.9531 33.9027 70.9531C33.9109 70.9531 33.9273 70.9531 33.9464 70.9531H34.0612L34.2497 70.9613H34.2934C34.3399 70.9559 34.3727 70.9559 34.3973 70.9559C34.4437 70.9559 34.4902 70.9832 34.5393 71.0378L37.1324 73.9752C37.1734 74.0217 37.2007 74.0462 37.2117 74.0435C37.2308 74.0435 37.2417 74.0244 37.2417 73.9889V72.2128L37.2117 71.5652C37.1925 71.4067 37.1461 71.2919 37.0723 71.2264C36.9985 71.1581 36.8647 71.1116 36.6707 71.0788C36.616 71.0706 36.5887 71.046 36.5887 71.0105C36.5887 70.975 36.616 70.9586 36.6707 70.9586C36.6952 70.9586 36.7335 70.9586 36.7881 70.9668C36.9166 70.9804 37.0914 70.9886 37.31 70.9886C37.4275 70.9886 37.5204 70.9832 37.5888 70.9722C37.6489 70.9613 37.6953 70.9559 37.7281 70.9559C37.7773 70.9559 37.8019 70.975 37.8073 71.016C37.8073 71.0406 37.791 71.0597 37.75 71.0706C37.6352 71.0979 37.5587 71.1471 37.5232 71.2127C37.4877 71.2783 37.4685 71.4012 37.4685 71.5816V71.8849L37.4631 72.0707L37.4713 72.0625Z" fill="#1E5D97"/>
<path d="M40.7005 71.4124V72.5819L40.7032 72.6557C40.7114 72.7049 40.7633 72.7322 40.8644 72.7322L41.1049 72.7377H41.1978L41.5284 72.7295C41.7005 72.7295 41.8262 72.7022 41.9055 72.653C41.9847 72.6011 42.0339 72.5136 42.053 72.3852C42.0612 72.3415 42.0803 72.3169 42.1104 72.3169C42.1459 72.3169 42.1623 72.3469 42.1596 72.4043L42.1432 72.683C42.1432 72.7186 42.1404 72.7759 42.1404 72.8552C42.1404 73.0738 42.1432 73.2131 42.1514 73.2732C42.1541 73.3088 42.1568 73.3361 42.1568 73.3525C42.1568 73.3962 42.1405 73.4208 42.1049 73.4208C42.0694 73.4208 42.0393 73.3743 42.0202 73.2814C41.9984 73.1831 41.9738 73.1148 41.9464 73.0792C41.9191 73.0437 41.8754 73.0191 41.8153 73.0027C41.6896 72.9699 41.5065 72.9535 41.2633 72.9535C41.0393 72.9535 40.8917 72.959 40.8261 72.9672C40.7606 72.9754 40.7223 72.9973 40.7141 73.0328C40.7059 73.0683 40.7005 73.1257 40.7005 73.2022V74.2542C40.7005 74.4045 40.7414 74.522 40.8179 74.6121C40.8972 74.6996 41.0038 74.746 41.1376 74.746C41.2005 74.746 41.2333 74.7652 41.236 74.8007C41.2387 74.8444 41.2114 74.8635 41.1513 74.8635C41.1103 74.8635 41.0529 74.8581 40.9792 74.8526C40.9163 74.8444 40.8234 74.8389 40.7032 74.8389H40.5092H40.2906C40.2441 74.8389 40.1786 74.8417 40.0993 74.8499C40.0337 74.8526 39.9846 74.8553 39.9545 74.8581C39.8998 74.8581 39.8725 74.8444 39.8725 74.8089C39.8725 74.7788 39.9026 74.7597 39.96 74.746C40.0802 74.7187 40.1622 74.6695 40.2059 74.593C40.2496 74.5192 40.2715 74.3881 40.2715 74.2023V71.6584C40.2715 71.4808 40.2414 71.3414 40.184 71.2458C40.1458 71.1829 40.1048 71.1392 40.0611 71.1173C40.0146 71.0955 39.9381 71.0791 39.8261 71.0682C39.7824 71.0654 39.7578 71.049 39.755 71.019C39.7523 70.9725 39.7878 70.9479 39.8671 70.9479C39.8917 70.9479 39.949 70.9534 40.0419 70.9616C40.2086 70.978 40.4928 70.9862 40.8917 70.9862C41.2469 70.9862 41.4765 70.9835 41.5776 70.978L41.9683 70.9589C42.1377 70.9507 42.247 70.9425 42.2962 70.9343C42.3317 70.9261 42.3618 70.9233 42.3891 70.9233C42.4301 70.9233 42.4519 70.9452 42.4519 70.9889C42.4519 71.0108 42.4465 71.0436 42.4383 71.0818C42.4055 71.2048 42.3891 71.3687 42.3891 71.5737C42.3891 71.6611 42.3645 71.7048 42.3153 71.7048C42.2853 71.7048 42.2689 71.6802 42.2661 71.6338C42.2607 71.5764 42.2497 71.5163 42.2361 71.4562C42.2115 71.3605 42.1814 71.2977 42.1459 71.2704C42.1104 71.243 42.0284 71.2239 41.9027 71.213L41.5721 71.1802C41.4683 71.1693 41.3344 71.1665 41.1732 71.1665C40.9628 71.1665 40.8343 71.1802 40.7824 71.2075C40.7305 71.2348 40.7059 71.3059 40.7059 71.4179L40.7005 71.4124Z" fill="#1E5D97"/>
<path d="M44.7497 70.907C45.3372 70.907 45.8208 71.0901 46.1979 71.4535C46.575 71.8169 46.7635 72.2814 46.7635 72.8497C46.7635 73.4509 46.575 73.9427 46.1952 74.328C45.8154 74.7133 45.329 74.9045 44.7388 74.9045C44.1486 74.9045 43.6404 74.7215 43.266 74.3526C42.8917 73.9837 42.7031 73.5001 42.7031 72.9044C42.7031 72.6448 42.7523 72.388 42.8507 72.1338C42.949 71.8797 43.0829 71.6666 43.2496 71.4972C43.4272 71.3168 43.6486 71.1748 43.9218 71.0682C44.1923 70.9616 44.4683 70.9097 44.7525 70.9097L44.7497 70.907ZM44.5667 71.0928C44.1295 71.0928 43.7824 71.2403 43.5256 71.5327C43.2687 71.8251 43.1403 72.2213 43.1403 72.7186C43.1403 73.2869 43.3043 73.7678 43.6322 74.1586C43.96 74.5493 44.3644 74.7433 44.8426 74.7433C45.2798 74.7433 45.6405 74.5848 45.9247 74.2652C46.2088 73.9482 46.3509 73.5438 46.3509 73.0574C46.3509 72.4973 46.1815 72.0273 45.84 71.6529C45.4984 71.2786 45.0749 71.0901 44.5667 71.0901V71.0928Z" fill="#1E5D97"/>
<path d="M49.1853 72.9017L49.9641 74.0494L50.0542 74.1832C50.2947 74.5357 50.516 74.7188 50.7209 74.7325L50.8111 74.7379C50.8439 74.7379 50.8603 74.7543 50.8603 74.7789C50.8603 74.8062 50.8166 74.8336 50.7346 74.8554C50.6526 74.8773 50.5597 74.8909 50.4559 74.8909C50.2865 74.8909 50.1362 74.8445 49.9996 74.7516C49.8657 74.6587 49.7291 74.5057 49.5897 74.2953L48.8875 73.2242L48.8492 73.1613C48.8028 73.0848 48.7317 73.0466 48.6306 73.0466H48.2563L48.1934 73.0575C48.1716 73.0711 48.1606 73.1012 48.1606 73.1477V74.1423C48.1634 74.3035 48.1716 74.4155 48.188 74.4756C48.2044 74.5357 48.2426 74.5877 48.3027 74.6341C48.3847 74.6997 48.5077 74.7379 48.6771 74.7571C48.7454 74.7653 48.7782 74.7844 48.7809 74.8199C48.7836 74.8554 48.7536 74.8746 48.688 74.8746C48.6607 74.8746 48.606 74.8691 48.5213 74.8609C48.4448 74.8527 48.3246 74.8472 48.1634 74.8472H47.8929H47.7453C47.6825 74.8472 47.6032 74.8527 47.5131 74.8609C47.4393 74.8691 47.3901 74.8718 47.36 74.8718C47.3136 74.8718 47.289 74.8527 47.289 74.8144C47.289 74.7871 47.3136 74.768 47.36 74.7598C47.5103 74.7325 47.6087 74.6642 47.6551 74.5549C47.7016 74.4456 47.7262 74.2324 47.7262 73.9155V71.888L47.7207 71.5929C47.7207 71.3005 47.6196 71.1366 47.4147 71.1011L47.2835 71.0819C47.2234 71.071 47.1934 71.0491 47.1934 71.0164C47.1934 70.9781 47.2262 70.959 47.289 70.959C47.3027 70.959 47.371 70.9617 47.4857 70.9699C47.554 70.9754 47.636 70.9781 47.7371 70.9781C47.8246 70.9781 47.9721 70.9726 48.1798 70.959C48.3301 70.9508 48.4639 70.9453 48.5787 70.9453C49.0104 70.9453 49.3383 71.0273 49.5569 71.1885C49.7755 71.3497 49.8875 71.5929 49.8875 71.9153C49.8875 72.3389 49.6553 72.6667 49.1908 72.8963L49.1853 72.9017ZM48.3574 72.8389H48.6771C48.923 72.8389 49.117 72.7706 49.2591 72.634C49.4012 72.4973 49.4722 72.3115 49.4722 72.0765C49.4722 71.8033 49.3766 71.5792 49.1826 71.4016C48.9913 71.224 48.7454 71.1366 48.4475 71.1366C48.3355 71.1366 48.259 71.1557 48.218 71.1912C48.1743 71.2268 48.1552 71.2951 48.1552 71.3907V71.4836L48.1579 72.6312C48.1579 72.7187 48.1688 72.776 48.1934 72.8006C48.218 72.8252 48.2727 72.8362 48.3601 72.8362L48.3574 72.8389Z" fill="#1E5D97"/>
<path d="M53.3902 71.4288V74.0546L53.3956 74.2924C53.4175 74.5191 53.5022 74.653 53.6498 74.6913C53.7536 74.7186 53.8301 74.735 53.8847 74.735C53.9421 74.735 53.9694 74.7514 53.9722 74.7842C53.9749 74.8334 53.9421 74.8552 53.8738 74.8552C53.841 74.8552 53.7782 74.8498 53.6853 74.8443C53.6252 74.8416 53.5268 74.8388 53.3929 74.8388L53.1934 74.8334H52.9721C52.8601 74.8361 52.7781 74.8388 52.7207 74.847C52.6469 74.858 52.595 74.8607 52.5595 74.8607C52.5103 74.8607 52.4857 74.8416 52.4857 74.806C52.4857 74.7705 52.5158 74.7487 52.5786 74.7405C52.7262 74.7186 52.8246 74.6366 52.8792 74.4918C52.9339 74.3497 52.9584 74.0929 52.9584 73.7185V72.008C52.9584 71.6146 52.9339 71.3632 52.8874 71.2593C52.841 71.1555 52.7235 71.0927 52.5349 71.0708C52.483 71.0681 52.4584 71.0462 52.4611 71.0134C52.4611 70.9697 52.4994 70.9478 52.5704 70.9478C52.606 70.9478 52.6551 70.9533 52.7153 70.9615C52.8328 70.9779 52.9311 70.9861 53.0076 70.9861C53.1279 70.9861 53.3027 70.9752 53.5323 70.956C53.6498 70.9478 53.7481 70.9424 53.8219 70.9424C54.2154 70.9424 54.5351 71.038 54.7782 71.2266C55.0242 71.4151 55.1471 71.661 55.1471 71.967C55.1471 72.3359 54.9968 72.6256 54.6963 72.8387C54.4695 72.9972 54.2318 73.0764 53.9804 73.0764C53.8629 73.0764 53.7536 73.0628 53.6552 73.0382C53.5568 73.0108 53.5104 72.9835 53.5131 72.9562C53.5159 72.9343 53.535 72.9234 53.5678 72.9234C53.5814 72.9234 53.6006 72.9261 53.6252 72.9316C53.6689 72.9453 53.7372 72.9507 53.8328 72.9507C54.1033 72.9507 54.3192 72.8769 54.4804 72.7267C54.6416 72.5791 54.7236 72.3796 54.7236 72.1337C54.7236 71.8495 54.617 71.6118 54.4039 71.426C54.1908 71.2402 53.9175 71.1446 53.5896 71.1446C53.5159 71.1446 53.4639 71.1582 53.4339 71.1856C53.4066 71.2129 53.3929 71.2675 53.3929 71.3468V71.4288H53.3902Z" fill="#1E5D97"/>
<path d="M57.5632 70.907C58.1507 70.907 58.6343 71.0901 59.0114 71.4535C59.3885 71.8169 59.577 72.2814 59.577 72.8497C59.577 73.4509 59.3857 73.9427 59.0087 74.328C58.6289 74.7133 58.1425 74.9045 57.5523 74.9045C56.9621 74.9045 56.4538 74.7215 56.0795 74.3526C55.7051 73.9837 55.5166 73.5001 55.5166 72.9044C55.5166 72.6448 55.5658 72.388 55.6642 72.1338C55.7625 71.8797 55.8964 71.6666 56.0631 71.4972C56.2407 71.3168 56.4648 71.1748 56.7353 71.0682C57.0058 70.9616 57.2845 70.9097 57.5659 70.9097L57.5632 70.907ZM57.3801 71.0928C56.9429 71.0928 56.5959 71.2403 56.3391 71.5327C56.0822 71.8251 55.9538 72.2213 55.9538 72.7186C55.9538 73.2869 56.1177 73.7678 56.4456 74.1586C56.7735 74.5493 57.1779 74.7433 57.6534 74.7433C58.0906 74.7433 58.4512 74.5848 58.7354 74.2652C59.0196 73.9482 59.1617 73.5438 59.1617 73.0574C59.1617 72.4973 58.9923 72.0273 58.6507 71.6529C58.3092 71.2786 57.8856 71.0901 57.3774 71.0901L57.3801 71.0928Z" fill="#1E5D97"/>
<path d="M61.2797 70.907C61.4819 70.907 61.6513 70.937 61.7907 70.9944L61.9847 71.0764C62.0011 71.0846 62.0175 71.0873 62.0366 71.0873C62.0585 71.0873 62.0803 71.0791 62.1049 71.06L62.1432 71.0272C62.1432 71.0272 62.1596 71.0163 62.1732 71.0163C62.2197 71.0163 62.2443 71.06 62.2443 71.1529C62.2443 71.1857 62.2552 71.2813 62.2798 71.4371L62.3263 71.7267C62.3345 71.7896 62.3399 71.8278 62.3399 71.8415C62.3399 71.8989 62.3208 71.9289 62.2798 71.9289C62.2498 71.9289 62.2197 71.8825 62.1869 71.7923C62.1186 71.5874 61.982 71.4207 61.7743 71.2895C61.5666 71.1584 61.3371 71.0928 61.083 71.0928C60.8808 71.0928 60.7114 71.1529 60.5748 71.2731C60.4381 71.3934 60.3698 71.5409 60.3698 71.7213C60.3698 71.8797 60.4136 72.0164 60.501 72.1311C60.5775 72.2295 60.6622 72.3005 60.7524 72.347C60.8425 72.3907 61.0666 72.4727 61.4246 72.5929C62.1186 72.8197 62.4656 73.194 62.4656 73.7105C62.4656 74.063 62.3372 74.3499 62.0831 74.5739C61.8262 74.798 61.4983 74.91 61.0994 74.91C60.9546 74.91 60.7961 74.8882 60.6212 74.8472C60.4463 74.8062 60.3207 74.757 60.2387 74.7023C60.2059 74.6805 60.1813 74.6559 60.1704 74.6313C60.1594 74.6067 60.143 74.5411 60.1185 74.4346C60.1157 74.4209 60.0911 74.3335 60.0474 74.1777C59.9982 74.0083 59.9736 73.8881 59.9736 73.817C59.9736 73.7596 59.9928 73.7323 60.031 73.7351C60.0665 73.7351 60.0966 73.7842 60.1239 73.8744C60.1922 74.1094 60.3343 74.3034 60.5502 74.4619C60.766 74.6204 61.0038 74.6996 61.2579 74.6996C61.512 74.6996 61.7361 74.6231 61.9137 74.4701C62.094 74.3171 62.1814 74.1313 62.1814 73.9154C62.1814 73.6995 62.0995 73.5301 61.9328 73.388C61.8481 73.3143 61.6049 73.2104 61.2005 73.0738C60.7824 72.9345 60.4873 72.776 60.3152 72.6066C60.1403 72.4371 60.0556 72.2131 60.0556 71.9426C60.0556 71.6393 60.1676 71.3906 60.3944 71.1994C60.6212 71.0081 60.9136 70.9124 61.2688 70.9124L61.2797 70.907Z" fill="#1E5D97"/>
<path d="M63.8636 71.806V73.9209C63.8636 74.186 63.88 74.3581 63.9128 74.4428C63.951 74.5385 63.9975 74.6068 64.0521 74.645C64.1068 74.686 64.1942 74.7133 64.3117 74.7297C64.4046 74.7434 64.4538 74.7653 64.4538 74.798C64.4538 74.8418 64.4237 74.8636 64.3664 74.8636C64.339 74.8636 64.3035 74.8609 64.2598 74.8527C64.2024 74.8445 64.1013 74.8418 63.962 74.8418L63.5521 74.8363L63.2187 74.8554C63.1641 74.8609 63.1204 74.8636 63.0821 74.8636C63.0302 74.8636 63.0056 74.8445 63.0056 74.8062C63.0056 74.7735 63.0357 74.7516 63.093 74.7434C63.2351 74.7188 63.328 74.6696 63.369 74.5958C63.41 74.5221 63.4319 74.3636 63.4319 74.1259V71.7077C63.4319 71.4754 63.4045 71.3169 63.3526 71.2377C63.298 71.1557 63.1859 71.1011 63.0111 71.0737C62.9537 71.0628 62.9236 71.0409 62.9209 71.0082C62.9209 70.9672 62.9455 70.948 63.0029 70.948C63.0193 70.948 63.0357 70.948 63.0548 70.9508C63.1914 70.9672 63.3745 70.9754 63.6013 70.9754C63.7406 70.9754 63.8609 70.9726 63.9592 70.9644L64.1478 70.948C64.1833 70.948 64.2079 70.9453 64.2188 70.9453C64.2707 70.9453 64.2953 70.9617 64.2953 70.9972C64.2953 71.0327 64.2707 71.0546 64.2215 71.071L64.074 71.1284C63.9346 71.1803 63.8663 71.4071 63.8663 71.8033L63.8636 71.806Z" fill="#1E5D97"/>
<path d="M67.5495 71.2782H66.7571C66.6751 71.2782 66.6232 71.2891 66.6013 71.311C66.5795 71.3329 66.5685 71.3902 66.5685 71.4777V74.3549C66.5795 74.5763 66.7051 74.7074 66.9401 74.7484C67.0057 74.7593 67.0385 74.7812 67.0385 74.8113C67.0385 74.8522 67.0112 74.8714 66.9593 74.8714C66.9374 74.8714 66.891 74.8659 66.8199 74.855C66.7844 74.8495 66.6997 74.8468 66.5658 74.8468H66.3609H66.1395C66.0603 74.8468 65.9947 74.8468 65.9401 74.855C65.8335 74.8659 65.7707 74.8714 65.7515 74.8714C65.6941 74.8714 65.6668 74.8522 65.6668 74.8113C65.6668 74.7812 65.6969 74.7621 65.7597 74.7566C65.9045 74.7375 66.0029 74.6965 66.0521 74.6364C66.104 74.5763 66.1286 74.467 66.1286 74.3085V71.4367C66.1259 71.3684 66.1149 71.3247 66.0958 71.3055C66.0767 71.2864 66.0302 71.2782 65.9592 71.2782H65.2132C65.0602 71.2782 64.9509 71.3083 64.8826 71.3711C64.8143 71.4312 64.7596 71.546 64.7241 71.7154C64.7077 71.7892 64.6831 71.8247 64.6476 71.822C64.6148 71.822 64.5957 71.7946 64.5957 71.7455C64.5957 71.7072 64.6066 71.6334 64.6285 71.5296C64.6558 71.3957 64.6695 71.2837 64.6695 71.1962C64.6695 71.1088 64.6804 71.0541 64.6995 71.0268C64.7187 70.9995 64.7624 70.9858 64.8252 70.9858H67.861C67.9648 70.9858 68.0276 70.9968 68.0495 71.0186C68.0714 71.0405 68.0823 71.1088 68.0823 71.2181C68.0823 71.3274 68.0878 71.4094 68.096 71.4585C68.1042 71.5214 68.1096 71.5678 68.1124 71.5952C68.1124 71.6525 68.096 71.6826 68.0522 71.6853C68.0194 71.6853 67.9949 71.658 67.9839 71.5979C67.9593 71.464 67.9211 71.3766 67.8664 71.3356C67.8118 71.2946 67.7052 71.2755 67.5467 71.2755L67.5495 71.2782Z" fill="#1E5D97"/>
<path d="M69.2689 71.806V73.9209C69.2689 74.186 69.2853 74.3581 69.318 74.4428C69.3563 74.5385 69.4028 74.6068 69.4574 74.645C69.5121 74.686 69.5995 74.7133 69.717 74.7297C69.8099 74.7434 69.8591 74.7653 69.8591 74.798C69.8591 74.8418 69.829 74.8636 69.7716 74.8636C69.7443 74.8636 69.7088 74.8609 69.6651 74.8527C69.6077 74.8445 69.5066 74.8418 69.3672 74.8418L68.9574 74.8363L68.624 74.8554C68.5694 74.8609 68.5256 74.8636 68.4874 74.8636C68.4355 74.8636 68.4109 74.8445 68.4109 74.8062C68.4109 74.7735 68.4409 74.7516 68.4983 74.7434C68.6404 74.7188 68.7333 74.6696 68.7743 74.5958C68.8153 74.5221 68.8371 74.3636 68.8371 74.1259V71.7077C68.8371 71.4754 68.8098 71.3169 68.7579 71.2377C68.7032 71.1557 68.5912 71.1011 68.4163 71.0737C68.359 71.0628 68.3289 71.0409 68.3262 71.0082C68.3262 70.9672 68.3508 70.948 68.4081 70.948C68.4245 70.948 68.4409 70.948 68.4601 70.9508C68.5967 70.9672 68.7798 70.9754 69.0066 70.9754C69.1459 70.9754 69.2661 70.9726 69.3645 70.9644L69.553 70.948C69.5886 70.948 69.6132 70.9453 69.6241 70.9453C69.676 70.9453 69.7006 70.9617 69.7006 70.9972C69.7006 71.0327 69.676 71.0546 69.6268 71.071L69.4793 71.1284C69.3399 71.1803 69.2716 71.4071 69.2716 71.8033L69.2689 71.806Z" fill="#1E5D97"/>
<path d="M71.0123 71.6475L72.0971 74.1367C72.1244 74.1996 72.149 74.2296 72.1708 74.2269C72.19 74.2269 72.2228 74.1722 72.2719 74.0657L72.3157 73.9618L72.9332 72.4918C73.1982 71.8606 73.3321 71.4562 73.3321 71.2731C73.3321 71.2103 73.3185 71.1665 73.2884 71.1419C73.2611 71.1174 73.2037 71.0955 73.1163 71.0791C73.0124 71.0572 72.9605 71.0327 72.9605 71.0026C72.9605 70.9671 72.9933 70.9507 73.0534 70.9507C73.0671 70.9507 73.0944 70.9507 73.1354 70.9507C73.2747 70.9589 73.3595 70.9616 73.3868 70.9616H73.63L73.701 70.9589H73.9415C73.9797 70.9561 73.9988 70.9725 73.9988 71.0053C73.9988 71.0327 73.9797 71.0518 73.9387 71.0654C73.8021 71.1174 73.701 71.2267 73.6327 71.3933L73.5562 71.5764L72.1544 74.8581C72.1162 74.951 72.0779 74.9974 72.0397 74.9974C72.0014 74.9974 71.9604 74.951 71.9195 74.8553L70.4904 71.5436C70.4221 71.3906 70.362 71.284 70.3073 71.2239C70.2527 71.1638 70.1789 71.1256 70.0833 71.1092C69.9849 71.09 69.9275 71.0764 69.9111 71.0682C69.892 71.06 69.8838 71.0436 69.8838 71.0217C69.8838 70.9862 69.9111 70.9671 69.963 70.9671C69.9794 70.9671 70.0068 70.9671 70.045 70.9725C70.0778 70.9753 70.1707 70.978 70.3292 70.978H70.597H70.7855C70.8237 70.978 70.8839 70.9753 70.9658 70.9671C71.0041 70.9643 71.0287 70.9616 71.0451 70.9616C71.097 70.9616 71.1216 70.978 71.1216 71.0135C71.1216 71.0381 71.1025 71.06 71.0642 71.0736C70.9877 71.101 70.9385 71.1256 70.9194 71.1447C70.9003 71.1638 70.8893 71.1993 70.8893 71.2485C70.8893 71.3305 70.9276 71.4617 71.0068 71.6447L71.0123 71.6475Z" fill="#1E5D97"/>
<path d="M75.0476 71.4261V72.5628C75.0476 72.6502 75.0558 72.7021 75.0722 72.7213C75.0886 72.7404 75.1377 72.7486 75.217 72.7486H75.6514C75.8482 72.7486 76.0039 72.7376 76.1187 72.7158C76.2198 72.6967 76.2854 72.6693 76.3154 72.6338C76.3455 72.601 76.3728 72.5218 76.3974 72.3961C76.4083 72.3496 76.4302 72.3278 76.4684 72.3278C76.504 72.3278 76.5231 72.3551 76.5231 72.4043C76.5231 72.418 76.5231 72.4371 76.5204 72.4671C76.504 72.6502 76.4958 72.8142 76.4958 72.9644C76.4958 73.0792 76.5012 73.1912 76.5122 73.306C76.5149 73.3442 76.5176 73.3716 76.5176 73.388C76.5176 73.4344 76.4985 73.459 76.463 73.459C76.422 73.459 76.3974 73.4371 76.3919 73.3962L76.3755 73.3169C76.3537 73.1912 76.3072 73.1065 76.2416 73.0601C76.1733 73.0136 76.0586 72.9918 75.8974 72.9918H75.2744C75.1815 72.9918 75.1213 73.0027 75.0913 73.0191C75.0612 73.0382 75.0448 73.0765 75.0448 73.1311V73.224L75.0476 74.2623C75.0476 74.4236 75.0776 74.5219 75.1323 74.5629C75.1897 74.6012 75.3345 74.623 75.5667 74.623C76.3045 74.623 76.7772 74.4563 76.9876 74.123C77.0095 74.0902 77.0286 74.0738 77.0504 74.0711C77.086 74.0711 77.1024 74.0929 77.1024 74.1449C77.1024 74.2678 77.0341 74.4126 76.8974 74.5793C76.7335 74.7815 76.5231 74.8826 76.2717 74.8826C76.2171 74.8826 76.1433 74.8799 76.0531 74.8717C75.6952 74.8389 75.3973 74.8198 75.1623 74.8198C74.8344 74.8198 74.6022 74.8307 74.4656 74.8526C74.3945 74.8662 74.3453 74.8717 74.318 74.8717C74.2579 74.8717 74.2278 74.8498 74.2278 74.8116C74.2278 74.7815 74.2524 74.7569 74.3016 74.746L74.4082 74.7159C74.5448 74.6777 74.6104 74.5465 74.6104 74.3197V74.1367L74.6131 71.7512C74.6131 71.4835 74.5831 71.3004 74.5229 71.2075C74.4628 71.1146 74.3481 71.0681 74.1787 71.0681C74.124 71.0681 74.0967 71.0517 74.0967 71.0162C74.0967 70.9643 74.1404 70.9397 74.2224 70.9397C74.2688 70.9397 74.3317 70.9452 74.4109 70.9534C74.6787 70.9834 75.0039 70.9998 75.3809 70.9998C75.6105 70.9998 75.8126 70.9971 75.9903 70.9889L76.3892 70.9698C76.5012 70.967 76.5668 70.9616 76.5914 70.9588C76.6433 70.9506 76.6788 70.9479 76.7034 70.9479C76.7663 70.9479 76.7963 70.9752 76.7963 71.0299C76.7963 71.0463 76.7963 71.0681 76.7881 71.0954C76.7827 71.1228 76.7745 71.1966 76.7663 71.3195L76.7553 71.4862C76.7444 71.5955 76.7362 71.6638 76.7253 71.6911C76.7144 71.7184 76.6952 71.7321 76.6624 71.7348C76.6269 71.7348 76.6078 71.7075 76.6078 71.6501V71.5764C76.6078 71.5162 76.5969 71.4589 76.575 71.4042C76.5395 71.3195 76.4684 71.2621 76.3591 71.2348C76.2498 71.2075 76.0504 71.1938 75.7607 71.1938H75.3181C75.2033 71.1938 75.1268 71.2075 75.094 71.2375C75.0612 71.2676 75.0421 71.3304 75.0421 71.4315L75.0476 71.4261Z" fill="#1E5D97"/>
<path d="M79.4328 73.9838V71.8033C79.4328 71.5546 79.3973 71.3716 79.3235 71.2541C79.2497 71.1366 79.1377 71.0765 78.9819 71.0765C78.9054 71.0765 78.8672 71.0573 78.8672 71.0163C78.8672 70.9726 78.9054 70.9535 78.9792 70.9535C78.9929 70.9535 79.0421 70.9535 79.124 70.959C79.1814 70.9617 79.2579 70.9644 79.359 70.9644C79.4984 70.9644 79.6049 70.9644 79.6814 70.959L79.9984 70.9398C80.0995 70.9344 80.1924 70.9316 80.2799 70.9316C80.6952 70.9316 81.0231 71.0136 81.2608 71.1803C81.4985 71.347 81.6187 71.5738 81.6187 71.8634C81.6187 72.153 81.4958 72.3962 81.2471 72.5602L81.1269 72.6449C81.0996 72.6613 81.0859 72.6749 81.0887 72.6886C81.0887 72.7077 81.1406 72.7269 81.2362 72.7487C81.4439 72.7952 81.6133 72.9072 81.7472 73.0875C81.8811 73.2651 81.9466 73.4701 81.9466 73.7023C81.9466 74.0494 81.8182 74.3335 81.5641 74.5576C81.31 74.7816 80.9848 74.8937 80.5941 74.8937L80.3782 74.8855L80.1159 74.8745L79.8864 74.8609C79.7361 74.85 79.6159 74.8472 79.5284 74.8472C79.441 74.8472 79.3645 74.85 79.3016 74.8582C79.2115 74.8691 79.1486 74.8745 79.1104 74.8745C79.0585 74.8745 79.0311 74.8554 79.0311 74.8144C79.0311 74.7844 79.0585 74.7653 79.1158 74.7571C79.2743 74.7352 79.37 74.645 79.4 74.492C79.4273 74.3554 79.4437 74.1887 79.4437 73.9892L79.4328 73.9838ZM80.0203 72.8607C79.952 72.8607 79.9082 72.8662 79.8919 72.8799C79.8727 72.8908 79.8645 72.9209 79.8645 72.9673V74.2679L79.8591 74.3964L79.8754 74.5057C79.9028 74.5876 79.9711 74.645 80.0804 74.6778C80.1897 74.7133 80.3591 74.7297 80.5914 74.7297C80.8865 74.7297 81.116 74.6532 81.2799 74.4975C81.4439 74.3417 81.5258 74.1259 81.5258 73.8472C81.5258 73.5684 81.4357 73.3253 81.2553 73.1367C81.075 72.9482 80.8482 72.8553 80.575 72.8553H80.0175L80.0203 72.8607ZM80.0585 72.6613H80.5258C80.9985 72.6613 81.2362 72.4481 81.2362 72.0246C81.2362 71.7623 81.1351 71.5437 80.9329 71.3661C80.7307 71.1885 80.4821 71.0983 80.187 71.0983C80.0558 71.0983 79.9711 71.1174 79.9301 71.153C79.8891 71.1885 79.8673 71.265 79.8673 71.3825V72.5137C79.8673 72.5793 79.8782 72.6203 79.9 72.6367C79.9219 72.6531 79.9766 72.6613 80.0613 72.6613H80.0585Z" fill="#1E5D97"/>
<path d="M83.3525 71.4261V72.5628C83.3525 72.6502 83.3607 72.7021 83.3771 72.7213C83.3934 72.7404 83.4399 72.7486 83.5219 72.7486H83.9563C84.1531 72.7486 84.3088 72.7376 84.4236 72.7158C84.5247 72.6967 84.5903 72.6693 84.6203 72.6338C84.6504 72.601 84.6777 72.5218 84.7023 72.3961C84.7132 72.3496 84.7351 72.3278 84.7733 72.3278C84.8088 72.3278 84.828 72.3551 84.828 72.4043C84.828 72.418 84.828 72.4371 84.828 72.4671C84.8116 72.6502 84.8034 72.8142 84.8034 72.9644C84.8034 73.0792 84.8089 73.1912 84.8198 73.306C84.8225 73.3442 84.8252 73.3716 84.8252 73.388C84.8252 73.4344 84.8061 73.459 84.7706 73.459C84.7296 73.459 84.705 73.4371 84.6996 73.3962L84.6832 73.3169C84.6613 73.1912 84.6148 73.1065 84.5493 73.0601C84.481 73.0136 84.3662 72.9918 84.205 72.9918H83.582C83.4891 72.9918 83.429 73.0027 83.3989 73.0191C83.3689 73.0382 83.3525 73.0765 83.3525 73.1311V73.224L83.3552 74.2623C83.3552 74.4236 83.3852 74.5219 83.4399 74.5629C83.4973 74.6012 83.6421 74.623 83.8744 74.623C84.6121 74.623 85.0848 74.4563 85.2952 74.123C85.3171 74.0902 85.3362 74.0738 85.3581 74.0711C85.3936 74.0711 85.41 74.0929 85.41 74.1449C85.41 74.2678 85.3417 74.4126 85.205 74.5793C85.0384 74.7815 84.8307 74.8826 84.5793 74.8826C84.5247 74.8826 84.4509 74.8799 84.3607 74.8717C84.0028 74.8389 83.7049 74.8198 83.47 74.8198C83.1421 74.8198 82.9098 74.8307 82.7732 74.8526C82.7021 74.8662 82.653 74.8717 82.6256 74.8717C82.5655 74.8717 82.5355 74.8498 82.5355 74.8116C82.5355 74.7815 82.56 74.7569 82.6092 74.746L82.7158 74.7159C82.8497 74.6777 82.918 74.5465 82.918 74.3197V74.1367L82.9207 71.7512C82.9207 71.4835 82.8907 71.3004 82.8306 71.2075C82.7705 71.1146 82.6557 71.0681 82.4863 71.0681C82.4316 71.0681 82.4043 71.0517 82.4043 71.0162C82.4043 70.9643 82.4453 70.9397 82.53 70.9397C82.5764 70.9397 82.6393 70.9452 82.7185 70.9534C82.9863 70.9834 83.3115 70.9998 83.6885 70.9998C83.9181 70.9998 84.1203 70.9971 84.2979 70.9889L84.6968 70.9698C84.8088 70.967 84.8744 70.9616 84.899 70.9588C84.9509 70.9506 84.9865 70.9479 85.011 70.9479C85.0739 70.9479 85.1039 70.9752 85.1039 71.0299C85.1039 71.0463 85.1039 71.0681 85.0958 71.0954C85.0876 71.1228 85.0821 71.1966 85.0739 71.3195L85.063 71.4862C85.052 71.5955 85.0438 71.6638 85.0356 71.6911C85.0247 71.7184 85.0056 71.7321 84.9728 71.7348C84.9373 71.7348 84.9181 71.7075 84.9181 71.6501V71.5764C84.9181 71.5162 84.9072 71.4589 84.8854 71.4042C84.8498 71.3195 84.7788 71.2621 84.6695 71.2348C84.5602 71.2075 84.3607 71.1938 84.0711 71.1938H83.6284C83.5109 71.1938 83.4372 71.2075 83.4044 71.2375C83.3716 71.2676 83.3525 71.3304 83.3525 71.4315V71.4261Z" fill="#1E5D97"/>
<path d="M86.9665 72.7293H88.6306C88.7126 72.7293 88.7672 72.7211 88.7891 72.7074C88.8109 72.6938 88.8219 72.6583 88.8219 72.6063V71.6418C88.8219 71.4478 88.7973 71.3112 88.7481 71.2292C88.6989 71.1472 88.606 71.0926 88.4721 71.0625C88.4147 71.0516 88.3874 71.0297 88.3901 70.9969C88.3901 70.9669 88.4147 70.9505 88.4612 70.9505C88.4994 70.9505 88.565 70.956 88.6525 70.9641C88.7754 70.9778 88.9093 70.9833 89.0459 70.9833C89.2481 70.9833 89.3875 70.9778 89.4695 70.9669C89.5214 70.9587 89.5542 70.956 89.5733 70.956C89.6197 70.956 89.6416 70.9751 89.6416 71.0106C89.6416 71.0407 89.6197 71.0598 89.5733 71.068L89.4585 71.0926C89.4012 71.1035 89.352 71.1445 89.311 71.2183C89.2727 71.2893 89.2509 71.374 89.2509 71.4669V74.1939C89.2509 74.3961 89.2782 74.5354 89.3356 74.612C89.393 74.6885 89.4995 74.7349 89.6607 74.754C89.7181 74.7622 89.7482 74.7814 89.7509 74.8087C89.7536 74.8524 89.729 74.8743 89.6717 74.8743C89.6334 74.8743 89.5842 74.8688 89.5241 74.8606C89.4804 74.8524 89.3848 74.8497 89.2427 74.8497H89.035H88.8246C88.7918 74.8497 88.7454 74.8497 88.688 74.8579C88.5705 74.8661 88.5076 74.8715 88.494 74.8715C88.4475 74.8715 88.4257 74.8551 88.4257 74.8169C88.4257 74.7841 88.4585 74.7622 88.5213 74.754C88.718 74.7213 88.8164 74.56 88.8164 74.2704V74.1611L88.8191 73.1255C88.8191 73.0381 88.8109 72.9862 88.7946 72.9698C88.7782 72.9561 88.7208 72.9479 88.6251 72.9479H86.9638C86.8572 72.9479 86.7889 72.9588 86.7644 72.9807C86.737 73.0025 86.7261 73.0572 86.7261 73.1446V74.1802C86.7261 74.377 86.7561 74.5136 86.819 74.5928C86.8818 74.6721 86.9966 74.7213 87.166 74.7404C87.2371 74.7486 87.2726 74.7704 87.2726 74.8114C87.2726 74.8497 87.248 74.8688 87.1906 74.8688C87.166 74.8688 87.1196 74.8633 87.0513 74.8551C86.9993 74.8469 86.8873 74.8415 86.7124 74.8415H86.4747L86.2889 74.8442C86.2424 74.8442 86.1823 74.8469 86.1113 74.8524C86.0129 74.8606 85.9555 74.8661 85.9337 74.8661C85.8872 74.8661 85.8626 74.8497 85.8626 74.8142C85.8626 74.7786 85.8872 74.7595 85.9364 74.7486L86.0785 74.7158C86.1605 74.6967 86.2179 74.6338 86.2479 74.53C86.278 74.4234 86.2944 74.2403 86.2944 73.9753V71.5516C86.2944 71.3877 86.2643 71.2702 86.2015 71.1964C86.1386 71.1226 86.0293 71.0734 85.8681 71.0489C85.8135 71.0407 85.7861 71.0215 85.7861 70.9887C85.7861 70.9505 85.8107 70.9314 85.8599 70.9341C85.8954 70.9341 85.9528 70.9423 86.0293 70.9505C86.1769 70.9669 86.349 70.9751 86.5458 70.9751C86.6796 70.9751 86.8053 70.9669 86.9201 70.9532C86.972 70.945 87.0103 70.9423 87.0376 70.9423C87.0922 70.9423 87.1196 70.9614 87.1196 70.9997C87.1196 71.0297 87.095 71.0489 87.0431 71.0625C86.9174 71.0953 86.8327 71.139 86.7889 71.1991C86.7452 71.2593 86.7234 71.3576 86.7234 71.497V72.508C86.7234 72.6145 86.7343 72.6801 86.7562 72.702C86.778 72.7238 86.8463 72.732 86.9638 72.732L86.9665 72.7293Z" fill="#1E5D97"/>
<path d="M92.3002 73.3606H91.2783C91.1389 73.3606 91.0542 73.3715 91.0187 73.3934C90.9859 73.4152 90.9395 73.4917 90.8848 73.6202L90.699 74.0355C90.617 74.2268 90.5733 74.3661 90.5733 74.459C90.5733 74.5519 90.5952 74.612 90.6389 74.6503C90.6826 74.6885 90.7701 74.7241 90.9012 74.7514C90.9586 74.7623 90.9859 74.7842 90.9887 74.817C90.9887 74.8498 90.9641 74.8634 90.9094 74.8634C90.8876 74.8634 90.8575 74.8634 90.8138 74.8607L90.5433 74.8443C90.4531 74.8388 90.3493 74.8388 90.2318 74.8388C90.1771 74.8388 90.1361 74.8388 90.1061 74.8443C90.0104 74.8552 89.9585 74.8607 89.9476 74.8607C89.8984 74.8607 89.8711 74.8443 89.8711 74.8088C89.8711 74.7787 89.8875 74.7568 89.9203 74.7487L90.0241 74.7186C90.0624 74.7077 90.1115 74.6612 90.1771 74.582C90.24 74.5027 90.2946 74.418 90.3356 74.3333L90.4176 74.1475L91.8658 70.9287C91.8904 70.8713 91.9177 70.844 91.9477 70.844C91.9778 70.844 92.0024 70.8713 92.0243 70.926L93.2375 74.0328L93.3003 74.1858C93.3877 74.4126 93.4615 74.5546 93.5189 74.6093C93.5763 74.6639 93.6965 74.7077 93.8741 74.7405C93.9315 74.7514 93.9616 74.7732 93.9588 74.8088C93.9588 74.8388 93.9315 74.8552 93.8796 74.8552C93.8632 74.8552 93.8277 74.8552 93.773 74.8498C93.6746 74.8388 93.5025 74.8361 93.2511 74.8361C92.9997 74.8361 92.8276 74.8416 92.762 74.8525C92.7238 74.8607 92.6937 74.8634 92.6746 74.8634C92.6254 74.8634 92.6008 74.8443 92.6008 74.806C92.6008 74.776 92.6254 74.7568 92.6718 74.7487L92.7593 74.7295C92.8522 74.7104 92.9014 74.6476 92.9014 74.5383C92.9014 74.4372 92.844 74.2404 92.7292 73.9426L92.5871 73.571C92.5489 73.4671 92.5161 73.407 92.4942 73.3906C92.4724 73.3742 92.4068 73.366 92.303 73.366L92.3002 73.3606ZM92.333 72.907L91.8904 71.7894L91.8685 71.7293C91.8466 71.6692 91.8221 71.6391 91.7947 71.6364C91.7811 71.6364 91.7674 71.6528 91.751 71.6911L91.2018 72.9125C91.1772 72.9644 91.1663 72.9999 91.1663 73.0163C91.1663 73.0655 91.21 73.0901 91.2947 73.0901H91.3712L92.2237 73.0928C92.3166 73.0928 92.3658 73.0682 92.3658 73.0217C92.3658 73.0081 92.3603 72.9862 92.3521 72.9562L92.3385 72.9043L92.333 72.907Z" fill="#1E5D97"/>
<path d="M94.2791 71.6475L95.3639 74.1367C95.3912 74.1996 95.4158 74.2296 95.4376 74.2269C95.4568 74.2269 95.4896 74.1722 95.5387 74.0657L95.5825 73.9618L96.2 72.4918C96.465 71.8606 96.5989 71.4562 96.5989 71.2731C96.5989 71.2103 96.5853 71.1665 96.5552 71.1419C96.5279 71.1174 96.4705 71.0955 96.3831 71.0791C96.2792 71.0572 96.2273 71.0327 96.2273 71.0026C96.2273 70.9671 96.2601 70.9507 96.3202 70.9507C96.3339 70.9507 96.3612 70.9507 96.4022 70.9507C96.5415 70.9589 96.6263 70.9616 96.6536 70.9616H96.8968L96.9678 70.9589H97.2083C97.2465 70.9561 97.2656 70.9725 97.2656 71.0053C97.2656 71.0327 97.2465 71.0518 97.2055 71.0654C97.0689 71.1174 96.9678 71.2267 96.8995 71.3933L96.823 71.5764L95.4212 74.8581C95.383 74.951 95.3447 74.9974 95.3065 74.9974C95.2682 74.9974 95.2272 74.951 95.1862 74.8553L93.7572 71.5436C93.6889 71.3906 93.6288 71.284 93.5741 71.2239C93.5195 71.1638 93.4457 71.1256 93.3528 71.1092C93.2544 71.09 93.197 71.0764 93.1806 71.0682C93.1615 71.06 93.1533 71.0436 93.1533 71.0217C93.1533 70.9862 93.1806 70.9671 93.2326 70.9671C93.2462 70.9671 93.2735 70.9671 93.3145 70.9725C93.3473 70.9753 93.4402 70.978 93.5987 70.978H93.8665H94.055C94.0933 70.978 94.1561 70.9753 94.2354 70.9671C94.2736 70.9643 94.2982 70.9616 94.3146 70.9616C94.3665 70.9616 94.3911 70.978 94.3911 71.0135C94.3911 71.0381 94.372 71.06 94.3337 71.0736C94.2572 71.101 94.208 71.1256 94.1889 71.1447C94.1698 71.1638 94.1589 71.1993 94.1589 71.2485C94.1589 71.3305 94.1971 71.4617 94.2763 71.6447L94.2791 71.6475Z" fill="#1E5D97"/>
<path d="M98.3167 71.806V73.9209C98.3167 74.186 98.3331 74.3581 98.3659 74.4428C98.4042 74.5385 98.4506 74.6068 98.5053 74.645C98.5599 74.686 98.6473 74.7133 98.7648 74.7297C98.8577 74.7434 98.9069 74.7653 98.9069 74.798C98.9069 74.8418 98.8769 74.8636 98.8195 74.8636C98.7922 74.8636 98.7566 74.8609 98.7129 74.8527C98.6555 74.8445 98.5544 74.8418 98.4151 74.8418L98.0052 74.8363L97.6719 74.8554C97.6172 74.8609 97.5735 74.8636 97.5352 74.8636C97.4833 74.8636 97.4587 74.8445 97.4587 74.8062C97.4587 74.7735 97.4888 74.7516 97.5462 74.7434C97.6883 74.7188 97.7812 74.6696 97.8221 74.5958C97.8631 74.5221 97.885 74.3636 97.885 74.1259V71.7077C97.885 71.4754 97.8577 71.3169 97.8058 71.2377C97.7511 71.1557 97.6391 71.1011 97.4642 71.0737C97.4068 71.0628 97.3768 71.0409 97.374 71.0082C97.374 70.9672 97.3986 70.948 97.456 70.948C97.4724 70.948 97.4888 70.948 97.5079 70.9508C97.6445 70.9672 97.8276 70.9754 98.0544 70.9754C98.1938 70.9754 98.314 70.9726 98.4124 70.9644L98.6009 70.948C98.6364 70.948 98.661 70.9453 98.6719 70.9453C98.7238 70.9453 98.7484 70.9617 98.7484 70.9972C98.7484 71.0327 98.7239 71.0546 98.6747 71.071L98.5271 71.1284C98.3878 71.1803 98.3194 71.4071 98.3194 71.8033L98.3167 71.806Z" fill="#1E5D97"/>
<path d="M101.329 70.907C101.916 70.907 102.4 71.0901 102.777 71.4535C103.154 71.8169 103.342 72.2814 103.342 72.8497C103.342 73.4509 103.151 73.9427 102.774 74.328C102.394 74.7133 101.908 74.9045 101.315 74.9045C100.722 74.9045 100.217 74.7215 99.8422 74.3526C99.4678 73.9837 99.2793 73.5001 99.2793 72.9044C99.2793 72.6448 99.3285 72.388 99.4269 72.1338C99.5252 71.8797 99.6591 71.6666 99.8258 71.4972C100.003 71.3168 100.225 71.1748 100.498 71.0682C100.768 70.9616 101.047 70.9097 101.329 70.9097V70.907ZM101.146 71.0928C100.708 71.0928 100.361 71.2403 100.104 71.5327C99.8476 71.8251 99.7192 72.2213 99.7192 72.7186C99.7192 73.2869 99.8832 73.7678 100.211 74.1586C100.539 74.5493 100.943 74.7433 101.422 74.7433C101.859 74.7433 102.219 74.5848 102.504 74.2652C102.788 73.9482 102.93 73.5438 102.93 73.0574C102.93 72.4973 102.76 72.0273 102.419 71.6529C102.077 71.2786 101.654 71.0901 101.146 71.0901V71.0928Z" fill="#1E5D97"/>
<path d="M105.763 72.9017L106.542 74.0494L106.632 74.1832C106.872 74.5357 107.094 74.7188 107.299 74.7325L107.389 74.7379C107.422 74.7379 107.438 74.7543 107.435 74.7789C107.435 74.8062 107.392 74.8336 107.31 74.8554C107.228 74.8773 107.135 74.8909 107.031 74.8909C106.861 74.8909 106.711 74.8445 106.575 74.7516C106.441 74.6587 106.304 74.5057 106.165 74.2953L105.462 73.2242L105.424 73.1613C105.378 73.0848 105.307 73.0466 105.203 73.0466H104.829L104.766 73.0575C104.744 73.0711 104.733 73.1012 104.733 73.1477V74.1423C104.733 74.3035 104.744 74.4155 104.76 74.4756C104.777 74.5357 104.815 74.5877 104.875 74.6341C104.957 74.6997 105.08 74.7379 105.249 74.7571C105.318 74.7653 105.35 74.7844 105.353 74.8199C105.356 74.8554 105.326 74.8746 105.26 74.8746C105.233 74.8746 105.178 74.8691 105.094 74.8609C105.017 74.8527 104.897 74.8472 104.736 74.8472H104.465H104.318C104.255 74.8472 104.175 74.8527 104.085 74.8609C104.012 74.8691 103.962 74.8718 103.932 74.8718C103.886 74.8718 103.861 74.8527 103.861 74.8144C103.861 74.7871 103.886 74.768 103.932 74.7598C104.083 74.7325 104.181 74.6642 104.227 74.5549C104.274 74.4456 104.298 74.2324 104.298 73.9155V71.888L104.293 71.5929C104.293 71.3005 104.192 71.1366 103.987 71.1011L103.856 71.0819C103.796 71.071 103.766 71.0491 103.766 71.0164C103.766 70.9781 103.798 70.959 103.861 70.959C103.878 70.959 103.943 70.9617 104.058 70.9699C104.126 70.9754 104.208 70.9781 104.309 70.9781C104.397 70.9781 104.544 70.9726 104.752 70.959C104.902 70.9508 105.036 70.9453 105.151 70.9453C105.583 70.9453 105.911 71.0273 106.129 71.1885C106.348 71.3497 106.46 71.5929 106.46 71.9153C106.46 72.3389 106.228 72.6667 105.763 72.8963V72.9017ZM104.935 72.8389H105.255C105.501 72.8389 105.695 72.7706 105.837 72.634C105.979 72.4973 106.05 72.3115 106.05 72.0765C106.05 71.8033 105.954 71.5792 105.763 71.4016C105.572 71.224 105.326 71.1366 105.028 71.1366C104.916 71.1366 104.839 71.1557 104.798 71.1912C104.755 71.2268 104.736 71.2951 104.736 71.3907V71.4836V72.6312C104.736 72.7187 104.747 72.776 104.771 72.8006C104.796 72.8252 104.85 72.8362 104.938 72.8362L104.935 72.8389Z" fill="#1E5D97"/>
<path d="M110.273 70.907C110.476 70.907 110.645 70.937 110.784 70.9944L110.978 71.0764C110.995 71.0846 111.011 71.0873 111.03 71.0873C111.052 71.0873 111.077 71.0791 111.099 71.06L111.137 71.0272C111.137 71.0272 111.153 71.0163 111.167 71.0163C111.213 71.0163 111.238 71.06 111.238 71.1529C111.238 71.1857 111.249 71.2813 111.274 71.4371L111.317 71.7267C111.325 71.7896 111.331 71.8278 111.331 71.8415C111.331 71.8989 111.312 71.9289 111.271 71.9289C111.241 71.9289 111.211 71.8825 111.178 71.7923C111.11 71.5874 110.973 71.4207 110.765 71.2895C110.558 71.1584 110.328 71.0928 110.071 71.0928C109.869 71.0928 109.7 71.1529 109.563 71.2731C109.426 71.3934 109.358 71.5409 109.358 71.7213C109.358 71.8797 109.402 72.0164 109.489 72.1311C109.566 72.2295 109.65 72.3005 109.741 72.347C109.831 72.3907 110.055 72.4727 110.413 72.5929C111.107 72.8197 111.454 73.194 111.454 73.7105C111.454 74.063 111.325 74.3499 111.071 74.5739C110.815 74.798 110.487 74.91 110.088 74.91C109.943 74.91 109.784 74.8882 109.61 74.8472C109.435 74.8062 109.309 74.757 109.227 74.7023C109.194 74.6805 109.17 74.6559 109.159 74.6313C109.148 74.6067 109.131 74.5411 109.107 74.4346C109.104 74.4209 109.079 74.3335 109.036 74.1777C108.987 74.0083 108.962 73.8881 108.962 73.817C108.962 73.7596 108.981 73.7323 109.019 73.7351C109.052 73.7351 109.085 73.7842 109.112 73.8744C109.181 74.1094 109.323 74.3034 109.538 74.4619C109.754 74.6204 109.992 74.6996 110.246 74.6996C110.5 74.6996 110.724 74.6231 110.902 74.4701C111.08 74.3171 111.17 74.1313 111.17 73.9154C111.17 73.6995 111.088 73.5301 110.921 73.388C110.836 73.3143 110.593 73.2104 110.189 73.0738C109.771 72.9345 109.476 72.776 109.303 72.6066C109.131 72.4371 109.044 72.2131 109.044 71.9426C109.044 71.6393 109.156 71.3906 109.383 71.1994C109.61 71.0081 109.902 70.9124 110.257 70.9124L110.273 70.907Z" fill="#1E5D97"/>
<path d="M115.376 73.2076V71.7485C115.376 71.5135 115.343 71.3441 115.275 71.2375C115.206 71.131 115.092 71.0709 114.93 71.0572C114.876 71.0517 114.848 71.0326 114.848 70.9971C114.848 70.9561 114.868 70.937 114.906 70.9397C114.947 70.9397 115.007 70.9479 115.086 70.9616C115.157 70.9725 115.242 70.978 115.343 70.978C115.553 70.978 115.682 70.9752 115.731 70.9698C115.797 70.9643 115.838 70.9616 115.854 70.9616C115.889 70.9616 115.906 70.978 115.906 71.0108C115.906 71.0381 115.887 71.0599 115.846 71.0763C115.731 71.1228 115.657 71.1884 115.624 71.2731C115.592 71.3578 115.573 71.5163 115.573 71.7512V73.1475C115.573 73.6612 115.471 74.0547 115.267 74.3307C115.138 74.5055 114.952 74.6449 114.709 74.7487C114.469 74.8526 114.209 74.9045 113.936 74.9045C113.616 74.9045 113.329 74.8416 113.072 74.7187C112.816 74.5957 112.63 74.4263 112.512 74.2132C112.378 73.97 112.313 73.6503 112.313 73.2568V71.825L112.307 71.6638C112.307 71.4616 112.28 71.325 112.225 71.2485C112.171 71.172 112.059 71.1228 111.892 71.0982C111.84 71.09 111.815 71.0709 111.815 71.0408C111.815 70.9971 111.851 70.9752 111.922 70.9752C111.968 70.9752 112.034 70.9752 112.116 70.9807C112.203 70.9862 112.266 70.9889 112.305 70.9889H112.52H112.734C112.755 70.9889 112.81 70.9862 112.892 70.978C112.963 70.9725 113.01 70.9698 113.037 70.9698C113.081 70.9698 113.102 70.9834 113.102 71.0135C113.102 71.049 113.072 71.0709 113.012 71.0818C112.903 71.1064 112.829 71.1528 112.794 71.2239C112.758 71.2949 112.739 71.4206 112.739 71.6037L112.744 71.7895V73.2104C112.744 73.694 112.818 74.041 112.971 74.2487C113.184 74.5411 113.54 74.6886 114.04 74.6886C114.488 74.6886 114.824 74.5657 115.045 74.3197C115.267 74.0738 115.379 73.7049 115.379 73.2104L115.376 73.2076Z" fill="#1E5D97"/>
<path d="M117.335 71.4288V74.0546L117.34 74.2924C117.362 74.5191 117.447 74.653 117.594 74.6913C117.698 74.7186 117.775 74.735 117.829 74.735C117.887 74.735 117.914 74.7514 117.917 74.7842C117.919 74.8334 117.887 74.8552 117.818 74.8552C117.786 74.8552 117.723 74.8498 117.63 74.8443C117.57 74.8416 117.471 74.8388 117.337 74.8388L117.138 74.8334H116.919C116.807 74.8361 116.725 74.8388 116.668 74.847C116.594 74.858 116.542 74.8607 116.507 74.8607C116.458 74.8607 116.433 74.8416 116.433 74.806C116.433 74.7705 116.463 74.7487 116.526 74.7405C116.673 74.7186 116.772 74.6366 116.826 74.4918C116.881 74.3497 116.906 74.0929 116.906 73.7185V72.008C116.906 71.6146 116.881 71.3632 116.835 71.2593C116.788 71.1555 116.671 71.0927 116.482 71.0708C116.43 71.0681 116.406 71.0462 116.408 71.0134C116.408 70.9697 116.447 70.9478 116.518 70.9478C116.553 70.9478 116.602 70.9533 116.663 70.9615C116.78 70.9779 116.878 70.9861 116.955 70.9861C117.075 70.9861 117.25 70.9752 117.48 70.956C117.597 70.9478 117.695 70.9424 117.769 70.9424C118.163 70.9424 118.482 71.038 118.726 71.2266C118.971 71.4151 119.094 71.661 119.094 71.967C119.094 72.3359 118.944 72.6256 118.644 72.8387C118.419 72.9972 118.179 73.0764 117.928 73.0764C117.81 73.0764 117.701 73.0628 117.602 73.0382C117.504 73.0108 117.455 72.9835 117.46 72.9562C117.463 72.9343 117.482 72.9234 117.515 72.9234C117.529 72.9234 117.548 72.9261 117.572 72.9316C117.616 72.9453 117.684 72.9507 117.78 72.9507C118.051 72.9507 118.266 72.8769 118.428 72.7267C118.589 72.5791 118.671 72.3796 118.671 72.1337C118.671 71.8495 118.564 71.6118 118.351 71.426C118.138 71.2402 117.865 71.1446 117.537 71.1446C117.463 71.1446 117.411 71.1582 117.381 71.1856C117.354 71.2129 117.34 71.2675 117.34 71.3468V71.4288H117.335Z" fill="#1E5D97"/>
<path d="M120.39 71.4288V74.0546L120.396 74.2924C120.418 74.5191 120.502 74.653 120.65 74.6913C120.754 74.7186 120.83 74.735 120.885 74.735C120.942 74.735 120.97 74.7514 120.972 74.7842C120.975 74.8334 120.942 74.8552 120.874 74.8552C120.841 74.8552 120.778 74.8498 120.685 74.8443C120.625 74.8416 120.527 74.8388 120.393 74.8388L120.194 74.8334H119.975C119.863 74.8361 119.781 74.8388 119.724 74.847C119.65 74.858 119.598 74.8607 119.562 74.8607C119.513 74.8607 119.489 74.8416 119.489 74.806C119.489 74.7705 119.519 74.7487 119.582 74.7405C119.729 74.7186 119.827 74.6366 119.882 74.4918C119.937 74.3497 119.961 74.0929 119.961 73.7185V72.008C119.961 71.6146 119.937 71.3632 119.89 71.2593C119.844 71.1555 119.726 71.0927 119.538 71.0708C119.486 71.0681 119.461 71.0462 119.464 71.0134C119.464 70.9697 119.502 70.9478 119.573 70.9478C119.609 70.9478 119.658 70.9533 119.718 70.9615C119.836 70.9779 119.934 70.9861 120.011 70.9861C120.131 70.9861 120.306 70.9752 120.535 70.956C120.653 70.9478 120.751 70.9424 120.825 70.9424C121.218 70.9424 121.538 71.038 121.781 71.2266C122.027 71.4151 122.15 71.661 122.15 71.967C122.15 72.3359 122 72.6256 121.699 72.8387C121.475 72.9972 121.235 73.0764 120.983 73.0764C120.866 73.0764 120.757 73.0628 120.658 73.0382C120.56 73.0108 120.511 72.9835 120.516 72.9562C120.519 72.9343 120.538 72.9234 120.571 72.9234C120.584 72.9234 120.604 72.9261 120.628 72.9316C120.672 72.9453 120.74 72.9507 120.836 72.9507C121.106 72.9507 121.322 72.8769 121.483 72.7267C121.645 72.5791 121.727 72.3796 121.727 72.1337C121.727 71.8495 121.62 71.6118 121.407 71.426C121.194 71.2402 120.92 71.1446 120.593 71.1446C120.519 71.1446 120.467 71.1582 120.437 71.1856C120.409 71.2129 120.396 71.2675 120.396 71.3468V71.4288H120.39Z" fill="#1E5D97"/>
<path d="M124.565 70.907C125.153 70.907 125.636 71.0901 126.013 71.4535C126.39 71.8169 126.579 72.2814 126.579 72.8497C126.579 73.4509 126.39 73.9427 126.011 74.328C125.631 74.7133 125.144 74.9045 124.554 74.9045C123.964 74.9045 123.456 74.7215 123.081 74.3526C122.707 73.9837 122.519 73.5001 122.519 72.9044C122.519 72.6448 122.568 72.388 122.666 72.1338C122.764 71.8797 122.898 71.6666 123.065 71.4972C123.243 71.3168 123.464 71.1748 123.737 71.0682C124.008 70.9616 124.284 70.9097 124.568 70.9097L124.565 70.907ZM124.382 71.0928C123.945 71.0928 123.598 71.2403 123.341 71.5327C123.084 71.8251 122.956 72.2213 122.956 72.7186C122.956 73.2869 123.12 73.7678 123.448 74.1586C123.775 74.5493 124.18 74.7433 124.655 74.7433C125.093 74.7433 125.453 74.5848 125.737 74.2652C126.022 73.9482 126.164 73.5438 126.164 73.0574C126.164 72.4973 125.994 72.0273 125.653 71.6529C125.311 71.2786 124.888 71.0901 124.379 71.0901L124.382 71.0928Z" fill="#1E5D97"/>
<path d="M129 72.9017L129.778 74.0494L129.868 74.1832C130.109 74.5357 130.33 74.7188 130.535 74.7325L130.625 74.7379C130.658 74.7379 130.675 74.7543 130.675 74.7789C130.675 74.8062 130.631 74.8336 130.549 74.8554C130.467 74.8773 130.374 74.8909 130.27 74.8909C130.101 74.8909 129.95 74.8445 129.814 74.7516C129.68 74.6587 129.543 74.5057 129.404 74.2953L128.702 73.2242L128.663 73.1613C128.617 73.0848 128.546 73.0466 128.445 73.0466H128.071L128.008 73.0575C127.986 73.0711 127.975 73.1012 127.975 73.1477V74.1423C127.978 74.3035 127.986 74.4155 128.002 74.4756C128.019 74.5357 128.057 74.5877 128.117 74.6341C128.199 74.6997 128.322 74.7379 128.491 74.7571C128.56 74.7653 128.592 74.7844 128.595 74.8199C128.598 74.8554 128.568 74.8746 128.502 74.8746C128.475 74.8746 128.42 74.8691 128.336 74.8609C128.259 74.8527 128.139 74.8472 127.978 74.8472H127.707H127.56C127.497 74.8472 127.417 74.8527 127.327 74.8609C127.254 74.8691 127.204 74.8718 127.174 74.8718C127.128 74.8718 127.103 74.8527 127.103 74.8144C127.103 74.7871 127.128 74.768 127.174 74.7598C127.325 74.7325 127.423 74.6642 127.469 74.5549C127.516 74.4456 127.54 74.2324 127.54 73.9155V71.888L127.535 71.5929C127.535 71.3005 127.434 71.1366 127.229 71.1011L127.095 71.0819C127.035 71.071 127.005 71.0491 127.005 71.0164C127.005 70.9781 127.038 70.959 127.101 70.959C127.114 70.959 127.18 70.9617 127.297 70.9699C127.366 70.9754 127.448 70.9781 127.549 70.9781C127.636 70.9781 127.784 70.9726 127.991 70.959C128.142 70.9508 128.275 70.9453 128.39 70.9453C128.822 70.9453 129.15 71.0273 129.368 71.1885C129.587 71.3497 129.699 71.5929 129.699 71.9153C129.699 72.3389 129.467 72.6667 129.002 72.8963L129 72.9017ZM128.172 72.8389H128.491C128.737 72.8389 128.931 72.7706 129.073 72.634C129.215 72.4973 129.286 72.3115 129.286 72.0765C129.286 71.8033 129.191 71.5792 129 71.4016C128.808 71.224 128.562 71.1366 128.265 71.1366C128.153 71.1366 128.076 71.1557 128.035 71.1912C127.991 71.2268 127.972 71.2951 127.972 71.3907V71.4836V72.6312C127.972 72.7187 127.983 72.776 128.008 72.8006C128.032 72.8252 128.087 72.8362 128.174 72.8362L128.172 72.8389Z" fill="#1E5D97"/>
<path d="M133.331 71.2782H132.538C132.456 71.2782 132.404 71.2891 132.383 71.311C132.361 71.3329 132.35 71.3902 132.35 71.4777V74.3549C132.361 74.5763 132.486 74.7074 132.721 74.7484C132.787 74.7593 132.82 74.7812 132.82 74.8113C132.82 74.8522 132.792 74.8714 132.741 74.8714C132.719 74.8714 132.672 74.8659 132.601 74.855C132.566 74.8495 132.481 74.8468 132.347 74.8468H132.142H131.921C131.842 74.8468 131.776 74.8468 131.721 74.855C131.615 74.8659 131.552 74.8714 131.533 74.8714C131.475 74.8714 131.448 74.8522 131.448 74.8113C131.448 74.7812 131.478 74.7621 131.541 74.7566C131.686 74.7375 131.784 74.6965 131.833 74.6364C131.885 74.5763 131.91 74.467 131.91 74.3085V71.4367C131.91 71.3684 131.896 71.3247 131.877 71.3055C131.858 71.2864 131.811 71.2782 131.74 71.2782H130.994C130.841 71.2782 130.732 71.3083 130.664 71.3711C130.596 71.4312 130.541 71.546 130.505 71.7154C130.489 71.7892 130.462 71.8247 130.429 71.822C130.396 71.822 130.377 71.7946 130.377 71.7455C130.377 71.7072 130.388 71.6334 130.41 71.5296C130.437 71.3957 130.453 71.2837 130.453 71.1962C130.453 71.1088 130.464 71.0541 130.484 71.0268C130.503 70.9995 130.546 70.9858 130.609 70.9858H133.645C133.749 70.9858 133.812 70.9968 133.833 71.0186C133.855 71.0405 133.866 71.1088 133.866 71.2181C133.866 71.3274 133.872 71.4094 133.88 71.4585C133.888 71.5214 133.894 71.5678 133.896 71.5952C133.896 71.6525 133.877 71.6826 133.836 71.6853C133.803 71.6853 133.779 71.658 133.768 71.5979C133.743 71.464 133.705 71.3766 133.65 71.3356C133.596 71.2946 133.489 71.2755 133.331 71.2755V71.2782Z" fill="#1E5D97"/>
</g>
<defs>
<clipPath id="clip0_1844_7033">
<rect width="133.895" height="75" fill="white"/>
</clipPath>
</defs>
</svg>
