<svg width="193" height="107" viewBox="0 0 193 107" fill="none" xmlns="http://www.w3.org/2000/svg">
<path opacity="0.5" fill-rule="evenodd" clip-rule="evenodd" d="M152.645 101.411C110.645 103.112 53.4314 81.6847 24.8523 53.5469C-2.19583 26.921 6.12136 3.83927 42.7005 0C42.5395 0.00460896 42.3786 0.00460896 42.2177 0.00921793C-1.84181 1.7975 -13.2532 27.1744 16.7282 56.6903C46.7096 86.2061 106.732 108.689 150.796 106.9C179.964 105.716 194.81 94.1934 192.824 77.9744C191.886 91.2298 177.904 100.388 152.649 101.411H152.645Z" fill="#F7942C"/>
<path opacity="0.5" fill-rule="evenodd" clip-rule="evenodd" d="M164.981 70.1347C135.821 71.3109 96.0975 56.4922 76.255 37.0325C57.4754 18.6182 63.2501 2.65519 88.6469 0C88.5352 0.00318751 88.4235 0.00318751 88.3118 0.00637501C57.7212 1.24313 49.7983 18.7935 70.6144 39.2063C91.4305 59.6191 133.104 75.1678 163.698 73.931C183.949 73.1119 194.257 65.1431 192.878 53.9262C192.226 63.0935 182.519 69.4271 164.984 70.1347H164.981Z" fill="#F7942C"/>
</svg>
